<svg id="SvgjsSvg1082" xmlns="http://www.w3.org/2000/svg" version="1.1" xmlns:xlink="http://www.w3.org/1999/xlink" xmlns:svgjs="http://svgjs.com/svgjs" width="52" height="50" viewBox="0 0 52 50"><title>Forma 1</title><desc>Created with Avocode.</desc><defs id="SvgjsDefs1083"></defs><path id="SvgjsPath1084" d="M799.138 2141L798.249 2141.06C785.212 2141.95 774.999 2152.9 774.999 2166C774.999 2172.03 777.181 2177.86 781.142 2182.41L781.7280000000001 2183.0899999999997L799.138 2165.6499999999996ZM797.474 2164.96L781.8240000000001 2180.63C778.4900000000001 2176.4900000000002 776.6640000000001 2171.33 776.6640000000001 2166C776.6640000000001 2154.08 785.7340000000002 2144.06 797.474 2142.8ZM824.877 2164.27C824.034 2151.89 814.067 2141.9 801.692 2141.06L800.803 2141L800.803 2165.16L824.938 2165.16ZM802.468 2163.5L802.468 2142.8C804.5279999999999 2143.02 806.5079999999999 2143.52 808.376 2144.2400000000002C808.372 2144.2700000000004 808.3589999999999 2144.3 808.3589999999999 2144.3300000000004C808.3589999999999 2144.7900000000004 808.732 2145.1600000000003 809.1909999999999 2145.1600000000003C809.4419999999999 2145.1600000000003 809.6589999999999 2145.05 809.8119999999999 2144.8700000000003C813.9219999999999 2146.8 817.3779999999999 2149.9000000000005 819.7609999999999 2153.7400000000002C819.6109999999999 2153.59 819.4059999999998 2153.5000000000005 819.1799999999998 2153.5000000000005C818.7209999999999 2153.5000000000005 818.3479999999998 2153.8700000000003 818.3479999999998 2154.3300000000004C818.3479999999998 2154.7900000000004 818.7209999999999 2155.1600000000003 819.1799999999998 2155.1600000000003C819.6389999999998 2155.1600000000003 820.0119999999998 2154.7900000000004 820.0119999999998 2154.3300000000004C820.0119999999998 2154.2200000000003 819.9879999999998 2154.1200000000003 819.9519999999999 2154.03C820.3779999999999 2154.7400000000002 820.7579999999999 2155.4700000000003 821.1089999999999 2156.23C820.948 2156.38 820.8449999999999 2156.59 820.8449999999999 2156.83C820.8449999999999 2157.29 821.218 2157.66 821.6769999999999 2157.66C821.6949999999999 2157.66 821.7099999999999 2157.6499999999996 821.728 2157.6499999999996C822.4399999999999 2159.4999999999995 822.9219999999999 2161.4599999999996 823.14 2163.4999999999995ZM801.068 2166.83L817.797 2183.58L818.384 2182.94C822.2280000000001 2178.77 824.556 2173.36 824.94 2167.7200000000003L825.0010000000001 2166.8300000000004ZM817.737 2181.16L805.087 2168.5L823.201 2168.5C822.702 2173.15 820.7860000000001 2177.59 817.737 2181.16ZM803.364 2144.33C803.364 2144.79 803.736 2145.16 804.196 2145.16C804.6560000000001 2145.16 805.028 2144.79 805.028 2144.33C805.028 2143.87 804.6560000000001 2143.49 804.196 2143.49C803.736 2143.49 803.364 2143.87 803.364 2144.33ZM808.358 2149.33C808.358 2149.79 808.731 2150.16 809.1899999999999 2150.16C809.65 2150.16 810.0229999999999 2149.79 810.0229999999999 2149.33C810.0229999999999 2148.87 809.6499999999999 2148.5 809.1899999999999 2148.5C808.731 2148.5 808.358 2148.87 808.358 2149.33ZM813.352 2159.33C813.352 2159.79 813.725 2160.16 814.185 2160.16C814.645 2160.16 815.0169999999999 2159.79 815.0169999999999 2159.33C815.0169999999999 2158.87 814.645 2158.5 814.185 2158.5C813.7249999999999 2158.5 813.352 2158.87 813.352 2159.33ZM813.352 2149.33C813.352 2149.79 813.725 2150.16 814.185 2150.16C814.645 2150.16 815.0169999999999 2149.79 815.0169999999999 2149.33C815.0169999999999 2148.87 814.645 2148.5 814.185 2148.5C813.7249999999999 2148.5 813.352 2148.87 813.352 2149.33ZM808.358 2154.33C808.358 2154.79 808.731 2155.16 809.1899999999999 2155.16C809.65 2155.16 810.0229999999999 2154.79 810.0229999999999 2154.33C810.0229999999999 2153.87 809.6499999999999 2153.5 809.1899999999999 2153.5C808.731 2153.5 808.358 2153.87 808.358 2154.33ZM813.352 2154.33C813.352 2154.79 813.725 2155.16 814.185 2155.16C814.645 2155.16 815.0169999999999 2154.79 815.0169999999999 2154.33C815.0169999999999 2153.87 814.645 2153.5 814.185 2153.5C813.7249999999999 2153.5 813.352 2153.87 813.352 2154.33ZM808.358 2159.33C808.358 2159.79 808.731 2160.16 809.1899999999999 2160.16C809.65 2160.16 810.0229999999999 2159.79 810.0229999999999 2159.33C810.0229999999999 2158.87 809.6499999999999 2158.5 809.1899999999999 2158.5C808.731 2158.5 808.358 2158.87 808.358 2159.33ZM810.855 2161.83C810.855 2162.29 811.2280000000001 2162.66 811.688 2162.66C812.1469999999999 2162.66 812.52 2162.29 812.52 2161.83C812.52 2161.37 812.1469999999999 2161 811.688 2161C811.228 2161 810.855 2161.37 810.855 2161.83ZM810.855 2156.83C810.855 2157.29 811.2280000000001 2157.66 811.688 2157.66C812.1469999999999 2157.66 812.52 2157.29 812.52 2156.83C812.52 2156.37 812.1469999999999 2156 811.688 2156C811.228 2156 810.855 2156.37 810.855 2156.83ZM810.855 2146.83C810.855 2147.29 811.2280000000001 2147.66 811.688 2147.66C812.1469999999999 2147.66 812.52 2147.29 812.52 2146.83C812.52 2146.37 812.1469999999999 2146 811.688 2146C811.228 2146 810.855 2146.37 810.855 2146.83ZM818.347 2159.33C818.347 2159.79 818.7189999999999 2160.16 819.179 2160.16C819.639 2160.16 820.012 2159.79 820.012 2159.33C820.012 2158.87 819.6389999999999 2158.5 819.179 2158.5C818.7189999999999 2158.5 818.347 2158.87 818.347 2159.33ZM805.861 2151.83C805.861 2152.29 806.234 2152.66 806.693 2152.66C807.153 2152.66 807.526 2152.29 807.526 2151.83C807.526 2151.37 807.1529999999999 2151 806.693 2151C806.234 2151 805.861 2151.37 805.861 2151.83ZM805.861 2146.83C805.861 2147.29 806.234 2147.66 806.693 2147.66C807.153 2147.66 807.526 2147.29 807.526 2146.83C807.526 2146.37 807.1529999999999 2146 806.693 2146C806.234 2146 805.861 2146.37 805.861 2146.83ZM805.861 2156.83C805.861 2157.29 806.234 2157.66 806.693 2157.66C807.153 2157.66 807.526 2157.29 807.526 2156.83C807.526 2156.37 807.1529999999999 2156 806.693 2156C806.234 2156 805.861 2156.37 805.861 2156.83ZM805.861 2161.83C805.861 2162.29 806.234 2162.66 806.693 2162.66C807.153 2162.66 807.526 2162.29 807.526 2161.83C807.526 2161.37 807.1529999999999 2161 806.693 2161C806.234 2161 805.861 2161.37 805.861 2161.83ZM820.844 2161.83C820.844 2162.29 821.2170000000001 2162.66 821.676 2162.66C822.1360000000001 2162.66 822.509 2162.29 822.509 2161.83C822.509 2161.37 822.136 2161 821.676 2161C821.2170000000001 2161 820.844 2161.37 820.844 2161.83ZM810.855 2151.83C810.855 2152.29 811.2280000000001 2152.66 811.688 2152.66C812.1469999999999 2152.66 812.52 2152.29 812.52 2151.83C812.52 2151.37 812.1469999999999 2151 811.688 2151C811.228 2151 810.855 2151.37 810.855 2151.83ZM803.364 2149.33C803.364 2149.79 803.736 2150.16 804.196 2150.16C804.6560000000001 2150.16 805.028 2149.79 805.028 2149.33C805.028 2148.87 804.6560000000001 2148.5 804.196 2148.5C803.736 2148.5 803.364 2148.87 803.364 2149.33ZM815.85 2151.83C815.85 2152.29 816.222 2152.66 816.682 2152.66C817.142 2152.66 817.514 2152.29 817.514 2151.83C817.514 2151.37 817.142 2151 816.682 2151C816.222 2151 815.85 2151.37 815.85 2151.83ZM815.85 2156.83C815.85 2157.29 816.222 2157.66 816.682 2157.66C817.142 2157.66 817.514 2157.29 817.514 2156.83C817.514 2156.37 817.142 2156 816.682 2156C816.222 2156 815.85 2156.37 815.85 2156.83ZM803.364 2154.33C803.364 2154.79 803.736 2155.16 804.196 2155.16C804.6560000000001 2155.16 805.028 2154.79 805.028 2154.33C805.028 2153.87 804.6560000000001 2153.5 804.196 2153.5C803.736 2153.5 803.364 2153.87 803.364 2154.33ZM815.85 2161.83C815.85 2162.29 816.222 2162.66 816.682 2162.66C817.142 2162.66 817.514 2162.29 817.514 2161.83C817.514 2161.37 817.142 2161 816.682 2161C816.222 2161 815.85 2161.37 815.85 2161.83ZM803.364 2159.33C803.364 2159.79 803.736 2160.16 804.196 2160.16C804.6560000000001 2160.16 805.028 2159.79 805.028 2159.33C805.028 2158.87 804.6560000000001 2158.5 804.196 2158.5C803.736 2158.5 803.364 2158.87 803.364 2159.33ZM782.905 2184.26L783.578 2184.8500000000004C788.1229999999999 2188.82 793.946 2191.0000000000005 799.971 2191.0000000000005C805.737 2191.0000000000005 811.364 2188.9800000000005 815.817 2185.3100000000004L816.525 2184.7300000000005L799.483 2167.6600000000003ZM799.483 2170.02L800.399 2170.94L786.409 2184.9500000000003C786.054 2184.69 785.696 2184.44 785.355 2184.17ZM789.332 2186.73C788.819 2186.47 788.318 2186.19 787.825 2185.89L801.577 2172.12L802.754 2173.2999999999997ZM792.644 2188.13C792.066 2187.94 791.496 2187.7200000000003 790.9350000000001 2187.4900000000002L803.931 2174.4700000000003L805.1080000000001 2175.65ZM806.285 2176.83L807.462 2178.0099999999998L796.438 2189.0499999999997C795.776 2188.95 795.12 2188.8199999999997 794.472 2188.66ZM798.568 2189.27L808.639 2179.19L809.816 2180.37L800.9010000000001 2189.2999999999997C800.5910000000001 2189.31 800.282 2189.33 799.9710000000001 2189.33C799.5010000000001 2189.33 799.0350000000001 2189.2999999999997 798.5680000000001 2189.27ZM810.993 2181.55L812.171 2182.73L806.542 2188.36C805.543 2188.6600000000003 804.528 2188.8900000000003 803.496 2189.05ZM810.426 2186.83L813.349 2183.9L814.038 2184.59C812.903 2185.46 811.688 2186.19 810.426 2186.83Z " fill="#000000" fill-opacity="1" transform="matrix(1,0,0,1,-774,-2141)"></path></svg>