<svg id="SvgjsSvg1079" xmlns="http://www.w3.org/2000/svg" version="1.1" xmlns:xlink="http://www.w3.org/1999/xlink" xmlns:svgjs="http://svgjs.com/svgjs" width="67" height="51" viewBox="0 0 67 51"><title>Shape 1</title><desc>Created with Avocode.</desc><defs id="SvgjsDefs1080"></defs><path id="SvgjsPath1081" d="M485.538 2142.96C484.543 2141.14 482.25 2140.46 480.425 2141.46L463.58500000000004 2150.65C462.059 2151.48 460.94800000000004 2152.86 460.45700000000005 2154.53C460.0400000000001 2155.9500000000003 460.11600000000004 2157.4300000000003 460.65900000000005 2158.78L445.33700000000005 2158.78C445.88000000000005 2157.4300000000003 445.9560000000001 2155.9500000000003 445.53900000000004 2154.53C445.04900000000004 2152.86 443.93800000000005 2151.48 442.41200000000003 2150.65L425.571 2141.46C423.747 2140.46 421.454 2141.14 420.459 2142.96C419.464 2144.79 420.139 2147.08 421.962 2148.08L423.828 2149.1C423.351 2149.42 422.941 2149.86 422.64599999999996 2150.4C422.16399999999993 2151.29 422.05499999999995 2152.31 422.33899999999994 2153.27C422.62299999999993 2154.24 423.26599999999996 2155.04 424.1499999999999 2155.52L426.0129999999999 2156.54C425.52699999999993 2156.87 425.12299999999993 2157.31 424.8329999999999 2157.84C424.3509999999999 2158.73 424.2419999999999 2159.75 424.5259999999999 2160.71C424.8099999999999 2161.68 425.4529999999999 2162.48 426.3369999999999 2162.96L431.4179999999999 2165.73L431.4179999999999 2187.53C431.4179999999999 2189.44 432.9729999999999 2191 434.8849999999999 2191L471.11199999999985 2191C473.02399999999983 2191 474.57899999999984 2189.44 474.57899999999984 2187.53L474.57899999999984 2165.73L479.65999999999985 2162.96C480.54399999999987 2162.48 481.18699999999984 2161.68 481.47099999999983 2160.71C481.7549999999998 2159.75 481.64599999999984 2158.73 481.1639999999998 2157.84C480.8739999999998 2157.31 480.4699999999998 2156.8700000000003 479.9839999999998 2156.54L481.8469999999998 2155.52C482.7309999999998 2155.04 483.3739999999998 2154.24 483.6579999999998 2153.27C483.9419999999998 2152.31 483.8329999999998 2151.29 483.3509999999998 2150.4C483.06099999999975 2149.87 482.65699999999975 2149.4300000000003 482.17099999999976 2149.1L484.03499999999974 2148.08C484.9179999999997 2147.6 485.56099999999975 2146.7999999999997 485.84499999999974 2145.83C486.12899999999973 2144.87 486.01999999999975 2143.85 485.5379999999997 2142.96ZM471.112 2188.94L434.88500000000005 2188.94C434.1050000000001 2188.94 433.47300000000007 2188.31 433.47300000000007 2187.53L433.47300000000007 2185.0600000000004L449.9960000000001 2174.8900000000003L452.3010000000001 2177.0200000000004C452.4980000000001 2177.2000000000003 452.7480000000001 2177.2900000000004 452.9980000000001 2177.2900000000004C453.2480000000001 2177.2900000000004 453.4980000000001 2177.2000000000003 453.6950000000001 2177.0200000000004L456.0000000000001 2174.8900000000003L459.5660000000001 2177.0800000000004C459.9720000000001 2177.3300000000004 460.49500000000006 2177.2700000000004 460.8310000000001 2176.9400000000005C461.3010000000001 2176.4700000000007 461.20900000000006 2175.6800000000003 460.6430000000001 2175.3300000000004L457.5690000000001 2173.4400000000005L471.20700000000005 2160.8400000000006C471.94100000000003 2160.890000000001 472.52400000000006 2161.5100000000007 472.52400000000006 2162.2500000000005L472.52400000000006 2182.6500000000005L465.7970000000001 2178.5100000000007C465.3920000000001 2178.2600000000007 464.8690000000001 2178.3200000000006 464.5320000000001 2178.6500000000005C464.0630000000001 2179.1200000000003 464.1550000000001 2179.9100000000008 464.7200000000001 2180.2600000000007L472.52400000000006 2185.060000000001L472.52400000000006 2187.5300000000007C472.52400000000006 2188.310000000001 471.89200000000005 2188.9400000000005 471.1120000000001 2188.9400000000005ZM431.418 2162.25L431.418 2163.39L427.321 2161.15C426.91900000000004 2160.9300000000003 426.627 2160.57 426.49800000000005 2160.13C426.369 2159.69 426.41800000000006 2159.23 426.63700000000006 2158.83C426.8570000000001 2158.43 427.21900000000005 2158.13 427.6580000000001 2158.0099999999998C428.09600000000006 2157.8799999999997 428.5570000000001 2157.93 428.9580000000001 2158.14L428.9600000000001 2158.14L430.30000000000007 2158.89C430.4580000000001 2158.98 430.6290000000001 2159.02 430.79800000000006 2159.02C431.15900000000005 2159.02 431.50900000000007 2158.83 431.69700000000006 2158.49C431.97300000000007 2157.99 431.79400000000004 2157.37 431.2970000000001 2157.0899999999997L429.95200000000006 2156.3399999999997C429.9510000000001 2156.3399999999997 429.95000000000005 2156.3399999999997 429.94900000000007 2156.3399999999997C429.94700000000006 2156.3399999999997 429.9460000000001 2156.3399999999997 429.94500000000005 2156.3399999999997L425.13300000000004 2153.7099999999996C424.732 2153.49 424.44000000000005 2153.1299999999997 424.31000000000006 2152.6899999999996C424.18100000000004 2152.2499999999995 424.23100000000005 2151.7899999999995 424.45000000000005 2151.3899999999994C424.90200000000004 2150.5599999999995 425.9440000000001 2150.2499999999995 426.773 2150.6999999999994L426.774 2150.6999999999994C426.779 2150.7099999999996 426.784 2150.7099999999996 426.789 2150.7099999999996C426.794 2150.72 426.799 2150.72 426.804 2150.72L433.35299999999995 2154.02C433.501 2154.09 433.65899999999993 2154.13 433.81399999999996 2154.13C434.18999999999994 2154.13 434.55299999999994 2153.92 434.73299999999995 2153.56C434.98799999999994 2153.0499999999997 434.78399999999993 2152.43 434.27699999999993 2152.18L427.74299999999994 2148.89L422.94699999999995 2146.27C422.11799999999994 2145.82 421.8109999999999 2144.78 422.2629999999999 2143.95C422.7159999999999 2143.12 423.7579999999999 2142.81 424.58699999999993 2143.27L441.42799999999994 2152.46C442.4719999999999 2153.03 443.2319999999999 2153.9700000000003 443.56699999999995 2155.11C443.90299999999996 2156.25 443.77399999999994 2157.46 443.2049999999999 2158.5L443.05099999999993 2158.78L434.88499999999993 2158.78C432.97299999999996 2158.78 431.41799999999995 2160.34 431.41799999999995 2162.25ZM468.183 2160.84L452.998 2174.86L437.81399999999996 2160.84ZM448.427 2173.44L433.473 2182.65L433.473 2162.25C433.473 2161.51 434.055 2160.89 434.789 2160.84ZM483.873 2145.25C483.74399999999997 2145.69 483.452 2146.05 483.05 2146.27L478.253 2148.89L471.71999999999997 2152.18C471.21299999999997 2152.43 471.008 2153.0499999999997 471.263 2153.56C471.44399999999996 2153.92 471.806 2154.13 472.18199999999996 2154.13C472.33699999999993 2154.13 472.49499999999995 2154.09 472.643 2154.02L479.19199999999995 2150.72C479.1979999999999 2150.72 479.203 2150.72 479.20799999999997 2150.7099999999996C479.21299999999997 2150.7099999999996 479.21799999999996 2150.7099999999996 479.222 2150.7099999999996C480.05199999999996 2150.2499999999995 481.094 2150.5599999999995 481.546 2151.3899999999994C481.765 2151.7899999999995 481.815 2152.2499999999995 481.686 2152.6899999999996C481.55699999999996 2153.1299999999997 481.265 2153.49 480.863 2153.7099999999996L476.055 2156.3399999999997C476.053 2156.3399999999997 476.052 2156.3399999999997 476.051 2156.3399999999997C476.05 2156.3399999999997 476.049 2156.3399999999997 476.04699999999997 2156.3399999999997C476.046 2156.3399999999997 476.04499999999996 2156.3399999999997 476.044 2156.3399999999997L474.69899999999996 2157.0899999999997C474.203 2157.37 474.02399999999994 2157.99 474.29999999999995 2158.49C474.48699999999997 2158.83 474.83799999999997 2159.02 475.19899999999996 2159.02C475.36799999999994 2159.02 475.53899999999993 2158.98 475.69699999999995 2158.89L477.03499999999997 2158.15C477.03499999999997 2158.15 477.03499999999997 2158.15 477.03599999999994 2158.15C477.43699999999995 2157.9300000000003 477.8999999999999 2157.88 478.33899999999994 2158.01C478.77799999999996 2158.13 479.13999999999993 2158.4300000000003 479.3589999999999 2158.8300000000004C479.57899999999995 2159.2300000000005 479.62799999999993 2159.6900000000005 479.4989999999999 2160.1300000000006C479.3699999999999 2160.5700000000006 479.0779999999999 2160.9300000000007 478.67599999999993 2161.1500000000005L474.57899999999995 2163.3900000000003L474.57899999999995 2162.2500000000005C474.57899999999995 2160.3400000000006 473.02399999999994 2158.7800000000007 471.11199999999997 2158.7800000000007L462.94599999999997 2158.7800000000007L462.792 2158.5000000000005C462.22299999999996 2157.4600000000005 462.094 2156.2500000000005 462.429 2155.1100000000006C462.765 2153.9700000000007 463.525 2153.0300000000007 464.56899999999996 2152.4600000000005L481.40999999999997 2143.2700000000004C482.239 2142.8100000000004 483.28099999999995 2143.1200000000003 483.73299999999995 2143.9500000000003C483.95199999999994 2144.3500000000004 484.00199999999995 2144.8100000000004 483.87299999999993 2145.2500000000005Z " fill="#000000" fill-opacity="1" transform="matrix(1,0,0,1,-419,-2140)"></path></svg>