<svg id="SvgjsSvg1085" xmlns="http://www.w3.org/2000/svg" version="1.1" xmlns:xlink="http://www.w3.org/1999/xlink" xmlns:svgjs="http://svgjs.com/svgjs" width="50" height="50" viewBox="0 0 50 50"><title>Shape 1</title><desc>Created with Avocode.</desc><defs id="SvgjsDefs1086"></defs><path id="SvgjsPath1087" d="M1167.77 2154.71L1166.16 2154.71L1166.16 2189.39L1164.5500000000002 2189.39L1164.5500000000002 2154.71L1162.9400000000003 2154.71L1162.9400000000003 2189.39L1161.3200000000004 2189.39L1161.3200000000004 2173.2599999999998L1159.7100000000005 2173.2599999999998L1159.7100000000005 2189.39L1158.1000000000006 2189.39L1158.1000000000006 2173.2599999999998L1156.4800000000007 2173.2599999999998L1156.4800000000007 2189.39L1154.8700000000008 2189.39L1154.8700000000008 2169.23L1153.260000000001 2169.23L1153.260000000001 2189.39L1151.650000000001 2189.39L1151.650000000001 2169.23L1150.030000000001 2169.23L1150.030000000001 2189.39L1148.4200000000012 2189.39L1148.4200000000012 2170.8399999999997L1146.8100000000013 2170.8399999999997L1146.8100000000013 2189.39L1145.1900000000014 2189.39L1145.1900000000014 2170.8399999999997L1143.5800000000015 2170.8399999999997L1143.5800000000015 2189.39L1141.9700000000016 2189.39L1141.9700000000016 2159.5499999999997L1140.3500000000017 2159.5499999999997L1140.3500000000017 2189.39L1138.7400000000018 2189.39L1138.7400000000018 2159.5499999999997L1137.130000000002 2159.5499999999997L1137.130000000002 2189.39L1135.520000000002 2189.39L1135.520000000002 2174.87L1133.9000000000021 2174.87L1133.9000000000021 2189.39L1132.2900000000022 2189.39L1132.2900000000022 2174.87L1130.6800000000023 2174.87L1130.6800000000023 2189.39L1129.0600000000024 2189.39L1129.0600000000024 2171.64L1127.4500000000025 2171.64L1127.4500000000025 2189.39L1125.8400000000026 2189.39L1125.8400000000026 2171.64L1124.2300000000027 2171.64L1124.2300000000027 2189.39L1121.0000000000027 2189.39L1121.0000000000027 2191L1171.0000000000027 2191L1171.0000000000027 2189.39L1167.7700000000027 2189.39ZM1139.55 2157.13C1142.6599999999999 2157.13 1145.19 2154.6 1145.19 2151.48C1145.19 2148.37 1142.66 2145.84 1139.55 2145.84C1136.44 2145.84 1133.8999999999999 2148.3700000000003 1133.8999999999999 2151.48C1133.8999999999999 2154.6 1136.4399999999998 2157.13 1139.55 2157.13ZM1126.65 2169.23C1129.76 2169.23 1132.2900000000002 2166.69 1132.2900000000002 2163.58C1132.2900000000002 2160.47 1129.7600000000002 2157.94 1126.65 2157.94C1123.5300000000002 2157.94 1121 2160.4700000000003 1121 2163.58C1121 2166.69 1123.53 2169.23 1126.65 2169.23ZM1152.45 2166.81C1155.56 2166.81 1158.1000000000001 2164.27 1158.1000000000001 2161.16C1158.1000000000001 2158.0499999999997 1155.5600000000002 2155.52 1152.45 2155.52C1149.3400000000001 2155.52 1146.81 2158.05 1146.81 2161.16C1146.81 2164.27 1149.34 2166.81 1152.45 2166.81ZM1139.55 2147.45C1141.77 2147.45 1143.58 2149.2599999999998 1143.58 2151.48C1143.58 2152.43 1143.24 2153.3 1142.6899999999998 2153.9900000000002C1142.5099999999998 2153.23 1142.07 2152.5800000000004 1141.4699999999998 2152.13C1141.7799999999997 2151.73 1141.9699999999998 2151.23 1141.9699999999998 2150.6800000000003C1141.9699999999998 2149.34 1140.8799999999999 2148.26 1139.5499999999997 2148.26C1138.2099999999998 2148.26 1137.1299999999997 2149.34 1137.1299999999997 2150.6800000000003C1137.1299999999997 2151.2300000000005 1137.3199999999997 2151.7300000000005 1137.6299999999997 2152.13C1137.0299999999997 2152.58 1136.5899999999997 2153.23 1136.4099999999996 2153.9900000000002C1135.8599999999997 2153.3 1135.5199999999995 2152.4300000000003 1135.5199999999995 2151.48C1135.5199999999995 2149.26 1137.3299999999995 2147.45 1139.5499999999995 2147.45ZM1126.65 2159.55C1128.8700000000001 2159.55 1130.68 2161.36 1130.68 2163.5800000000004C1130.68 2164.53 1130.3300000000002 2165.3900000000003 1129.78 2166.0800000000004C1129.61 2165.3300000000004 1129.17 2164.6800000000003 1128.57 2164.2300000000005C1128.87 2163.8200000000006 1129.06 2163.3200000000006 1129.06 2162.7700000000004C1129.06 2161.4400000000005 1127.98 2160.3500000000004 1126.6499999999999 2160.3500000000004C1125.31 2160.3500000000004 1124.2299999999998 2161.4400000000005 1124.2299999999998 2162.7700000000004C1124.2299999999998 2163.3200000000006 1124.4199999999998 2163.8200000000006 1124.7199999999998 2164.2300000000005C1124.12 2164.6800000000003 1123.6799999999998 2165.3300000000004 1123.5099999999998 2166.0800000000004C1122.9599999999998 2165.3900000000003 1122.6099999999997 2164.53 1122.6099999999997 2163.5800000000004C1122.6099999999997 2161.3600000000006 1124.4199999999996 2159.55 1126.6499999999996 2159.55ZM1152.45 2157.13C1154.68 2157.13 1156.48 2158.94 1156.48 2161.1600000000003C1156.48 2162.11 1156.14 2162.9700000000003 1155.59 2163.6600000000003C1155.4099999999999 2162.9100000000003 1154.97 2162.26 1154.37 2161.8100000000004C1154.6799999999998 2161.4000000000005 1154.87 2160.9000000000005 1154.87 2160.3500000000004C1154.87 2159.0200000000004 1153.79 2157.9400000000005 1152.4499999999998 2157.9400000000005C1151.12 2157.9400000000005 1150.0299999999997 2159.0200000000004 1150.0299999999997 2160.3500000000004C1150.0299999999997 2160.9000000000005 1150.2199999999998 2161.4000000000005 1150.5299999999997 2161.8100000000004C1149.9299999999998 2162.26 1149.4899999999998 2162.9100000000003 1149.3099999999997 2163.6600000000003C1148.7599999999998 2162.9700000000003 1148.4199999999996 2162.11 1148.4199999999996 2161.1600000000003C1148.4199999999996 2158.9400000000005 1150.2299999999996 2157.13 1152.4499999999996 2157.13ZM1128.26 2167.27C1127.76 2167.49 1127.22 2167.61 1126.65 2167.61C1126.0700000000002 2167.61 1125.5300000000002 2167.4900000000002 1125.0300000000002 2167.27L1125.0300000000002 2166.81C1125.0300000000002 2165.92 1125.7600000000002 2165.19 1126.65 2165.19C1127.5300000000002 2165.19 1128.26 2165.92 1128.26 2166.81ZM1141.16 2155.17C1140.67 2155.39 1140.1200000000001 2155.52 1139.5500000000002 2155.52C1138.9700000000003 2155.52 1138.4300000000003 2155.39 1137.9400000000003 2155.17L1137.9400000000003 2154.71C1137.9400000000003 2153.82 1138.6600000000003 2153.1 1139.5500000000002 2153.1C1140.4400000000003 2153.1 1141.16 2153.8199999999997 1141.16 2154.71ZM1154.06 2164.85C1153.57 2165.0699999999997 1153.03 2165.19 1152.45 2165.19C1151.88 2165.19 1151.3300000000002 2165.07 1150.8400000000001 2164.85L1150.8400000000001 2164.39C1150.8400000000001 2163.5 1151.5600000000002 2162.77 1152.45 2162.77C1153.3400000000001 2162.77 1154.06 2163.5 1154.06 2164.39ZM1125.84 2162.77C1125.84 2162.33 1126.1999999999998 2161.97 1126.6499999999999 2161.97C1127.09 2161.97 1127.4499999999998 2162.33 1127.4499999999998 2162.77C1127.4499999999998 2163.22 1127.09 2163.58 1126.6499999999999 2163.58C1126.1999999999998 2163.58 1125.84 2163.22 1125.84 2162.77ZM1138.74 2150.68C1138.74 2150.23 1139.1 2149.87 1139.55 2149.87C1139.99 2149.87 1140.35 2150.23 1140.35 2150.68C1140.35 2151.12 1139.99 2151.48 1139.55 2151.48C1139.1 2151.48 1138.74 2151.12 1138.74 2150.68ZM1151.65 2160.35C1151.65 2159.91 1152.01 2159.5499999999997 1152.45 2159.5499999999997C1152.9 2159.5499999999997 1153.26 2159.91 1153.26 2160.35C1153.26 2160.7999999999997 1152.9 2161.16 1152.45 2161.16C1152.01 2161.16 1151.65 2160.7999999999997 1151.65 2160.35ZM1165.35 2152.29C1168.4699999999998 2152.29 1171 2149.7599999999998 1171 2146.65C1171 2143.53 1168.47 2141 1165.35 2141C1162.24 2141 1159.7099999999998 2143.53 1159.7099999999998 2146.65C1159.7099999999998 2149.76 1162.2399999999998 2152.29 1165.35 2152.29ZM1165.35 2142.61C1167.58 2142.61 1169.3899999999999 2144.42 1169.3899999999999 2146.65C1169.3899999999999 2147.6 1169.04 2148.46 1168.4899999999998 2149.15C1168.3199999999997 2148.39 1167.8799999999999 2147.7400000000002 1167.2699999999998 2147.29C1167.5799999999997 2146.89 1167.7699999999998 2146.39 1167.7699999999998 2145.84C1167.7699999999998 2144.5 1166.6899999999998 2143.42 1165.3499999999997 2143.42C1164.0199999999998 2143.42 1162.9399999999996 2144.5 1162.9399999999996 2145.84C1162.9399999999996 2146.3900000000003 1163.1299999999997 2146.8900000000003 1163.4299999999996 2147.29C1162.8299999999997 2147.74 1162.3899999999996 2148.39 1162.2199999999996 2149.15C1161.6699999999996 2148.46 1161.3199999999995 2147.6 1161.3199999999995 2146.65C1161.3199999999995 2144.42 1163.1299999999994 2142.61 1165.3499999999995 2142.61ZM1166.97 2150.34C1166.47 2150.55 1165.93 2150.6800000000003 1165.3500000000001 2150.6800000000003C1164.7800000000002 2150.6800000000003 1164.2400000000002 2150.55 1163.7400000000002 2150.34L1163.7400000000002 2149.8700000000003C1163.7400000000002 2148.9800000000005 1164.4700000000003 2148.26 1165.3500000000001 2148.26C1166.2400000000002 2148.26 1166.97 2148.98 1166.97 2149.8700000000003ZM1164.55 2145.84C1164.55 2145.3900000000003 1164.9099999999999 2145.03 1165.35 2145.03C1165.8 2145.03 1166.1599999999999 2145.3900000000003 1166.1599999999999 2145.84C1166.1599999999999 2146.28 1165.8 2146.65 1165.35 2146.65C1164.9099999999999 2146.65 1164.55 2146.28 1164.55 2145.84Z " fill="#000000" fill-opacity="1" transform="matrix(1,0,0,1,-1121,-2141)"></path></svg>