<svg id="SvgjsSvg1070" xmlns="http://www.w3.org/2000/svg" version="1.1" xmlns:xlink="http://www.w3.org/1999/xlink" xmlns:svgjs="http://svgjs.com/svgjs" width="52" height="60" viewBox="0 0 52 60"><title>Shape 1</title><desc>Created with Avocode.</desc><defs id="SvgjsDefs1071"></defs><path id="SvgjsPath1072" d="M477.734 1964.32C477.32 1963.51 476.49699999999996 1963 475.58799999999997 1963L430.465 1963C429.53099999999995 1963 428.68899999999996 1963.52 428.26899999999995 1964.36C427.84599999999995 1965.1899999999998 427.92599999999993 1966.1799999999998 428.47799999999995 1966.9399999999998L446.83299999999997 1992.1599999999999L446.83299999999997 2020.56C446.83299999999997 2021.55 447.419 2022.4299999999998 448.32899999999995 2022.81C448.631 2022.94 448.94599999999997 2023 449.25899999999996 2023C449.888 2023 450.506 2022.75 450.96899999999994 2022.29L458.2219999999999 2014.99C459.01199999999994 2014.19 459.44699999999995 2013.14 459.44699999999995 2012.01L459.44699999999995 1992.05L477.5419999999999 1966.85C478.0739999999999 1966.11 478.14899999999994 1965.1399999999999 477.7339999999999 1964.32ZM433.784 1971.06L472.219 1971.06L458.039 1990.81L448.157 1990.81ZM456.904 2013.66L449.65 2020.96C449.491 2021.1200000000001 449.251 2021.17 449.04299999999995 2021.08C448.83299999999997 2020.99 448.69699999999995 2020.79 448.69699999999995 2020.56L448.69699999999995 1992.6799999999998L457.58299999999997 1992.6799999999998L457.58299999999997 2012.0099999999998C457.58299999999997 2012.6299999999997 457.33599999999996 2013.2299999999998 456.904 2013.6599999999999ZM476.031 1965.75L473.565 1969.18L432.42 1969.18L429.982 1965.8300000000002C429.84700000000004 1965.65 429.82800000000003 1965.41 429.932 1965.2C430.03200000000004 1965 430.24100000000004 1964.88 430.46500000000003 1964.88L475.588 1964.88C475.79400000000004 1964.88 475.981 1964.99 476.07500000000005 1965.17C476.16800000000006 1965.3600000000001 476.15200000000004 1965.5800000000002 476.03100000000006 1965.75Z " fill="#000000" fill-opacity="1" transform="matrix(1,0,0,1,-427,-1963)"></path></svg>