<svg id="SvgjsSvg1076" xmlns="http://www.w3.org/2000/svg" version="1.1" xmlns:xlink="http://www.w3.org/1999/xlink" xmlns:svgjs="http://svgjs.com/svgjs" width="72" height="50" viewBox="0 0 72 50"><title>Shape 1</title><desc>Created with Avocode.</desc><defs id="SvgjsDefs1077"></defs><path id="SvgjsPath1078" d="M1180.32 1999.25C1179.82 1998.25 1169.29 1980.8 1169.02 1980.37C1167.05 1977.1599999999999 1163.6399999999999 1975.25 1159.9 1975.25C1159.3600000000001 1975.25 1158.8400000000001 1975.29 1158.3200000000002 1975.36C1157.41 1973.8799999999999 1155.8400000000001 1973 1154.1200000000001 1973C1151.4 1973 1149.19 1975.22 1149.19 1977.96L1149.19 1986.6200000000001L1142.81 1986.6200000000001L1142.81 1977.96C1142.81 1975.22 1140.6 1973 1137.8799999999999 1973C1136.1599999999999 1973 1134.59 1973.88 1133.6799999999998 1975.36C1133.1599999999999 1975.29 1132.6399999999999 1975.25 1132.1 1975.25C1128.36 1975.25 1124.9499999999998 1977.16 1122.98 1980.37C1122.95 1980.4099999999999 1122.8700000000001 1980.55 1120.89 1983.8899999999999C1120.5500000000002 1984.4599999999998 1120.73 1985.1999999999998 1121.3100000000002 1985.55C1121.88 1985.8899999999999 1122.6200000000001 1985.7 1122.9600000000003 1985.1299999999999C1124.5900000000004 1982.3799999999999 1124.9900000000002 1981.7099999999998 1125.0300000000002 1981.6399999999999C1126.5600000000002 1979.1499999999999 1129.2000000000003 1977.6699999999998 1132.1000000000001 1977.6699999999998C1136.68 1977.6699999999998 1140.4 1981.4099999999999 1140.4 1985.9999999999998L1140.4 1997.9299999999998C1137.52 1993.1999999999998 1132.3200000000002 1990.0399999999997 1126.41 1990.0399999999997C1123.74 1990.0399999999997 1121.21 1990.6899999999998 1118.98 1991.8299999999997C1119.55 1990.8599999999997 1120.16 1989.8399999999997 1120.77 1988.8199999999997C1121.11 1988.2499999999998 1120.92 1987.4999999999998 1120.35 1987.1599999999996C1119.78 1986.8199999999997 1119.04 1986.9999999999995 1118.6999999999998 1987.5799999999997C1116.1399999999999 1991.8899999999996 1112.11 1998.3599999999997 1111.6 1999.4299999999996C1110.57 2001.5799999999997 1110 2003.9799999999996 1110 2006.5199999999995C1110 2015.6099999999994 1117.36 2022.9999999999995 1126.41 2022.9999999999995C1135.45 2022.9999999999995 1142.8100000000002 2015.6099999999994 1142.8100000000002 2006.5199999999995L1142.8100000000002 2003.2999999999995L1149.1900000000003 2003.2999999999995L1149.1900000000003 2006.5199999999995C1149.1900000000003 2015.6099999999994 1156.5500000000002 2022.9999999999995 1165.5900000000004 2022.9999999999995C1174.6400000000003 2022.9999999999995 1182.0000000000005 2015.6099999999994 1182.0000000000005 2006.5199999999995C1182.0000000000005 2003.9099999999996 1181.3900000000006 2001.4499999999996 1180.3200000000004 1999.2499999999995ZM1126.41 2020.58C1118.69 2020.58 1112.41 2014.27 1112.41 2006.52C1112.41 1998.77 1118.69 1992.46 1126.41 1992.46C1134.13 1992.46 1140.4 1998.77 1140.4 2006.52C1140.4 2014.27 1134.13 2020.58 1126.41 2020.58ZM1165.59 2020.58C1157.87 2020.58 1151.6 2014.27 1151.6 2006.52C1151.6 1998.77 1157.87 1992.46 1165.59 1992.46C1173.31 1992.46 1179.59 1998.77 1179.59 2006.52C1179.59 2014.27 1173.31 2020.58 1165.59 2020.58ZM1176.16 2002.71C1175.93 2002.08 1175.24 2001.75 1174.6200000000001 2001.98C1173.99 2002.2 1173.66 2002.9 1173.89 2003.53C1174.23 2004.48 1174.41 2005.49 1174.41 2006.52C1174.41 2011.4 1170.45 2015.37 1165.5900000000001 2015.37C1160.7300000000002 2015.37 1156.7800000000002 2011.3999999999999 1156.7800000000002 2006.52C1156.7800000000002 2001.6399999999999 1160.7300000000002 1997.67 1165.5900000000001 1997.67C1168.0300000000002 1997.67 1170.38 1998.7 1172.0500000000002 2000.49C1172.5000000000002 2000.98 1173.2600000000002 2001.01 1173.7500000000002 2000.55C1174.2400000000002 2000.1 1174.2600000000002 1999.33 1173.8100000000002 1998.84C1171.6900000000003 1996.56 1168.7000000000003 1995.25 1165.5900000000001 1995.25C1159.4 1995.25 1154.3700000000001 2000.3 1154.3700000000001 2006.52C1154.3700000000001 2012.74 1159.4 2017.79 1165.5900000000001 2017.79C1171.7800000000002 2017.79 1176.8200000000002 2012.74 1176.8200000000002 2006.52C1176.8200000000002 2005.21 1176.5900000000001 2003.93 1176.16 2002.71ZM1159.9 1977.67C1162.8000000000002 1977.67 1165.44 1979.15 1166.97 1981.64C1167.1100000000001 1981.8700000000001 1170.1200000000001 1986.95 1173.02 1991.8300000000002C1170.79 1990.69 1168.26 1990.0400000000002 1165.59 1990.0400000000002C1159.6799999999998 1990.0400000000002 1154.48 1993.2000000000003 1151.6 1997.9300000000003L1151.6 1986.0000000000002C1151.6 1981.4100000000003 1155.32 1977.6700000000003 1159.8999999999999 1977.6700000000003ZM1142.81 1989.04L1149.19 1989.04L1149.19 1996.24L1142.81 1996.24ZM1136.2 1976.06C1136.66 1975.6499999999999 1137.25 1975.4199999999998 1137.88 1975.4199999999998C1139.2700000000002 1975.4199999999998 1140.4 1976.56 1140.4 1977.9599999999998L1140.4 1979.2099999999998C1139.2900000000002 1977.84 1137.8500000000001 1976.7499999999998 1136.2 1976.0599999999997ZM1151.6 1977.96C1151.6 1976.56 1152.73 1975.42 1154.12 1975.42C1154.75 1975.42 1155.35 1975.66 1155.8 1976.0600000000002C1154.1499999999999 1976.7500000000002 1152.71 1977.8400000000001 1151.6 1979.2100000000003ZM1149.19 2000.88L1142.81 2000.88L1142.81 1998.66L1149.19 1998.66ZM1126.41 1995.25C1120.22 1995.25 1115.18 2000.3 1115.18 2006.52C1115.18 2012.74 1120.22 2017.79 1126.41 2017.79C1132.6000000000001 2017.79 1137.63 2012.74 1137.63 2006.52C1137.63 2000.3 1132.6000000000001 1995.25 1126.41 1995.25ZM1126.41 2015.37C1121.5500000000002 2015.37 1117.5900000000001 2011.3999999999999 1117.5900000000001 2006.52C1117.5900000000001 2001.6399999999999 1121.5500000000002 1997.67 1126.41 1997.67C1131.27 1997.67 1135.22 2001.64 1135.22 2006.52C1135.22 2011.4 1131.27 2015.37 1126.41 2015.37Z " fill="#000000" fill-opacity="1" transform="matrix(1,0,0,1,-1110,-1973)"></path></svg>