<svg id="SvgjsSvg1073" xmlns="http://www.w3.org/2000/svg" version="1.1" xmlns:xlink="http://www.w3.org/1999/xlink" xmlns:svgjs="http://svgjs.com/svgjs" width="70" height="51" viewBox="0 0 70 51"><title>Shape 1</title><desc>Created with Avocode.</desc><defs id="SvgjsDefs1074"></defs><path id="SvgjsPath1075" d="M830.397 1988.16L806.1260000000001 1988.16C805.046 1984.4 802.926 1980.98 799.9560000000001 1978.3300000000002C795.4550000000002 1974.3100000000002 789.6420000000002 1972.4600000000003 783.5850000000002 1973.13C773.8710000000001 1974.2 766.1030000000002 1982.0300000000002 765.1130000000002 1991.73C764.5730000000002 1997.03 766.0250000000002 2002.26 769.2020000000002 2006.48C772.2470000000002 2010.51 776.6160000000002 2013.31 781.5340000000002 2014.3600000000001L786.7080000000002 2019.5200000000002C787.1420000000002 2019.9600000000003 787.7190000000002 2020.1900000000003 788.3070000000002 2020.1900000000003C788.5990000000003 2020.1900000000003 788.8950000000002 2020.1300000000003 789.1760000000003 2020.0100000000002C790.0260000000003 2019.6600000000003 790.5750000000003 2018.8400000000001 790.5750000000003 2017.9300000000003L790.5750000000003 2014.3100000000004C791.4250000000003 2014.1200000000003 792.2540000000002 2013.8800000000003 793.0590000000003 2013.6000000000004L793.0590000000003 2013.7400000000005C793.0590000000003 2016.2700000000004 795.1240000000004 2018.3300000000004 797.6620000000003 2018.3300000000004L805.3920000000003 2018.3300000000004L809.5100000000003 2022.4400000000003C809.8780000000004 2022.8000000000002 810.3670000000003 2023.0000000000002 810.8650000000004 2023.0000000000002C811.1130000000004 2023.0000000000002 811.3630000000004 2022.9500000000003 811.6020000000003 2022.8500000000001C812.3220000000003 2022.5600000000002 812.7870000000003 2021.8600000000001 812.7870000000003 2021.0800000000002L812.7870000000003 2018.3300000000002L830.3970000000003 2018.3300000000002C832.9350000000003 2018.3300000000002 835.0000000000002 2016.2700000000002 835.0000000000002 2013.7400000000002L835.0000000000002 1992.7500000000002C835.0000000000002 1990.2100000000003 832.9350000000002 1988.1600000000003 830.3970000000003 1988.1600000000003ZM789.286 2012.34C788.7629999999999 2012.4299999999998 788.3829999999999 2012.8899999999999 788.3829999999999 2013.4199999999998L788.3829999999999 2017.9299999999998C788.3829999999999 2017.9499999999998 788.3829999999999 2017.9699999999998 788.338 2017.9899999999998C788.2919999999999 2018.0099999999998 788.2769999999999 2017.9999999999998 788.2579999999999 2017.9799999999998L782.852 2012.5899999999997C782.699 2012.4299999999996 782.504 2012.3299999999997 782.2909999999999 2012.2899999999997C777.7679999999999 2011.3899999999996 773.742 2008.8599999999997 770.954 2005.1599999999996C768.1089999999999 2001.3899999999996 766.809 1996.6999999999996 767.294 1991.9499999999996C767.72 1987.7699999999995 769.62 1983.7899999999995 772.6419999999999 1980.7399999999996C775.664 1977.6999999999996 779.636 1975.7699999999995 783.8259999999999 1975.3099999999995C784.555 1975.2199999999996 785.2789999999999 1975.1799999999994 785.997 1975.1799999999994C790.631 1975.1799999999994 795.005 1976.8399999999995 798.4939999999999 1979.9599999999994C802.4699999999999 1983.5099999999993 804.7499999999999 1988.5999999999995 804.7499999999999 1993.9199999999994C804.7499999999999 2002.9999999999993 798.2469999999998 2010.7499999999993 789.2859999999998 2012.3399999999995ZM830.397 2016.14L811.691 2016.14C811.086 2016.14 810.595 2016.63 810.595 2017.24L810.595 2020.43L806.621 2016.46C806.415 2016.26 806.137 2016.14 805.846 2016.14L797.662 2016.14C796.3330000000001 2016.14 795.2510000000001 2015.0600000000002 795.2510000000001 2013.74L795.2510000000001 2012.67C802.267 2009.23 806.9420000000001 2002.0500000000002 806.9420000000001 1993.92C806.9420000000001 1992.71 806.8350000000002 1991.52 806.6300000000001 1990.3400000000001L830.3970000000002 1990.3400000000001C831.7260000000001 1990.3400000000001 832.8080000000001 1991.42 832.8080000000001 1992.7500000000002L832.8080000000001 2013.7400000000002C832.8080000000001 2015.0600000000002 831.7260000000001 2016.1400000000003 830.3970000000002 2016.1400000000003ZM826.495 1996.64C826.067 1996.21 825.373 1996.21 824.945 1996.64L814.029 2007.5300000000002L808.961 2002.4700000000003C808.533 2002.0500000000002 807.839 2002.0500000000002 807.412 2002.4700000000003C806.984 2002.9000000000003 806.984 2003.5900000000001 807.412 2004.0200000000002L813.254 2009.8500000000001C813.4680000000001 2010.0600000000002 813.749 2010.17 814.029 2010.17C814.31 2010.17 814.59 2010.0600000000002 814.804 2009.8500000000001L826.495 1998.18C826.923 1997.76 826.923 1997.0700000000002 826.495 1996.64ZM785.972 2002.15L785.971 2002.15C785.366 2002.15 784.874 2002.64 784.874 2003.25C784.874 2003.85 785.366 2004.34 785.971 2004.34L785.972 2004.34C786.578 2004.34 787.069 2003.85 787.069 2003.25C787.069 2002.64 786.578 2002.15 785.972 2002.15ZM790.854 1985.55C789.5260000000001 1984.22 787.792 1983.5 785.971 1983.5C782.144 1983.5 779.03 1986.6 779.03 1990.42C779.03 1991.02 779.521 1991.51 780.126 1991.51C780.731 1991.51 781.222 1991.02 781.222 1990.42C781.222 1987.8100000000002 783.353 1985.68 785.971 1985.68C787.207 1985.68 788.391 1986.18 789.304 1987.1000000000001C790.218 1988.0100000000002 790.721 1989.19 790.721 1990.42C790.721 1992.5 789.33 1994.3600000000001 787.338 1994.96C785.865 1995.4 784.876 1996.72 784.876 1998.23L784.876 1998.58C784.876 1999.1899999999998 785.366 1999.6799999999998 785.972 1999.6799999999998C786.577 1999.6799999999998 787.068 1999.1899999999998 787.068 1998.58L787.068 1998.23C787.068 1997.69 787.43 1997.21 787.968 1997.05C790.88 1996.18 792.913 1993.45 792.913 1990.4199999999998C792.913 1988.6 792.182 1986.87 790.854 1985.55Z " fill="#000000" fill-opacity="1" transform="matrix(1,0,0,1,-765,-1972)"></path></svg>