<svg id="SvgjsSvg1088" xmlns="http://www.w3.org/2000/svg" version="1.1" xmlns:xlink="http://www.w3.org/1999/xlink" xmlns:svgjs="http://svgjs.com/svgjs" width="222" height="222" viewBox="0 0 222 222"><title>Эллипс 1 копия 16</title><desc>Created with Avocode.</desc><defs id="SvgjsDefs1089"><filter id="SvgjsFilter1091" width="200%" height="200%" x="-50%" y="-50%"><feMorphology id="SvgjsFeMorphology1092" operator="dilate" radius="0" result="SvgjsFeMorphology1092Out" in="SourceGraphic"></feMorphology><feOffset id="SvgjsFeOffset1093" dx="0" dy="6" result="SvgjsFeOffset1093Out" in="SvgjsFeMorphology1092Out"></feOffset><feGaussianBlur id="SvgjsFeGaussianBlur1094" stdDeviation="23 " result="SvgjsFeGaussianBlur1094Out" in="SvgjsFeOffset1093Out"></feGaussianBlur><feComposite id="SvgjsFeComposite1095" in="SvgjsFeGaussianBlur1094Out" in2="SourceAlpha" operator="out" result="SvgjsFeComposite1095Out"></feComposite></filter><linearGradient id="SvgjsLinearGradient1097" gradientUnits="userSpaceOnUse" x1="499" y1="3298" x2="499" y2="3428"><stop id="SvgjsStop1098" stop-opacity="1" stop-color="#0600ff" offset="0"></stop><stop id="SvgjsStop1099" stop-opacity="1" stop-color="#19068d" offset="1"></stop></linearGradient></defs><path id="SvgjsPath1090" d="M499 3298C534.898 3298 564 3327.1 564 3363C564 3398.9 534.898 3428 499 3428C463.101 3428 434 3398.9 434 3363C434 3327.1 463.101 3298 499 3298Z " fill="#0600fe" fill-opacity="0.48" filter="url(#SvgjsFilter1091)" transform="matrix(1,0,0,1,-388,-3258)"></path><path id="SvgjsPath1096" d="M499 3298C534.898 3298 564 3327.1 564 3363C564 3398.9 534.898 3428 499 3428C463.101 3428 434 3398.9 434 3363C434 3327.1 463.101 3298 499 3298Z " fill="url(#SvgjsLinearGradient1097)" transform="matrix(1,0,0,1,-388,-3258)"></path></svg>