<svg id="SvgjsSvg1118" xmlns="http://www.w3.org/2000/svg" version="1.1" xmlns:xlink="http://www.w3.org/1999/xlink" xmlns:svgjs="http://svgjs.com/svgjs" width="182" height="182" viewBox="0 0 182 182"><title>Эллипс 1 копия 3</title><desc>Created with Avocode.</desc><defs id="SvgjsDefs1119"><filter id="SvgjsFilter1121" width="200%" height="200%" x="-50%" y="-50%"><feMorphology id="SvgjsFeMorphology1122" operator="dilate" radius="0" result="SvgjsFeMorphology1122Out" in="SourceGraphic"></feMorphology><feOffset id="SvgjsFeOffset1123" dx="0" dy="6" result="SvgjsFeOffset1123Out" in="SvgjsFeMorphology1122Out"></feOffset><feGaussianBlur id="SvgjsFeGaussianBlur1124" stdDeviation="23 " result="SvgjsFeGaussianBlur1124Out" in="SvgjsFeOffset1123Out"></feGaussianBlur><feComposite id="SvgjsFeComposite1125" in="SvgjsFeGaussianBlur1124Out" in2="SourceAlpha" operator="out" result="SvgjsFeComposite1125Out"></feComposite></filter><linearGradient id="SvgjsLinearGradient1127" gradientUnits="userSpaceOnUse" x1="754.9999999999999" y1="495" x2="754.9999999999999" y2="585"><stop id="SvgjsStop1128" stop-opacity="1" stop-color="#0600ff" offset="0"></stop><stop id="SvgjsStop1129" stop-opacity="1" stop-color="#19068d" offset="1"></stop></linearGradient></defs><path id="SvgjsPath1120" d="M755 495C779.853 495 800 515.147 800 540C800 564.853 779.853 585 755 585C730.147 585 710 564.853 710 540C710 515.147 730.147 495 755 495Z " fill="#0600fe" fill-opacity="0.48" filter="url(#SvgjsFilter1121)" transform="matrix(1,0,0,1,-664,-455)"></path><path id="SvgjsPath1126" d="M755 495C779.853 495 800 515.147 800 540C800 564.853 779.853 585 755 585C730.147 585 710 564.853 710 540C710 515.147 730.147 495 755 495Z " fill="url(#SvgjsLinearGradient1127)" transform="matrix(1,0,0,1,-664,-455)"></path><path id="SvgjsPath1130" d="M774.779 546.983C776.736 548.872 778.802 550.649 780.557 552.728C781.333 553.6519999999999 782.067 554.606 782.628 555.678C783.4240000000001 557.202 782.7030000000001 558.879 781.321 558.97L772.725 558.966C770.508 559.148 768.74 558.266 767.253 556.767C766.063 555.5690000000001 764.961 554.2940000000001 763.816 553.057C763.347 552.5500000000001 762.856 552.0740000000001 762.269 551.697C761.096 550.944 760.078 551.175 759.407 552.385C758.724 553.614 758.5690000000001 554.977 758.5020000000001 556.348C758.4100000000001 558.348 757.7980000000001 558.8739999999999 755.7650000000001 558.966C751.4200000000001 559.168 747.296 558.519 743.4660000000001 556.352C740.0880000000001 554.442 737.4690000000002 551.747 735.1900000000002 548.694C730.7520000000002 542.751 727.3530000000002 536.2189999999999 724.2980000000001 529.505C723.6100000000001 527.993 724.1130000000002 527.181 725.8020000000001 527.152C728.6060000000001 527.0980000000001 731.4100000000001 527.1020000000001 734.2170000000001 527.148C735.3570000000001 527.1650000000001 736.1110000000001 527.8100000000001 736.551 528.875C738.0680000000001 532.561 739.9250000000001 536.069 742.255 539.321C742.875 540.186 743.508 541.052 744.409 541.662C745.406 542.336 746.165 542.113 746.634 541.015C746.931 540.319 747.062 539.569 747.129 538.824C747.351 536.26 747.38 533.6999999999999 746.991 531.145C746.751 529.55 745.843 528.519 744.233 528.217C743.411 528.063 743.5329999999999 527.761 743.9309999999999 527.297C744.622 526.4970000000001 745.2719999999999 526 746.5669999999999 526L756.281 526C757.8109999999999 526.299 758.15 526.977 758.3599999999999 528.498L758.3679999999999 539.163C758.3509999999999 539.7520000000001 758.6659999999999 541.499 759.7389999999999 541.888C760.5969999999999 542.166 761.1629999999999 541.4870000000001 761.679 540.9490000000001C764.005 538.509 765.664 535.6260000000001 767.1469999999999 532.6410000000001C767.8059999999999 531.3270000000001 768.371 529.964 768.92 528.6020000000001C769.3259999999999 527.5910000000001 769.9639999999999 527.0930000000001 771.116 527.1150000000001L780.465 527.1240000000001C780.7420000000001 527.1240000000001 781.023 527.1280000000002 781.291 527.1730000000001C782.8670000000001 527.4390000000001 783.298 528.1090000000002 782.812 529.6290000000001C782.045 532.0140000000001 780.554 534.0030000000002 779.095 536.0000000000001C777.5360000000001 538.1320000000001 775.868 540.1920000000001 774.322 542.3360000000001C772.902 544.2950000000001 773.014 545.2820000000002 774.779 546.9830000000002Z " fill="#1a1a1b" fill-opacity="1" transform="matrix(1,0,0,1,-664,-455)"></path></svg>