<svg id="SvgjsSvg1144" xmlns="http://www.w3.org/2000/svg" version="1.1" xmlns:xlink="http://www.w3.org/1999/xlink" xmlns:svgjs="http://svgjs.com/svgjs" width="157" height="157" viewBox="0 0 157 157"><title>Эллипс 1</title><desc>Created with Avocode.</desc><defs id="SvgjsDefs1145"><filter id="SvgjsFilter1147" width="200%" height="200%" x="-50%" y="-50%"><feMorphology id="SvgjsFeMorphology1148" operator="dilate" radius="0" result="SvgjsFeMorphology1148Out" in="SourceGraphic"></feMorphology><feOffset id="SvgjsFeOffset1149" dx="0" dy="6" result="SvgjsFeOffset1149Out" in="SvgjsFeMorphology1148Out"></feOffset><feGaussianBlur id="SvgjsFeGaussianBlur1150" stdDeviation="23 " result="SvgjsFeGaussianBlur1150Out" in="SvgjsFeOffset1149Out"></feGaussianBlur><feComposite id="SvgjsFeComposite1151" in="SvgjsFeGaussianBlur1150Out" in2="SourceAlpha" operator="out" result="SvgjsFeComposite1151Out"></feComposite></filter><linearGradient id="SvgjsLinearGradient1153" gradientUnits="userSpaceOnUse" x1="1077.5" y1="210" x2="1077.5" y2="275"><stop id="SvgjsStop1154" stop-opacity="1" stop-color="#0600ff" offset="0"></stop><stop id="SvgjsStop1155" stop-opacity="1" stop-color="#19068d" offset="1"></stop></linearGradient></defs><path id="SvgjsPath1146" d="M1077.5 210C1095.45 210 1110 224.551 1110 242.5C1110 260.449 1095.45 275 1077.5 275C1059.55 275 1045 260.449 1045 242.5C1045 224.551 1059.55 210 1077.5 210Z " fill="#0600fe" fill-opacity="0.48" filter="url(#SvgjsFilter1147)" transform="matrix(1,0,0,1,-999,-170)"></path><path id="SvgjsPath1152" d="M1077.5 210C1095.45 210 1110 224.551 1110 242.5C1110 260.449 1095.45 275 1077.5 275C1059.55 275 1045 260.449 1045 242.5C1045 224.551 1059.55 210 1077.5 210Z " fill="url(#SvgjsLinearGradient1153)" transform="matrix(1,0,0,1,-999,-170)"></path><path id="SvgjsPath1156" d="M1091.15 246.647C1092.5400000000002 247.96699999999998 1094.01 249.207 1095.26 250.658C1095.81 251.303 1096.34 251.969 1096.74 252.71599999999998C1097.3 253.78099999999998 1096.79 254.951 1095.8 255.016L1089.69 255.012C1088.1100000000001 255.14 1086.8500000000001 254.524 1085.79 253.478C1084.94 252.642 1084.1599999999999 251.752 1083.34 250.887C1083.01 250.534 1082.6599999999999 250.201 1082.24 249.938C1081.41 249.41299999999998 1080.68 249.57299999999998 1080.2 250.41799999999998C1079.72 251.277 1079.6100000000001 252.22699999999998 1079.56 253.18499999999997C1079.5 254.58099999999996 1079.06 254.94799999999998 1077.61 255.01199999999997C1074.52 255.15299999999996 1071.58 254.69999999999996 1068.86 253.18799999999996C1066.4499999999998 251.85499999999996 1064.59 249.97199999999995 1062.9699999999998 247.84199999999996C1059.8099999999997 243.69299999999996 1057.3899999999999 239.13399999999996 1055.2099999999998 234.44699999999995C1054.7199999999998 233.39099999999993 1055.0799999999997 232.82399999999996 1056.2799999999997 232.80399999999995C1058.2799999999997 232.76699999999994 1060.2699999999998 232.76899999999995 1062.2699999999998 232.80099999999996C1063.0799999999997 232.81299999999996 1063.6199999999997 233.26399999999995 1063.9299999999998 234.00599999999997C1065.0099999999998 236.58099999999996 1066.34 239.02899999999997 1067.9999999999998 241.29899999999998C1068.4399999999998 241.90399999999997 1068.8899999999999 242.50799999999998 1069.5299999999997 242.93299999999996C1070.2399999999998 243.40399999999997 1070.7799999999997 243.24799999999996 1071.1099999999997 242.48199999999997C1071.3199999999997 241.99499999999998 1071.4199999999996 241.47299999999998 1071.4599999999996 240.95199999999997C1071.6199999999997 239.16199999999998 1071.6399999999996 237.37499999999997 1071.3699999999997 235.59199999999996C1071.1999999999996 234.47799999999995 1070.5499999999997 233.75699999999995 1069.3999999999996 233.54699999999997C1068.8199999999997 233.43999999999997 1068.9099999999996 233.22899999999996 1069.1899999999996 232.90499999999997C1069.6799999999996 232.34699999999998 1070.1399999999996 231.99999999999997 1071.0599999999995 231.99999999999997L1077.9799999999996 231.99999999999997C1079.0699999999995 232.20799999999997 1079.3099999999995 232.68199999999996 1079.4599999999996 233.74399999999997L1079.4699999999996 241.18899999999996C1079.4499999999996 241.59899999999996 1079.6799999999996 242.81999999999996 1080.4399999999996 243.09199999999996C1081.0499999999995 243.28499999999997 1081.4599999999996 242.81099999999995 1081.8199999999997 242.43499999999995C1083.4799999999998 240.73199999999994 1084.6599999999996 238.71999999999994 1085.7199999999998 236.63499999999993C1086.1799999999998 235.71899999999994 1086.5899999999997 234.76699999999994 1086.9799999999998 233.81599999999995C1087.2699999999998 233.11099999999993 1087.7199999999998 232.76299999999995 1088.5399999999997 232.77899999999994L1095.1999999999998 232.78399999999993C1095.3899999999999 232.78399999999993 1095.59 232.78699999999992 1095.7799999999997 232.81899999999993C1096.9099999999999 233.00399999999993 1097.2099999999998 233.47199999999992 1096.8699999999997 234.53299999999993C1096.3199999999997 236.19899999999993 1095.2599999999998 237.58599999999993 1094.2199999999996 238.97999999999993C1093.1099999999997 240.46899999999994 1091.9199999999996 241.90599999999992 1090.8199999999995 243.40399999999994C1089.8099999999995 244.77099999999993 1089.8899999999994 245.45999999999995 1091.1499999999994 246.64699999999993Z " fill="#1a1a1b" fill-opacity="1" transform="matrix(1,0,0,1,-999,-170)"></path></svg>