<svg id="SvgjsSvg1131" xmlns="http://www.w3.org/2000/svg" version="1.1" xmlns:xlink="http://www.w3.org/1999/xlink" xmlns:svgjs="http://svgjs.com/svgjs" width="197" height="197" viewBox="0 0 197 197"><title>Эллипс 1 копия 5</title><desc>Created with Avocode.</desc><defs id="SvgjsDefs1132"><filter id="SvgjsFilter1134" width="200%" height="200%" x="-50%" y="-50%"><feMorphology id="SvgjsFeMorphology1135" operator="dilate" radius="0" result="SvgjsFeMorphology1135Out" in="SourceGraphic"></feMorphology><feOffset id="SvgjsFeOffset1136" dx="0" dy="6" result="SvgjsFeOffset1136Out" in="SvgjsFeMorphology1135Out"></feOffset><feGaussianBlur id="SvgjsFeGaussianBlur1137" stdDeviation="23 " result="SvgjsFeGaussianBlur1137Out" in="SvgjsFeOffset1136Out"></feGaussianBlur><feComposite id="SvgjsFeComposite1138" in="SvgjsFeGaussianBlur1137Out" in2="SourceAlpha" operator="out" result="SvgjsFeComposite1138Out"></feComposite></filter><linearGradient id="SvgjsLinearGradient1140" gradientUnits="userSpaceOnUse" x1="1315.5" y1="169" x2="1315.5" y2="274"><stop id="SvgjsStop1141" stop-opacity="1" stop-color="#0600ff" offset="0"></stop><stop id="SvgjsStop1142" stop-opacity="1" stop-color="#19068d" offset="1"></stop></linearGradient></defs><path id="SvgjsPath1133" d="M1315.5 169C1344.49 169 1368 192.505 1368 221.5C1368 250.495 1344.49 274 1315.5 274C1286.51 274 1263 250.495 1263 221.5C1263 192.505 1286.51 169 1315.5 169Z " fill="#0600fe" fill-opacity="0.48" filter="url(#SvgjsFilter1134)" transform="matrix(1,0,0,1,-1217,-129)"></path><path id="SvgjsPath1139" d="M1315.5 169C1344.49 169 1368 192.505 1368 221.5C1368 250.495 1344.49 274 1315.5 274C1286.51 274 1263 250.495 1263 221.5C1263 192.505 1286.51 169 1315.5 169Z " fill="url(#SvgjsLinearGradient1140)" transform="matrix(1,0,0,1,-1217,-129)"></path><path id="SvgjsPath1143" d="M1339.25 227.799C1341.57 230.03 1344.02 232.131 1346.1 234.588C1347.02 235.68 1347.8899999999999 236.807 1348.56 238.073C1349.5 239.875 1348.6499999999999 241.857 1347.01 241.964L1336.81 241.96C1334.1799999999998 242.175 1332.08 241.133 1330.32 239.362C1328.8999999999999 237.946 1327.6 236.44 1326.24 234.976C1325.68 234.377 1325.1 233.814 1324.4 233.369C1323.01 232.48 1321.8000000000002 232.752 1321.01 234.181C1320.2 235.63600000000002 1320.01 237.246 1319.93 238.866C1319.8300000000002 241.23000000000002 1319.1000000000001 241.852 1316.69 241.96C1311.53 242.20000000000002 1306.64 241.43200000000002 1302.0900000000001 238.871C1298.0900000000001 236.614 1294.9800000000002 233.428 1292.2800000000002 229.82000000000002C1287.0100000000002 222.79600000000002 1282.9800000000002 215.07800000000003 1279.3500000000001 207.14200000000002C1278.5400000000002 205.354 1279.13 204.39500000000004 1281.14 204.36100000000002C1284.46 204.29700000000003 1287.7900000000002 204.30200000000002 1291.1200000000001 204.35700000000003C1292.47 204.37600000000003 1293.3700000000001 205.14000000000001 1293.89 206.39700000000002C1295.69 210.75500000000002 1297.89 214.90000000000003 1300.66 218.74300000000002C1301.39 219.76600000000002 1302.15 220.78900000000002 1303.21 221.50900000000001C1304.4 222.306 1305.3 222.042 1305.8500000000001 220.745C1306.21 219.923 1306.3600000000001 219.037 1306.44 218.156C1306.7 215.126 1306.74 212.1 1306.28 209.08C1305.99 207.19600000000003 1304.91 205.976 1303 205.62C1302.03 205.437 1302.18 205.08 1302.65 204.53300000000002C1303.47 203.58800000000002 1304.24 203.00000000000003 1305.77 203.00000000000003L1317.3 203.00000000000003C1319.11 203.35300000000004 1319.52 204.15500000000003 1319.77 205.95200000000003L1319.78 218.55700000000002C1319.76 219.25300000000001 1320.1299999999999 221.318 1321.3999999999999 221.77700000000002C1322.4199999999998 222.10600000000002 1323.09 221.30300000000003 1323.6999999999998 220.667C1326.4599999999998 217.784 1328.4299999999998 214.376 1330.1899999999998 210.848C1330.9699999999998 209.29600000000002 1331.6399999999999 207.685 1332.2899999999997 206.07500000000002C1332.7799999999997 204.88000000000002 1333.5299999999997 204.29200000000003 1334.8999999999996 204.318L1345.9899999999996 204.329C1346.3199999999995 204.329 1346.6499999999996 204.332 1346.9699999999996 204.386C1348.8399999999995 204.7 1349.3499999999997 205.492 1348.7799999999995 207.289C1347.8699999999994 210.10899999999998 1346.0999999999995 212.457 1344.3699999999994 214.81799999999998C1342.5199999999995 217.338 1340.5399999999995 219.771 1338.6999999999994 222.30599999999998C1337.0199999999993 224.62199999999999 1337.1499999999994 225.78799999999998 1339.2499999999993 227.79899999999998Z " fill="#1a1a1b" fill-opacity="1" transform="matrix(1,0,0,1,-1217,-129)"></path></svg>