<svg id="SvgjsSvg1172" xmlns="http://www.w3.org/2000/svg" version="1.1" xmlns:xlink="http://www.w3.org/1999/xlink" xmlns:svgjs="http://svgjs.com/svgjs" width="50" height="50" viewBox="0 0 50 50"><title>Эллипс 1 копия 2</title><desc>Created with Avocode.</desc><defs id="SvgjsDefs1173"><linearGradient id="SvgjsLinearGradient1175" gradientUnits="userSpaceOnUse" x1="1062" y1="535" x2="1062" y2="585"><stop id="SvgjsStop1176" stop-opacity="1" stop-color="#0600ff" offset="0"></stop><stop id="SvgjsStop1177" stop-opacity="1" stop-color="#19068d" offset="1"></stop></linearGradient></defs><path id="SvgjsPath1174" d="M1062 535C1075.81 535 1087 546.193 1087 560C1087 573.807 1075.81 585 1062 585C1048.19 585 1037 573.807 1037 560C1037 546.193 1048.19 535 1062 535Z " fill="url(#SvgjsLinearGradient1175)" transform="matrix(1,0,0,1,-1037,-535)"></path><path id="SvgjsPath1178" d="M1072.54 563.445C1073.6 564.476 1074.72 565.445 1075.68 566.5790000000001C1076.1000000000001 567.0830000000001 1076.49 567.6030000000001 1076.8 568.1880000000001C1077.23 569.0190000000001 1076.84 569.9340000000001 1076.09 569.9840000000002L1071.4299999999998 569.9820000000002C1070.2199999999998 570.0800000000002 1069.2699999999998 569.6000000000003 1068.4599999999998 568.7830000000002C1067.8099999999997 568.1290000000002 1067.2199999999998 567.4330000000002 1066.6 566.7580000000003C1066.34 566.4820000000003 1066.07 566.2220000000003 1065.76 566.0170000000003C1065.12 565.6050000000002 1064.57 565.7320000000003 1064.2 566.3910000000003C1063.8300000000002 567.0620000000004 1063.75 567.8050000000003 1063.71 568.5530000000003C1063.66 569.6450000000003 1063.33 569.9310000000004 1062.23 569.9820000000003C1059.8700000000001 570.0920000000003 1057.64 569.7380000000003 1055.56 568.5550000000003C1053.73 567.5140000000002 1052.31 566.0430000000003 1051.07 564.3790000000002C1048.6599999999999 561.1370000000003 1046.82 557.5730000000002 1045.1599999999999 553.9120000000003C1044.79 553.0870000000002 1045.06 552.6430000000003 1045.9799999999998 552.6290000000002C1047.4999999999998 552.5990000000003 1049.0199999999998 552.6010000000002 1050.5399999999997 552.6270000000003C1051.1599999999996 552.6360000000003 1051.5699999999997 552.9880000000003 1051.8099999999997 553.5680000000003C1052.6299999999997 555.5790000000003 1053.6399999999996 557.4930000000003 1054.8999999999996 559.2660000000003C1055.2399999999996 559.7380000000003 1055.5799999999997 560.2100000000003 1056.0699999999997 560.5430000000003C1056.6099999999997 560.9110000000004 1057.0199999999998 560.7890000000003 1057.2799999999997 560.1900000000004C1057.4399999999998 559.8110000000004 1057.5099999999998 559.4010000000004 1057.5399999999997 558.9950000000003C1057.6599999999996 557.5960000000003 1057.6799999999998 556.2000000000004 1057.4699999999998 554.8070000000004C1057.3399999999997 553.9370000000004 1056.85 553.3730000000004 1055.9699999999998 553.2090000000004C1055.5299999999997 553.1250000000005 1055.5899999999997 552.9600000000004 1055.8099999999997 552.7070000000004C1056.1799999999996 552.2720000000005 1056.5399999999997 552.0010000000004 1057.2399999999998 552.0010000000004L1062.5099999999998 552.0010000000004C1063.3399999999997 552.1630000000005 1063.5199999999998 552.5330000000005 1063.6399999999999 553.3630000000004L1063.6399999999999 559.1800000000004C1063.6299999999999 559.5010000000004 1063.8 560.4550000000004 1064.3799999999999 560.6660000000004C1064.85 560.8190000000004 1065.1599999999999 560.4480000000004 1065.4399999999998 560.1540000000005C1066.6999999999998 558.8230000000004 1067.6 557.2510000000004 1068.3999999999999 555.6220000000004C1068.7599999999998 554.9060000000004 1069.07 554.1620000000004 1069.36 553.4190000000004C1069.58 552.8680000000004 1069.9299999999998 552.5970000000004 1070.55 552.6090000000005L1075.6299999999999 552.6130000000005C1075.78 552.6130000000005 1075.9299999999998 552.6150000000005 1076.07 552.6400000000006C1076.9299999999998 552.7850000000005 1077.1599999999999 553.1500000000005 1076.8999999999999 553.9800000000006C1076.4799999999998 555.2810000000006 1075.6699999999998 556.3650000000006 1074.8799999999999 557.4550000000006C1074.04 558.6170000000006 1073.1299999999999 559.7410000000006 1072.29 560.9110000000006C1071.52 561.9790000000006 1071.58 562.5180000000006 1072.54 563.4450000000006Z " fill="#1a1a1b" fill-opacity="1" transform="matrix(1,0,0,1,-1037,-535)"></path></svg>