<svg id="SvgjsSvg1057" xmlns="http://www.w3.org/2000/svg" version="1.1" xmlns:xlink="http://www.w3.org/1999/xlink" xmlns:svgjs="http://svgjs.com/svgjs" width="222" height="222" viewBox="0 0 222 222"><title>Эллипс 1 копия 19</title><desc>Created with Avocode.</desc><defs id="SvgjsDefs1058"><filter id="SvgjsFilter1060" width="200%" height="200%" x="-50%" y="-50%"><feMorphology id="SvgjsFeMorphology1061" operator="dilate" radius="0" result="SvgjsFeMorphology1061Out" in="SourceGraphic"></feMorphology><feOffset id="SvgjsFeOffset1062" dx="0" dy="6" result="SvgjsFeOffset1062Out" in="SvgjsFeMorphology1061Out"></feOffset><feGaussianBlur id="SvgjsFeGaussianBlur1063" stdDeviation="23 " result="SvgjsFeGaussianBlur1063Out" in="SvgjsFeOffset1062Out"></feGaussianBlur><feComposite id="SvgjsFeComposite1064" in="SvgjsFeGaussianBlur1063Out" in2="SourceAlpha" operator="out" result="SvgjsFeComposite1064Out"></feComposite></filter><linearGradient id="SvgjsLinearGradient1066" gradientUnits="userSpaceOnUse" x1="499" y1="1477" x2="499" y2="1607"><stop id="SvgjsStop1067" stop-opacity="1" stop-color="#0600ff" offset="0"></stop><stop id="SvgjsStop1068" stop-opacity="1" stop-color="#19068d" offset="1"></stop></linearGradient></defs><path id="SvgjsPath1059" d="M499 1477C534.898 1477 564 1506.1 564 1542C564 1577.9 534.898 1607 499 1607C463.101 1607 434 1577.9 434 1542C434 1506.1 463.101 1477 499 1477Z " fill="#0600fe" fill-opacity="0.48" filter="url(#SvgjsFilter1060)" transform="matrix(1,0,0,1,-388,-1437)"></path><path id="SvgjsPath1065" d="M499 1477C534.898 1477 564 1506.1 564 1542C564 1577.9 534.898 1607 499 1607C463.101 1607 434 1577.9 434 1542C434 1506.1 463.101 1477 499 1477Z " fill="url(#SvgjsLinearGradient1066)" transform="matrix(1,0,0,1,-388,-1437)"></path><path id="SvgjsPath1069" d="M522.179 1512L492.08 1512C488.32 1512 485.26 1515.04 485.26 1518.77L485.26 1535.42C485.26 1539.15 488.32 1542.19 492.08 1542.19L494.68199999999996 1542.19L494.24399999999997 1548.21C494.20799999999997 1548.7 494.467 1549.17 494.90599999999995 1549.41C495.09499999999997 1549.51 495.30199999999996 1549.5600000000002 495.5079999999999 1549.5600000000002C495.78099999999995 1549.5600000000002 496.05299999999994 1549.4700000000003 496.27899999999994 1549.3000000000002L505.6429999999999 1542.1900000000003L522.1789999999999 1542.1900000000003C525.9399999999998 1542.1900000000003 528.9999999999999 1539.1500000000003 528.9999999999999 1535.4200000000003L528.9999999999999 1518.7700000000002C528.9999999999999 1515.0400000000002 525.9399999999999 1512.0000000000002 522.1789999999999 1512.0000000000002ZM522.179 1539.68L505.214 1539.68C504.935 1539.68 504.665 1539.77 504.443 1539.93L496.976 1545.6000000000001L497.309 1541.0200000000002C497.334 1540.6700000000003 497.213 1540.3300000000002 496.973 1540.0800000000002C496.733 1539.8200000000002 496.396 1539.68 496.04400000000004 1539.68L492.08000000000004 1539.68C489.718 1539.68 487.79600000000005 1537.77 487.79600000000005 1535.42L487.79600000000005 1518.77C487.79600000000005 1516.42 489.7180000000001 1514.52 492.08000000000004 1514.52L522.1790000000001 1514.52C524.5420000000001 1514.52 526.464 1516.42 526.464 1518.77L526.464 1535.42C526.464 1537.77 524.542 1539.68 522.1790000000001 1539.68ZM488.036 1561.75C489.388 1560.23 490.212 1558.24 490.212 1556.06L490.212 1552.24C490.212 1547.51 486.331 1543.66 481.561 1543.66C476.791 1543.66 472.90999999999997 1547.51 472.90999999999997 1552.24L472.90999999999997 1556.06C472.90999999999997 1558.24 473.734 1560.23 475.08599999999996 1561.75C471.51899999999995 1563.2 468.99999999999994 1566.68 468.99999999999994 1570.74C468.99999999999994 1571.44 469.5679999999999 1572 470.2679999999999 1572L492.8539999999999 1572C493.5539999999999 1572 494.1219999999999 1571.44 494.1219999999999 1570.74C494.1219999999999 1566.68 491.6029999999999 1563.2 488.0359999999999 1561.75ZM475.445 1552.24C475.445 1548.89 478.189 1546.17 481.561 1546.17C484.933 1546.17 487.676 1548.89 487.676 1552.24L487.676 1556.06C487.676 1559.4099999999999 484.933 1562.1299999999999 481.561 1562.1299999999999C478.18899999999996 1562.1299999999999 475.445 1559.4099999999999 475.445 1556.06ZM471.647 1569.48C472.174 1566.52 474.533 1564.18 477.51599999999996 1563.65C478.724 1564.2900000000002 480.09999999999997 1564.65 481.561 1564.65C483.022 1564.65 484.39799999999997 1564.2800000000002 485.606 1563.65C488.59 1564.18 490.948 1566.52 491.476 1569.48ZM499.523 1527.66C497.42600000000004 1527.66 495.71900000000005 1529.3600000000001 495.71900000000005 1531.44L495.71900000000005 1532.7C495.71900000000005 1534.78 497.42600000000004 1536.47 499.523 1536.47C501.62 1536.47 503.326 1534.78 503.326 1532.7L503.326 1531.44C503.327 1529.3600000000001 501.62 1527.66 499.523 1527.66ZM509.666 1527.66C507.568 1527.66 505.862 1529.3600000000001 505.862 1531.44L505.862 1532.7C505.862 1534.78 507.56800000000004 1536.47 509.666 1536.47C511.763 1536.47 513.469 1534.78 513.469 1532.7L513.469 1531.44C513.469 1529.3600000000001 511.76300000000003 1527.66 509.66600000000005 1527.66ZM498.255 1521.79L498.255 1520.54C498.255 1518.45 496.549 1516.76 494.452 1516.76C492.354 1516.76 490.648 1518.45 490.648 1520.54L490.648 1521.79C490.648 1523.87 492.35400000000004 1525.57 494.452 1525.57C496.549 1525.57 498.255 1523.87 498.255 1521.79ZM519.808 1516.76C517.711 1516.76 516.005 1518.45 516.005 1520.54L516.005 1521.79C516.005 1523.87 517.711 1525.57 519.808 1525.57C521.905 1525.57 523.612 1523.87 523.612 1521.79L523.612 1520.54C523.612 1518.45 521.905 1516.76 519.808 1516.76ZM512.201 1516.76C511.50100000000003 1516.76 510.93300000000005 1517.32 510.93300000000005 1518.02L510.93300000000005 1524.31C510.93300000000005 1525 511.50100000000003 1525.57 512.201 1525.57C512.9010000000001 1525.57 513.469 1525 513.469 1524.31L513.469 1518.02C513.469 1517.32 512.9010000000001 1516.76 512.201 1516.76ZM507.13 1525.57C507.83 1525.57 508.39799999999997 1525 508.39799999999997 1524.31L508.39799999999997 1518.02C508.39799999999997 1517.32 507.83 1516.76 507.13 1516.76C506.43 1516.76 505.862 1517.32 505.862 1518.02L505.862 1524.31C505.862 1525 506.43 1525.57 507.13 1525.57ZM491.916 1527.66C491.216 1527.66 490.648 1528.23 490.648 1528.92L490.648 1535.21C490.648 1535.91 491.216 1536.47 491.916 1536.47C492.616 1536.47 493.18399999999997 1535.91 493.18399999999997 1535.21L493.18399999999997 1528.92C493.18399999999997 1528.23 492.616 1527.66 491.916 1527.66ZM502.059 1516.76C501.35900000000004 1516.76 500.79100000000005 1517.32 500.79100000000005 1518.02L500.79100000000005 1524.31C500.79100000000005 1525 501.35900000000004 1525.57 502.059 1525.57C502.759 1525.57 503.326 1525 503.326 1524.31L503.326 1518.02C503.327 1517.32 502.759 1516.76 502.059 1516.76ZM517.273 1527.66C516.572 1527.66 516.005 1528.23 516.005 1528.92L516.005 1535.21C516.005 1535.91 516.572 1536.47 517.273 1536.47C517.9730000000001 1536.47 518.5400000000001 1535.91 518.5400000000001 1535.21L518.5400000000001 1528.92C518.5400000000001 1528.23 517.9730000000001 1527.66 517.273 1527.66ZM521.076 1521.79C521.076 1522.49 520.5070000000001 1523.05 519.808 1523.05C519.109 1523.05 518.54 1522.49 518.54 1521.79L518.54 1520.54C518.54 1519.84 519.1089999999999 1519.28 519.808 1519.28C520.507 1519.28 521.076 1519.84 521.076 1520.54ZM500.791 1532.7C500.791 1533.39 500.222 1533.95 499.523 1533.95C498.824 1533.95 498.25500000000005 1533.39 498.25500000000005 1532.7L498.25500000000005 1531.44C498.25500000000005 1530.74 498.82400000000007 1530.18 499.523 1530.18C500.22200000000004 1530.18 500.791 1530.74 500.791 1531.44ZM495.719 1521.79C495.719 1522.49 495.151 1523.05 494.452 1523.05C493.753 1523.05 493.184 1522.49 493.184 1521.79L493.184 1520.54C493.184 1519.84 493.75300000000004 1519.28 494.452 1519.28C495.151 1519.28 495.719 1519.84 495.719 1520.54ZM510.933 1532.7C510.933 1533.39 510.365 1533.95 509.666 1533.95C508.967 1533.95 508.398 1533.39 508.398 1532.7L508.398 1531.44C508.398 1530.74 508.96700000000004 1530.18 509.666 1530.18C510.365 1530.18 510.933 1530.74 510.933 1531.44ZM522.344 1533.95C521.644 1533.95 521.076 1534.52 521.076 1535.21L521.076 1535.25C521.076 1535.94 521.644 1536.51 522.344 1536.51C523.0440000000001 1536.51 523.6120000000001 1535.94 523.6120000000001 1535.25L523.6120000000001 1535.21C523.6120000000001 1534.52 523.0440000000001 1533.95 522.344 1533.95ZM522.344 1527.66C521.644 1527.66 521.076 1528.23 521.076 1528.92L521.076 1530.8600000000001C521.076 1531.5500000000002 521.644 1532.1200000000001 522.344 1532.1200000000001C523.0440000000001 1532.1200000000001 523.6120000000001 1531.5500000000002 523.6120000000001 1530.8600000000001L523.6120000000001 1528.92C523.6120000000001 1528.23 523.0440000000001 1527.66 522.344 1527.66Z " fill="#ffffff" fill-opacity="1" transform="matrix(1,0,0,1,-388,-1437)"></path></svg>