<svg id="SvgjsSvg1103" xmlns="http://www.w3.org/2000/svg" version="1.1" xmlns:xlink="http://www.w3.org/1999/xlink" xmlns:svgjs="http://svgjs.com/svgjs" width="50" height="50" viewBox="0 0 50 50"><title>Shape 1</title><desc>Created with Avocode.</desc><defs id="SvgjsDefs1104"></defs><path id="SvgjsPath1105" d="M787.897 3789.93C788.505 3791.5099999999998 790.5150000000001 3796.6099999999997 791.9730000000001 3798.7999999999997L792.105 3798.99C793.1750000000001 3800.62 794.965 3803.33 801 3803.33C807.034 3803.33 808.825 3800.62 809.895 3798.99L810.0269999999999 3798.7999999999997C811.4849999999999 3796.6099999999997 813.4939999999999 3791.5099999999998 814.103 3789.93C815.1909999999999 3789.66 816 3788.6699999999996 816 3787.5L816 3784.17C816 3783.08 815.303 3782.15 814.333 3781.81L814.333 3777.5C814.333 3774.21 812.601 3768.13 806.192 3767.55C806.1800000000001 3767.15 806.05 3766.84 805.905 3766.6000000000004C805.086 3765.28 802.786 3765.0000000000005 801 3765.0000000000005C786.172 3765.0000000000005 786 3779.0200000000004 786 3779.1700000000005C786 3779.6300000000006 786.372 3780.0000000000005 786.832 3780.0000000000005L786.833 3780.0000000000005C787.2919999999999 3780.0000000000005 787.665 3779.6300000000006 787.6669999999999 3779.1700000000005C787.6679999999999 3778.6600000000003 787.8559999999999 3766.6700000000005 800.9999999999999 3766.6700000000005C803.3569999999999 3766.6700000000005 804.3009999999999 3767.1800000000007 804.4869999999999 3767.4800000000005C804.5129999999998 3767.5200000000004 804.5839999999998 3767.6400000000003 804.4209999999998 3767.9600000000005C804.2919999999998 3768.2200000000007 804.3059999999998 3768.5300000000007 804.4569999999998 3768.7700000000004C804.6099999999998 3769.0200000000004 804.8769999999997 3769.1700000000005 805.1669999999998 3769.1700000000005C812.5549999999998 3769.1700000000005 812.6659999999998 3777.1600000000003 812.6669999999998 3777.5000000000005L812.6669999999998 3782.5000000000005C812.6669999999998 3782.9600000000005 813.0389999999998 3783.3300000000004 813.4999999999998 3783.3300000000004C813.9599999999998 3783.3300000000004 814.3329999999997 3783.7100000000005 814.3329999999997 3784.1700000000005L814.3329999999997 3787.5000000000005C814.3329999999997 3787.9600000000005 813.9599999999997 3788.3300000000004 813.4999999999998 3788.3300000000004C813.1519999999998 3788.3300000000004 812.8419999999998 3788.55 812.7189999999998 3788.8700000000003C812.6949999999998 3788.9400000000005 810.2339999999998 3795.4800000000005 808.6399999999999 3797.8700000000003L808.5029999999999 3798.0800000000004C807.5049999999999 3799.5900000000006 806.136 3801.6700000000005 800.9999999999999 3801.6700000000005C795.8619999999999 3801.6700000000005 794.4949999999999 3799.5900000000006 793.4969999999998 3798.0800000000004L793.3599999999999 3797.8700000000003C791.7659999999998 3795.4800000000005 789.305 3788.9400000000005 789.2799999999999 3788.8700000000003C789.1579999999999 3788.55 788.8469999999999 3788.3300000000004 788.4999999999999 3788.3300000000004C788.0409999999999 3788.3300000000004 787.6669999999999 3787.9600000000005 787.6669999999999 3787.5000000000005L787.6669999999999 3784.1700000000005C787.6669999999999 3783.9400000000005 787.757 3783.7400000000007 787.9029999999999 3783.5900000000006C788.2059999999999 3784.2700000000004 788.8229999999999 3784.8800000000006 789.8609999999999 3784.9800000000005L792.7119999999999 3787.1200000000003C792.9349999999998 3788.7400000000002 794.3159999999999 3790.0000000000005 795.9999999999999 3790.0000000000005L797.6669999999999 3790.0000000000005C799.5049999999999 3790.0000000000005 800.9999999999999 3788.5000000000005 800.9999999999999 3786.6700000000005C800.9999999999999 3788.5000000000005 802.4949999999999 3790.0000000000005 804.3329999999999 3790.0000000000005L805.9999999999999 3790.0000000000005C807.6829999999999 3790.0000000000005 809.0659999999999 3788.7400000000002 809.2869999999999 3787.1200000000003L812.333 3784.8300000000004C812.702 3784.5600000000004 812.7769999999999 3784.0400000000004 812.5 3783.6700000000005C812.224 3783.3000000000006 811.702 3783.2200000000007 811.333 3783.5000000000005L809.209 3785.0900000000006C808.8919999999999 3784.0800000000004 807.953 3783.3300000000004 806.833 3783.3300000000004L803.5 3783.3300000000004C802.122 3783.3300000000004 801 3784.4600000000005 801 3785.8300000000004C801 3784.4600000000005 799.878 3783.3300000000004 798.5 3783.3300000000004L795.167 3783.3300000000004C794.048 3783.3300000000004 793.109 3784.0800000000004 792.791 3785.0900000000006L791.201 3783.9000000000005C791.857 3782.3200000000006 792.451 3779.9700000000007 792.619 3778.3300000000004C795.246 3778.28 802.845 3777.9600000000005 806.226 3775.8500000000004C806.993 3778.8100000000004 809.453 3781.3 809.578 3781.4200000000005C809.903 3781.7500000000005 810.43 3781.7500000000005 810.756 3781.4200000000005C811.082 3781.1000000000004 811.082 3780.5700000000006 810.756 3780.2400000000007C810.725 3780.2100000000005 807.6669999999999 3777.120000000001 807.6669999999999 3774.1700000000005C807.6669999999999 3773.7900000000004 807.4169999999999 3773.4600000000005 807.0559999999999 3773.3600000000006C806.6969999999999 3773.2600000000007 806.3109999999999 3773.4200000000005 806.1189999999999 3773.7400000000007C804.906 3775.7600000000007 797.035 3776.6700000000005 791.833 3776.6700000000005C791.3729999999999 3776.6700000000005 791 3777.0400000000004 791 3777.5000000000005C791 3778.8500000000004 790.361 3781.5500000000006 789.681 3783.2200000000003C789.4150000000001 3783.0600000000004 789.34 3782.76 789.3340000000001 3782.5000000000005C789.3340000000001 3782.0400000000004 788.96 3781.6700000000005 788.5000000000001 3781.6700000000005C787.1220000000001 3781.6700000000005 786.0000000000001 3782.7900000000004 786.0000000000001 3784.1700000000005L786.0000000000001 3787.5000000000005C786.0000000000001 3788.6700000000005 786.8090000000001 3789.6600000000003 787.8970000000002 3789.9300000000003ZM824.333 3810L822.6669999999999 3810L822.6669999999999 3805.83C822.6669999999999 3805.61 822.5779999999999 3805.4 822.4229999999999 3805.24L817.4159999999999 3800.24C817.5719999999999 3799.91 817.6669999999999 3799.5499999999997 817.6669999999999 3799.1699999999996C817.6669999999999 3797.7899999999995 816.545 3796.6699999999996 815.1669999999999 3796.6699999999996C813.7879999999999 3796.6699999999996 812.6669999999999 3797.7899999999995 812.6669999999999 3799.1699999999996C812.6669999999999 3800.5399999999995 813.7879999999999 3801.6699999999996 815.1669999999999 3801.6699999999996C815.5519999999999 3801.6699999999996 815.9119999999999 3801.5699999999997 816.2379999999999 3801.4199999999996L820.9999999999999 3806.18L820.9999999999999 3810L777.6669999999999 3810C776.747 3810 775.9999999999999 3810.75 775.9999999999999 3811.67L775.9999999999999 3814.17C775.9999999999999 3814.63 776.3729999999999 3815 776.8329999999999 3815C777.2929999999999 3815 777.6669999999998 3814.63 777.6669999999998 3814.17L777.6669999999998 3811.67L824.3329999999999 3811.67L824.3329999999999 3814.17C824.3329999999999 3814.63 824.7059999999999 3815 825.1669999999998 3815C825.6269999999998 3815 825.9999999999998 3814.63 825.9999999999998 3814.17L825.9999999999998 3811.67C825.9999999999998 3810.75 825.2519999999997 3810 824.3329999999997 3810ZM780.972 3808.53C781.084 3808.53 781.197 3808.51 781.305 3808.46C783.963 3807.3 788.452 3806.7 794.6519999999999 3806.67L795.2539999999999 3807.87C795.4609999999999 3808.2799999999997 795.9619999999999 3808.45 796.372 3808.24C796.784 3808.04 796.952 3807.54 796.745 3807.1299999999997L795.912 3805.4599999999996C795.7710000000001 3805.1799999999994 795.4820000000001 3804.9999999999995 795.167 3804.9999999999995C788.376 3804.9999999999995 783.623 3805.6299999999997 780.639 3806.9299999999994C780.217 3807.109999999999 780.025 3807.609999999999 780.208 3808.0299999999993C780.3449999999999 3808.3399999999992 780.651 3808.5299999999993 780.972 3808.5299999999993ZM806.831 3805.03C806.519 3805.0400000000004 806.2330000000001 3805.21 806.091 3805.4900000000002L805.258 3807.1200000000003C805.048 3807.53 805.212 3808.03 805.6210000000001 3808.2400000000002C805.7420000000001 3808.3 805.8720000000001 3808.3300000000004 805.9990000000001 3808.3300000000004C806.3030000000001 3808.3300000000004 806.5950000000001 3808.1700000000005 806.7430000000002 3807.8800000000006L807.3430000000002 3806.7000000000007C811.8980000000001 3806.710000000001 815.5670000000002 3807.0500000000006 818.2550000000002 3807.710000000001C818.7030000000002 3807.830000000001 819.1530000000002 3807.550000000001 819.2630000000003 3807.100000000001C819.3730000000003 3806.6600000000008 819.1000000000003 3806.210000000001 818.6530000000002 3806.100000000001C815.7340000000003 3805.380000000001 811.7760000000003 3805.0100000000007 806.8310000000002 3805.0300000000007ZM805.166 3795C805.167 3794.54 804.7950000000001 3794.17 804.336 3794.17C804.32 3794.17 802.83 3794.15 801.372 3793.42C801.1379999999999 3793.3 800.862 3793.3 800.627 3793.42C799.17 3794.15 797.679 3794.17 797.6669999999999 3794.17C797.2069999999999 3794.17 796.833 3794.54 796.833 3795C796.833 3795.46 797.207 3795.83 797.6669999999999 3795.83C797.737 3795.83 799.3119999999999 3795.8199999999997 800.9999999999999 3795.09C802.6869999999999 3795.82 804.2619999999998 3795.83 804.3329999999999 3795.83C804.7919999999998 3795.83 805.1639999999999 3795.46 805.1659999999998 3795ZM802.667 3785.83C802.667 3785.37 803.0400000000001 3785 803.5 3785L806.833 3785C807.293 3785 807.6669999999999 3785.37 807.6669999999999 3785.83L807.6669999999999 3786.67C807.6669999999999 3787.59 806.9189999999999 3788.33 805.9999999999999 3788.33L804.3329999999999 3788.33C803.4139999999999 3788.33 802.6659999999998 3787.59 802.6659999999998 3786.67L802.6659999999998 3785.83ZM794.333 3785.83C794.333 3785.37 794.707 3785 795.1669999999999 3785L798.4999999999999 3785C798.9589999999998 3785 799.3329999999999 3785.37 799.3329999999999 3785.83L799.3329999999999 3786.67C799.3329999999999 3787.59 798.5859999999999 3788.33 797.6669999999998 3788.33L795.9999999999998 3788.33C795.0809999999998 3788.33 794.3329999999997 3787.59 794.3329999999997 3786.67ZM800.167 3805.83L800.167 3807.5C800.167 3807.96 800.5400000000001 3808.33 801 3808.33C801.46 3808.33 801.833 3807.96 801.833 3807.5L801.833 3805.83C801.833 3805.37 801.4599999999999 3805 801 3805C800.54 3805 800.167 3805.37 800.167 3805.83ZM815.167 3800C814.707 3800 814.3330000000001 3799.63 814.3330000000001 3799.17C814.3330000000001 3798.71 814.7070000000001 3798.33 815.167 3798.33C815.6270000000001 3798.33 816 3798.71 816 3799.17C816 3799.63 815.627 3800 815.167 3800ZM800.167 3796.67C799.707 3796.67 799.3330000000001 3797.04 799.3330000000001 3797.5C799.3330000000001 3797.96 799.7070000000001 3798.33 800.167 3798.33L801.8330000000001 3798.33C802.2940000000001 3798.33 802.667 3797.96 802.667 3797.5C802.667 3797.04 802.294 3796.67 801.8330000000001 3796.67Z " fill="#000000" fill-opacity="1" transform="matrix(1,0,0,1,-776,-3765)"></path></svg>