<svg id="SvgjsSvg1106" xmlns="http://www.w3.org/2000/svg" version="1.1" xmlns:xlink="http://www.w3.org/1999/xlink" xmlns:svgjs="http://svgjs.com/svgjs" width="57" height="51" viewBox="0 0 57 51"><title>Shape 1</title><desc>Created with Avocode.</desc><defs id="SvgjsDefs1107"></defs><path id="SvgjsPath1108" d="M1172.04 3776.91L1172.04 3767.7999999999997C1172.04 3766.7999999999997 1171.52 3765.8999999999996 1170.6499999999999 3765.39C1169.78 3764.8799999999997 1168.7299999999998 3764.87 1167.84 3765.3599999999997C1159.3799999999999 3770.0699999999997 1150.1699999999998 3772.8099999999995 1140.48 3773.5299999999997C1140.4 3773.5299999999997 1131.64 3773.5699999999997 1131.64 3773.5699999999997C1129.44 3773.5699999999997 1127.6200000000001 3775.22 1127.3700000000001 3777.3399999999997L1125.5700000000002 3777.3399999999997C1123.6000000000001 3777.3399999999997 1122.0000000000002 3778.93 1122.0000000000002 3780.89L1122.0000000000002 3788.68C1122.0000000000002 3790.6299999999997 1123.6000000000001 3792.22 1125.5700000000002 3792.22L1127.3700000000001 3792.22C1127.5500000000002 3793.75 1128.5400000000002 3795.0299999999997 1129.91 3795.6299999999997L1136.3100000000002 3813.1699999999996C1136.7100000000003 3814.2699999999995 1137.7600000000002 3814.9999999999995 1138.93 3814.9999999999995L1145.3500000000001 3814.9999999999995C1146.2600000000002 3814.9999999999995 1147.1200000000001 3814.5599999999995 1147.64 3813.8199999999997C1148.16 3813.08 1148.2900000000002 3812.1299999999997 1147.98 3811.2799999999997L1142.48 3796.2099999999996C1151.44 3797.1399999999994 1159.96 3799.8199999999997 1167.84 3804.1999999999994C1168.28 3804.439999999999 1168.75 3804.5599999999995 1169.22 3804.5599999999995C1169.72 3804.5599999999995 1170.21 3804.4299999999994 1170.65 3804.1699999999996C1171.52 3803.6599999999994 1172.0400000000002 3802.7599999999998 1172.0400000000002 3801.7499999999995L1172.0400000000002 3792.6499999999996C1175.9600000000003 3792.1399999999994 1179.0000000000002 3788.8099999999995 1179.0000000000002 3784.7799999999997C1179.0000000000002 3780.7499999999995 1175.9600000000003 3777.4199999999996 1172.0400000000002 3776.91ZM1169.29 3801.76C1169.29 3801.7700000000004 1169.29 3801.7900000000004 1169.26 3801.8100000000004C1169.22 3801.8300000000004 1169.2 3801.8200000000006 1169.19 3801.8100000000004C1160.72 3797.1100000000006 1151.54 3794.28 1141.89 3793.4100000000003L1141.89 3776.15C1151.5400000000002 3775.28 1160.72 3772.4500000000003 1169.19 3767.75C1169.2 3767.74 1169.22 3767.73 1169.26 3767.75C1169.29 3767.77 1169.29 3767.78 1169.29 3767.8ZM1145.39 3812.21C1145.39 3812.2200000000003 1145.4 3812.23 1145.38 3812.25C1145.3700000000001 3812.26 1145.3600000000001 3812.26 1145.3500000000001 3812.26L1138.93 3812.26C1138.91 3812.26 1138.9 3812.25 1138.89 3812.2400000000002L1132.97 3796.0000000000005L1139.47 3796.0000000000005ZM1131.01 3793.12C1130.47 3792.88 1130.09 3792.35 1130.09 3791.72L1130.09 3777.8399999999997C1130.09 3776.99 1130.79 3776.2999999999997 1131.6399999999999 3776.2999999999997L1139.1399999999999 3776.2999999999997L1139.1399999999999 3793.2599999999998C1139.1399999999999 3793.2599999999998 1131.58 3793.2599999999998 1131.54 3793.2499999999995C1131.27 3793.2199999999993 1131.21 3793.2099999999996 1131.01 3793.1199999999994ZM1127.34 3789.49L1125.57 3789.49C1125.12 3789.49 1124.75 3789.1299999999997 1124.75 3788.68L1124.75 3780.89C1124.75 3780.44 1125.12 3780.0699999999997 1125.57 3780.0699999999997L1127.34 3780.0699999999997ZM1172.04 3789.88L1172.04 3779.6800000000003C1174.44 3780.1600000000003 1176.25 3782.26 1176.25 3784.78C1176.25 3787.3 1174.44 3789.4 1172.04 3789.88Z " fill="#000000" fill-opacity="1" transform="matrix(1,0,0,1,-1122,-3764)"></path></svg>