<svg id="SvgjsSvg1112" xmlns="http://www.w3.org/2000/svg" version="1.1" xmlns:xlink="http://www.w3.org/1999/xlink" xmlns:svgjs="http://svgjs.com/svgjs" width="60" height="43" viewBox="0 0 60 43"><title>Shape 1</title><desc>Created with Avocode.</desc><defs id="SvgjsDefs1113"></defs><path id="SvgjsPath1114" d="M774.787 3960.15L800.3190000000001 3960.15C800.8480000000001 3960.15 801.277 3959.7200000000003 801.277 3959.19L801.277 3943.78C801.277 3943.25 800.8480000000001 3942.82 800.3190000000001 3942.82L774.787 3942.82C774.258 3942.82 773.83 3943.25 773.83 3943.78L773.83 3959.19C773.83 3959.7200000000003 774.258 3960.15 774.787 3960.15ZM815 3960.15L825.213 3960.15C825.742 3960.15 826.17 3959.7200000000003 826.17 3959.19L826.17 3938.65C826.17 3938.12 825.742 3937.69 825.213 3937.69L815 3937.69C814.471 3937.69 814.043 3938.12 814.043 3938.65L814.043 3959.19C814.043 3959.7200000000003 814.471 3960.15 815 3960.15ZM774.787 3939.61L800.3190000000001 3939.61C800.8480000000001 3939.61 801.277 3939.1800000000003 801.277 3938.65L801.277 3933.52C801.277 3932.98 800.8480000000001 3932.55 800.3190000000001 3932.55L774.787 3932.55C774.258 3932.55 773.83 3932.98 773.83 3933.52L773.83 3938.65C773.83 3939.1800000000003 774.258 3939.61 774.787 3939.61ZM804.149 3960.15L811.17 3960.15C811.699 3960.15 812.1279999999999 3959.7200000000003 812.1279999999999 3959.19L812.1279999999999 3943.78C812.1279999999999 3943.25 811.699 3942.82 811.17 3942.82L804.149 3942.82C803.62 3942.82 803.191 3943.25 803.191 3943.78L803.191 3950.2000000000003C803.191 3950.7300000000005 803.62 3951.1600000000003 804.149 3951.1600000000003C804.678 3951.1600000000003 805.106 3950.7300000000005 805.106 3950.2000000000003L805.106 3949.88L810.213 3949.88L810.213 3953.09L804.149 3953.09C803.62 3953.09 803.191 3953.52 803.191 3954.05L803.191 3959.19C803.191 3959.7200000000003 803.62 3960.15 804.149 3960.15ZM804.149 3939.61L811.17 3939.61C811.699 3939.61 812.1279999999999 3939.1800000000003 812.1279999999999 3938.65L812.1279999999999 3933.52C812.1279999999999 3932.98 811.699 3932.55 811.17 3932.55L804.149 3932.55C803.62 3932.55 803.191 3932.98 803.191 3933.52L803.191 3938.65C803.191 3939.1800000000003 803.62 3939.61 804.149 3939.61ZM780.851 3955.01L794.255 3955.01L794.255 3958.2200000000003L780.851 3958.2200000000003ZM805.106 3934.48L810.213 3934.48L810.213 3937.69L805.106 3937.69ZM805.106 3947.96L805.106 3944.75L810.213 3944.75L810.213 3947.96ZM805.106 3955.01L810.213 3955.01L810.213 3958.2200000000003L805.106 3958.2200000000003ZM796.17 3934.48L799.362 3934.48L799.362 3937.69L796.17 3937.69ZM796.17 3944.75L799.362 3944.75L799.362 3947.96L796.17 3947.96ZM780.851 3934.48L784.043 3934.48L784.043 3937.69L780.851 3937.69ZM796.17 3949.88L799.362 3949.88L799.362 3953.09L796.17 3953.09ZM780.851 3949.88L784.043 3949.88L784.043 3953.09L780.851 3953.09ZM780.851 3944.75L784.043 3944.75L784.043 3947.96L780.851 3947.96ZM785.957 3944.75L789.149 3944.75L789.149 3947.96L785.957 3947.96ZM785.957 3949.88L789.149 3949.88L789.149 3953.09L785.957 3953.09ZM815.957 3949.88L819.149 3949.88L819.149 3953.09L815.957 3953.09ZM815.957 3944.75L819.149 3944.75L819.149 3947.96L815.957 3947.96ZM815.957 3939.61L819.149 3939.61L819.149 3942.82L815.957 3942.82ZM785.957 3934.48L789.149 3934.48L789.149 3937.69L785.957 3937.69ZM796.17 3955.01L799.362 3955.01L799.362 3958.2200000000003L796.17 3958.2200000000003ZM815.957 3955.01L819.149 3955.01L819.149 3958.2200000000003L815.957 3958.2200000000003ZM775.745 3949.88L778.936 3949.88L778.936 3953.09L775.745 3953.09ZM775.745 3934.48L778.936 3934.48L778.936 3937.69L775.745 3937.69ZM791.064 3944.75L794.255 3944.75L794.255 3947.96L791.064 3947.96ZM791.064 3934.48L794.255 3934.48L794.255 3937.69L791.064 3937.69ZM791.064 3949.88L794.255 3949.88L794.255 3953.09L791.064 3953.09ZM821.064 3949.88L824.255 3949.88L824.255 3953.09L821.064 3953.09ZM775.745 3944.75L778.936 3944.75L778.936 3947.96L775.745 3947.96ZM821.064 3939.61L824.255 3939.61L824.255 3942.82L821.064 3942.82ZM821.064 3944.75L824.255 3944.75L824.255 3947.96L821.064 3947.96ZM775.745 3955.01L778.936 3955.01L778.936 3958.2200000000003L775.745 3958.2200000000003ZM821.064 3955.01L824.255 3955.01L824.255 3958.2200000000003L821.064 3958.2200000000003ZM829.043 3928.7L808.617 3928.7L808.617 3925.81C808.617 3924.22 809.906 3922.93 811.4889999999999 3922.93L829.0429999999999 3922.93C829.5709999999999 3922.93 829.9999999999999 3922.49 829.9999999999999 3921.96C829.9999999999999 3921.43 829.5709999999999 3921 829.0429999999999 3921L811.4889999999999 3921C808.8499999999999 3921 806.7019999999999 3923.16 806.7019999999999 3925.81L806.7019999999999 3928.7L770.9569999999999 3928.7C770.4289999999999 3928.7 769.9999999999999 3929.1299999999997 769.9999999999999 3929.66L769.9999999999999 3963.04C769.9999999999999 3963.57 770.4289999999999 3964 770.9569999999999 3964L829.0429999999999 3964C829.5709999999999 3964 829.9999999999999 3963.57 829.9999999999999 3963.04L829.9999999999999 3929.66C829.9999999999999 3929.1299999999997 829.5709999999999 3928.7 829.0429999999999 3928.7ZM828.085 3962.07L771.9150000000001 3962.07L771.9150000000001 3930.63L828.085 3930.63Z " fill="#000000" fill-opacity="1" transform="matrix(1,0,0,1,-770,-3921)"></path></svg>