<svg id="SvgjsSvg1109" xmlns="http://www.w3.org/2000/svg" version="1.1" xmlns:xlink="http://www.w3.org/1999/xlink" xmlns:svgjs="http://svgjs.com/svgjs" width="49" height="50" viewBox="0 0 49 50"><title>Shape 1</title><desc>Created with Avocode.</desc><defs id="SvgjsDefs1110"></defs><path id="SvgjsPath1111" d="M473.22 3921.83C473.651 3921.83 474 3921.48 474 3921.0499999999997L474 3917.91C474 3915.7599999999998 472.25 3914 470.099 3914L428.901 3914C426.75 3914 425 3915.76 425 3917.91L425 3949.23C425 3951.39 426.75 3953.14 428.901 3953.14L434.72700000000003 3953.14C435.158 3953.14 435.507 3952.79 435.507 3952.3599999999997C435.507 3951.93 435.158 3951.5799999999995 434.72700000000003 3951.5799999999995L428.901 3951.5799999999995C427.61 3951.5799999999995 426.56 3950.5199999999995 426.56 3949.2299999999996L426.56 3948.1299999999997L472.44 3948.1299999999997L472.44 3949.2299999999996C472.44 3950.5199999999995 471.389 3951.5799999999995 470.099 3951.5799999999995L438.472 3951.5799999999995C438.041 3951.5799999999995 437.692 3951.9299999999994 437.692 3952.3599999999997C437.692 3952.7899999999995 438.041 3953.14 438.472 3953.14L444.55899999999997 3953.14L443.40099999999995 3962.43L437.43199999999996 3962.43C437.001 3962.43 436.652 3962.7799999999997 436.652 3963.22C436.652 3963.6499999999996 437.001 3964 437.43199999999996 3964L461.568 3964C461.99899999999997 3964 462.34799999999996 3963.65 462.34799999999996 3963.22C462.34799999999996 3962.7799999999997 461.99899999999997 3962.43 461.568 3962.43L455.599 3962.43L454.441 3953.14L470.099 3953.14C472.25 3953.14 474 3951.39 474 3949.23L474 3925.01C474 3924.5800000000004 473.651 3924.23 473.22 3924.23C472.78900000000004 3924.23 472.44000000000005 3924.58 472.44000000000005 3925.01L472.44000000000005 3946.57L426.56000000000006 3946.57L426.56000000000006 3917.9100000000003C426.56000000000006 3916.6200000000003 427.61000000000007 3915.57 428.90100000000007 3915.57L470.09900000000005 3915.57C471.38900000000007 3915.57 472.44000000000005 3916.6200000000003 472.44000000000005 3917.9100000000003L472.44000000000005 3921.05C472.44000000000005 3921.48 472.78900000000004 3921.8300000000004 473.22 3921.8300000000004ZM463.449 3926.02C463.303 3925.81 463.067 3925.69 462.81600000000003 3925.69L457.40700000000004 3925.69C457.40600000000006 3925.69 457.40400000000005 3925.69 457.40200000000004 3925.69L444.09400000000005 3925.69C444.0930000000001 3925.69 444.09100000000007 3925.69 444.09000000000003 3925.69L439.13700000000006 3925.69L437.7610000000001 3921.23C437.6600000000001 3920.9 437.35800000000006 3920.68 437.0160000000001 3920.68L431.60600000000005 3920.68C431.17500000000007 3920.68 430.8260000000001 3921.0299999999997 430.8260000000001 3921.46C430.8260000000001 3921.9 431.17500000000007 3922.25 431.60600000000005 3922.25L436.44000000000005 3922.25L441.68000000000006 3939.23C441.78100000000006 3939.56 442.0830000000001 3939.78 442.42600000000004 3939.78L458.65500000000003 3939.78C458.99100000000004 3939.78 459.28900000000004 3939.57 459.39500000000004 3939.25L463.55600000000004 3926.72C463.636 3926.48 463.59600000000006 3926.22 463.449 3926.02ZM446.131 3953.14L452.868 3953.14L454.026 3962.43L444.974 3962.43ZM455.326 3939.89C453.74800000000005 3939.89 452.46500000000003 3941.18 452.46500000000003 3942.7599999999998C452.46500000000003 3944.3399999999997 453.74800000000005 3945.6299999999997 455.326 3945.6299999999997C456.903 3945.6299999999997 458.187 3944.3399999999997 458.187 3942.7599999999998C458.187 3941.18 456.903 3939.89 455.326 3939.89ZM446.171 3939.89C444.593 3939.89 443.31 3941.18 443.31 3942.7599999999998C443.31 3944.3399999999997 444.593 3945.6299999999997 446.171 3945.6299999999997C447.748 3945.6299999999997 449.032 3944.3399999999997 449.032 3942.7599999999998C449.032 3941.18 447.748 3939.89 446.171 3939.89ZM451.529 3927.26L456.452 3927.26L455.923 3929.8700000000003L451.529 3929.8700000000003ZM449.968 3929.87L445.574 3929.87L445.045 3927.2599999999998L449.968 3927.2599999999998ZM439.62 3927.26L443.45300000000003 3927.26L443.982 3929.8700000000003L440.425 3929.8700000000003ZM460.867 3929.87L457.51500000000004 3929.87L458.04400000000004 3927.2599999999998L461.73400000000004 3927.2599999999998ZM455.076 3934.04L451.529 3934.04L451.529 3931.43L455.605 3931.43ZM446.42 3934.04L445.892 3931.43L449.968 3931.43L449.968 3934.04ZM441.713 3934.04L440.908 3931.43L444.29900000000004 3931.43L444.82800000000003 3934.04ZM459.48 3934.04L456.66900000000004 3934.04L457.19800000000004 3931.43L460.34700000000004 3931.43ZM443.001 3938.22L442.19599999999997 3935.6099999999997L445.145 3935.6099999999997L445.674 3938.22ZM449.968 3938.22L447.267 3938.22L446.738 3935.6099999999997L449.968 3935.6099999999997ZM454.23 3938.22L451.529 3938.22L451.529 3935.6099999999997L454.759 3935.6099999999997ZM458.093 3938.22L455.822 3938.22L456.351 3935.6099999999997L458.96 3935.6099999999997ZM455.326 3944.06C454.60900000000004 3944.06 454.02500000000003 3943.48 454.02500000000003 3942.7599999999998C454.02500000000003 3942.04 454.60900000000004 3941.45 455.326 3941.45C456.043 3941.45 456.62600000000003 3942.04 456.62600000000003 3942.7599999999998C456.62600000000003 3943.4799999999996 456.043 3944.06 455.326 3944.06ZM446.171 3944.06C445.454 3944.06 444.87 3943.48 444.87 3942.7599999999998C444.87 3942.04 445.454 3941.45 446.171 3941.45C446.888 3941.45 447.471 3942.04 447.471 3942.7599999999998C447.471 3943.4799999999996 446.888 3944.06 446.171 3944.06ZM450.332 3949.07L448.668 3949.07C448.237 3949.07 447.887 3949.42 447.887 3949.86C447.887 3950.29 448.237 3950.6400000000003 448.668 3950.6400000000003L450.332 3950.6400000000003C450.763 3950.6400000000003 451.113 3950.2900000000004 451.113 3949.86C451.113 3949.42 450.763 3949.07 450.332 3949.07ZM455.229 3920.37C455.11899999999997 3920.0499999999997 454.825 3919.85 454.49399999999997 3919.85L453.193 3919.85L453.193 3917.91C453.193 3917.48 452.844 3917.1299999999997 452.413 3917.1299999999997L449.084 3917.1299999999997C448.653 3917.1299999999997 448.30400000000003 3917.4799999999996 448.30400000000003 3917.91L448.30400000000003 3919.85L447.00300000000004 3919.85C446.672 3919.85 446.37700000000007 3920.0499999999997 446.26700000000005 3920.37C446.15700000000004 3920.68 446.25600000000003 3921.0299999999997 446.51400000000007 3921.24L450.25900000000007 3924.27C450.40200000000004 3924.38 450.57500000000005 3924.44 450.74800000000005 3924.44C450.922 3924.44 451.095 3924.38 451.23800000000006 3924.27L454.98300000000006 3921.24C455.24100000000004 3921.0299999999997 455.3400000000001 3920.68 455.22900000000004 3920.37ZM450.748 3922.65L449.204 3921.4C449.57800000000003 3921.34 449.86400000000003 3921.02 449.86400000000003 3920.63L449.86400000000003 3918.7000000000003L451.63300000000004 3918.7000000000003L451.63300000000004 3920.63C451.63300000000004 3921.02 451.91900000000004 3921.34 452.29300000000006 3921.4Z " fill="#000000" fill-opacity="1" transform="matrix(1,0,0,1,-425,-3914)"></path></svg>