<svg id="SvgjsSvg1115" xmlns="http://www.w3.org/2000/svg" version="1.1" xmlns:xlink="http://www.w3.org/1999/xlink" xmlns:svgjs="http://svgjs.com/svgjs" width="61" height="35" viewBox="0 0 61 35"><title>Shape 1</title><desc>Created with Avocode.</desc><defs id="SvgjsDefs1116"></defs><path id="SvgjsPath1117" d="M1178.34 3955.84C1177.03 3954.28 1175.56 3952.88 1174.1299999999999 3951.53C1173.6299999999999 3951.05 1173.11 3950.5600000000004 1172.61 3950.07C1171.9399999999998 3949.42 1171.61 3948.9500000000003 1171.58 3948.61C1171.54 3948.27 1171.77 3947.77 1172.3 3947.03C1173.1 3945.92 1173.94 3944.8 1174.76 3943.7200000000003C1175.49 3942.76 1176.24 3941.7700000000004 1176.96 3940.78L1177.1200000000001 3940.55C1178.5300000000002 3938.61 1179.98 3936.59 1180.7600000000002 3934.1400000000003C1180.9800000000002 3933.4400000000005 1181.2100000000003 3932.4000000000005 1180.6600000000003 3931.4800000000005C1180.1000000000004 3930.5700000000006 1179.0600000000004 3930.3000000000006 1178.3400000000004 3930.1800000000003C1177.9800000000005 3930.1200000000003 1177.6400000000003 3930.11 1177.3300000000004 3930.11L1168.2100000000005 3930.1C1166.6300000000006 3930.08 1165.5400000000004 3930.8199999999997 1164.9400000000005 3932.3199999999997C1164.4700000000005 3933.5199999999995 1163.9000000000005 3934.91 1163.2500000000005 3936.2299999999996C1162.0000000000005 3938.7699999999995 1160.4200000000005 3941.6999999999994 1158.1200000000003 3944.1499999999996L1158.0100000000004 3944.2499999999995C1157.8600000000004 3944.4199999999996 1157.6000000000004 3944.6899999999996 1157.4700000000005 3944.7599999999998C1157.2200000000005 3944.6 1156.9300000000005 3943.7099999999996 1156.9500000000005 3943.24C1156.9500000000005 3943.22 1156.9500000000005 3943.2099999999996 1156.9500000000005 3943.2L1156.9400000000005 3932.66C1156.9400000000005 3932.6099999999997 1156.9400000000005 3932.56 1156.9300000000005 3932.5C1156.7200000000005 3931 1156.3300000000006 3929.49 1153.9500000000005 3929.02C1153.8700000000006 3929.0099999999998 1153.7900000000004 3929 1153.7200000000005 3929L1144.2300000000005 3929C1142.4500000000005 3929 1141.5000000000005 3929.82 1140.7500000000005 3930.7C1140.5300000000004 3930.96 1139.9400000000005 3931.6499999999996 1140.2400000000005 3932.49C1140.5400000000004 3933.3399999999997 1141.4300000000005 3933.5 1141.7300000000005 3933.56C1142.7600000000004 3933.7599999999998 1143.3000000000004 3934.34 1143.4600000000005 3935.46C1143.7900000000004 3937.63 1143.8300000000004 3939.95 1143.5900000000006 3942.76C1143.5200000000007 3943.5200000000004 1143.4000000000005 3944.09 1143.1900000000005 3944.57C1143.1400000000006 3944.7000000000003 1143.0900000000006 3944.78 1143.0600000000004 3944.8300000000004C1143.0000000000005 3944.8100000000004 1142.9200000000003 3944.76 1142.8000000000004 3944.6800000000003C1142.0700000000004 3944.1900000000005 1141.5200000000004 3943.4100000000003 1141.0000000000005 3942.67C1138.8800000000006 3939.6800000000003 1137.1000000000004 3936.38 1135.5600000000004 3932.58C1134.9200000000003 3931.0299999999997 1133.7300000000005 3930.16 1132.1900000000005 3930.13C1129.2700000000004 3930.09 1126.5700000000006 3930.09 1123.9300000000005 3930.1400000000003C1122.6900000000005 3930.1600000000003 1121.8200000000006 3930.55 1121.3500000000006 3931.3C1120.8700000000006 3932.05 1120.8900000000006 3933.01 1121.4000000000005 3934.15C1125.0500000000006 3942.28 1128.3700000000006 3948.2000000000003 1132.1600000000005 3953.33C1134.8300000000006 3956.94 1137.5100000000004 3959.45 1140.6100000000006 3961.22C1143.8600000000006 3963.0899999999997 1147.5300000000007 3964 1151.7900000000006 3964C1152.2700000000007 3964 1152.7700000000007 3963.99 1153.2700000000007 3963.96C1155.8900000000006 3963.84 1156.9600000000007 3962.8 1157.0800000000006 3960.2400000000002C1157.1400000000006 3958.8900000000003 1157.2900000000006 3957.7900000000004 1157.8200000000006 3956.84C1157.9600000000007 3956.57 1158.1300000000006 3956.3900000000003 1158.2600000000007 3956.36C1158.3900000000008 3956.33 1158.6400000000008 3956.4100000000003 1158.9100000000008 3956.59C1159.4100000000008 3956.9100000000003 1159.8400000000008 3957.3500000000004 1160.1900000000007 3957.7400000000002C1160.5500000000006 3958.13 1160.9100000000008 3958.53 1161.2600000000007 3958.92C1162.0000000000007 3959.75 1162.7700000000007 3960.61 1163.5700000000006 3961.4300000000003C1165.4000000000005 3963.2900000000004 1167.5000000000007 3964.1400000000003 1169.8200000000006 3963.9600000000005L1178.1600000000005 3963.9700000000007C1178.1900000000005 3963.9700000000007 1178.2200000000005 3963.9700000000007 1178.2400000000005 3963.9700000000007C1179.2100000000005 3963.9000000000005 1180.0400000000004 3963.370000000001 1180.5300000000004 3962.500000000001C1181.1100000000004 3961.460000000001 1181.1100000000004 3960.140000000001 1180.5000000000005 3958.9700000000007C1179.8700000000003 3957.750000000001 1179.0500000000004 3956.7100000000005 1178.3400000000004 3955.8400000000006ZM1178.44 3961.33C1178.3300000000002 3961.5299999999997 1178.19 3961.5699999999997 1178.1100000000001 3961.58L1169.7700000000002 3961.5699999999997C1169.7400000000002 3961.5699999999997 1169.7000000000003 3961.5699999999997 1169.6700000000003 3961.58C1168.0300000000002 3961.71 1166.6300000000003 3961.14 1165.2800000000002 3959.7599999999998C1164.5100000000002 3958.9799999999996 1163.7600000000002 3958.14 1163.0400000000002 3957.33C1162.6900000000003 3956.93 1162.3200000000002 3956.52 1161.9500000000003 3956.12C1161.5000000000002 3955.63 1160.9400000000003 3955.0499999999997 1160.2100000000003 3954.58C1159.1300000000003 3953.88 1158.2300000000002 3953.9 1157.6700000000003 3954.04C1157.1200000000003 3954.18 1156.3300000000004 3954.58 1155.7200000000003 3955.69C1154.9300000000003 3957.12 1154.7600000000002 3958.67 1154.6900000000003 3960.13C1154.6500000000003 3961.02 1154.5000000000002 3961.26 1154.4400000000003 3961.32C1154.3500000000004 3961.3900000000003 1154.0800000000004 3961.53 1153.1600000000003 3961.57C1148.7300000000002 3961.78 1145.0100000000002 3960.9900000000002 1141.8000000000004 3959.15C1139.0000000000005 3957.55 1136.5500000000004 3955.25 1134.0800000000004 3951.9100000000003C1130.4000000000003 3946.9200000000005 1127.1600000000003 3941.1400000000003 1123.5800000000004 3933.1700000000005C1123.4500000000003 3932.8800000000006 1123.4100000000003 3932.7000000000007 1123.4000000000003 3932.6000000000004C1123.4900000000002 3932.57 1123.6700000000003 3932.53 1123.9800000000002 3932.53C1126.5900000000001 3932.48 1129.2600000000002 3932.48 1132.1500000000003 3932.53C1132.5500000000004 3932.53 1133.0000000000002 3932.65 1133.3400000000004 3933.4900000000002C1134.9600000000003 3937.46 1136.8200000000004 3940.9100000000003 1139.0400000000004 3944.05C1139.6300000000003 3944.88 1140.3700000000003 3945.92 1141.4500000000005 3946.6600000000003C1142.4400000000005 3947.3300000000004 1143.2400000000005 3947.3 1143.7400000000005 3947.1600000000003C1144.2400000000005 3947.01 1144.9300000000005 3946.6000000000004 1145.4000000000005 3945.5000000000005C1145.7000000000005 3944.7900000000004 1145.8800000000006 3943.9800000000005 1145.9700000000005 3942.9700000000003C1146.2300000000005 3939.96 1146.1800000000005 3937.46 1145.8300000000004 3935.1000000000004C1145.5800000000004 3933.4200000000005 1144.7000000000003 3932.1900000000005 1143.3300000000004 3931.57C1143.5700000000004 3931.44 1143.8500000000004 3931.3900000000003 1144.2300000000005 3931.3900000000003L1153.5900000000004 3931.3900000000003C1154.1200000000003 3931.51 1154.2200000000005 3931.6500000000005 1154.2600000000004 3931.7000000000003C1154.4100000000005 3931.9 1154.5000000000005 3932.38 1154.5500000000004 3932.7500000000005L1154.5600000000004 3943.1900000000005C1154.5400000000004 3944.1900000000005 1155.0200000000004 3946.4100000000003 1156.6800000000003 3947.0200000000004C1156.6900000000003 3947.0200000000004 1156.7100000000003 3947.0300000000007 1156.7200000000003 3947.0300000000007C1158.2300000000002 3947.5200000000004 1159.2200000000003 3946.4600000000005 1159.7600000000002 3945.890000000001L1159.8600000000001 3945.790000000001C1162.3700000000001 3943.110000000001 1164.0700000000002 3939.9900000000007 1165.4 3937.290000000001C1166.0900000000001 3935.890000000001 1166.67 3934.4500000000007 1167.17 3933.210000000001C1167.41 3932.580000000001 1167.64 3932.480000000001 1168.18 3932.490000000001C1168.18 3932.490000000001 1168.19 3932.490000000001 1168.2 3932.490000000001L1177.3300000000002 3932.5000000000014C1177.5400000000002 3932.5000000000014 1177.7600000000002 3932.5000000000014 1177.93 3932.5300000000016C1178.3700000000001 3932.6100000000015 1178.55 3932.7000000000016 1178.6100000000001 3932.7400000000016C1178.6100000000001 3932.8000000000015 1178.6100000000001 3933.000000000002 1178.48 3933.4200000000014C1177.82 3935.5100000000016 1176.54 3937.2800000000016 1175.18 3939.1500000000015L1175.02 3939.3800000000015C1174.32 3940.3500000000013 1173.57 3941.3300000000013 1172.86 3942.2800000000016C1172.03 3943.3700000000017 1171.1699999999998 3944.5000000000014 1170.36 3945.6400000000017C1168.62 3948.0600000000018 1168.78 3949.670000000002 1170.9399999999998 3951.790000000002C1171.4499999999998 3952.290000000002 1171.9799999999998 3952.7800000000016 1172.4899999999998 3953.2600000000016C1173.9299999999998 3954.6300000000015 1175.2899999999997 3955.9100000000017 1176.4999999999998 3957.3700000000017C1177.1299999999999 3958.130000000002 1177.8499999999997 3959.0500000000015 1178.3799999999999 3960.0700000000015C1178.6499999999999 3960.6000000000017 1178.59 3961.0800000000017 1178.4399999999998 3961.3300000000017Z " fill="#000000" fill-opacity="1" transform="matrix(1,0,0,1,-1121,-3929)"></path></svg>