<svg id="SvgjsSvg1100" xmlns="http://www.w3.org/2000/svg" version="1.1" xmlns:xlink="http://www.w3.org/1999/xlink" xmlns:svgjs="http://svgjs.com/svgjs" width="50" height="50" viewBox="0 0 50 50"><title>Forma 1</title><desc>Created with Avocode.</desc><defs id="SvgjsDefs1101"></defs><path id="SvgjsPath1102" d="M461.918 3772.02L461.918 3765L438.082 3765L438.082 3772.02L425 3772.02L425 3815L475 3815L475 3772.02ZM472.969 3774.15L472.969 3787.35L454.255 3787.35L454.255 3781.6L445.745 3781.6L445.745 3787.35L427.133 3787.35L427.133 3774.15ZM440.214 3767.13L459.786 3767.13L459.786 3772.03L440.214 3772.03ZM452.133 3793.08L447.878 3793.08L447.878 3783.61L452.133 3783.61ZM427.133 3789.47L445.745 3789.47L445.745 3795.2099999999996L454.255 3795.2099999999996L454.255 3789.47L472.98 3789.47L472.98 3812.8799999999997L427.13300000000004 3812.8799999999997Z " fill="#000000" fill-opacity="1" transform="matrix(1,0,0,1,-425,-3765)"></path></svg>