<svg width="10" height="14" viewBox="0 0 10 14" fill="none" xmlns="http://www.w3.org/2000/svg">
<path fill-rule="evenodd" clip-rule="evenodd" d="M6.51509 10.1736C7.27692 10.0061 8.01165 9.71515 8.68838 9.30488C9.20052 8.99317 9.35481 8.33971 9.03212 7.84535C8.70965 7.34991 8.03315 7.20076 7.52011 7.51246C5.98705 8.44304 4.01329 8.44282 2.48113 7.51246C1.9681 7.20076 1.29137 7.34991 0.969572 7.84535C0.646882 8.34015 0.800725 8.99317 1.31286 9.30488C1.98959 9.71472 2.72432 10.0061 3.48615 10.1736L1.3937 12.1934C0.965989 12.6067 0.965989 13.2768 1.39415 13.6901C1.60846 13.8966 1.88882 13.9999 2.16919 13.9999C2.45 13.9999 2.73082 13.8966 2.94512 13.6901L5.0004 11.7053L7.05746 13.6901C7.48518 14.1034 8.17915 14.1034 8.60732 13.6901C9.03593 13.2768 9.03593 12.6063 8.60732 12.1934L6.51509 10.1736Z" fill="black"/>
<path fill-rule="evenodd" clip-rule="evenodd" d="M8.73427 3.61292C8.73427 5.60464 7.0561 7.22477 4.99164 7.22477C2.92764 7.22477 1.24902 5.60464 1.24902 3.61292C1.24902 1.62056 2.92764 0 4.99164 0C7.0561 0 8.73427 1.62056 8.73427 3.61292ZM6.53969 3.61281C6.53969 2.78794 5.84459 2.11719 4.99006 2.11719C4.13619 2.11719 3.44043 2.78794 3.44043 3.61281C3.44043 4.43703 4.13619 5.10821 4.99006 5.10821C5.84459 5.10821 6.53969 4.43703 6.53969 3.61281Z" fill="black"/>
</svg>
