<svg width="14" height="12" viewBox="0 0 14 12" fill="none" xmlns="http://www.w3.org/2000/svg">
<path fill-rule="evenodd" clip-rule="evenodd" d="M6.5807 3.37977L6.61008 3.8642L6.12044 3.80488C4.33817 3.57749 2.78113 2.80636 1.45911 1.51124L0.812795 0.868631L0.646319 1.34318C0.293781 2.40102 0.519014 3.51817 1.25347 4.26954C1.64518 4.68476 1.55704 4.74408 0.881344 4.49692C0.646319 4.41783 0.440672 4.35851 0.421087 4.38817C0.352538 4.45738 0.587563 5.35704 0.773624 5.71295C1.02823 6.20726 1.54725 6.6917 2.11523 6.9784L2.59507 7.20579L2.02709 7.21567C1.4787 7.21567 1.45911 7.22556 1.51787 7.43317C1.71372 8.07579 2.48735 8.75794 3.34911 9.05453L3.95625 9.26215L3.42745 9.57851C2.64403 10.0333 1.72352 10.2903 0.803002 10.3101C0.36233 10.32 0 10.3595 0 10.3892C0 10.4881 1.19471 11.0417 1.88999 11.2592C3.97584 11.9018 6.4534 11.625 8.31401 10.5276C9.63603 9.74658 10.958 8.19442 11.575 6.6917C11.9079 5.8909 12.2409 4.42772 12.2409 3.72579C12.2409 3.27102 12.2703 3.2117 12.8187 2.66795C13.1418 2.35158 13.4454 2.00556 13.5041 1.9067C13.6021 1.71886 13.5923 1.71886 13.0929 1.88693C12.2605 2.18352 12.143 2.14397 12.5543 1.69908C12.8578 1.38272 13.2202 0.809313 13.2202 0.641245C13.2202 0.611585 13.0733 0.661017 12.9068 0.749994C12.7305 0.848858 12.3388 0.997153 12.045 1.08613L11.5162 1.2542L11.0364 0.927949C10.772 0.749994 10.3999 0.552267 10.204 0.492949C9.70458 0.35454 8.94074 0.374313 8.49028 0.532495C7.26619 0.977381 6.49257 2.1242 6.5807 3.37977Z" fill="black"/>
</svg>
