<svg width="16" height="12" viewBox="0 0 16 12" fill="none" xmlns="http://www.w3.org/2000/svg">
<path fill-rule="evenodd" clip-rule="evenodd" d="M13.8341 1.18763C14.4767 1.36395 14.9827 1.88348 15.1545 2.54323C15.4665 3.73896 15.4665 6.23385 15.4665 6.23385C15.4665 6.23385 15.4665 8.72866 15.1545 9.92448C14.9827 10.5842 14.4767 11.1038 13.8341 11.2802C12.6697 11.6005 7.99987 11.6005 7.99987 11.6005C7.99987 11.6005 3.33006 11.6005 2.16552 11.2802C1.52296 11.1038 1.01692 10.5842 0.845191 9.92448C0.533203 8.72866 0.533203 6.23385 0.533203 6.23385C0.533203 6.23385 0.533203 3.73896 0.845191 2.54323C1.01692 1.88348 1.52296 1.36395 2.16552 1.18763C3.33006 0.867188 7.99987 0.867188 7.99987 0.867188C7.99987 0.867188 12.6697 0.867188 13.8341 1.18763ZM6.60059 4.13281V8.79948L10.3339 6.46624L6.60059 4.13281Z" fill="black"/>
</svg>
