<svg width="268" height="239" viewBox="0 0 268 239" fill="none" xmlns="http://www.w3.org/2000/svg">
<g filter="url(#filter0_d)">
<path d="M163.178 16.8512L134.183 33.7024L104.989 16.8512L133.985 0L163.178 16.8512Z" fill="#FB9082"/>
<path d="M163.177 16.8512L163.073 51.0534L134.077 67.893L134.182 33.7024L163.177 16.8512Z" fill="#FF634E"/>
<path d="M134.183 33.7024L134.078 67.893L104.896 51.0534L104.989 16.8512L134.183 33.7024Z" fill="#FF705C"/>
<path d="M210.943 94.1229L210.838 128.325L181.656 111.474L181.749 77.2716L210.943 94.1229Z" fill="#3B3B3B"/>
<path d="M42.4785 86.8824L120.691 43.0925" stroke="#E8432D" stroke-width="3" stroke-miterlimit="10" stroke-linecap="round"/>
<path d="M118.669 146.896L196.893 103.106" stroke="#E8432D" stroke-width="3" stroke-miterlimit="10" stroke-linecap="round"/>
<path d="M86.8375 62.1055L57.8301 78.9567L28.6484 62.1055L57.6442 45.2543L86.8375 62.1055Z" fill="#4F4F4F"/>
<path d="M86.8367 62.1055L86.7321 96.3077L57.7363 113.159L57.8293 78.9567L86.8367 62.1055Z" fill="#181818"/>
<path d="M57.8293 78.9567L57.7364 113.159L28.5547 96.3077L28.6477 62.1055L57.8293 78.9567Z" fill="#3B3B3B"/>
<path d="M141.516 136.599L74.2969 89.6136" stroke="#E8432D" stroke-width="3" stroke-miterlimit="10" stroke-linecap="round"/>
<path d="M229.306 102.525L147.374 44.9986" stroke="#E8432D" stroke-width="3" stroke-miterlimit="10" stroke-linecap="round"/>
<path d="M163.586 121.375L134.59 138.226L105.408 121.375L134.404 104.524L163.586 121.375Z" fill="#4F4F4F"/>
<path d="M163.586 121.375L163.493 155.577L134.497 172.429L134.59 138.226L163.586 121.375Z" fill="#181818"/>
<path d="M134.592 138.226L134.499 172.429L105.317 155.577L105.41 121.375L134.592 138.226Z" fill="#3B3B3B"/>
<path d="M239.939 77.2717L210.943 94.1229L181.75 77.2717L210.746 60.4321L239.939 77.2717Z" fill="#4F4F4F"/>
<path d="M239.937 77.2716L239.833 111.474L210.837 128.325L210.942 94.1229L239.937 77.2716Z" fill="#181818"/>
</g>
<defs>
<filter id="filter0_d" x="0.554688" y="0" width="267.384" height="238.429" filterUnits="userSpaceOnUse" color-interpolation-filters="sRGB">
<feFlood flood-opacity="0" result="BackgroundImageFix"/>
<feColorMatrix in="SourceAlpha" type="matrix" values="0 0 0 0 0 0 0 0 0 0 0 0 0 0 0 0 0 0 127 0"/>
<feOffset dy="38"/>
<feGaussianBlur stdDeviation="14"/>
<feColorMatrix type="matrix" values="0 0 0 0 0 0 0 0 0 0 0 0 0 0 0 0 0 0 0.1 0"/>
<feBlend mode="normal" in2="BackgroundImageFix" result="effect1_dropShadow"/>
<feBlend mode="normal" in="SourceGraphic" in2="effect1_dropShadow" result="shape"/>
</filter>
</defs>
</svg>
