<svg width="242" height="235" viewBox="0 0 242 235" fill="none" xmlns="http://www.w3.org/2000/svg">
<circle cx="124" cy="117.396" r="116.396" stroke="#FF634E" stroke-width="2" stroke-linecap="round" stroke-dasharray="0.1 10"/>
<circle cx="123.737" cy="117.133" r="87.7358" fill="#F5F5F5"/>
<path d="M176.319 75.433L78.2683 35.0086C76.8162 34.3862 75.5999 34.3959 74.3238 35.0088L64.5 37.8965L68.4273 46.557L71.239 52.716V139.249C71.239 141.075 72.2219 142.73 73.7465 143.471L159.506 185.134L167 197.397L176.903 191.495C178.131 190.71 178.999 189.259 178.999 187.502V79.7345C178.999 77.8331 177.935 76.126 176.319 75.433Z" fill="#F45B46"/>
<path d="M61 41.8664C61 38.9949 63.936 37.0588 66.5754 38.1897L166.533 81.0196C168.004 81.6498 168.957 83.096 168.957 84.6963V193.858C168.957 196.812 165.867 198.747 163.21 197.457L63.2527 148.916C61.8748 148.247 61 146.85 61 145.318V41.8664Z" fill="#FF705C"/>
<ellipse cx="125.65" cy="102.333" rx="8.15957" ry="11.2979" fill="white"/>
<ellipse cx="138.83" cy="154.428" rx="8.78723" ry="11.9255" fill="white"/>
<path d="M168.957 101.077L179 94.8007V101.077L168.957 107.354V101.077Z" fill="#F5F5F5"/>
<path d="M168.957 101.077L143.851 91.0348V97.3114L168.957 107.354V101.077Z" fill="white"/>
<path d="M129.415 99.822L143.852 91.0348V97.3114L129.415 106.099V99.822Z" fill="white"/>
<path d="M168.957 162.588L179 156.311V162.588L168.957 168.865V162.588Z" fill="#F5F5F5"/>
<path d="M168.957 162.588L144.478 151.29V157.567L168.957 168.865V162.588Z" fill="white"/>
<circle r="2.92453" transform="matrix(-1 0 0 1 208.812 105.113)" fill="#181818"/>
<circle r="7.60377" transform="matrix(-1 0 0 1 7.60423 93.4151)" fill="#FF634E"/>
</svg>
