<svg width="62" height="49" viewBox="0 0 62 49" fill="none" xmlns="http://www.w3.org/2000/svg">
<circle r="2.5" transform="matrix(1 0 0 -1 58.5 3.5)" fill="white" stroke="white" stroke-width="2"/>
<circle r="2.5" transform="matrix(1 0 0 -1 58.5 24.5)" fill="white" stroke="white" stroke-width="2"/>
<circle r="2.5" transform="matrix(1 0 0 -1 58.5 45.5)" fill="white" stroke="white" stroke-width="2"/>
<line x1="40" y1="25" x2="55" y2="25" stroke="white" stroke-width="2" stroke-linecap="round"/>
<path d="M40 15H54.5L58.5 6" stroke="white" stroke-width="2" stroke-linecap="round" stroke-linejoin="round"/>
<path d="M40 35C39.4477 35 39 34.5523 39 34C39 33.4477 39.4477 33 40 33V35ZM54.5 34V33C54.8952 33 55.2533 33.2327 55.4138 33.5939L54.5 34ZM59.4138 42.5939C59.6381 43.0985 59.4108 43.6895 58.9061 43.9138C58.4015 44.1381 57.8105 43.9108 57.5862 43.4061L59.4138 42.5939ZM40 33H54.5V35H40V33ZM55.4138 33.5939L59.4138 42.5939L57.5862 43.4061L53.5862 34.4061L55.4138 33.5939Z" fill="white"/>
<rect y="7" width="36" height="11" rx="2" fill="#FF634E"/>
<rect y="20" width="36" height="11" rx="2" fill="#FF634E"/>
<rect y="33" width="36" height="11" rx="2" fill="#FF634E"/>
</svg>
