<svg width="68" height="57" viewBox="0 0 68 57" fill="none" xmlns="http://www.w3.org/2000/svg">
<rect x="32.082" y="38.3974" width="4.6189" height="28.8681" rx="2.30945" transform="rotate(-50.2323 32.082 38.3974)" fill="#FF634E"/>
<circle r="2.5" transform="matrix(1 7.68709e-09 7.68709e-09 -1 63.9219 6.65039)" fill="white" stroke="white" stroke-width="2"/>
<circle r="2.5" transform="matrix(1 7.68709e-09 7.68709e-09 -1 53.5 26.5)" fill="white" stroke="white" stroke-width="2"/>
<circle r="2.5" transform="matrix(1 7.68709e-09 7.68709e-09 -1 43.9238 17.6504)" fill="white" stroke="white" stroke-width="2"/>
<circle r="2.5" transform="matrix(1 7.68709e-09 7.68709e-09 -1 24.9219 31.6504)" fill="white" stroke="white" stroke-width="2"/>
<circle r="2.5" transform="matrix(1 7.68709e-09 7.68709e-09 -1 14.9219 25.6504)" fill="white" stroke="white" stroke-width="2"/>
<path d="M63.5 7.99994L54 27.4999L44.5 17.9999L24.9219 33.1503L14.9219 25.6503H4.42188" stroke="white" stroke-width="2" stroke-linecap="round" stroke-linejoin="round"/>
<circle cx="22.0194" cy="27.0197" r="16.6643" transform="rotate(-50.2323 22.0194 27.0197)" stroke="#FF634E" stroke-width="4"/>
</svg>
