<svg width="61" height="41" viewBox="0 0 61 41" fill="none" xmlns="http://www.w3.org/2000/svg">
<path fill-rule="evenodd" clip-rule="evenodd" d="M30.5 0C13.6553 0 0 13.6553 0 30.5V34.4186C0 35.8443 1.15573 37 2.58139 37H22C22 32.5817 25.8056 29 30.5 29C35.1944 29 39 32.5817 39 37H58.4186C59.8443 37 61 35.8443 61 34.4186V30.5C61 13.6553 47.3447 0 30.5 0Z" fill="#FF634E"/>
<path d="M29.1346 36.499C28.8579 36.9769 29.021 37.5887 29.499 37.8654C29.9769 38.1421 30.5887 37.979 30.8654 37.501L29.1346 36.499ZM41.8654 18.501C42.1421 18.0231 41.979 17.4113 41.501 17.1346C41.0231 16.8579 40.4113 17.021 40.1346 17.499L41.8654 18.501ZM30.8654 37.501L41.8654 18.501L40.1346 17.499L29.1346 36.499L30.8654 37.501Z" fill="white"/>
<path d="M30.5 5C16.969 5 6 15.7452 6 29H10.0833M30.5 5C44.031 5 55 15.7452 55 29H50.9167M30.5 5V9" stroke="white" stroke-width="2" stroke-linecap="round" stroke-linejoin="round"/>
<circle cx="30.5" cy="37.5" r="3.5" fill="white"/>
</svg>
