<svg width="59" height="56" viewBox="0 0 59 56" fill="none" xmlns="http://www.w3.org/2000/svg">
<path fill-rule="evenodd" clip-rule="evenodd" d="M12.5 0C10.8431 0 9.5 1.34314 9.5 3V45.7495C9.5 47.4064 10.8431 48.7495 12.5 48.7495H55.2495C56.9064 48.7495 58.2495 47.4064 58.2495 45.7495V35.4244H51.6256C51.1927 37.1065 49.6657 38.3494 47.8485 38.3494C45.6946 38.3494 43.9486 36.6033 43.9486 34.4494C43.9486 32.2956 45.6946 30.5495 47.8485 30.5495C49.6657 30.5495 51.1927 31.7924 51.6256 33.4744H58.2495V3C58.2495 1.34315 56.9064 0 55.2495 0H12.5ZM58.2485 6.49972H43.2198L39.8179 9.90162C39.1611 9.3986 38.3398 9.0997 37.4486 9.0997C35.2947 9.0997 33.5487 10.8458 33.5487 12.9997C33.5487 15.1535 35.2947 16.8996 37.4486 16.8996C39.6025 16.8996 41.3486 15.1535 41.3486 12.9997C41.3486 12.4486 41.2343 11.9243 41.0282 11.449L44.0275 8.4497H58.2485V6.49972Z" fill="#FF634E"/>
<path d="M2.04108 35.9218C6.83999 36.3592 11.3338 38.4647 14.7412 41.8721C18.1487 45.2795 20.2541 49.7734 20.6915 54.5723" stroke="#F5F5F5" stroke-width="2" stroke-linecap="round" stroke-linejoin="round"/>
<path d="M2.00001 26.477C9.2833 26.9359 16.149 30.0362 21.3093 35.1965C26.4695 40.3567 29.5698 47.2224 30.0287 54.5057" stroke="#F5F5F5" stroke-width="2" stroke-linecap="round" stroke-linejoin="round"/>
<path d="M2.0001 45.3129C4.30022 45.7023 6.42219 46.7977 8.07176 48.4472C9.72133 50.0968 10.8167 52.2188 11.2061 54.5189" stroke="#F5F5F5" stroke-width="2" stroke-linecap="round" stroke-linejoin="round"/>
</svg>
