<svg width="32" height="19" viewBox="0 0 32 19" fill="none" xmlns="http://www.w3.org/2000/svg">
<path d="M25.2088 4.75516L25.2088 4.75523H25.2206C25.2406 4.75523 25.2729 4.75853 25.361 4.78176C25.3666 4.78323 25.3758 4.78571 25.3873 4.78884C25.3937 4.79057 25.4008 4.79249 25.4084 4.79455L30.9999 10.2835V17.4782H28.9116H22.7349H21.1738V4.7075L25.2088 4.75516ZM31.1754 17.4778C31.1755 17.4779 31.1748 17.4781 31.1733 17.4782L31.1754 17.4778Z" fill="#FF634E" stroke="#181818" stroke-width="2" stroke-miterlimit="10" stroke-linecap="round" stroke-linejoin="round"/>
<path d="M21.1739 17.4783H21.161H21.1312H21.1012H21.071H21.0407H21.0102H20.9795H20.9487H20.9176H20.8865H20.8551H20.8236H20.7919H20.76H20.728H20.6958H20.6634H20.6309H20.5982H20.5654H20.5324H20.4993H20.4659H20.4325H20.3989H20.3651H20.3312H20.2971H20.2628H20.2285H20.1939H20.1593H20.1244H20.0895H20.0543H20.0191H19.9837H19.9481H19.9125H19.8766H19.8407H19.8046H19.7683H19.732H19.6955H19.6588H19.622H19.5851H19.5481H19.5109H19.4736H19.4362H19.3987H19.361H19.3232H19.2853H19.2473H19.2091H19.1708H19.1324H19.0939H19.0552H19.0165H18.9776H18.9386H18.8995H18.8603H18.821H18.7816H18.742H18.7024H18.6626H18.6228H18.5828H18.5428H18.5026H18.4623H18.4219H18.3815H18.3409H18.3002H18.2594H18.2186H18.1776H18.1366H18.0954H18.0542H18.0129H17.9714H17.9299H17.8883H17.8467H17.8049H17.7631H17.7211H17.6791H17.637H17.5948H17.5526H17.5102H17.4678H17.4253H17.3828H17.3401H17.2974H17.2546H17.2118H17.1688H17.1259H17.0828H17.0397H16.9965H16.9532H16.9099H16.8665H16.823H16.7795H16.7359H16.6923H16.6486H16.6049H16.5611H16.5172H16.4733H16.4293H16.3853H16.3412H16.2971H16.253H16.2087H16.1645H16.1202H16.0758H16.0314H15.987H15.9425H15.898H15.8534H15.8088H15.7642H15.7195H15.6748H15.63H15.5853H15.5405H15.4956H15.4507H15.4058H15.3609H15.316H15.271H15.226H15.1809H15.1359H15.0908H15.0457H15.0006H14.9554H14.9103H14.8651H14.8199H14.7747H14.7295H14.6842H14.639H14.5937H14.5485H14.5032H14.4579H14.4126H14.3673H14.322H14.2767H14.2314H14.1861H14.1407H14.0954H14.0501H14.0048H13.9595H13.9142H13.8689H13.8236H13.7783H13.7331H13.6878H13.6425H13.5973H13.552H13.5068H13.4616H13.4164H13.3713H13.3261H13.281H13.2358H13.1907H13.1457H13.1006H13.0556H13.0106H12.9656H12.9206H12.8757H12.8308H12.786H12.7411H12.6963H12.6515H12.6068H12.5621H12.5174H12.4728H12.4282H12.3837H12.3391H12.2947H12.2502H12.2058H12.1615H12.1172H12.0729H12.0287H11.9846H11.9405H11.8964H11.8524H11.8084H11.7645H11.7207H11.6769H11.6332H11.5895H11.5459H11.5023H11.4588H11.4153H11.372H11.3286H11.2854H11.2422H11.1991H11.156H11.1131H11.0701H11.0273H10.9845H10.9418H10.8992H10.8566H10.8142H10.7718H10.7294H10.6872H10.645H10.6029H10.5609H10.519H10.4772H10.4354H10.3938H10.3522H10.3107H10.2693H10.228H10.1868H10.1456H10.1046H10.0637H10.0228H9.98206H9.94141H9.90085H9.86039H9.82003H9.77978H9.73962H9.69957H9.65962H9.61978H9.58005H9.54042H9.5009H9.46149H9.42218H9.383H9.34392H9.30495H9.2661H9.22737H9.18875H9.15025H9.11187H9.07361H9.03546H8.99744H8.95954H8.92177H8.88412H8.84659H8.8092H8.77192H8.73478H8.69777H8.66089H8.62414H8.58752H8.55104H8.51469H8.47847H8.4424H8.40646H8.37066H8.335H8.29948H8.2641H8.22887H8.19378H8.15883H8.12403H8.08938H8.05487H8.02052H7.98631H7.95225H7.91835H7.8846H7.85101H7.81757H7.78428H7.75115H7.71818H7.68537H7.65273H7.62024H7.58791H7.55575H7.52375H7.49192H7.46025H7.42875H7.39742H7.36626H7.33527H7.30445H7.2738H7.24332H7.21302H7.1829H7.15295H7.12318H7.09359H7.06418H7.03495H7.0059H6.97703H6.94835H6.91985H6.89154H6.86341H6.83547H6.80772H6.78017H6.7528H6.72562H6.69864H6.67185H6.64525H6.61885H6.59265H6.56664H6.54084H6.51523H6.48983H6.46463H6.43963H6.41483H6.39024H6.36586H6.34168H6.31771H6.29395H6.2704H6.24706H6.22394H6.20103H6.17833H6.15584H6.13358H6.11153H6.0897H6.06808H6.04669H6.02552H6.00458H5.98385H5.96335H5.94308H5.92303H5.90321H5.88362H5.86426H5.84513H5.82623H5.80756H5.78913H5.77093H5.75296H5.73524H5.71775H5.7005H5.68349H5.66672H5.65019H5.63391H5.61787H5.60207H5.58652H5.57122H5.55616H5.54136H5.5268H5.5125H5.49844H5.48464H5.4711H5.45781H5.44477H5.43199H5.41947H5.40721H5.39521H5.38347H5.372H5.36078H5.34983H5.33915H5.32873H5.31858H5.3087H5.29909H5.28974H5.28067H5.27187H5.26335H5.2551H5.24712H5.23943H5.232H5.22486H5.218H5.21142H5.20511H5.1991H5.19336H5.18791H5.18275H5.17787H5.17328H5.16898H5.16497H5.16125H5.15782H5.15468H5.15184H5.14929H5.14704H5.14509H5.14343H5.14207H5.14101H5.14026H5.1398C5.1397 17.4783 5.13965 17.4783 5.13965 18.4783V17.4783H1V1H21.1739V17.4783ZM21.3739 1.00073C21.3738 1.0008 21.373 1.00071 21.3713 1.00024C21.373 1.00042 21.3739 1.00066 21.3739 1.00073ZM0.800074 17.4775C0.800085 17.4775 0.800938 17.4776 0.802604 17.478C0.800898 17.4778 0.800063 17.4776 0.800074 17.4775Z" fill="#FF634E" stroke="#181818" stroke-width="2" stroke-miterlimit="10" stroke-linecap="round" stroke-linejoin="round"/>
<path d="M26 19C27.1046 19 28 18.1046 28 17C28 15.8954 27.1046 15 26 15C24.8954 15 24 15.8954 24 17C24 18.1046 24.8954 19 26 19Z" fill="#FF634E"/>
<path d="M7 19C8.10457 19 9 18.1046 9 17C9 15.8954 8.10457 15 7 15C5.89543 15 5 15.8954 5 17C5 18.1046 5.89543 19 7 19Z" fill="#FF634E"/>
</svg>
