<svg width="851" height="232" viewBox="0 0 851 232" fill="none" xmlns="http://www.w3.org/2000/svg">
<g opacity="0.1">
<path d="M1 -49L59.8584 91.2118H141.159" stroke="#2E2E2E"/>
<path d="M82.3008 -49L141.159 91.2118" stroke="#2E2E2E"/>
<path d="M200.441 -49L141.583 91.2118" stroke="#2E2E2E"/>
<path d="M119.564 -49L178.422 91.2118H259.723" stroke="#2E2E2E"/>
<path d="M200.864 -49L259.723 91.2118" stroke="#2E2E2E"/>
<path d="M319.005 -49L260.146 91.2118" stroke="#2E2E2E"/>
<path d="M237.28 -49L296.139 91.2118H377.439" stroke="#2E2E2E"/>
<path d="M318.581 -49L377.439 91.2118" stroke="#2E2E2E"/>
<path d="M436.721 -49L377.863 91.2118" stroke="#2E2E2E"/>
<path d="M355.844 -49L414.702 91.2118H496.003" stroke="#2E2E2E"/>
<path d="M437.145 -49L496.003 91.2118" stroke="#2E2E2E"/>
<path d="M555.285 -49L496.427 91.2118" stroke="#2E2E2E"/>
<path d="M473.561 -49L532.419 91.2118H613.72" stroke="#2E2E2E"/>
<path d="M554.861 -49L613.72 91.2118" stroke="#2E2E2E"/>
<path d="M673.001 -49L614.143 91.2118" stroke="#2E2E2E"/>
<path d="M592.124 -49L650.983 91.2118H732.283" stroke="#2E2E2E"/>
<path d="M673.425 -49L732.283 91.2118" stroke="#2E2E2E"/>
<path d="M791.565 -49L732.707 91.2118" stroke="#2E2E2E"/>
<path d="M59.4348 90.7881L118.293 231H199.594" stroke="#2E2E2E"/>
<path d="M140.736 90.7881L199.594 231" stroke="#2E2E2E"/>
<path d="M258.876 90.7881L200.017 231" stroke="#2E2E2E"/>
<path d="M177.999 90.7881L236.857 231H318.158" stroke="#2E2E2E"/>
<path d="M259.299 90.7881L318.157 231" stroke="#2E2E2E"/>
<path d="M377.439 90.7881L318.581 231" stroke="#2E2E2E"/>
<path d="M295.715 90.7881L354.573 231H435.874" stroke="#2E2E2E"/>
<path d="M377.016 90.7881L435.874 231" stroke="#2E2E2E"/>
<path d="M495.156 90.7881L436.298 231" stroke="#2E2E2E"/>
<path d="M414.279 90.7881L473.137 231H554.438" stroke="#2E2E2E"/>
<path d="M495.579 90.7881L554.438 231" stroke="#2E2E2E"/>
<path d="M613.72 90.7881L554.861 231" stroke="#2E2E2E"/>
<path d="M531.995 90.7881L590.854 231H672.154" stroke="#2E2E2E"/>
<path d="M613.296 90.7881L672.155 231" stroke="#2E2E2E"/>
<path d="M731.436 90.7881L672.578 231" stroke="#2E2E2E"/>
<path d="M650.559 90.7881L709.417 231H790.718" stroke="#2E2E2E"/>
<path d="M731.86 90.7881L790.718 231" stroke="#2E2E2E"/>
<path d="M850 90.7881L791.142 231" stroke="#2E2E2E"/>
</g>
</svg>
