<svg width="532" height="532" viewBox="0 0 532 532" fill="none" xmlns="http://www.w3.org/2000/svg" xmlns:xlink="http://www.w3.org/1999/xlink">
<g filter="url(#filter0_i)">
<circle cx="266" cy="266" r="217" fill="url(#pattern0)"/>
</g>
<circle cx="266" cy="266" r="265" stroke="#FF634E" stroke-width="2" stroke-linecap="round" stroke-dasharray="0.1 10"/>
<circle opacity="0.5" cx="266" cy="266" r="185" fill="white"/>
<path opacity="0.1" d="M197.434 177.573C197.75 176.229 196.917 174.883 195.573 174.566C194.229 174.25 192.883 175.083 192.566 176.427L197.434 177.573ZM203.5 237.5L205.888 236.759L205.854 236.649L205.81 236.543L203.5 237.5ZM352.054 357.04C353.181 357.838 354.741 357.572 355.54 356.446C356.338 355.319 356.072 353.759 354.946 352.96L352.054 357.04ZM321.164 321.188L322.739 323.129L321.164 321.188ZM361.686 288.312L363.261 290.253L361.686 288.312ZM312.031 261.05L310.855 258.844L312.031 261.05ZM314.998 258.004L312.762 256.886L314.998 258.004ZM275.213 290.663L273.384 292.368L275.213 290.663ZM277.038 279.713L275.862 277.507L277.038 279.713ZM288.448 321.743L288.325 319.246L288.448 321.743ZM261.182 324.559L259.555 322.66L261.182 324.559ZM241.988 341.011L240.361 339.112L241.988 341.011ZM225.202 262.473L224.446 260.09L225.202 262.473ZM234.237 268.087L231.766 268.465L234.237 268.087ZM219.214 264.371L218.458 261.988L219.214 264.371ZM217.916 310.553L215.652 311.614L217.916 310.553ZM322.521 242.957L324.758 244.075L322.521 242.957ZM334.317 241.801L332.34 243.332L334.317 241.801ZM192.566 176.427L187.083 199.73L191.951 200.875L197.434 177.573L192.566 176.427ZM187.554 205.542L201.19 238.457L205.81 236.543L192.174 203.628L187.554 205.542ZM201.112 238.241L208.025 260.514L212.8 259.032L205.888 236.759L201.112 238.241ZM219.969 266.754L225.957 264.856L224.446 260.09L218.458 261.988L219.969 266.754ZM231.766 268.465L235.622 293.682L240.565 292.926L236.708 267.709L231.766 268.465ZM230.595 298.825L225.475 298.161L224.832 303.12L229.953 303.783L230.595 298.825ZM215.652 311.614L228.83 339.728L233.357 337.606L220.179 309.492L215.652 311.614ZM243.615 342.909L262.809 326.457L259.555 322.66L240.361 339.112L243.615 342.909ZM265.515 325.379L288.572 324.24L288.325 319.246L265.269 320.385L265.515 325.379ZM295.051 308.273L277.041 288.958L273.384 292.368L291.394 311.683L295.051 308.273ZM278.215 281.919L313.208 263.256L310.855 258.844L275.862 277.507L278.215 281.919ZM317.234 259.122L324.758 244.075L320.285 241.839L312.762 256.886L317.234 259.122ZM332.34 243.332L360.833 280.12L364.786 277.059L336.293 240.27L332.34 243.332ZM360.11 286.37L319.588 319.247L322.739 323.129L363.261 290.253L360.11 286.37ZM320.08 334.374L352.054 357.04L354.946 352.96L322.972 330.295L320.08 334.374ZM319.588 319.247C314.705 323.209 314.949 330.737 320.08 334.374L322.972 330.295C320.541 328.572 320.425 325.006 322.739 323.129L319.588 319.247ZM360.833 280.12C362.331 282.054 362.01 284.829 360.11 286.37L363.261 290.253C367.27 287 367.947 281.141 364.786 277.059L360.833 280.12ZM313.208 263.256C314.946 262.329 316.353 260.884 317.234 259.122L312.762 256.886C312.345 257.721 311.678 258.405 310.855 258.844L313.208 263.256ZM277.041 288.958C275.025 286.796 275.606 283.31 278.215 281.919L275.862 277.507C270.355 280.444 269.128 287.803 273.384 292.368L277.041 288.958ZM288.572 324.24C296.645 323.842 300.563 314.185 295.051 308.273L291.394 311.683C294.005 314.483 292.149 319.057 288.325 319.246L288.572 324.24ZM262.809 326.457C263.566 325.807 264.519 325.428 265.515 325.379L265.269 320.385C263.164 320.489 261.154 321.289 259.555 322.66L262.809 326.457ZM228.83 339.728C231.496 345.414 238.846 346.996 243.615 342.909L240.361 339.112C238.102 341.048 234.62 340.299 233.357 337.606L228.83 339.728ZM235.622 293.682C236.075 296.642 233.565 299.21 230.595 298.825L229.953 303.783C236.221 304.596 241.52 299.174 240.565 292.926L235.622 293.682ZM225.957 264.856C228.591 264.021 231.348 265.734 231.766 268.465L236.708 267.709C235.826 261.944 230.006 258.327 224.446 260.09L225.957 264.856ZM208.025 260.514C209.587 265.547 214.946 268.347 219.969 266.754L218.458 261.988C216.079 262.743 213.54 261.416 212.8 259.032L208.025 260.514ZM225.475 298.161C218.039 297.197 212.469 304.825 215.652 311.614L220.179 309.492C218.672 306.276 221.31 302.663 224.832 303.12L225.475 298.161ZM324.758 244.075C326.24 241.11 330.31 240.711 332.34 243.332L336.293 240.27C332.008 234.738 323.415 235.58 320.285 241.839L324.758 244.075ZM187.083 199.73C186.627 201.669 186.792 203.702 187.554 205.542L192.174 203.628C191.812 202.757 191.734 201.794 191.951 200.875L187.083 199.73Z" fill="#181818"/>
<g filter="url(#filter1_d)">
<path d="M352.054 357.04C353.181 357.838 354.741 357.572 355.54 356.446C356.338 355.319 356.072 353.759 354.946 352.96L352.054 357.04ZM238.721 280.872C238.513 279.507 237.237 278.57 235.872 278.779C234.507 278.987 233.57 280.263 233.779 281.628L238.721 280.872ZM321.526 332.335L320.08 334.374L321.526 332.335ZM361.686 288.312L363.261 290.253L361.686 288.312ZM322.521 242.957L320.285 241.839L322.521 242.957ZM312.031 261.05L310.855 258.844L312.031 261.05ZM314.998 258.004L312.762 256.886L314.998 258.004ZM275.213 290.663L273.384 292.368L275.213 290.663ZM293.223 309.978L291.394 311.683L293.223 309.978ZM265.392 322.882L265.269 320.385L265.392 322.882ZM217.916 310.553L215.652 311.614L217.916 310.553ZM230.595 298.825L225.475 298.161L224.832 303.12L229.953 303.783L230.595 298.825ZM215.652 311.614L228.83 339.728L233.357 337.606L220.179 309.492L215.652 311.614ZM243.615 342.909L262.809 326.457L259.555 322.66L240.361 339.112L243.615 342.909ZM265.515 325.379L288.572 324.24L288.325 319.246L265.269 320.385L265.515 325.379ZM295.051 308.273L277.041 288.958L273.384 292.368L291.394 311.683L295.051 308.273ZM278.215 281.919L313.208 263.256L310.855 258.844L275.862 277.507L278.215 281.919ZM317.234 259.122L324.758 244.075L320.285 241.839L312.762 256.886L317.234 259.122ZM332.34 243.332L360.833 280.12L364.786 277.059L336.293 240.27L332.34 243.332ZM360.11 286.37L319.588 319.247L322.739 323.129L363.261 290.253L360.11 286.37ZM320.08 334.374L352.054 357.04L354.946 352.96L322.972 330.295L320.08 334.374ZM233.779 281.628L235.622 293.682L240.565 292.926L238.721 280.872L233.779 281.628ZM319.588 319.247C314.705 323.209 314.949 330.737 320.08 334.374L322.972 330.295C320.541 328.572 320.425 325.006 322.739 323.129L319.588 319.247ZM360.833 280.12C362.331 282.054 362.01 284.829 360.11 286.37L363.261 290.253C367.27 287 367.947 281.141 364.786 277.059L360.833 280.12ZM324.758 244.075C326.24 241.11 330.31 240.711 332.34 243.332L336.293 240.27C332.008 234.738 323.415 235.58 320.285 241.839L324.758 244.075ZM313.208 263.256C314.946 262.329 316.353 260.884 317.234 259.122L312.762 256.886C312.345 257.721 311.678 258.405 310.855 258.844L313.208 263.256ZM277.041 288.958C275.025 286.796 275.606 283.31 278.215 281.919L275.862 277.507C270.355 280.444 269.128 287.803 273.384 292.368L277.041 288.958ZM288.572 324.24C296.645 323.842 300.563 314.185 295.051 308.273L291.394 311.683C294.005 314.483 292.149 319.057 288.325 319.246L288.572 324.24ZM262.809 326.457C263.566 325.807 264.519 325.428 265.515 325.379L265.269 320.385C263.164 320.489 261.154 321.289 259.555 322.66L262.809 326.457ZM228.83 339.728C231.496 345.414 238.846 346.996 243.615 342.909L240.361 339.112C238.102 341.048 234.62 340.299 233.357 337.606L228.83 339.728ZM225.475 298.161C218.039 297.197 212.469 304.825 215.652 311.614L220.179 309.492C218.672 306.276 221.31 302.663 224.832 303.12L225.475 298.161ZM229.953 303.783C236.221 304.596 241.52 299.174 240.565 292.926L235.622 293.682C236.075 296.642 233.565 299.21 230.595 298.825L229.953 303.783Z" fill="#FF634E"/>
</g>

<g class="main-circle">
<circle opacity="0.3" cx="235" cy="276" r="12" fill="#FF634E"/>
<circle cx="235" cy="276" r="15.5" stroke="#FF634E"/>
<circle cx="235" cy="276" r="7" fill="#FF634E"/>
</g>

<circle cx="359" cy="359" r="5.5" stroke="#FF634E" stroke-width="3"/>

<g filter="url(#filter2_d)">
<circle cx="235" cy="276" r="7" fill="#F45B46"/>
<circle cx="235" cy="276" r="5.5" stroke="#F45B46" stroke-width="3"/>
</g>


<path d="M209 158.5L195 164L195 153L209 158.5Z" fill="#FF634E"/>
<ellipse cx="195.5" cy="176" rx="6.5" ry="2" fill="#9C9C9C"/>
<line x1="195.5" y1="152.5" x2="195.5" y2="175.5" stroke="black" stroke-linecap="round"/>
<defs>
<!-- <filter id="filter0_i" x="49" y="49" width="434" height="438" filterUnits="userSpaceOnUse" color-interpolation-filters="sRGB">
<feFlood flood-opacity="0" result="BackgroundImageFix"/>
<feBlend mode="normal" in="SourceGraphic" in2="BackgroundImageFix" result="shape"/>
<feColorMatrix in="SourceAlpha" type="matrix" values="0 0 0 0 0 0 0 0 0 0 0 0 0 0 0 0 0 0 127 0" result="hardAlpha"/>
<feOffset dy="4"/>
<feGaussianBlur stdDeviation="10"/>
<feComposite in2="hardAlpha" operator="arithmetic" k2="-1" k3="1"/>
<feColorMatrix type="matrix" values="0 0 0 0 0 0 0 0 0 0 0 0 0 0 0 0 0 0 0.05 0"/>
<feBlend mode="normal" in2="shape" result="effect1_innerShadow"/>
</filter>
<pattern id="pattern0" patternContentUnits="objectBoundingBox" width="1" height="1">
<use xlink:href="#image0" transform="translate(-0.282034) scale(0.001321)"/>
</pattern>
<filter id="filter1_d" x="204.737" y="228.587" width="172.038" height="140.913" filterUnits="userSpaceOnUse" color-interpolation-filters="sRGB">
<feFlood flood-opacity="0" result="BackgroundImageFix"/>
<feColorMatrix in="SourceAlpha" type="matrix" values="0 0 0 0 0 0 0 0 0 0 0 0 0 0 0 0 0 0 127 0"/>
<feOffset dy="2"/>
<feGaussianBlur stdDeviation="5"/>
<feColorMatrix type="matrix" values="0 0 0 0 0 0 0 0 0 0 0 0 0 0 0 0 0 0 0.15 0"/>
<feBlend mode="normal" in2="BackgroundImageFix" result="effect1_dropShadow"/>
<feBlend mode="normal" in="SourceGraphic" in2="effect1_dropShadow" result="shape"/>
</filter> -->
<!-- <filter id="filter2_d" x="224" y="269" width="22" height="22" filterUnits="userSpaceOnUse" color-interpolation-filters="sRGB">
<feFlood flood-opacity="0" result="BackgroundImageFix"/>
<feColorMatrix in="SourceAlpha" type="matrix" values="0 0 0 0 0 0 0 0 0 0 0 0 0 0 0 0 0 0 127 0"/>
<feOffset dy="4"/>
<feGaussianBlur stdDeviation="2"/>
<feColorMatrix type="matrix" values="0 0 0 0 0 0 0 0 0 0 0 0 0 0 0 0 0 0 0.15 0"/>
<feBlend mode="normal" in2="BackgroundImageFix" result="effect1_dropShadow"/>
<feBlend mode="normal" in="SourceGraphic" in2="effect1_dropShadow" result="shape"/>
</filter> -->
</defs>
</svg>
