<svg width="198" height="88" viewBox="0 0 198 88" fill="none" xmlns="http://www.w3.org/2000/svg">
<rect width="198" height="88" rx="5" fill="#FF634E"/>
<path d="M15.01 41.57C14.9433 41.4967 14.8467 41.42 14.72 41.34C14.5933 41.2533 14.4433 41.1733 14.27 41.1C14.1033 41.0267 13.9167 40.9667 13.71 40.92C13.5033 40.8733 13.2833 40.85 13.05 40.85C12.61 40.85 12.2767 40.9367 12.05 41.11C11.8233 41.2833 11.71 41.5267 11.71 41.84C11.71 42.0133 11.7467 42.1567 11.82 42.27C11.8933 42.3767 12.0033 42.47 12.15 42.55C12.2967 42.63 12.48 42.7033 12.7 42.77C12.92 42.83 13.1767 42.8967 13.47 42.97C13.8167 43.0633 14.1333 43.16 14.42 43.26C14.7133 43.36 14.96 43.4867 15.16 43.64C15.3667 43.7867 15.5267 43.97 15.64 44.19C15.7533 44.41 15.81 44.6833 15.81 45.01C15.81 45.3833 15.74 45.7 15.6 45.96C15.46 46.22 15.27 46.4333 15.03 46.6C14.7967 46.76 14.5233 46.88 14.21 46.96C13.8967 47.0333 13.5633 47.07 13.21 47.07C12.67 47.07 12.1467 46.99 11.64 46.83C11.1333 46.6633 10.6767 46.4233 10.27 46.11L10.79 45.15C10.8767 45.2367 11 45.3333 11.16 45.44C11.32 45.5467 11.5067 45.6467 11.72 45.74C11.94 45.8267 12.18 45.9033 12.44 45.97C12.7 46.03 12.97 46.06 13.25 46.06C13.6767 46.06 14.0067 45.9833 14.24 45.83C14.48 45.67 14.6 45.44 14.6 45.14C14.6 44.96 14.5567 44.81 14.47 44.69C14.3833 44.57 14.2567 44.4667 14.09 44.38C13.9233 44.2867 13.72 44.2067 13.48 44.14C13.24 44.0667 12.9667 43.99 12.66 43.91C12.3067 43.8167 11.9967 43.72 11.73 43.62C11.47 43.5133 11.2533 43.3867 11.08 43.24C10.9067 43.0933 10.7733 42.9233 10.68 42.73C10.5933 42.53 10.55 42.29 10.55 42.01C10.55 41.6633 10.6133 41.3567 10.74 41.09C10.8733 40.8167 11.0533 40.59 11.28 40.41C11.5133 40.2233 11.7867 40.0833 12.1 39.99C12.4133 39.8967 12.75 39.85 13.11 39.85C13.6033 39.85 14.05 39.9267 14.45 40.08C14.8567 40.2333 15.2133 40.4233 15.52 40.65L15.01 41.57ZM16.7626 44.38C16.7626 44.0133 16.8259 43.6667 16.9526 43.34C17.0792 43.0133 17.2592 42.7267 17.4926 42.48C17.7326 42.2333 18.0192 42.04 18.3526 41.9C18.6859 41.7533 19.0592 41.68 19.4726 41.68C20.0126 41.68 20.4759 41.8 20.8626 42.04C21.2559 42.2733 21.5492 42.5867 21.7426 42.98L20.6726 43.32C20.5459 43.1 20.3759 42.93 20.1626 42.81C19.9492 42.6833 19.7126 42.62 19.4526 42.62C19.2326 42.62 19.0259 42.6633 18.8326 42.75C18.6459 42.8367 18.4826 42.96 18.3426 43.12C18.2026 43.2733 18.0926 43.4567 18.0126 43.67C17.9326 43.8833 17.8926 44.12 17.8926 44.38C17.8926 44.6333 17.9326 44.87 18.0126 45.09C18.0992 45.3033 18.2126 45.49 18.3526 45.65C18.4992 45.81 18.6659 45.9367 18.8526 46.03C19.0459 46.1167 19.2492 46.16 19.4626 46.16C19.5959 46.16 19.7292 46.1433 19.8626 46.11C19.9959 46.07 20.1159 46.0167 20.2226 45.95C20.3359 45.8833 20.4326 45.8067 20.5126 45.72C20.5992 45.6333 20.6626 45.54 20.7026 45.44L21.7826 45.76C21.6092 46.1533 21.3192 46.4767 20.9126 46.73C20.5059 46.9767 20.0259 47.1 19.4726 47.1C19.0659 47.1 18.6959 47.0267 18.3626 46.88C18.0292 46.7333 17.7426 46.5367 17.5026 46.29C17.2692 46.0367 17.0859 45.7467 16.9526 45.42C16.8259 45.0933 16.7626 44.7467 16.7626 44.38ZM24.3785 47.1C24.1252 47.1 23.8885 47.06 23.6685 46.98C23.4552 46.8933 23.2685 46.7767 23.1085 46.63C22.9552 46.4833 22.8318 46.31 22.7385 46.11C22.6518 45.91 22.6085 45.6933 22.6085 45.46C22.6085 45.2133 22.6618 44.99 22.7685 44.79C22.8752 44.59 23.0252 44.4167 23.2185 44.27C23.4185 44.1233 23.6518 44.01 23.9185 43.93C24.1918 43.85 24.4918 43.81 24.8185 43.81C25.0652 43.81 25.3085 43.8333 25.5485 43.88C25.7885 43.92 26.0052 43.9767 26.1985 44.05V43.69C26.1985 43.3033 26.0885 43.0033 25.8685 42.79C25.6485 42.57 25.3318 42.46 24.9185 42.46C24.6385 42.46 24.3618 42.5133 24.0885 42.62C23.8218 42.72 23.5452 42.8667 23.2585 43.06L22.9185 42.36C23.5918 41.9067 24.2918 41.68 25.0185 41.68C25.7385 41.68 26.2985 41.8633 26.6985 42.23C27.0985 42.5967 27.2985 43.1233 27.2985 43.81V45.7C27.2985 45.8267 27.3218 45.9167 27.3685 45.97C27.4152 46.0233 27.4952 46.0533 27.6085 46.06V47C27.5018 47.02 27.4018 47.0333 27.3085 47.04C27.2218 47.0467 27.1418 47.05 27.0685 47.05C26.8552 47.0367 26.6918 46.98 26.5785 46.88C26.4718 46.78 26.4052 46.6467 26.3785 46.48L26.3485 46.15C26.1152 46.4567 25.8252 46.6933 25.4785 46.86C25.1385 47.02 24.7718 47.1 24.3785 47.1ZM24.6785 46.29C24.9452 46.29 25.1952 46.2433 25.4285 46.15C25.6685 46.05 25.8552 45.9133 25.9885 45.74C26.1285 45.62 26.1985 45.4933 26.1985 45.36V44.67C26.0118 44.5967 25.8118 44.54 25.5985 44.5C25.3918 44.46 25.1885 44.44 24.9885 44.44C24.5952 44.44 24.2718 44.5267 24.0185 44.7C23.7718 44.8667 23.6485 45.09 23.6485 45.37C23.6485 45.63 23.7452 45.85 23.9385 46.03C24.1318 46.2033 24.3785 46.29 24.6785 46.29ZM33.6423 47H32.5423V44.07C32.5423 43.5767 32.4623 43.22 32.3023 43C32.1423 42.7733 31.9123 42.66 31.6123 42.66C31.4523 42.66 31.289 42.69 31.1223 42.75C30.9623 42.81 30.8123 42.8967 30.6723 43.01C30.5323 43.1167 30.4057 43.2467 30.2923 43.4C30.1857 43.5467 30.1023 43.71 30.0423 43.89V47H28.9423V41.77H29.9423V42.82C30.1423 42.4667 30.4323 42.19 30.8123 41.99C31.1923 41.7833 31.6123 41.68 32.0723 41.68C32.3857 41.68 32.6423 41.7367 32.8423 41.85C33.049 41.9633 33.209 42.12 33.3223 42.32C33.4423 42.5133 33.5257 42.74 33.5723 43C33.619 43.2533 33.6423 43.5233 33.6423 43.81V47ZM39.8798 47H38.7798V44.07C38.7798 43.5767 38.6998 43.22 38.5398 43C38.3798 42.7733 38.1498 42.66 37.8498 42.66C37.6898 42.66 37.5265 42.69 37.3598 42.75C37.1998 42.81 37.0498 42.8967 36.9098 43.01C36.7698 43.1167 36.6432 43.2467 36.5298 43.4C36.4232 43.5467 36.3398 43.71 36.2798 43.89V47H35.1798V41.77H36.1798V42.82C36.3798 42.4667 36.6698 42.19 37.0498 41.99C37.4298 41.7833 37.8498 41.68 38.3098 41.68C38.6232 41.68 38.8798 41.7367 39.0798 41.85C39.2865 41.9633 39.4465 42.12 39.5598 42.32C39.6798 42.5133 39.7632 42.74 39.8098 43C39.8565 43.2533 39.8798 43.5233 39.8798 43.81V47ZM43.8073 47.1C43.4007 47.1 43.0307 47.03 42.6973 46.89C42.364 46.7433 42.0773 46.5467 41.8373 46.3C41.604 46.0533 41.4207 45.7667 41.2873 45.44C41.1607 45.1133 41.0973 44.7667 41.0973 44.4C41.0973 44.0333 41.1607 43.6867 41.2873 43.36C41.4207 43.0267 41.604 42.7367 41.8373 42.49C42.0773 42.2367 42.364 42.04 42.6973 41.9C43.0307 41.7533 43.404 41.68 43.8173 41.68C44.224 41.68 44.5907 41.7533 44.9173 41.9C45.2507 42.0467 45.534 42.2433 45.7673 42.49C46.0007 42.73 46.1773 43.0133 46.2973 43.34C46.424 43.66 46.4873 43.9967 46.4873 44.35C46.4873 44.43 46.484 44.5067 46.4773 44.58C46.4707 44.6467 46.464 44.7033 46.4573 44.75H42.2673C42.2873 44.9833 42.3407 45.1933 42.4273 45.38C42.5207 45.5667 42.6373 45.73 42.7773 45.87C42.924 46.0033 43.0873 46.1067 43.2673 46.18C43.454 46.2533 43.6473 46.29 43.8473 46.29C43.994 46.29 44.1373 46.2733 44.2773 46.24C44.424 46.2 44.5573 46.1467 44.6773 46.08C44.7973 46.0067 44.904 45.92 44.9973 45.82C45.0907 45.72 45.164 45.61 45.2173 45.49L46.1573 45.76C45.9773 46.1533 45.6773 46.4767 45.2573 46.73C44.844 46.9767 44.3607 47.1 43.8073 47.1ZM45.3973 43.99C45.3773 43.77 45.3207 43.5667 45.2273 43.38C45.1407 43.1933 45.0273 43.0367 44.8873 42.91C44.7473 42.7767 44.584 42.6733 44.3973 42.6C44.2107 42.5267 44.014 42.49 43.8073 42.49C43.6007 42.49 43.404 42.5267 43.2173 42.6C43.0373 42.6733 42.8773 42.7767 42.7373 42.91C42.5973 43.0367 42.484 43.1933 42.3973 43.38C42.3107 43.5667 42.2573 43.77 42.2373 43.99H45.3973ZM49.8346 47.1C49.4746 47.1 49.1413 47.03 48.8346 46.89C48.5346 46.7433 48.2746 46.5467 48.0546 46.3C47.8346 46.0533 47.6613 45.7667 47.5346 45.44C47.4146 45.1133 47.3546 44.7633 47.3546 44.39C47.3546 44.0167 47.4113 43.6667 47.5246 43.34C47.6446 43.0067 47.8079 42.72 48.0146 42.48C48.2213 42.2333 48.4679 42.04 48.7546 41.9C49.0479 41.7533 49.3646 41.68 49.7046 41.68C50.1113 41.68 50.4746 41.78 50.7946 41.98C51.1146 42.18 51.3646 42.44 51.5446 42.76V39.7H52.6446V45.7C52.6446 45.9267 52.7513 46.0467 52.9646 46.06V47C52.8513 47.02 52.7513 47.0333 52.6646 47.04C52.5779 47.0467 52.4979 47.05 52.4246 47.05C52.0113 47.01 51.7779 46.82 51.7246 46.48L51.7046 46.05C51.5046 46.39 51.2379 46.65 50.9046 46.83C50.5713 47.01 50.2146 47.1 49.8346 47.1ZM50.1146 46.16C50.2546 46.16 50.4013 46.1333 50.5546 46.08C50.7079 46.0267 50.8513 45.9533 50.9846 45.86C51.1179 45.7667 51.2346 45.6567 51.3346 45.53C51.4346 45.4033 51.5046 45.2667 51.5446 45.12V43.75C51.4846 43.59 51.4013 43.4433 51.2946 43.31C51.1879 43.17 51.0646 43.05 50.9246 42.95C50.7913 42.8433 50.6479 42.7633 50.4946 42.71C50.3413 42.65 50.1879 42.62 50.0346 42.62C49.8013 42.62 49.5879 42.67 49.3946 42.77C49.2079 42.87 49.0446 43.0033 48.9046 43.17C48.7713 43.3367 48.6679 43.53 48.5946 43.75C48.5213 43.9633 48.4846 44.1833 48.4846 44.41C48.4846 44.65 48.5246 44.8767 48.6046 45.09C48.6913 45.3033 48.8046 45.49 48.9446 45.65C49.0913 45.8033 49.2646 45.9267 49.4646 46.02C49.6646 46.1133 49.8813 46.16 50.1146 46.16ZM59.1923 47.05C58.8389 47.05 58.5156 46.98 58.2223 46.84C57.9356 46.6933 57.6856 46.4967 57.4723 46.25C57.2656 46.0033 57.1023 45.72 56.9823 45.4C56.8689 45.08 56.8123 44.7433 56.8123 44.39C56.8123 44.0167 56.8689 43.6667 56.9823 43.34C57.1023 43.0067 57.2689 42.72 57.4823 42.48C57.6956 42.2333 57.9489 42.04 58.2423 41.9C58.5423 41.7533 58.8723 41.68 59.2323 41.68C59.6589 41.68 60.0289 41.78 60.3423 41.98C60.6556 42.18 60.9156 42.44 61.1223 42.76V41.77H62.0923V46.85C62.0923 47.23 62.0223 47.5667 61.8823 47.86C61.7423 48.1533 61.5456 48.4 61.2923 48.6C61.0456 48.8067 60.7523 48.9633 60.4123 49.07C60.0723 49.1767 59.7056 49.23 59.3123 49.23C58.7323 49.23 58.2523 49.13 57.8723 48.93C57.4923 48.7367 57.1689 48.4633 56.9023 48.11L57.5223 47.53C57.7223 47.81 57.9789 48.0233 58.2923 48.17C58.6123 48.3167 58.9523 48.39 59.3123 48.39C59.5389 48.39 59.7523 48.36 59.9523 48.3C60.1589 48.24 60.3389 48.1467 60.4923 48.02C60.6456 47.8933 60.7656 47.7333 60.8523 47.54C60.9456 47.3467 60.9923 47.1167 60.9923 46.85V46.05C60.8056 46.37 60.5489 46.6167 60.2223 46.79C59.8956 46.9633 59.5523 47.05 59.1923 47.05ZM59.5523 46.16C59.7189 46.16 59.8789 46.1333 60.0323 46.08C60.1856 46.02 60.3256 45.9433 60.4523 45.85C60.5856 45.75 60.6989 45.64 60.7923 45.52C60.8856 45.3933 60.9523 45.26 60.9923 45.12V43.75C60.8589 43.4167 60.6523 43.1467 60.3723 42.94C60.0923 42.7267 59.7923 42.62 59.4723 42.62C59.2323 42.62 59.0156 42.6733 58.8223 42.78C58.6356 42.88 58.4756 43.0167 58.3423 43.19C58.2089 43.3567 58.1056 43.5467 58.0323 43.76C57.9589 43.9733 57.9223 44.1933 57.9223 44.42C57.9223 44.66 57.9623 44.8867 58.0423 45.1C58.1289 45.3067 58.2456 45.49 58.3923 45.65C58.5389 45.8033 58.7089 45.9267 58.9023 46.02C59.1023 46.1133 59.3189 46.16 59.5523 46.16ZM66.0718 47.1C65.6651 47.1 65.2951 47.03 64.9618 46.89C64.6285 46.7433 64.3418 46.5467 64.1018 46.3C63.8685 46.0533 63.6851 45.7667 63.5518 45.44C63.4251 45.1133 63.3618 44.7667 63.3618 44.4C63.3618 44.0333 63.4251 43.6867 63.5518 43.36C63.6851 43.0267 63.8685 42.7367 64.1018 42.49C64.3418 42.2367 64.6285 42.04 64.9618 41.9C65.2951 41.7533 65.6685 41.68 66.0818 41.68C66.4885 41.68 66.8551 41.7533 67.1818 41.9C67.5151 42.0467 67.7985 42.2433 68.0318 42.49C68.2651 42.73 68.4418 43.0133 68.5618 43.34C68.6885 43.66 68.7518 43.9967 68.7518 44.35C68.7518 44.43 68.7485 44.5067 68.7418 44.58C68.7351 44.6467 68.7285 44.7033 68.7218 44.75H64.5318C64.5518 44.9833 64.6051 45.1933 64.6918 45.38C64.7851 45.5667 64.9018 45.73 65.0418 45.87C65.1885 46.0033 65.3518 46.1067 65.5318 46.18C65.7185 46.2533 65.9118 46.29 66.1118 46.29C66.2585 46.29 66.4018 46.2733 66.5418 46.24C66.6885 46.2 66.8218 46.1467 66.9418 46.08C67.0618 46.0067 67.1685 45.92 67.2618 45.82C67.3551 45.72 67.4285 45.61 67.4818 45.49L68.4218 45.76C68.2418 46.1533 67.9418 46.4767 67.5218 46.73C67.1085 46.9767 66.6251 47.1 66.0718 47.1ZM67.6618 43.99C67.6418 43.77 67.5851 43.5667 67.4918 43.38C67.4051 43.1933 67.2918 43.0367 67.1518 42.91C67.0118 42.7767 66.8485 42.6733 66.6618 42.6C66.4751 42.5267 66.2785 42.49 66.0718 42.49C65.8651 42.49 65.6685 42.5267 65.4818 42.6C65.3018 42.6733 65.1418 42.7767 65.0018 42.91C64.8618 43.0367 64.7485 43.1933 64.6618 43.38C64.5751 43.5667 64.5218 43.77 64.5018 43.99H67.6618ZM74.6291 47H73.5291V44.07C73.5291 43.5767 73.4491 43.22 73.2891 43C73.1291 42.7733 72.8991 42.66 72.5991 42.66C72.4391 42.66 72.2757 42.69 72.1091 42.75C71.9491 42.81 71.7991 42.8967 71.6591 43.01C71.5191 43.1167 71.3924 43.2467 71.2791 43.4C71.1724 43.5467 71.0891 43.71 71.0291 43.89V47H69.9291V41.77H70.9291V42.82C71.1291 42.4667 71.4191 42.19 71.7991 41.99C72.1791 41.7833 72.5991 41.68 73.0591 41.68C73.3724 41.68 73.6291 41.7367 73.8291 41.85C74.0357 41.9633 74.1957 42.12 74.3091 42.32C74.4291 42.5133 74.5124 42.74 74.5591 43C74.6057 43.2533 74.6291 43.5233 74.6291 43.81V47ZM77.7766 47.1C77.2366 47.1 76.8266 46.9233 76.5466 46.57C76.2666 46.21 76.1266 45.6767 76.1266 44.97V41.77H77.2266V44.75C77.2266 45.69 77.5566 46.16 78.2166 46.16C78.5366 46.16 78.8366 46.0633 79.1166 45.87C79.3966 45.6767 79.6132 45.3967 79.7666 45.03V41.77H80.8666V45.7C80.8666 45.8267 80.8899 45.9167 80.9366 45.97C80.9832 46.0233 81.0666 46.0533 81.1866 46.06V47C81.0666 47.02 80.9632 47.0333 80.8766 47.04C80.7899 47.0467 80.7132 47.05 80.6466 47.05C80.2332 47.0167 79.9999 46.8267 79.9466 46.48L79.9266 45.94C79.6932 46.32 79.3899 46.61 79.0166 46.81C78.6432 47.0033 78.2299 47.1 77.7766 47.1ZM84.9796 47.1C84.5729 47.1 84.2029 47.03 83.8696 46.89C83.5363 46.7433 83.2496 46.5467 83.0096 46.3C82.7763 46.0533 82.5929 45.7667 82.4596 45.44C82.3329 45.1133 82.2696 44.7667 82.2696 44.4C82.2696 44.0333 82.3329 43.6867 82.4596 43.36C82.5929 43.0267 82.7763 42.7367 83.0096 42.49C83.2496 42.2367 83.5363 42.04 83.8696 41.9C84.2029 41.7533 84.5763 41.68 84.9896 41.68C85.3963 41.68 85.7629 41.7533 86.0896 41.9C86.4229 42.0467 86.7063 42.2433 86.9396 42.49C87.1729 42.73 87.3496 43.0133 87.4696 43.34C87.5963 43.66 87.6596 43.9967 87.6596 44.35C87.6596 44.43 87.6563 44.5067 87.6496 44.58C87.6429 44.6467 87.6363 44.7033 87.6296 44.75H83.4396C83.4596 44.9833 83.5129 45.1933 83.5996 45.38C83.6929 45.5667 83.8096 45.73 83.9496 45.87C84.0963 46.0033 84.2596 46.1067 84.4396 46.18C84.6263 46.2533 84.8196 46.29 85.0196 46.29C85.1663 46.29 85.3096 46.2733 85.4496 46.24C85.5963 46.2 85.7296 46.1467 85.8496 46.08C85.9696 46.0067 86.0763 45.92 86.1696 45.82C86.2629 45.72 86.3363 45.61 86.3896 45.49L87.3296 45.76C87.1496 46.1533 86.8496 46.4767 86.4296 46.73C86.0163 46.9767 85.5329 47.1 84.9796 47.1ZM86.5696 43.99C86.5496 43.77 86.4929 43.5667 86.3996 43.38C86.3129 43.1933 86.1996 43.0367 86.0596 42.91C85.9196 42.7767 85.7563 42.6733 85.5696 42.6C85.3829 42.5267 85.1863 42.49 84.9796 42.49C84.7729 42.49 84.5763 42.5267 84.3896 42.6C84.2096 42.6733 84.0496 42.7767 83.9096 42.91C83.7696 43.0367 83.6563 43.1933 83.5696 43.38C83.4829 43.5667 83.4296 43.77 83.4096 43.99H86.5696ZM94.5581 47.1C94.1381 47.1 93.7681 47 93.4481 46.8C93.1347 46.6 92.8814 46.34 92.6881 46.02V49.13H91.5881V41.77H92.5581V42.71C92.7581 42.3967 93.0181 42.1467 93.3381 41.96C93.6581 41.7733 94.0181 41.68 94.4181 41.68C94.7714 41.68 95.0981 41.7533 95.3981 41.9C95.6981 42.0467 95.9581 42.2433 96.1781 42.49C96.3981 42.7367 96.5681 43.0233 96.6881 43.35C96.8147 43.6767 96.8781 44.02 96.8781 44.38C96.8781 44.76 96.8214 45.1167 96.7081 45.45C96.5947 45.7767 96.4347 46.0633 96.2281 46.31C96.0214 46.55 95.7747 46.7433 95.4881 46.89C95.2081 47.03 94.8981 47.1 94.5581 47.1ZM94.2081 46.16C94.4347 46.16 94.6447 46.11 94.8381 46.01C95.0314 45.91 95.1947 45.7767 95.3281 45.61C95.4614 45.4433 95.5647 45.2533 95.6381 45.04C95.7181 44.8267 95.7581 44.6067 95.7581 44.38C95.7581 44.14 95.7147 43.9133 95.6281 43.7C95.5481 43.4867 95.4347 43.3 95.2881 43.14C95.1414 42.98 94.9681 42.8533 94.7681 42.76C94.5681 42.6667 94.3547 42.62 94.1281 42.62C93.9881 42.62 93.8414 42.6467 93.6881 42.7C93.5347 42.7533 93.3881 42.8267 93.2481 42.92C93.1147 43.0133 92.9981 43.1233 92.8981 43.25C92.7981 43.37 92.7281 43.5033 92.6881 43.65V45.02C92.7547 45.18 92.8414 45.33 92.9481 45.47C93.0547 45.61 93.1747 45.73 93.3081 45.83C93.4414 45.93 93.5847 46.01 93.7381 46.07C93.8914 46.13 94.0481 46.16 94.2081 46.16ZM101.088 42.72C100.661 42.7333 100.284 42.8333 99.9578 43.02C99.6311 43.2 99.3945 43.46 99.2478 43.8V47H98.1478V41.77H99.1678V42.94C99.3545 42.58 99.5911 42.2867 99.8778 42.06C100.171 41.8333 100.481 41.72 100.808 41.72C100.874 41.72 100.928 41.72 100.968 41.72C101.014 41.72 101.054 41.7233 101.088 41.73V42.72ZM104.382 47.1C103.969 47.1 103.596 47.0267 103.262 46.88C102.936 46.7333 102.656 46.5367 102.422 46.29C102.189 46.0433 102.009 45.7567 101.882 45.43C101.756 45.0967 101.692 44.75 101.692 44.39C101.692 44.03 101.756 43.6867 101.882 43.36C102.009 43.0267 102.189 42.7367 102.422 42.49C102.662 42.2433 102.946 42.0467 103.272 41.9C103.606 41.7533 103.976 41.68 104.382 41.68C104.789 41.68 105.156 41.7533 105.482 41.9C105.816 42.0467 106.099 42.2433 106.332 42.49C106.572 42.7367 106.756 43.0267 106.882 43.36C107.009 43.6867 107.072 44.03 107.072 44.39C107.072 44.75 107.009 45.0967 106.882 45.43C106.756 45.7567 106.572 46.0433 106.332 46.29C106.099 46.5367 105.816 46.7333 105.482 46.88C105.156 47.0267 104.789 47.1 104.382 47.1ZM102.822 44.4C102.822 44.6533 102.862 44.8867 102.942 45.1C103.022 45.3133 103.132 45.5 103.272 45.66C103.412 45.8133 103.576 45.9367 103.762 46.03C103.956 46.1167 104.162 46.16 104.382 46.16C104.602 46.16 104.806 46.1167 104.992 46.03C105.186 45.9367 105.352 45.81 105.492 45.65C105.632 45.49 105.742 45.3033 105.822 45.09C105.902 44.8767 105.942 44.6433 105.942 44.39C105.942 44.1433 105.902 43.9133 105.822 43.7C105.742 43.48 105.632 43.29 105.492 43.13C105.352 42.97 105.186 42.8467 104.992 42.76C104.806 42.6667 104.602 42.62 104.382 42.62C104.169 42.62 103.966 42.6667 103.772 42.76C103.586 42.8533 103.422 42.98 103.282 43.14C103.142 43.3 103.029 43.49 102.942 43.71C102.862 43.9233 102.822 44.1533 102.822 44.4ZM110.488 47.1C110.128 47.1 109.795 47.03 109.488 46.89C109.188 46.7433 108.928 46.5467 108.708 46.3C108.488 46.0533 108.315 45.7667 108.188 45.44C108.068 45.1133 108.008 44.7633 108.008 44.39C108.008 44.0167 108.065 43.6667 108.178 43.34C108.298 43.0067 108.461 42.72 108.668 42.48C108.875 42.2333 109.121 42.04 109.408 41.9C109.701 41.7533 110.018 41.68 110.358 41.68C110.765 41.68 111.128 41.78 111.448 41.98C111.768 42.18 112.018 42.44 112.198 42.76V39.7H113.298V45.7C113.298 45.9267 113.405 46.0467 113.618 46.06V47C113.505 47.02 113.405 47.0333 113.318 47.04C113.231 47.0467 113.151 47.05 113.078 47.05C112.665 47.01 112.431 46.82 112.378 46.48L112.358 46.05C112.158 46.39 111.891 46.65 111.558 46.83C111.225 47.01 110.868 47.1 110.488 47.1ZM110.768 46.16C110.908 46.16 111.055 46.1333 111.208 46.08C111.361 46.0267 111.505 45.9533 111.638 45.86C111.771 45.7667 111.888 45.6567 111.988 45.53C112.088 45.4033 112.158 45.2667 112.198 45.12V43.75C112.138 43.59 112.055 43.4433 111.948 43.31C111.841 43.17 111.718 43.05 111.578 42.95C111.445 42.8433 111.301 42.7633 111.148 42.71C110.995 42.65 110.841 42.62 110.688 42.62C110.455 42.62 110.241 42.67 110.048 42.77C109.861 42.87 109.698 43.0033 109.558 43.17C109.425 43.3367 109.321 43.53 109.248 43.75C109.175 43.9633 109.138 44.1833 109.138 44.41C109.138 44.65 109.178 44.8767 109.258 45.09C109.345 45.3033 109.458 45.49 109.598 45.65C109.745 45.8033 109.918 45.9267 110.118 46.02C110.318 46.1133 110.535 46.16 110.768 46.16ZM116.625 47.1C116.085 47.1 115.675 46.9233 115.395 46.57C115.115 46.21 114.975 45.6767 114.975 44.97V41.77H116.075V44.75C116.075 45.69 116.405 46.16 117.065 46.16C117.385 46.16 117.685 46.0633 117.965 45.87C118.245 45.6767 118.461 45.3967 118.615 45.03V41.77H119.715V45.7C119.715 45.8267 119.738 45.9167 119.785 45.97C119.831 46.0233 119.915 46.0533 120.035 46.06V47C119.915 47.02 119.811 47.0333 119.725 47.04C119.638 47.0467 119.561 47.05 119.495 47.05C119.081 47.0167 118.848 46.8267 118.795 46.48L118.775 45.94C118.541 46.32 118.238 46.61 117.865 46.81C117.491 47.0033 117.078 47.1 116.625 47.1ZM121.118 44.38C121.118 44.0133 121.181 43.6667 121.308 43.34C121.434 43.0133 121.614 42.7267 121.848 42.48C122.088 42.2333 122.374 42.04 122.708 41.9C123.041 41.7533 123.414 41.68 123.828 41.68C124.368 41.68 124.831 41.8 125.218 42.04C125.611 42.2733 125.904 42.5867 126.098 42.98L125.028 43.32C124.901 43.1 124.731 42.93 124.518 42.81C124.304 42.6833 124.068 42.62 123.808 42.62C123.588 42.62 123.381 42.6633 123.188 42.75C123.001 42.8367 122.838 42.96 122.698 43.12C122.558 43.2733 122.448 43.4567 122.368 43.67C122.288 43.8833 122.248 44.12 122.248 44.38C122.248 44.6333 122.288 44.87 122.368 45.09C122.454 45.3033 122.568 45.49 122.708 45.65C122.854 45.81 123.021 45.9367 123.208 46.03C123.401 46.1167 123.604 46.16 123.818 46.16C123.951 46.16 124.084 46.1433 124.218 46.11C124.351 46.07 124.471 46.0167 124.578 45.95C124.691 45.8833 124.788 45.8067 124.868 45.72C124.954 45.6333 125.018 45.54 125.058 45.44L126.138 45.76C125.964 46.1533 125.674 46.4767 125.268 46.73C124.861 46.9767 124.381 47.1 123.828 47.1C123.421 47.1 123.051 47.0267 122.718 46.88C122.384 46.7333 122.098 46.5367 121.858 46.29C121.624 46.0367 121.441 45.7467 121.308 45.42C121.181 45.0933 121.118 44.7467 121.118 44.38ZM130.254 46.73C130.107 46.7967 129.91 46.8733 129.664 46.96C129.424 47.04 129.16 47.08 128.874 47.08C128.7 47.08 128.537 47.0567 128.384 47.01C128.237 46.9633 128.104 46.8933 127.984 46.8C127.87 46.7067 127.78 46.5867 127.714 46.44C127.647 46.2867 127.614 46.1033 127.614 45.89V42.62H126.914V41.77H127.614V40.05H128.714V41.77H129.854V42.62H128.714V45.54C128.714 45.7267 128.767 45.8633 128.874 45.95C128.98 46.03 129.11 46.07 129.264 46.07C129.417 46.07 129.564 46.0433 129.704 45.99C129.844 45.9367 129.947 45.8933 130.014 45.86L130.254 46.73ZM10.8 64V56.91H11.92V64H10.8ZM13.8246 64V56.9H16.3446C16.9179 56.9 17.4179 56.9933 17.8446 57.18C18.2779 57.3667 18.6379 57.62 18.9246 57.94C19.2179 58.26 19.4379 58.6367 19.5846 59.07C19.7313 59.4967 19.8046 59.9533 19.8046 60.44C19.8046 60.98 19.7213 61.47 19.5546 61.91C19.3946 62.3433 19.1646 62.7167 18.8646 63.03C18.5646 63.3367 18.2013 63.5767 17.7746 63.75C17.3479 63.9167 16.8713 64 16.3446 64H13.8246ZM18.6646 60.44C18.6646 60.0667 18.6113 59.7233 18.5046 59.41C18.4046 59.0967 18.2546 58.83 18.0546 58.61C17.8546 58.3833 17.6113 58.2067 17.3246 58.08C17.0379 57.9533 16.7113 57.89 16.3446 57.89H14.9446V63.01H16.3446C16.7179 63.01 17.0479 62.9467 17.3346 62.82C17.6279 62.6867 17.8713 62.5067 18.0646 62.28C18.2646 62.0467 18.4146 61.7733 18.5146 61.46C18.6146 61.1467 18.6646 60.8067 18.6646 60.44ZM21.1823 60.09V58.82H22.0823V60.09H21.1823ZM21.1823 64V62.72H22.0823V64H21.1823ZM31.4594 61.64C31.4594 61.98 31.3927 62.3 31.2594 62.6C31.126 62.9 30.9427 63.1633 30.7094 63.39C30.4827 63.61 30.2127 63.7833 29.8994 63.91C29.586 64.0367 29.2494 64.1 28.8894 64.1C28.496 64.1 28.1394 64.03 27.8194 63.89C27.506 63.7433 27.236 63.5367 27.0094 63.27C26.7827 62.9967 26.606 62.6667 26.4794 62.28C26.3594 61.8867 26.2994 61.4433 26.2994 60.95C26.2994 60.27 26.3627 59.6767 26.4894 59.17C26.6227 58.6567 26.806 58.23 27.0394 57.89C27.2727 57.5433 27.556 57.2833 27.8894 57.11C28.2227 56.9367 28.596 56.85 29.0094 56.85C29.4627 56.85 29.876 56.9533 30.2494 57.16C30.6294 57.3667 30.936 57.66 31.1694 58.04L30.5194 58.72C30.366 58.44 30.1527 58.22 29.8794 58.06C29.6127 57.8933 29.316 57.81 28.9894 57.81C28.4894 57.81 28.0894 58.0233 27.7894 58.45C27.496 58.87 27.3427 59.4633 27.3294 60.23C27.4694 59.93 27.686 59.6933 27.9794 59.52C28.2794 59.3467 28.6194 59.26 28.9994 59.26C29.346 59.26 29.6694 59.3233 29.9694 59.45C30.2694 59.57 30.5294 59.7367 30.7494 59.95C30.9694 60.1633 31.1427 60.4167 31.2694 60.71C31.396 60.9967 31.4594 61.3067 31.4594 61.64ZM28.8994 63.16C29.106 63.16 29.2994 63.12 29.4794 63.04C29.666 62.96 29.826 62.85 29.9594 62.71C30.0994 62.57 30.2094 62.41 30.2894 62.23C30.3694 62.0433 30.4094 61.8467 30.4094 61.64C30.4094 61.4333 30.3694 61.24 30.2894 61.06C30.2094 60.88 30.0994 60.7233 29.9594 60.59C29.826 60.45 29.666 60.34 29.4794 60.26C29.2994 60.18 29.106 60.14 28.8994 60.14C28.6927 60.14 28.496 60.18 28.3094 60.26C28.1294 60.34 27.9694 60.45 27.8294 60.59C27.696 60.7233 27.5894 60.88 27.5094 61.06C27.4294 61.24 27.3894 61.4333 27.3894 61.64C27.3894 61.8467 27.4294 62.0433 27.5094 62.23C27.5894 62.41 27.696 62.57 27.8294 62.71C27.9694 62.85 28.1294 62.96 28.3094 63.04C28.496 63.12 28.6927 63.16 28.8994 63.16ZM32.6438 64C32.6438 63.5333 32.6772 63.13 32.7438 62.79C32.8172 62.45 32.9272 62.1533 33.0738 61.9C33.2272 61.64 33.4205 61.4167 33.6538 61.23C33.8938 61.0367 34.1772 60.86 34.5038 60.7C34.7238 60.5933 34.9472 60.49 35.1738 60.39C35.4005 60.29 35.6038 60.1767 35.7838 60.05C35.9705 59.9233 36.1205 59.7733 36.2338 59.6C36.3538 59.4267 36.4138 59.21 36.4138 58.95C36.4138 58.6233 36.3105 58.3533 36.1038 58.14C35.9038 57.9267 35.6038 57.82 35.2038 57.82C34.9905 57.82 34.7905 57.85 34.6038 57.91C34.4238 57.9633 34.2538 58.0367 34.0938 58.13C33.9405 58.2167 33.8038 58.3133 33.6838 58.42C33.5638 58.5267 33.4605 58.63 33.3738 58.73L32.6838 58C32.7505 57.9133 32.8572 57.8033 33.0038 57.67C33.1572 57.5367 33.3438 57.4067 33.5638 57.28C33.7905 57.1533 34.0505 57.0433 34.3438 56.95C34.6438 56.8567 34.9738 56.81 35.3338 56.81C35.7138 56.81 36.0472 56.8667 36.3338 56.98C36.6205 57.0867 36.8605 57.2367 37.0538 57.43C37.2538 57.6167 37.4038 57.84 37.5038 58.1C37.6038 58.3533 37.6538 58.63 37.6538 58.93C37.6538 59.25 37.6005 59.5267 37.4938 59.76C37.3872 59.9867 37.2438 60.1867 37.0638 60.36C36.8905 60.5267 36.6905 60.6767 36.4638 60.81C36.2372 60.9367 36.0038 61.06 35.7638 61.18C35.4638 61.32 35.2105 61.4567 35.0038 61.59C34.7972 61.7233 34.6272 61.8633 34.4938 62.01C34.3672 62.15 34.2738 62.3033 34.2138 62.47C34.1605 62.63 34.1338 62.81 34.1338 63.01H37.6638V64H32.6438ZM41.4195 59.44C41.7528 59.44 42.0595 59.4967 42.3395 59.61C42.6261 59.7233 42.8728 59.88 43.0795 60.08C43.2928 60.28 43.4561 60.52 43.5695 60.8C43.6895 61.0733 43.7495 61.3767 43.7495 61.71C43.7495 62.0633 43.6828 62.3867 43.5495 62.68C43.4228 62.9733 43.2428 63.2267 43.0095 63.44C42.7828 63.6467 42.5128 63.81 42.1995 63.93C41.8928 64.0433 41.5561 64.1 41.1895 64.1C40.6761 64.1 40.2161 63.9867 39.8095 63.76C39.4028 63.5267 39.0928 63.21 38.8795 62.81L39.5395 62.18C39.7261 62.4667 39.9661 62.6967 40.2595 62.87C40.5528 63.0367 40.8661 63.12 41.1995 63.12C41.4061 63.12 41.5961 63.0867 41.7695 63.02C41.9428 62.9533 42.0928 62.86 42.2195 62.74C42.3461 62.62 42.4428 62.4767 42.5095 62.31C42.5828 62.1367 42.6195 61.9467 42.6195 61.74C42.6195 61.54 42.5828 61.3567 42.5095 61.19C42.4428 61.0233 42.3495 60.8833 42.2295 60.77C42.1095 60.65 41.9661 60.5567 41.7995 60.49C41.6395 60.4233 41.4661 60.39 41.2795 60.39C41.0261 60.39 40.7861 60.4467 40.5595 60.56C40.3395 60.6733 40.1628 60.8333 40.0295 61.04H39.0495C39.0561 61.0133 39.0695 60.9333 39.0895 60.8C39.1161 60.6667 39.1495 60.5 39.1895 60.3C39.2295 60.1 39.2728 59.8767 39.3195 59.63C39.3661 59.3833 39.4161 59.1333 39.4695 58.88C39.5895 58.2867 39.7195 57.6267 39.8595 56.9H43.3295V57.91H40.6595L40.2995 59.84C40.4128 59.7133 40.5628 59.6167 40.7495 59.55C40.9428 59.4767 41.1661 59.44 41.4195 59.44ZM50.723 61.64C50.723 61.98 50.6564 62.3 50.523 62.6C50.3897 62.9 50.2064 63.1633 49.973 63.39C49.7464 63.61 49.4764 63.7833 49.163 63.91C48.8497 64.0367 48.513 64.1 48.153 64.1C47.7597 64.1 47.403 64.03 47.083 63.89C46.7697 63.7433 46.4997 63.5367 46.273 63.27C46.0464 62.9967 45.8697 62.6667 45.743 62.28C45.623 61.8867 45.563 61.4433 45.563 60.95C45.563 60.27 45.6264 59.6767 45.753 59.17C45.8864 58.6567 46.0697 58.23 46.303 57.89C46.5364 57.5433 46.8197 57.2833 47.153 57.11C47.4864 56.9367 47.8597 56.85 48.273 56.85C48.7264 56.85 49.1397 56.9533 49.513 57.16C49.893 57.3667 50.1997 57.66 50.433 58.04L49.783 58.72C49.6297 58.44 49.4164 58.22 49.143 58.06C48.8764 57.8933 48.5797 57.81 48.253 57.81C47.753 57.81 47.353 58.0233 47.053 58.45C46.7597 58.87 46.6064 59.4633 46.593 60.23C46.733 59.93 46.9497 59.6933 47.243 59.52C47.543 59.3467 47.883 59.26 48.263 59.26C48.6097 59.26 48.933 59.3233 49.233 59.45C49.533 59.57 49.793 59.7367 50.013 59.95C50.233 60.1633 50.4064 60.4167 50.533 60.71C50.6597 60.9967 50.723 61.3067 50.723 61.64ZM48.163 63.16C48.3697 63.16 48.563 63.12 48.743 63.04C48.9297 62.96 49.0897 62.85 49.223 62.71C49.363 62.57 49.473 62.41 49.553 62.23C49.633 62.0433 49.673 61.8467 49.673 61.64C49.673 61.4333 49.633 61.24 49.553 61.06C49.473 60.88 49.363 60.7233 49.223 60.59C49.0897 60.45 48.9297 60.34 48.743 60.26C48.563 60.18 48.3697 60.14 48.163 60.14C47.9564 60.14 47.7597 60.18 47.573 60.26C47.393 60.34 47.233 60.45 47.093 60.59C46.9597 60.7233 46.853 60.88 46.773 61.06C46.693 61.24 46.653 61.4333 46.653 61.64C46.653 61.8467 46.693 62.0433 46.773 62.23C46.853 62.41 46.9597 62.57 47.093 62.71C47.233 62.85 47.393 62.96 47.573 63.04C47.7597 63.12 47.9564 63.16 48.163 63.16ZM54.9675 59.44C55.3008 59.44 55.6075 59.4967 55.8875 59.61C56.1742 59.7233 56.4208 59.88 56.6275 60.08C56.8408 60.28 57.0042 60.52 57.1175 60.8C57.2375 61.0733 57.2975 61.3767 57.2975 61.71C57.2975 62.0633 57.2308 62.3867 57.0975 62.68C56.9708 62.9733 56.7908 63.2267 56.5575 63.44C56.3308 63.6467 56.0608 63.81 55.7475 63.93C55.4408 64.0433 55.1042 64.1 54.7375 64.1C54.2242 64.1 53.7642 63.9867 53.3575 63.76C52.9508 63.5267 52.6408 63.21 52.4275 62.81L53.0875 62.18C53.2742 62.4667 53.5142 62.6967 53.8075 62.87C54.1008 63.0367 54.4142 63.12 54.7475 63.12C54.9542 63.12 55.1442 63.0867 55.3175 63.02C55.4908 62.9533 55.6408 62.86 55.7675 62.74C55.8942 62.62 55.9908 62.4767 56.0575 62.31C56.1308 62.1367 56.1675 61.9467 56.1675 61.74C56.1675 61.54 56.1308 61.3567 56.0575 61.19C55.9908 61.0233 55.8975 60.8833 55.7775 60.77C55.6575 60.65 55.5142 60.5567 55.3475 60.49C55.1875 60.4233 55.0142 60.39 54.8275 60.39C54.5742 60.39 54.3342 60.4467 54.1075 60.56C53.8875 60.6733 53.7108 60.8333 53.5775 61.04H52.5975C52.6042 61.0133 52.6175 60.9333 52.6375 60.8C52.6642 60.6667 52.6975 60.5 52.7375 60.3C52.7775 60.1 52.8208 59.8767 52.8675 59.63C52.9142 59.3833 52.9642 59.1333 53.0175 58.88C53.1375 58.2867 53.2675 57.6267 53.4075 56.9H56.8775V57.91H54.2075L53.8475 59.84C53.9608 59.7133 54.1108 59.6167 54.2975 59.55C54.4908 59.4767 54.7142 59.44 54.9675 59.44ZM63.6711 61.64C63.6711 61.98 63.6044 62.3 63.4711 62.6C63.3378 62.9 63.1544 63.1633 62.9211 63.39C62.6944 63.61 62.4244 63.7833 62.1111 63.91C61.7978 64.0367 61.4611 64.1 61.1011 64.1C60.7078 64.1 60.3511 64.03 60.0311 63.89C59.7178 63.7433 59.4478 63.5367 59.2211 63.27C58.9944 62.9967 58.8178 62.6667 58.6911 62.28C58.5711 61.8867 58.5111 61.4433 58.5111 60.95C58.5111 60.27 58.5744 59.6767 58.7011 59.17C58.8344 58.6567 59.0178 58.23 59.2511 57.89C59.4844 57.5433 59.7678 57.2833 60.1011 57.11C60.4344 56.9367 60.8078 56.85 61.2211 56.85C61.6744 56.85 62.0878 56.9533 62.4611 57.16C62.8411 57.3667 63.1478 57.66 63.3811 58.04L62.7311 58.72C62.5778 58.44 62.3644 58.22 62.0911 58.06C61.8244 57.8933 61.5278 57.81 61.2011 57.81C60.7011 57.81 60.3011 58.0233 60.0011 58.45C59.7078 58.87 59.5544 59.4633 59.5411 60.23C59.6811 59.93 59.8978 59.6933 60.1911 59.52C60.4911 59.3467 60.8311 59.26 61.2111 59.26C61.5578 59.26 61.8811 59.3233 62.1811 59.45C62.4811 59.57 62.7411 59.7367 62.9611 59.95C63.1811 60.1633 63.3544 60.4167 63.4811 60.71C63.6078 60.9967 63.6711 61.3067 63.6711 61.64ZM61.1111 63.16C61.3178 63.16 61.5111 63.12 61.6911 63.04C61.8778 62.96 62.0378 62.85 62.1711 62.71C62.3111 62.57 62.4211 62.41 62.5011 62.23C62.5811 62.0433 62.6211 61.8467 62.6211 61.64C62.6211 61.4333 62.5811 61.24 62.5011 61.06C62.4211 60.88 62.3111 60.7233 62.1711 60.59C62.0378 60.45 61.8778 60.34 61.6911 60.26C61.5111 60.18 61.3178 60.14 61.1111 60.14C60.9044 60.14 60.7078 60.18 60.5211 60.26C60.3411 60.34 60.1811 60.45 60.0411 60.59C59.9078 60.7233 59.8011 60.88 59.7211 61.06C59.6411 61.24 59.6011 61.4333 59.6011 61.64C59.6011 61.8467 59.6411 62.0433 59.7211 62.23C59.8011 62.41 59.9078 62.57 60.0411 62.71C60.1811 62.85 60.3411 62.96 60.5211 63.04C60.7078 63.12 60.9044 63.16 61.1111 63.16Z" fill="white"/>
<path d="M29.984 14.32L31.704 18.872L33.408 14.32H34.352L32.088 20H31.32L29.032 14.32H29.984ZM39.1744 19.208V20H35.2784V14.32H39.1024V15.112H36.1744V16.728H38.7104V17.472H36.1744V19.208H39.1744ZM40.3778 20V14.32H42.8498C43.1058 14.32 43.3405 14.3733 43.5538 14.48C43.7725 14.5867 43.9591 14.728 44.1138 14.904C44.2685 15.0747 44.3885 15.272 44.4738 15.496C44.5645 15.7147 44.6098 15.9387 44.6098 16.168C44.6098 16.36 44.5831 16.544 44.5298 16.72C44.4765 16.896 44.4018 17.0587 44.3058 17.208C44.2098 17.3573 44.0925 17.488 43.9538 17.6C43.8151 17.7067 43.6631 17.7867 43.4978 17.84L44.8498 20H43.8338L42.5858 18.024H41.2738V20H40.3778ZM41.2738 17.232H42.8418C42.9698 17.232 43.0845 17.2053 43.1858 17.152C43.2925 17.0933 43.3831 17.016 43.4578 16.92C43.5325 16.8187 43.5911 16.704 43.6338 16.576C43.6765 16.448 43.6978 16.312 43.6978 16.168C43.6978 16.024 43.6711 15.888 43.6178 15.76C43.5698 15.632 43.5031 15.52 43.4178 15.424C43.3378 15.328 43.2418 15.2533 43.1298 15.2C43.0231 15.1413 42.9111 15.112 42.7938 15.112H41.2738V17.232ZM45.9694 20V14.328H46.8654V20H45.9694ZM51.7571 15.656C51.7037 15.5973 51.6264 15.536 51.5251 15.472C51.4237 15.4027 51.3037 15.3387 51.1651 15.28C51.0317 15.2213 50.8824 15.1733 50.7171 15.136C50.5517 15.0987 50.3757 15.08 50.1891 15.08C49.8371 15.08 49.5704 15.1493 49.3891 15.288C49.2077 15.4267 49.1171 15.6213 49.1171 15.872C49.1171 16.0107 49.1464 16.1253 49.2051 16.216C49.2637 16.3013 49.3517 16.376 49.4691 16.44C49.5864 16.504 49.7331 16.5627 49.9091 16.616C50.0851 16.664 50.2904 16.7173 50.5251 16.776C50.8024 16.8507 51.0557 16.928 51.2851 17.008C51.5197 17.088 51.7171 17.1893 51.8771 17.312C52.0424 17.4293 52.1704 17.576 52.2611 17.752C52.3517 17.928 52.3971 18.1467 52.3971 18.408C52.3971 18.7067 52.3411 18.96 52.2291 19.168C52.1171 19.376 51.9651 19.5467 51.7731 19.68C51.5864 19.808 51.3677 19.904 51.1171 19.968C50.8664 20.0267 50.5997 20.056 50.3171 20.056C49.8851 20.056 49.4664 19.992 49.0611 19.864C48.6557 19.7307 48.2904 19.5387 47.9651 19.288L48.3811 18.52C48.4504 18.5893 48.5491 18.6667 48.6771 18.752C48.8051 18.8373 48.9544 18.9173 49.1251 18.992C49.3011 19.0613 49.4931 19.1227 49.7011 19.176C49.9091 19.224 50.1251 19.248 50.3491 19.248C50.6904 19.248 50.9544 19.1867 51.1411 19.064C51.3331 18.936 51.4291 18.752 51.4291 18.512C51.4291 18.368 51.3944 18.248 51.3251 18.152C51.2557 18.056 51.1544 17.9733 51.0211 17.904C50.8877 17.8293 50.7251 17.7653 50.5331 17.712C50.3411 17.6533 50.1224 17.592 49.8771 17.528C49.5944 17.4533 49.3464 17.376 49.1331 17.296C48.9251 17.2107 48.7517 17.1093 48.6131 16.992C48.4744 16.8747 48.3677 16.7387 48.2931 16.584C48.2237 16.424 48.1891 16.232 48.1891 16.008C48.1891 15.7307 48.2397 15.4853 48.3411 15.272C48.4477 15.0533 48.5917 14.872 48.7731 14.728C48.9597 14.5787 49.1784 14.4667 49.4291 14.392C49.6797 14.3173 49.9491 14.28 50.2371 14.28C50.6317 14.28 50.9891 14.3413 51.3091 14.464C51.6344 14.5867 51.9197 14.7387 52.1651 14.92L51.7571 15.656ZM53.5431 20V14.328H54.4391V20H53.5431ZM58.3228 19.232C58.6215 19.232 58.8695 19.1733 59.0668 19.056C59.2641 18.9387 59.4215 18.7867 59.5388 18.6C59.6615 18.408 59.7468 18.192 59.7948 17.952C59.8481 17.7067 59.8748 17.456 59.8748 17.2V14.32H60.7788V17.2C60.7788 17.5893 60.7335 17.9573 60.6428 18.304C60.5521 18.6453 60.4081 18.9467 60.2108 19.208C60.0135 19.464 59.7575 19.6667 59.4428 19.816C59.1335 19.9653 58.7601 20.04 58.3228 20.04C57.8695 20.04 57.4855 19.9627 57.1708 19.808C56.8615 19.648 56.6108 19.4373 56.4188 19.176C56.2268 18.9093 56.0881 18.6053 56.0028 18.264C55.9175 17.9227 55.8748 17.568 55.8748 17.2V14.32H56.7708V17.2C56.7708 17.4613 56.7948 17.7147 56.8428 17.96C56.8961 18.2 56.9815 18.416 57.0988 18.608C57.2215 18.7947 57.3815 18.9467 57.5788 19.064C57.7815 19.176 58.0295 19.232 58.3228 19.232ZM66.9788 20V15.912L65.2908 19.008H64.7948L63.0988 15.912V20H62.2028V14.32H63.1628L65.0428 17.792L66.9228 14.32H67.8828V20H66.9788Z" fill="white"/>
<rect x="10" y="10" width="14" height="14" rx="2" fill="white"/>
<path d="M13 14H16.1977L18.4267 19.564L19.229 17.6333L17.8023 14H21L18.6187 20H15.4012L13 14Z" fill="#181818"/>
</svg>
