<svg width="175" height="38" viewBox="0 0 175 38" fill="none" xmlns="http://www.w3.org/2000/svg">
<path d="M153.981 30.7733L150.834 24.4788L147.687 30.7733H153.981ZM83.5761 15.7365L77.2816 18.8837L83.5761 22.031V15.7365ZM26.9258 22.8469L30.073 29.1414L33.2203 22.8469H26.9258ZM170.417 9.44199C169.368 9.44199 168.318 10.2579 168.318 11.4236C168.318 12.7058 169.368 13.4052 170.417 13.4052C171.582 13.4052 172.515 12.5892 172.515 11.4236C172.515 10.2579 171.582 9.44199 170.417 9.44199ZM161.791 15.853V13.4052H166.337H166.92C165.987 12.5892 165.987 11.4236 165.987 11.0739C165.987 9.32543 167.269 6.99414 170.3 6.99414C173.214 6.99414 174.729 9.0923 174.729 11.1905C174.729 12.3561 174.147 13.1721 173.564 13.5217H174.38V15.853H161.791ZM170.533 24.1291C171.233 24.1291 172.631 23.5463 172.631 22.1475C172.631 21.3316 172.165 20.7487 171.699 20.399C171.349 20.1659 170.999 20.0494 170.65 20.0494C170.3 20.0494 169.95 20.0494 169.601 20.2825C169.018 20.5156 168.435 21.0984 168.435 22.1475C168.318 23.4297 169.601 24.1291 170.533 24.1291ZM174.613 17.6015V20.0494H173.68C174.496 20.5156 174.846 21.5647 174.846 22.4972C174.846 25.0616 172.864 26.577 170.417 26.577C167.736 26.577 165.987 24.5954 165.987 22.4972C165.987 21.0984 166.687 20.3991 167.153 20.0494H166.337V17.6015H174.613ZM161.791 28.3254H174.613V30.7733H161.791V28.3254Z" fill="#181818"/>
<path d="M108.755 34.0368L110.62 38C119.362 31.3558 120.877 23.8957 115.282 15.9693C110.736 9.67485 115.632 4.07975 117.147 2.68098L113.767 0C111.552 2.33129 105.84 9.79141 110.853 17.3681C115.748 24.5951 115.282 28.5583 108.755 34.0368ZM41.2638 34.0368L43.1288 38C51.8712 31.3558 53.3865 23.8957 47.7914 15.9693C43.362 9.67485 48.2577 4.07975 49.773 2.56442L46.2761 0C44.0614 2.33129 38.3497 9.79141 43.362 17.3681C48.2577 24.5951 47.6749 28.5583 41.2638 34.0368ZM156.313 6.99387L150.834 16.5521L145.356 6.99387H140.926L150.951 24.2454L160.742 6.99387H156.313ZM66.5583 8.39264C65.0429 7.46012 63.0614 6.99387 60.4969 6.99387H54.9018V30.773H59.3313V18.8834V11.5399H60.4969C63.6442 11.5399 65.7423 12.3558 65.7423 15.0368C65.7423 17.6012 63.1779 18.7669 60.2638 18.8834C60.1472 18.8834 59.7976 18.8834 59.5644 18.8834L62.5951 23.0798C64.1104 22.8466 65.3926 22.3804 66.4417 21.681C66.5583 21.681 66.5583 21.5644 66.6749 21.5644C68.8896 20.0491 70.1718 17.7178 70.1718 15.0368C70.1718 12.1227 68.8896 9.79141 66.5583 8.39264ZM101.994 21.5644C104.209 20.0491 105.491 17.7178 105.491 15.0368C105.491 12.1227 104.209 9.79141 101.877 8.39264C100.362 7.46012 98.3804 6.99387 95.816 6.99387H90.2209V30.773H94.6503V18.8834V11.5399H95.816C98.9632 11.5399 101.061 12.3558 101.061 15.0368C101.061 17.6012 98.4969 18.7669 95.5828 18.8834C95.4663 18.8834 95.1166 18.8834 94.8834 18.8834L103.16 30.773H108.405L101.994 21.5644ZM132.301 18.8834L140.693 6.99387H135.448L127.055 18.8834L135.331 30.773H140.577L132.301 18.8834ZM126.939 6.99387H122.393V30.773H126.822V6.99387H126.939ZM9.90798 18.8834L18.1841 6.99387H12.9387L4.66258 18.8834L12.9387 30.773H18.1841L9.90798 18.8834ZM4.42945 6.99387H0V30.773H4.42945V6.99387ZM86.8405 11.5399V6.99387H77.1656H74.9509H72.7362V30.773H74.9509H77.1656H86.8405V26.3436H77.1656V11.5399H86.8405ZM41.6135 30.773H37.1841L30.1902 15.7362L23.1963 30.773H18.7669L30.3068 6.06135L41.6135 30.773Z" fill="#181818"/>
</svg>
