<svg width="140" height="140" viewBox="0 0 140 140" fill="none" xmlns="http://www.w3.org/2000/svg">
<g filter="url(#filter0_d)">
<rect x="25" y="21" width="90" height="90" rx="3" fill="white"/>
</g>
<path d="M92.5 76V88.5H80V76H92.5Z" fill="white"/>
<path d="M92.5 43.5V56H80V43.5H92.5Z" fill="white"/>
<path d="M60 76V88.5H47.5V76H60Z" fill="white"/>
<path d="M60 43.5V56H47.5V43.5H60Z" fill="white"/>
<path d="M75 69.75C75.6899 69.75 76.25 69.1899 76.25 68.5C76.25 67.8101 75.6899 67.25 75 67.25C74.3101 67.25 73.75 67.8101 73.75 68.5C73.75 69.1899 74.3101 69.75 75 69.75Z" fill="black"/>
<path d="M47.5 69.75C48.1899 69.75 48.75 69.1899 48.75 68.5C48.75 67.8101 48.1899 67.25 47.5 67.25C46.8101 67.25 46.25 67.8101 46.25 68.5C46.25 69.1899 46.8101 69.75 47.5 69.75Z" fill="black"/>
<path d="M39.25 49.75C39.9404 49.75 40.5 49.1904 40.5 48.5V36.5H52.5C53.1904 36.5 53.75 35.9404 53.75 35.25C53.75 34.5596 53.1904 34 52.5 34H39.25C38.5596 34 38 34.5596 38 35.25V48.5C38 49.1904 38.5596 49.75 39.25 49.75Z" fill="#FF634E"/>
<path d="M53.75 96.75C53.75 96.0596 53.1904 95.5 52.5 95.5H40.5V83.5C40.5 82.8096 39.9404 82.25 39.25 82.25C38.5596 82.25 38 82.8096 38 83.5V96.75C38 97.4404 38.5596 98 39.25 98H52.5C53.1904 98 53.75 97.4404 53.75 96.75Z" fill="#FF634E"/>
<path d="M100.75 82.25C100.06 82.25 99.5 82.8096 99.5 83.5V95.5H87.5C86.8096 95.5 86.25 96.0596 86.25 96.75C86.25 97.4404 86.8096 98 87.5 98H100.75C101.44 98 102 97.4404 102 96.75V83.5C102 82.8096 101.44 82.25 100.75 82.25Z" fill="#FF634E"/>
<path d="M100.75 34H87.5C86.8096 34 86.25 34.5596 86.25 35.25C86.25 35.9404 86.8096 36.5 87.5 36.5H99.5V48.5C99.5 49.1904 100.06 49.75 100.75 49.75C101.44 49.75 102 49.1904 102 48.5V35.25C102 34.5596 101.44 34 100.75 34Z" fill="#FF634E"/>
<path d="M46.25 88.5C46.25 89.1904 46.8096 89.75 47.5 89.75H60C60.6904 89.75 61.25 89.1904 61.25 88.5V76C61.25 75.3096 60.6904 74.75 60 74.75H47.5C46.8096 74.75 46.25 75.3096 46.25 76V88.5ZM48.75 77.25H58.75V87.25H48.75V77.25Z" fill="#181818"/>
<path d="M60 42.25H47.5C46.8096 42.25 46.25 42.8096 46.25 43.5V56C46.25 56.6904 46.8096 57.25 47.5 57.25H60C60.6904 57.25 61.25 56.6904 61.25 56V43.5C61.25 42.8096 60.6904 42.25 60 42.25ZM58.75 54.75H48.75V44.75H58.75V54.75Z" fill="#181818"/>
<path d="M93.75 43.5C93.75 42.8096 93.1904 42.25 92.5 42.25H80C79.3096 42.25 78.75 42.8096 78.75 43.5V56C78.75 56.6904 79.3096 57.25 80 57.25H92.5C93.1904 57.25 93.75 56.6904 93.75 56V43.5ZM91.25 54.75H81.25V44.75H91.25V54.75Z" fill="#181818"/>
<path d="M93.75 88.5V76C93.75 75.3096 93.1904 74.75 92.5 74.75H80C79.3096 74.75 78.75 75.3096 78.75 76V88.5C78.75 89.1904 79.3096 89.75 80 89.75H92.5C93.1904 89.75 93.75 89.1904 93.75 88.5ZM91.25 87.25H81.25V77.25H91.25V87.25Z" fill="#181818"/>
<path d="M55 79.75H52.5C51.8096 79.75 51.25 80.3096 51.25 81V83.5C51.25 84.1904 51.8096 84.75 52.5 84.75H55C55.6904 84.75 56.25 84.1904 56.25 83.5V81C56.25 80.3096 55.6904 79.75 55 79.75Z" fill="#181818"/>
<path d="M52.5 52.25H55C55.6904 52.25 56.25 51.6904 56.25 51V48.5C56.25 47.8096 55.6904 47.25 55 47.25H52.5C51.8096 47.25 51.25 47.8096 51.25 48.5V51C51.25 51.6904 51.8096 52.25 52.5 52.25Z" fill="#181818"/>
<path d="M85 52.25H87.5C88.1904 52.25 88.75 51.6904 88.75 51V48.5C88.75 47.8096 88.1904 47.25 87.5 47.25H85C84.3096 47.25 83.75 47.8096 83.75 48.5V51C83.75 51.6904 84.3096 52.25 85 52.25Z" fill="#181818"/>
<path d="M85 84.75H87.5C88.1904 84.75 88.75 84.1904 88.75 83.5V81C88.75 80.3096 88.1904 79.75 87.5 79.75H85C84.3096 79.75 83.75 80.3096 83.75 81V83.5C83.75 84.1904 84.3096 84.75 85 84.75Z" fill="#181818"/>
<path d="M51.25 68.5C51.25 69.1904 51.8096 69.75 52.5 69.75H68.75V76C68.75 76.6904 69.3096 77.25 70 77.25C70.6904 77.25 71.25 76.6904 71.25 76V68.5C71.25 67.8096 70.6904 67.25 70 67.25H52.5C51.8096 67.25 51.25 67.8096 51.25 68.5Z" fill="#181818"/>
<path d="M60 64.75C60.6904 64.75 61.25 64.1904 61.25 63.5C61.25 62.8096 60.6904 62.25 60 62.25H47.5C46.8096 62.25 46.25 62.8096 46.25 63.5C46.25 64.1904 46.8096 64.75 47.5 64.75H60Z" fill="#181818"/>
<path d="M65 64.75H70C70.6904 64.75 71.25 64.1904 71.25 63.5C71.25 62.8096 70.6904 62.25 70 62.25H65C64.3096 62.25 63.75 62.8096 63.75 63.5C63.75 64.1904 64.3096 64.75 65 64.75Z" fill="#181818"/>
<path d="M65 42.25C64.3096 42.25 63.75 42.8096 63.75 43.5V56C63.75 56.6904 64.3096 57.25 65 57.25H73.75V63.5C73.75 64.1904 74.3096 64.75 75 64.75H80C80.6904 64.75 81.25 64.1904 81.25 63.5C81.25 62.8096 80.6904 62.25 80 62.25H76.25V56C76.25 55.3096 75.6904 54.75 75 54.75H66.25V43.5C66.25 42.8096 65.6904 42.25 65 42.25Z" fill="#181818"/>
<path d="M92.5 62.25H85C84.3096 62.25 83.75 62.8096 83.75 63.5C83.75 64.1904 84.3096 64.75 85 64.75H92.5C93.1904 64.75 93.75 64.1904 93.75 63.5C93.75 62.8096 93.1904 62.25 92.5 62.25Z" fill="#181818"/>
<path d="M92.5 67.25H80C79.3096 67.25 78.75 67.8096 78.75 68.5C78.75 69.1904 79.3096 69.75 80 69.75H92.5C93.1904 69.75 93.75 69.1904 93.75 68.5C93.75 67.8096 93.1904 67.25 92.5 67.25Z" fill="#181818"/>
<path d="M70 79.75H65C64.3096 79.75 63.75 80.3096 63.75 81V88.5C63.75 89.1904 64.3096 89.75 65 89.75C65.6904 89.75 66.25 89.1904 66.25 88.5V82.25H70C70.6904 82.25 71.25 81.6904 71.25 81C71.25 80.3096 70.6904 79.75 70 79.75Z" fill="#181818"/>
<path d="M73.75 87.25H70C69.3096 87.25 68.75 87.8096 68.75 88.5C68.75 89.1904 69.3096 89.75 70 89.75H75C75.6904 89.75 76.25 89.1904 76.25 88.5V73.5C76.25 72.8096 75.6904 72.25 75 72.25C74.3096 72.25 73.75 72.8096 73.75 73.5V87.25Z" fill="#181818"/>
<path d="M75 52.25C75.6904 52.25 76.25 51.6904 76.25 51V43.5C76.25 42.8096 75.6904 42.25 75 42.25C74.3096 42.25 73.75 42.8096 73.75 43.5V49.75H70C69.3096 49.75 68.75 50.3096 68.75 51C68.75 51.6904 69.3096 52.25 70 52.25H75Z" fill="#181818"/>
<defs>
<filter id="filter0_d" x="0" y="0" width="140" height="140" filterUnits="userSpaceOnUse" color-interpolation-filters="sRGB">
<feFlood flood-opacity="0" result="BackgroundImageFix"/>
<feColorMatrix in="SourceAlpha" type="matrix" values="0 0 0 0 0 0 0 0 0 0 0 0 0 0 0 0 0 0 127 0"/>
<feOffset dy="4"/>
<feGaussianBlur stdDeviation="12.5"/>
<feColorMatrix type="matrix" values="0 0 0 0 0 0 0 0 0 0 0 0 0 0 0 0 0 0 0.1 0"/>
<feBlend mode="normal" in2="BackgroundImageFix" result="effect1_dropShadow"/>
<feBlend mode="normal" in="SourceGraphic" in2="effect1_dropShadow" result="shape"/>
</filter>
</defs>
</svg>
