<svg width="140" height="140" viewBox="0 0 140 140" fill="none" xmlns="http://www.w3.org/2000/svg">
<g filter="url(#filter0_d)">
<rect x="25" y="21" width="90" height="90" rx="3" fill="white"/>
</g>
<path d="M84.4 51.6H72.4C71.127 51.6 69.9061 52.1057 69.0059 53.0059C68.1057 53.9061 67.6 55.127 67.6 56.4V61.872C66.184 62.688 65.2 64.224 65.2 66C65.2 67.273 65.7057 68.4939 66.6059 69.3941C67.5061 70.2943 68.727 70.8 70 70.8C72.664 70.8 74.8 68.64 74.8 66C74.8 64.224 73.84 62.688 72.4 61.872V56.4H79.6V75.6H60.4V56.4H65.2V51.6H60.4H55.6V80.4H84.4V51.6ZM89.2 85.2H50.8V46.8H89.2V85.2ZM89.2 42H50.8C49.527 42 48.3061 42.5057 47.4059 43.4059C46.5057 44.3061 46 45.527 46 46.8V85.2C46 86.473 46.5057 87.6939 47.4059 88.5941C48.3061 89.4943 49.527 90 50.8 90H89.2C91.864 90 94 87.84 94 85.2V46.8C94 44.136 91.864 42 89.2 42Z" fill="#181818"/>
<circle r="5" transform="matrix(1 0 0 -1 70 66)" fill="#FF634E"/>
<defs>
<filter id="filter0_d" x="0" y="0" width="140" height="140" filterUnits="userSpaceOnUse" color-interpolation-filters="sRGB">
<feFlood flood-opacity="0" result="BackgroundImageFix"/>
<feColorMatrix in="SourceAlpha" type="matrix" values="0 0 0 0 0 0 0 0 0 0 0 0 0 0 0 0 0 0 127 0"/>
<feOffset dy="4"/>
<feGaussianBlur stdDeviation="12.5"/>
<feColorMatrix type="matrix" values="0 0 0 0 0 0 0 0 0 0 0 0 0 0 0 0 0 0 0.1 0"/>
<feBlend mode="normal" in2="BackgroundImageFix" result="effect1_dropShadow"/>
<feBlend mode="normal" in="SourceGraphic" in2="effect1_dropShadow" result="shape"/>
</filter>
</defs>
</svg>
