<svg width="58" height="56" viewBox="0 0 58 56" fill="none" xmlns="http://www.w3.org/2000/svg">
<path fill-rule="evenodd" clip-rule="evenodd" d="M11.5 0C9.84315 0 8.5 1.34314 8.5 3V45.7495C8.5 47.4064 9.84314 48.7495 11.5 48.7495H54.2495C55.9064 48.7495 57.2495 47.4064 57.2495 45.7495V35.4244H50.6256C50.1927 37.1065 48.6657 38.3494 46.8485 38.3494C44.6946 38.3494 42.9486 36.6033 42.9486 34.4494C42.9486 32.2956 44.6946 30.5495 46.8485 30.5495C48.6657 30.5495 50.1927 31.7924 50.6256 33.4744H57.2495V3C57.2495 1.34315 55.9064 0 54.2495 0H11.5ZM57.2485 6.49972H42.2198L38.8179 9.90162C38.1611 9.3986 37.3398 9.0997 36.4486 9.0997C34.2947 9.0997 32.5487 10.8458 32.5487 12.9997C32.5487 15.1535 34.2947 16.8996 36.4486 16.8996C38.6025 16.8996 40.3486 15.1535 40.3486 12.9997C40.3486 12.4486 40.2343 11.9243 40.0282 11.449L43.0275 8.4497H57.2485V6.49972Z" fill="#FF634E"/>
<path d="M1.04108 35.9218C5.83999 36.3592 10.3338 38.4647 13.7412 41.8721C17.1487 45.2795 19.2541 49.7734 19.6915 54.5723" stroke="#F5F5F5" stroke-width="2" stroke-linecap="round" stroke-linejoin="round"/>
<path d="M1.00001 26.477C8.2833 26.9359 15.149 30.0362 20.3093 35.1965C25.4695 40.3567 28.5698 47.2224 29.0287 54.5057" stroke="#F5F5F5" stroke-width="2" stroke-linecap="round" stroke-linejoin="round"/>
<path d="M1.0001 45.3129C3.30022 45.7023 5.42219 46.7977 7.07176 48.4472C8.72133 50.0968 9.81675 52.2188 10.2061 54.5189" stroke="#F5F5F5" stroke-width="2" stroke-linecap="round" stroke-linejoin="round"/>
</svg>
