<svg width="68" height="54" viewBox="0 0 68 54" fill="none" xmlns="http://www.w3.org/2000/svg">
<path d="M13.4085 45C6.00317 45 0 38.8682 0 31.3043C0 23.7404 6.00317 17.6087 13.4085 17.6087C15.1058 17.6087 16.7295 17.9308 18.2241 18.5185C18.7567 8.1996 27.1169 0 37.3521 0C47.9311 0 56.507 8.75965 56.507 19.5652C56.507 20.9367 56.3689 22.2751 56.106 23.5669C56.5509 23.5084 57.0044 23.4783 57.4648 23.4783C63.2832 23.4783 68 28.2961 68 34.2391C68 40.1822 63.2832 45 57.4648 45C44.3066 45 31.6317 45 13.4085 45Z" fill="#FF634E"/>
<path d="M37.5 52.5C37.5 53.0523 37.9477 53.5 38.5 53.5C39.0523 53.5 39.5 53.0523 39.5 52.5L37.5 52.5ZM39.2071 15.7929C38.8166 15.4024 38.1834 15.4024 37.7929 15.7929L31.4289 22.1569C31.0384 22.5474 31.0384 23.1805 31.4289 23.5711C31.8195 23.9616 32.4526 23.9616 32.8431 23.5711L38.5 17.9142L44.1569 23.5711C44.5474 23.9616 45.1805 23.9616 45.5711 23.5711C45.9616 23.1805 45.9616 22.5474 45.5711 22.1569L39.2071 15.7929ZM39.5 52.5L39.5 16.5L37.5 16.5L37.5 52.5L39.5 52.5Z" fill="white"/>
<path d="M22.5 38.5C22.5 39.0523 22.9477 39.5 23.5 39.5C24.0523 39.5 24.5 39.0523 24.5 38.5L22.5 38.5ZM24.2071 26.7929C23.8166 26.4024 23.1834 26.4024 22.7929 26.7929L16.4289 33.1569C16.0384 33.5474 16.0384 34.1805 16.4289 34.5711C16.8195 34.9616 17.4526 34.9616 17.8431 34.5711L23.5 28.9142L29.1569 34.5711C29.5474 34.9616 30.1805 34.9616 30.5711 34.5711C30.9616 34.1805 30.9616 33.5474 30.5711 33.1569L24.2071 26.7929ZM24.5 38.5L24.5 27.5L22.5 27.5L22.5 38.5L24.5 38.5Z" fill="white"/>
</svg>
