<svg width="102" height="38" viewBox="0 0 102 38" fill="none" xmlns="http://www.w3.org/2000/svg">
<path d="M0 13.3783V18.8933L14.9672 17.2566V11.3146L0 13.3783Z" fill="black"/>
<path d="M4.78516 19.2135V38H10.2539V18.6442L4.78516 19.2135Z" fill="black"/>
<path d="M16.9824 11.03V38H22.775V10.2116L16.9824 11.03Z" fill="black"/>
<path d="M23.8535 10.0693V16.2959L32.2006 15.3708V8.93073L23.8535 10.0693Z" fill="black"/>
<path d="M23.8535 20.8858V27.2191L29.3223 26.9345V20.4232L23.8535 20.8858Z" fill="black"/>
<path d="M23.8535 31.7734V38H32.2006V31.5244L23.8535 31.7734Z" fill="black"/>
<path d="M53.752 5.90637V38H61.3075V4.83896L53.752 5.90637Z" fill="black"/>
<path d="M62.7471 4.66107V12.0262L73.7566 10.8521V3.1311L62.7471 4.66107Z" fill="black"/>
<path d="M62.7471 17.6124V25.1199L69.9788 24.7285V16.9719L62.7471 17.6124Z" fill="black"/>
<path d="M62.7471 30.6348V38H73.7566V30.279L62.7471 30.6348Z" fill="black"/>
<path d="M34.3955 8.61049V38H40.9796V7.68539L34.3955 8.61049Z" fill="black"/>
<path d="M42.2031 31.2397V38H51.7375V30.955L42.2031 31.2397Z" fill="black"/>
<path d="M98.5099 2.77529C96.1353 0.533717 92.6094 -0.391376 88.7597 0.177912V8.36143C90.3068 8.29027 91.566 8.85956 92.1417 9.99814C93.0412 11.8127 92.1057 14.5169 89.947 17.0431C86.6009 20.9214 77.7861 28.8914 77.7861 28.8914L90.4867 28.4644C98.2581 20.9569 101.028 16.4026 101.532 10.7453C101.82 7.6854 100.705 4.80338 98.5099 2.77529Z" fill="black"/>
<path d="M76.2031 30.2079L76.2391 38H102V29.4607L76.2031 30.2079Z" fill="black"/>
<path d="M87.2851 0.320221C79.8015 1.88576 76.1317 7.32958 76.5634 16.2247L84.5507 15.5131C84.1909 10.4963 85.738 9.28651 87.3211 8.64606L87.2851 0.320221Z" fill="black"/>
</svg>
