<svg width="383" height="172" viewBox="0 0 383 172" fill="none" xmlns="http://www.w3.org/2000/svg">
<g opacity="0.1" clip-path="url(#clip0)">
<path d="M-50 -63L-3.99384 46.6657H59.5542" stroke="white"/>
<path d="M13.5488 -63L59.555 46.6657" stroke="white"/>
<path d="M105.891 -63L59.8845 46.6657" stroke="white"/>
<path d="M42.6738 -63L88.68 46.6657H152.228" stroke="white"/>
<path d="M106.223 -63L152.229 46.6657" stroke="white"/>
<path d="M198.564 -63L152.558 46.6657" stroke="white"/>
<path d="M134.688 -63L180.694 46.6657H244.242" stroke="white"/>
<path d="M198.236 -63L244.242 46.6657" stroke="white"/>
<path d="M290.58 -63L244.574 46.6657" stroke="white"/>
<path d="M227.361 -63L273.367 46.6657H336.916" stroke="white"/>
<path d="M290.91 -63L336.916 46.6657" stroke="white"/>
<path d="M383.254 -63L337.248 46.6657" stroke="white"/>
<path d="M319.373 -63L365.379 46.6657H428.927" stroke="white"/>
<path d="M382.922 -63L428.928 46.6657" stroke="white"/>
<path d="M-4.32422 46.334L41.6819 156H105.23" stroke="white"/>
<path d="M59.2246 46.334L105.231 156" stroke="white"/>
<path d="M151.568 46.334L105.562 156" stroke="white"/>
<path d="M88.3496 46.3345L134.356 156H197.904" stroke="white"/>
<path d="M151.898 46.334L197.905 156" stroke="white"/>
<path d="M244.24 46.334L198.234 156" stroke="white"/>
<path d="M180.363 46.334L226.369 156H289.918" stroke="white"/>
<path d="M243.912 46.334L289.918 156" stroke="white"/>
<path d="M336.256 46.334L290.25 156" stroke="white"/>
<path d="M273.037 46.3345L319.043 156H382.591" stroke="white"/>
<path d="M336.584 46.334L382.59 156" stroke="white"/>
<path d="M428.928 46.334L382.922 156" stroke="white"/>
<path d="M365.049 46.334L411.055 156H474.603" stroke="white"/>
</g>
<defs>
<clipPath id="clip0">
<rect width="383" height="172" fill="white"/>
</clipPath>
</defs>
</svg>
