<svg width="15" height="15" viewBox="0 0 15 15" fill="none" xmlns="http://www.w3.org/2000/svg">
<path d="M5.66634 13.8332C5.98851 13.8332 6.24967 13.572 6.24967 13.2498C6.24967 12.9277 5.98851 12.6665 5.66634 12.6665C5.34417 12.6665 5.08301 12.9277 5.08301 13.2498C5.08301 13.572 5.34417 13.8332 5.66634 13.8332Z" fill="white" stroke="white" stroke-width="1.5" stroke-linecap="round" stroke-linejoin="round"/>
<path d="M12.0833 13.8332C12.4055 13.8332 12.6667 13.572 12.6667 13.2498C12.6667 12.9277 12.4055 12.6665 12.0833 12.6665C11.7612 12.6665 11.5 12.9277 11.5 13.2498C11.5 13.572 11.7612 13.8332 12.0833 13.8332Z" fill="white" stroke="white" stroke-width="1.5" stroke-linecap="round" stroke-linejoin="round"/>
<path d="M1 1.58301H3.33333L4.89667 9.39384C4.95001 9.6624 5.09611 9.90365 5.3094 10.0753C5.52269 10.247 5.78957 10.3383 6.06333 10.333H11.7333C12.0071 10.3383 12.274 10.247 12.4873 10.0753C12.7006 9.90365 12.8467 9.6624 12.9 9.39384L13.8333 4.49967H3.91667" stroke="white" stroke-width="1.5" stroke-linecap="round" stroke-linejoin="round"/>
</svg>
