<svg width="12" height="12" viewBox="0 0 12 12" fill="none" xmlns="http://www.w3.org/2000/svg">
<path d="M11.25 11.25H8.91667V7.3125C8.91667 6.69417 8.2225 6.18083 7.60417 6.18083C6.98583 6.18083 6.58333 6.69417 6.58333 7.3125V11.25H4.25V4.25H6.58333V5.41667C6.96833 4.7925 7.96 4.39 8.625 4.39C10.0833 4.39 11.25 5.58 11.25 7.02083V11.25ZM3.08333 11.25H0.75V4.25H3.08333V11.25ZM1.91667 0.75C2.22609 0.75 2.52283 0.872916 2.74162 1.09171C2.96042 1.3105 3.08333 1.60725 3.08333 1.91667C3.08333 2.22609 2.96042 2.52283 2.74162 2.74162C2.52283 2.96042 2.22609 3.08333 1.91667 3.08333C1.60725 3.08333 1.3105 2.96042 1.09171 2.74162C0.872916 2.52283 0.75 2.22609 0.75 1.91667C0.75 1.60725 0.872916 1.3105 1.09171 1.09171C1.3105 0.872916 1.60725 0.75 1.91667 0.75Z" fill="white"/>
</svg>
