<svg width="14" height="11" viewBox="0 0 14 11" fill="none" xmlns="http://www.w3.org/2000/svg">
<path d="M13.1018 1.50016C12.6526 1.70433 12.1684 1.8385 11.6668 1.90266C12.1801 1.5935 12.5768 1.1035 12.7634 0.514329C12.2793 0.805996 11.7426 1.01016 11.1768 1.12683C10.7159 0.625163 10.0684 0.333496 9.33344 0.333496C7.9626 0.333496 6.8426 1.4535 6.8426 2.836C6.8426 3.03433 6.86594 3.22683 6.90677 3.40766C4.8301 3.30266 2.98094 2.30516 1.7501 0.794329C1.53427 1.16183 1.41177 1.5935 1.41177 2.0485C1.41177 2.91766 1.84927 3.68766 2.52594 4.12516C2.11177 4.12516 1.72677 4.0085 1.38844 3.8335C1.38844 3.8335 1.38844 3.8335 1.38844 3.851C1.38844 5.06433 2.25177 6.07933 3.3951 6.30683C3.1851 6.36516 2.96344 6.39433 2.73594 6.39433C2.57844 6.39433 2.42094 6.37683 2.26927 6.34766C2.58427 7.3335 3.5001 8.0685 4.6026 8.086C3.75094 8.76266 2.67177 9.15933 1.49344 9.15933C1.2951 9.15933 1.09677 9.14766 0.898438 9.12433C2.00677 9.836 3.3251 10.2502 4.73677 10.2502C9.33344 10.2502 11.8593 6.43516 11.8593 3.12766C11.8593 3.01683 11.8593 2.91183 11.8534 2.801C12.3434 2.451 12.7634 2.00766 13.1018 1.50016Z" fill="white"/>
</svg>
