<svg width="22" height="30" viewBox="0 0 22 30" version="1.1" xmlns="http://www.w3.org/2000/svg" xmlns:xlink="http://www.w3.org/1999/xlink">
<g id="Canvas" fill="none">
<g id="Group">
<g id="Group_2">
<g id="Vector">
<path fill-rule="evenodd" clip-rule="evenodd" d="M 10.4829 29.6178L 10.4827 29.6179C 10.579 29.7675 10.7801 29.875 10.9845 29.875C 11.1359 29.875 11.2029 29.8259 11.2361 29.757L 11.2474 29.7337L 11.267 29.7167C 11.4294 29.5764 11.5185 29.4135 11.5438 29.2498C 11.5689 29.087 11.5324 28.914 11.4272 28.7493L 2.99291 16.9277L 2.98878 16.9219L 2.98895 16.9218C 1.94457 15.2665 1.3917 13.3565 1.3917 11.3833C 1.3917 9.41001 1.94457 7.50004 2.98895 5.84476L 2.98954 5.84383L 2.98954 5.84383C 5.94019 1.2572 11.846 0.0442872 16.275 3.10416C 20.7015 6.16229 21.8679 12.3393 18.9184 16.8605L 18.9159 16.8642L 18.9159 16.8642L 13.8194 24.0948C 13.6083 24.4251 13.67 24.8479 13.9688 25.0543C 14.2827 25.2712 14.6855 25.211 14.885 24.9008L 14.8879 24.8964L 14.888 24.8964L 19.9851 17.665C 22.5053 13.8705 22.505 8.89427 19.9841 5.10012L 19.9835 5.09915C 16.6222 -0.0635376 9.9042 -1.42891 4.92634 2.05156C -0.0538651 5.53367 -1.37672 12.5633 1.98411 17.728L 10.4793 29.6128L 10.4829 29.6178Z" fill="white"/>
<path fill-rule="evenodd" clip-rule="evenodd" d="M 10.4829 29.6178L 10.4827 29.6179C 10.579 29.7675 10.7801 29.875 10.9845 29.875C 11.1359 29.875 11.2029 29.8259 11.2361 29.757L 11.2474 29.7337L 11.267 29.7167C 11.4294 29.5764 11.5185 29.4135 11.5438 29.2498C 11.5689 29.087 11.5324 28.914 11.4272 28.7493L 2.99291 16.9277L 2.98878 16.9219L 2.98895 16.9218C 1.94457 15.2665 1.3917 13.3565 1.3917 11.3833C 1.3917 9.41001 1.94457 7.50004 2.98895 5.84476L 2.98954 5.84383L 2.98954 5.84383C 5.94019 1.2572 11.846 0.0442872 16.275 3.10416C 20.7015 6.16229 21.8679 12.3393 18.9184 16.8605L 18.9159 16.8642L 18.9159 16.8642L 13.8194 24.0948C 13.6083 24.4251 13.67 24.8479 13.9688 25.0543C 14.2827 25.2712 14.6855 25.211 14.885 24.9008L 14.8879 24.8964L 14.888 24.8964L 19.9851 17.665C 22.5053 13.8705 22.505 8.89427 19.9841 5.10012L 19.9835 5.09915C 16.6222 -0.0635376 9.9042 -1.42891 4.92634 2.05156C -0.0538651 5.53367 -1.37672 12.5633 1.98411 17.728L 10.4793 29.6128L 10.4829 29.6178Z" stroke-width="0.25" stroke-miterlimit="8" stroke="#ED1B24"/>
</g>
<g id="Vector_2">
<path fill-rule="evenodd" clip-rule="evenodd" d="M 10.1319 5.28575L 10.1318 5.28313C 10.1318 2.45672 7.81856 0.125 5.09807 0.125C 2.37851 0.125 0.125 2.39287 0.125 5.28313C 0.125 8.17436 2.37947 10.5041 5.15876 10.5041C 7.93753 10.5041 10.1912 8.11255 10.1319 5.28575ZM 1.39228 5.34602C 1.39228 3.14143 3.08409 1.44736 5.15876 1.44736C 7.23612 1.44736 8.86454 3.14422 8.86454 5.34602C 8.86454 7.55061 7.17274 9.24468 5.09807 9.24468C 3.02071 9.24468 1.39228 7.54782 1.39228 5.34602Z" transform="translate(5.82617 6.16211)" fill="white"/>
<path fill-rule="evenodd" clip-rule="evenodd" d="M 10.1319 5.28575L 10.1318 5.28313C 10.1318 2.45672 7.81856 0.125 5.09807 0.125C 2.37851 0.125 0.125 2.39287 0.125 5.28313C 0.125 8.17436 2.37947 10.5041 5.15876 10.5041C 7.93753 10.5041 10.1912 8.11255 10.1319 5.28575ZM 1.39228 5.34602C 1.39228 3.14143 3.08409 1.44736 5.15876 1.44736C 7.23612 1.44736 8.86454 3.14422 8.86454 5.34602C 8.86454 7.55061 7.17274 9.24468 5.09807 9.24468C 3.02071 9.24468 1.39228 7.54782 1.39228 5.34602Z" stroke-width="0.25" stroke-miterlimit="8" transform="translate(5.82617 6.16211)" stroke="#ED1B24"/>
</g>
</g>
</g>
</g>
</svg>

