<svg width="39" height="34" viewBox="0 0 39 34" version="1.1" xmlns="http://www.w3.org/2000/svg" xmlns:xlink="http://www.w3.org/1999/xlink">
<g id="Canvas" fill="none">
<g id="Group">
<g id="Group_2">
<g id="Group_3">
<g id="Vector">
<path d="M 0 9.64503C 0 10.0957 0.221088 11.7633 1.2381 11.8535L 4.2449 12.1239L 4.28912 12.2591C 4.55442 13.476 5.04082 15.7746 5.52721 17.983C 5.83673 19.3351 6.10204 20.6422 6.32313 21.5886C 7.20748 25.645 9.55102 26.2309 12.0272 26.2309L 26.9728 26.2309C 29.4048 26.2309 31.7925 25.69 32.6769 21.5886C 32.8095 20.8675 33.0306 19.9661 33.2517 19.0196L 33.4728 17.983C 33.915 15.8647 34.4456 13.476 34.7109 12.2591L 34.7551 12.1239L 37.7619 11.8535C 38.7789 11.7633 39 10.0957 39 9.64503C 39 8.74362 38.4694 8.20278 37.6735 8.20278L 34.7109 8.20278L 34.7109 8.0225C 34.7551 7.43659 34.7109 6.85067 34.7109 6.76053C 34.3571 5.49857 32.6327 4.59716 29.2721 3.92111C 26.8844 3.47041 23.7449 3.15492 20.4728 3.10985L 20.2959 3.10985L 20.2959 1.35211L 22.6395 1.35211C 22.9932 1.35211 23.3027 1.03662 23.3027 0.676054C 23.3027 0.315492 22.9932 3.43859e-07 22.6395 3.43859e-07L 16.449 3.43859e-07C 16.0952 3.43859e-07 15.7857 0.315492 15.7857 0.676054C 15.7857 1.03662 16.0952 1.35211 16.449 1.35211L 18.7925 1.35211L 18.7925 3.10985L 18.6156 3.10985C 12.4694 3.29013 5.39456 4.41688 4.42177 6.58025C 4.33333 6.76053 4.28912 7.34645 4.37755 7.97743L 4.37755 8.15771L 1.32653 8.15771C 0.530612 8.20278 0 8.74362 0 9.64503ZM 5.61565 7.16616L 5.61565 7.1211L 5.65986 7.07603C 6.41156 6.03941 12.0272 4.55209 19.4558 4.46195C 27.415 4.55209 32.7211 5.85913 33.2517 7.07603L 33.2517 7.1211C 33.2517 7.34645 33.2517 7.75208 33.2075 8.0225L 33.2075 8.20278L 5.70408 8.20278L 5.70408 8.0225C 5.61565 7.75208 5.61565 7.34645 5.61565 7.16616ZM 37.585 9.55489L 37.585 9.73517C 37.585 9.96052 37.4966 10.1859 37.4524 10.3662L 37.4082 10.4563L 34.4898 10.7718C 33.915 10.8169 33.4728 11.2225 33.3401 11.7633C 33.119 12.9352 32.5442 15.4591 32.0578 17.6675L 31.881 18.5239C 31.6599 19.5605 31.4388 20.552 31.2619 21.3182C 30.5986 24.3379 29.2721 24.8788 26.8844 24.8788L 11.983 24.8788C 9.59524 24.8788 8.22449 24.3379 7.60544 21.3182C 7.38435 20.3267 7.11905 19.0196 6.80952 17.6675C 6.32313 15.3239 5.79252 12.8901 5.52721 11.7633C 5.43878 11.2225 4.95238 10.8169 4.37755 10.7718L 1.5034 10.5014L 1.45918 10.4112C 1.41497 10.276 1.32653 10.0056 1.32653 9.73517L 1.32653 9.55489L 37.585 9.55489Z" transform="translate(0 7.76562)" fill="#f37032"/>
</g>
<g id="Vector_2">
<path d="M 1.20151 9.43498C 1.51103 9.61526 1.90899 9.52512 2.08586 9.20963C 3.4124 6.95612 2.61648 5.64908 1.95321 4.5674C 1.33416 3.53078 0.84777 2.76459 2.04165 1.00685C 2.13008 0.871638 2.1743 0.691357 2.13008 0.511076C 2.08587 0.330796 1.99743 0.195585 1.86478 0.105444C 1.59947 -0.0748365 1.15729 -0.0297662 0.980423 0.285725C -0.699849 2.76459 0.140287 4.16176 0.84777 5.28852C 1.46682 6.28006 1.90899 7.00119 0.980423 8.53358C 0.891987 8.66879 0.847771 8.84907 0.891989 9.02935C 0.936206 9.20963 1.06886 9.34484 1.20151 9.43498Z" transform="translate(24.9316 0)" fill="#f37032"/>
</g>
<g id="Vector_3">
<path d="M 1.90899 4.5674C 1.28995 3.53078 0.803551 2.76459 1.99743 1.00685C 2.13008 0.871638 2.1743 0.691357 2.13008 0.511076C 2.08587 0.330796 1.99743 0.195585 1.86478 0.105444C 1.59947 -0.0748365 1.15729 -0.0297662 0.980424 0.285725C -0.699848 2.76459 0.140287 4.16176 0.84777 5.28852C 1.46682 6.28007 1.909 7.00119 0.980424 8.53358C 0.803553 8.84907 0.891989 9.2547 1.20151 9.43498C 1.51104 9.61526 1.909 9.52512 2.08587 9.20963C 3.36818 6.95612 2.57226 5.60401 1.90899 4.5674Z" transform="translate(28.3809 0.496094)" fill="#f37032"/>
</g>
<g id="Vector_4">
<path d="M 1.95321 4.5674C 1.28995 3.53078 0.847772 2.76459 2.04165 1.00685C 2.13008 0.871638 2.1743 0.691357 2.13008 0.511077C 2.08587 0.330796 1.99743 0.195585 1.86478 0.105444C 1.59947 -0.0748364 1.15729 -0.0297662 0.980424 0.285725C -0.699848 2.76459 0.140287 4.16176 0.84777 5.28852C 1.46682 6.28006 1.909 7.00119 0.980424 8.53358C 0.891989 8.66879 0.847769 8.84907 0.891987 9.02935C 0.936204 9.20963 1.02464 9.34484 1.1573 9.43498C 1.46682 9.61526 1.86478 9.52512 2.04165 9.20963C 3.4124 6.95612 2.61648 5.60401 1.95321 4.5674Z" transform="translate(31.6953 1.44531)" fill="#f37032"/>
</g>
</g>
</g>
</g>
</g>
</svg>

