<svg viewBox="0 0 30 33" version="1.1" xmlns="http://www.w3.org/2000/svg" xmlns:xlink="http://www.w3.org/1999/xlink">
<g id="Canvas" fill="none">
<g id="Group">
<g id="Vector">
<path d="M 26.6657 11.5423C 26.4516 11.3267 26.2374 11.0572 26.0233 10.7338C 24.3101 8.57781 21.3121 4.75095 16.6009 3.72686C 16.8151 3.40346 16.9757 3.02616 16.9757 2.59497C 17.0828 1.24748 16.0656 0.115589 14.7272 0.00778953C 13.3888 -0.100009 12.2645 0.924081 12.1574 2.27157C 12.1574 2.37937 12.1574 2.48717 12.1574 2.59497C 12.1574 2.97226 12.2645 3.29566 12.4251 3.61906C 7.23213 4.53535 3.32399 9.4941 1.77145 11.4345C 1.5573 11.704 1.45023 11.8657 1.28962 12.0274C -0.262921 13.8061 -0.42353 16.1237 0.861336 17.6868C 1.12902 18.0102 1.45023 18.3336 1.82499 18.5492L 5.25129 30.6227C 5.30483 30.8383 5.51897 31 5.78665 31L 22.4364 31C 22.704 31 22.9182 30.8383 22.9717 30.6227L 26.1839 19.5733C 28.4324 17.4173 28.593 13.9139 26.6657 11.5423ZM 14.513 1.24748C 15.2625 1.24748 15.8514 1.84037 15.8514 2.59497C 15.8514 2.86446 15.8514 3.45736 14.513 3.45736C 13.1746 3.45736 13.1746 2.86446 13.1746 2.59497C 13.1746 1.84037 13.7635 1.24748 14.513 1.24748ZM 3.05631 19.0343L 3.43107 19.0882L 3.53814 19.0882L 3.85936 19.0882L 4.18057 19.0882L 4.34118 19.0882L 4.55532 19.0343L 4.71593 18.9804L 7.3392 29.922L 6.16141 29.922L 3.05631 19.0343ZM 6.16141 18.4414C 6.26848 18.3336 6.42909 18.2797 6.53616 18.1719C 6.64323 18.0641 6.7503 17.9563 6.85737 17.8485L 6.96445 17.7407C 7.55334 18.2797 8.24931 18.7109 9.05235 19.0343L 9.90893 29.922L 8.40992 29.922L 5.78665 18.657L 6.0008 18.5492L 6.16141 18.4414ZM 15.905 18.3336C 16.0656 18.2258 16.2797 18.0641 16.4403 17.9024L 16.6009 17.7407L 16.7615 17.7407C 16.8151 17.8485 16.8686 17.9563 16.9757 18.118C 17.0828 18.2797 17.0828 18.3336 17.1363 18.4414C 17.2969 18.657 17.4575 18.9265 17.6181 19.0882C 17.8323 19.3577 18.0999 19.5733 18.3141 19.7889L 16.3333 29.922L 14.7272 29.922L 14.7272 18.9804C 15.1555 18.7648 15.5302 18.6031 15.905 18.3336ZM 22.1152 21.2442L 19.9202 29.922L 17.404 29.922L 19.2777 20.4896C 19.9737 20.8669 20.7767 21.1364 21.5798 21.1903C 21.7404 21.2442 21.9545 21.2442 22.1152 21.2442ZM 13.6565 19.3577L 13.6565 29.922L 10.9797 29.922L 10.0695 19.4116C 11.3009 19.6811 12.5322 19.6811 13.6565 19.3577ZM 22.0081 29.922L 21.0444 29.922L 23.3465 21.1364C 23.5606 21.0825 23.7748 21.0286 23.9354 20.9747L 24.0424 20.9208C 24.2566 20.8669 24.4707 20.7591 24.6849 20.6513L 24.7384 20.6513L 22.0081 29.922ZM 26.8799 15.7464C 26.7728 16.9322 26.2374 18.0641 25.3273 18.8726L 25.2738 18.9265L 25.1667 18.9804C 24.4707 19.5733 23.6677 19.9506 22.8111 20.0584C 22.4364 20.1123 22.0616 20.1123 21.6869 20.1123C 21.5263 20.1123 21.3656 20.1123 21.205 20.0584C 20.4555 19.8967 19.706 19.5733 19.1171 19.0882C 19.0636 19.0343 19.0101 18.9804 18.9565 18.9265L 18.7959 18.7648C 18.6888 18.657 18.5818 18.5492 18.4747 18.3875C 18.3141 18.2258 18.207 18.0102 18.0464 17.7946L 17.9393 17.6868C 17.8323 17.4712 17.7252 17.2556 17.6181 17.04C 17.5646 16.8783 17.511 16.7166 17.4575 16.5549C 17.404 16.3393 17.2434 16.2315 17.0828 16.1776L 16.9757 16.1776C 16.8151 16.1776 16.6545 16.2315 16.5474 16.3393C 16.3868 16.501 16.2262 16.7166 16.0656 16.8783L 16.012 16.9322L 15.8514 17.04L 15.7979 17.0939L 15.7444 17.1478C 15.5838 17.2556 15.4767 17.3634 15.3161 17.4712L 15.1555 17.579C 15.0484 17.6329 14.9413 17.7407 14.8342 17.7946L 14.6201 17.9024C 14.513 17.9563 14.406 18.0102 14.2989 18.0641L 14.0847 18.1719L 13.7635 18.2797L 13.5494 18.3336L 13.2282 18.4414L 13.014 18.4953L 12.6928 18.5492L 12.4787 18.5492L 12.1574 18.5492L 11.6221 18.5492L 11.3544 18.5492L 11.0867 18.5492L 10.7655 18.4953L 10.4443 18.3875L 10.1231 18.2797L 9.90893 18.2258L 9.53418 18.0641L 9.37357 18.0102C 9.21296 17.9563 9.10589 17.9024 8.94528 17.8485L 8.83821 17.7946C 8.6776 17.6868 8.57053 17.6329 8.40992 17.5251L 8.35638 17.5251C 8.19578 17.4173 8.03517 17.3095 7.9281 17.2017C 7.76749 17.0939 7.60688 16.9322 7.49981 16.8244C 7.39274 16.7166 7.3392 16.6627 7.23213 16.5549C 7.01798 16.3393 6.69677 16.3393 6.48262 16.5549C 6.42909 16.6088 6.42909 16.6088 6.42909 16.6627C 6.37555 16.7705 6.32201 16.8244 6.26848 16.8783C 6.21494 16.9861 6.16141 17.04 6.05433 17.0939C 6.0008 17.1478 5.89373 17.2556 5.84019 17.3095C 5.67958 17.4173 5.57251 17.5251 5.4119 17.579L 5.25129 17.6329C 5.14422 17.6868 5.03715 17.7407 4.87654 17.7946L 4.71593 17.8485C 4.39472 17.9563 4.01996 17.9563 3.69875 17.9563L 3.59167 17.9563C 3.4846 17.9563 3.37753 17.9024 3.27046 17.9024L 3.05631 17.8485L 2.84217 17.7407C 2.7351 17.6868 2.68156 17.6868 2.57449 17.6329C 2.25327 17.5251 1.93206 17.2556 1.66438 16.9861C 0.486584 15.5847 1.18255 13.8061 2.09267 12.7281C 2.19974 12.5664 2.36035 12.4047 2.57449 12.1352C 4.23411 10.0331 8.62406 4.53535 14.0847 4.53535C 19.7596 4.53535 23.1323 8.84731 25.1667 11.4345C 25.3808 11.7579 25.595 12.0274 25.8091 12.243C 26.6122 13.2132 27.0405 14.4529 26.8799 15.7464Z" transform="translate(1 1)" fill="#f37032"/>
<path d="M 26.6657 11.5423C 26.4516 11.3267 26.2374 11.0572 26.0233 10.7338C 24.3101 8.57781 21.3121 4.75095 16.6009 3.72685C 16.8151 3.40346 16.9757 3.02616 16.9757 2.59497C 17.0828 1.24748 16.0656 0.115589 14.7272 0.00778953C 13.3888 -0.100009 12.2645 0.924081 12.1574 2.27157C 12.1574 2.37937 12.1574 2.48717 12.1574 2.59497C 12.1574 2.97226 12.2645 3.29566 12.4251 3.61906C 7.23213 4.53535 3.32399 9.4941 1.77145 11.4345C 1.5573 11.704 1.45023 11.8657 1.28962 12.0274C -0.262921 13.8061 -0.42353 16.1237 0.861336 17.6868C 1.12902 18.0102 1.45023 18.3336 1.82499 18.5492L 5.25129 30.6227C 5.30483 30.8383 5.51897 31 5.78665 31L 22.4364 31C 22.704 31 22.9182 30.8383 22.9717 30.6227L 26.1839 19.5733C 28.4324 17.4173 28.593 13.9139 26.6657 11.5423ZM 14.513 1.24748C 15.2625 1.24748 15.8514 1.84037 15.8514 2.59497C 15.8514 2.86446 15.8514 3.45736 14.513 3.45736C 13.1746 3.45736 13.1746 2.86446 13.1746 2.59497C 13.1746 1.84037 13.7635 1.24748 14.513 1.24748ZM 3.05631 19.0343L 3.43107 19.0882L 3.53814 19.0882L 3.85935 19.0882L 4.18057 19.0882L 4.34118 19.0882L 4.55532 19.0343L 4.71593 18.9804L 7.3392 29.922L 6.16141 29.922L 3.05631 19.0343ZM 6.16141 18.4414C 6.26848 18.3336 6.42909 18.2797 6.53616 18.1719C 6.64323 18.0641 6.7503 17.9563 6.85737 17.8485L 6.96445 17.7407C 7.55334 18.2797 8.24931 18.7109 9.05235 19.0343L 9.90893 29.922L 8.40992 29.922L 5.78665 18.657L 6.0008 18.5492L 6.16141 18.4414ZM 15.905 18.3336C 16.0656 18.2258 16.2797 18.0641 16.4403 17.9024L 16.6009 17.7407L 16.7615 17.7407C 16.8151 17.8485 16.8686 17.9563 16.9757 18.118C 17.0828 18.2797 17.0828 18.3336 17.1363 18.4414C 17.2969 18.657 17.4575 18.9265 17.6181 19.0882C 17.8323 19.3577 18.0999 19.5733 18.3141 19.7889L 16.3333 29.922L 14.7272 29.922L 14.7272 18.9804C 15.1555 18.7648 15.5302 18.6031 15.905 18.3336ZM 22.1151 21.2442L 19.9202 29.922L 17.404 29.922L 19.2777 20.4896C 19.9737 20.8669 20.7767 21.1364 21.5798 21.1903C 21.7404 21.2442 21.9545 21.2442 22.1151 21.2442ZM 13.6565 19.3577L 13.6565 29.922L 10.9797 29.922L 10.0695 19.4116C 11.3009 19.6811 12.5322 19.6811 13.6565 19.3577ZM 22.0081 29.922L 21.0444 29.922L 23.3465 21.1364C 23.5606 21.0825 23.7748 21.0286 23.9354 20.9747L 24.0424 20.9208C 24.2566 20.8669 24.4707 20.7591 24.6849 20.6513L 24.7384 20.6513L 22.0081 29.922ZM 26.8799 15.7464C 26.7728 16.9322 26.2374 18.0641 25.3273 18.8726L 25.2738 18.9265L 25.1667 18.9804C 24.4707 19.5733 23.6677 19.9506 22.8111 20.0584C 22.4364 20.1123 22.0616 20.1123 21.6869 20.1123C 21.5263 20.1123 21.3656 20.1123 21.205 20.0584C 20.4555 19.8967 19.706 19.5733 19.1171 19.0882C 19.0636 19.0343 19.0101 18.9804 18.9565 18.9265L 18.7959 18.7648C 18.6888 18.657 18.5818 18.5492 18.4747 18.3875C 18.3141 18.2258 18.207 18.0102 18.0464 17.7946L 17.9393 17.6868C 17.8323 17.4712 17.7252 17.2556 17.6181 17.04C 17.5646 16.8783 17.511 16.7166 17.4575 16.5549C 17.404 16.3393 17.2434 16.2315 17.0828 16.1776L 16.9757 16.1776C 16.8151 16.1776 16.6545 16.2315 16.5474 16.3393C 16.3868 16.501 16.2262 16.7166 16.0656 16.8783L 16.012 16.9322L 15.8514 17.04L 15.7979 17.0939L 15.7444 17.1478C 15.5838 17.2556 15.4767 17.3634 15.3161 17.4712L 15.1555 17.579C 15.0484 17.6329 14.9413 17.7407 14.8342 17.7946L 14.6201 17.9024C 14.513 17.9563 14.406 18.0102 14.2989 18.0641L 14.0847 18.1719L 13.7635 18.2797L 13.5494 18.3336L 13.2282 18.4414L 13.014 18.4953L 12.6928 18.5492L 12.4787 18.5492L 12.1574 18.5492L 11.6221 18.5492L 11.3544 18.5492L 11.0867 18.5492L 10.7655 18.4953L 10.4443 18.3875L 10.1231 18.2797L 9.90893 18.2258L 9.53418 18.0641L 9.37357 18.0102C 9.21296 17.9563 9.10589 17.9024 8.94528 17.8485L 8.83821 17.7946C 8.6776 17.6868 8.57053 17.6329 8.40992 17.5251L 8.35638 17.5251C 8.19578 17.4173 8.03517 17.3095 7.9281 17.2017C 7.76749 17.0939 7.60688 16.9322 7.49981 16.8244C 7.39273 16.7166 7.3392 16.6627 7.23213 16.5549C 7.01798 16.3393 6.69677 16.3393 6.48262 16.5549C 6.42909 16.6088 6.42909 16.6088 6.42909 16.6627C 6.37555 16.7705 6.32201 16.8244 6.26848 16.8783C 6.21494 16.9861 6.16141 17.04 6.05433 17.0939C 6.0008 17.1478 5.89373 17.2556 5.84019 17.3095C 5.67958 17.4173 5.57251 17.5251 5.4119 17.579L 5.25129 17.6329C 5.14422 17.6868 5.03715 17.7407 4.87654 17.7946L 4.71593 17.8485C 4.39472 17.9563 4.01996 17.9563 3.69875 17.9563L 3.59167 17.9563C 3.4846 17.9563 3.37753 17.9024 3.27046 17.9024L 3.05631 17.8485L 2.84217 17.7407C 2.7351 17.6868 2.68156 17.6868 2.57449 17.6329C 2.25327 17.5251 1.93206 17.2556 1.66438 16.9861C 0.486583 15.5847 1.18255 13.8061 2.09267 12.7281C 2.19974 12.5664 2.36035 12.4047 2.57449 12.1352C 4.23411 10.0331 8.62406 4.53535 14.0847 4.53535C 19.7596 4.53535 23.1323 8.84731 25.1667 11.4345C 25.3808 11.7579 25.595 12.0274 25.8091 12.243C 26.6122 13.2132 27.0405 14.4529 26.8799 15.7464Z" stroke-width="0.25" stroke-miterlimit="10" transform="translate(1 1)" stroke="#f37032"/>
</g>
</g>
</g>
</svg>

