<svg width="25" height="29" viewBox="0 0 25 29" version="1.1" xmlns="http://www.w3.org/2000/svg" xmlns:xlink="http://www.w3.org/1999/xlink">
<g id="Canvas" fill="none">
<g id="noun_1068003_cc">
<g id="Group">
<path id="Vector" d="M 24.696 1.60586C 25.3414 1.03909 24.8804 -7.20692e-07 24.0506 -7.20692e-07L 0.908441 -7.20692e-07C 0.0786426 -7.20692e-07 -0.290156 1.03909 0.263043 1.60586L 11.5114 11.9967L 11.5114 27.1107L 7.82343 27.1107C 7.27023 27.1107 6.90143 27.4886 6.90143 28.0554C 6.90143 28.6222 7.27023 29 7.82343 29L 16.9512 29C 17.5044 29 17.8732 28.6222 17.8732 28.0554C 17.8732 27.4886 17.5044 27.1107 16.9512 27.1107L 13.2632 27.1107L 13.2632 11.9967L 24.696 1.60586ZM 21.6534 1.88925L 12.4334 10.2964L 3.21344 1.88925L 21.6534 1.88925Z" fill="white"/>
</g>
</g>
</g>
</svg>
