<svg width="28" height="30" viewBox="0 0 28 30" version="1.1" xmlns="http://www.w3.org/2000/svg" xmlns:xlink="http://www.w3.org/1999/xlink">
<g id="Canvas" fill="none">
<g id="Vector">
<path d="M 27.3876 0.705423C 27.3036 0.375407 27.0441 0.122269 26.7194 0.0360151C 26.3871 -0.0521142 26.0418 0.0510159 25.8066 0.294778C 25.7898 0.311654 24.2069 1.92236 18.9208 3.95871C 17.0673 4.67125 15.7196 6.02319 15.1242 7.7614C 14.7415 8.8752 14.5586 10.5609 15.3818 12.721C 19.0123 8.49643 23.2793 7.32075 23.3334 7.26637C 20.5037 9.02521 16.3991 14.7011 16.3991 14.7011C 15.1354 17.6056 14.3346 20.5889 13.8512 23.079C 9.63459 4.08434 1.68671 0.251651 1.32086 0.0828925C 0.850481 -0.128993 0.297974 0.0791423 0.0833182 0.549791C -0.129472 1.02044 0.079585 1.57734 0.548096 1.7911C 0.637691 1.83048 9.52259 6.12632 13.099 29.2068C 13.1699 29.6644 13.5637 30 14.021 30C 14.0397 30 14.0565 30 14.0733 29.9981C 14.553 29.97 14.9338 29.5837 14.9543 29.1037C 14.9581 29.0081 15.3052 21.8565 18.1592 15.3405C 18.5419 15.3987 18.9656 15.4455 19.4602 15.4455C 21.5807 15.4455 24.556 14.673 26.9097 11.0766C 26.9284 11.0503 26.9452 11.0222 26.9583 10.9941C 28.976 7.07324 27.4529 0.964186 27.3876 0.705423Z" fill="white"/>
</g>
</g>
</svg>

