<svg width="63" height="37" viewBox="0 0 63 37" version="1.1" xmlns="http://www.w3.org/2000/svg" xmlns:xlink="http://www.w3.org/1999/xlink">
<g id="Canvas" fill="none">
<g id="Group">
<g id="Vector">
<path d="M 3.6929 14.3308L 3.6929 33.6462C 3.6929 34.5462 4.45935 35.3077 5.36516 35.3077C 6.27097 35.3077 7.03742 34.5462 7.03742 33.6462L 7.03742 14.2615C 9.12774 13.5 10.5213 11.5615 10.5213 9.27692L 9.89419 0.9C 9.82452 0.415385 9.47613 0.0692308 8.98839 0.0692308L 8.70968 0.0692308C 8.22194 0.0692308 7.80387 0.484615 7.80387 0.969231L 7.80387 7.26923C 7.80387 7.61539 7.52516 7.89231 7.24645 7.89231C 6.89806 7.89231 6.61935 7.61539 6.61935 7.33846L 6.13161 0.9C 6.13161 0.415385 5.71355 2.06324e-09 5.22581 2.06324e-09C 4.73806 2.06324e-09 4.32 0.415385 4.32 0.9L 3.76258 7.33846C 3.76258 7.68462 3.48387 7.89231 3.13548 7.89231C 2.7871 7.89231 2.57806 7.61539 2.57806 7.26923L 2.57806 0.969231C 2.57806 0.484615 2.16 0.0692308 1.67226 0.0692308L 1.46323 0.0692308C 0.975484 0.0692308 0.627097 0.415385 0.557419 0.9L 8.3062e-09 9.27692C 8.3062e-09 11.6308 1.46323 13.6385 3.6929 14.3308ZM 1.25419 0.969231C 1.25419 0.9 1.32387 0.761538 1.46323 0.761538L 1.74194 0.761538C 1.81161 0.761538 1.95097 0.830769 1.95097 0.969231L 1.95097 7.26923C 1.95097 7.96154 2.57806 8.51538 3.27484 8.51538C 3.90194 8.51538 4.45935 8.03077 4.52903 7.33846L 5.08645 0.9C 5.08645 0.692308 5.43484 0.692308 5.43484 0.9L 5.99226 7.33846C 6.06193 8.03077 6.68903 8.58462 7.38581 8.51538C 8.0129 8.44615 8.57032 7.89231 8.57032 7.26923L 8.57032 0.969231C 8.57032 0.9 8.64 0.761538 8.77935 0.761538L 9.05806 0.761538C 9.12774 0.761538 9.2671 0.830769 9.2671 0.969231L 9.89419 9.27692C 9.89419 11.2846 8.57032 13.0846 6.61935 13.6385C 6.48 13.7077 6.34064 13.8462 6.34064 13.9846L 6.34064 33.6462C 6.34064 34.2 5.92258 34.6154 5.36516 34.6154C 4.80774 34.6154 4.38968 34.2 4.38968 33.6462L 4.38968 14.0538C 4.38968 13.9154 4.25032 13.7769 4.11097 13.7077C 2.09032 13.2231 0.627097 11.4231 0.627097 9.34615L 1.25419 0.969231ZM 56.0903 0.138462C 53.2335 0.138462 50.8645 3.32308 50.8645 7.2C 50.8645 10.2462 52.3277 12.9462 54.4181 13.9154L 54.4181 33.6462C 54.4181 34.5462 55.1845 35.3077 56.0903 35.3077C 56.9961 35.3077 57.7626 34.5462 57.7626 33.6462L 57.7626 13.9154C 59.8529 12.9462 61.3161 10.2462 61.3161 7.2C 61.3161 3.25385 58.9471 0.138462 56.0903 0.138462ZM 57.2748 13.3615C 57.1355 13.4308 57.0658 13.5692 57.0658 13.7077L 57.0658 33.7154C 57.0658 34.2692 56.6477 34.6846 56.0903 34.6846C 55.5329 34.6846 55.1148 34.2692 55.1148 33.7154L 55.1148 13.6385C 55.1148 13.5 55.0452 13.3615 54.9058 13.2923C 52.9548 12.5308 51.5613 10.0385 51.5613 7.13077C 51.5613 3.6 53.5819 0.761538 56.0903 0.761538C 58.5987 0.761538 60.6194 3.6 60.6194 7.13077C 60.6194 10.0385 59.2258 12.6 57.2748 13.3615ZM 30.6581 35.3077C 40.4129 35.3077 48.3561 27.4154 48.3561 17.7231C 48.3561 8.03077 40.4129 0.138462 30.6581 0.138462C 20.9032 0.138462 12.8903 7.96154 12.8903 17.7231C 12.96 27.4154 20.8335 35.3077 30.6581 35.3077ZM 30.6581 0.830769C 40.0645 0.830769 47.6594 8.37692 47.6594 17.7231C 47.6594 27.0692 39.9948 34.6154 30.6581 34.6154C 21.3213 34.6154 13.5871 27.0692 13.5871 17.7231C 13.6568 8.37692 21.2516 0.830769 30.6581 0.830769ZM 30.6581 30.2538C 37.6258 30.2538 43.2697 24.6462 43.2697 17.7231C 43.2697 10.8 37.6258 5.19231 30.6581 5.19231C 23.6903 5.19231 18.0465 10.8 18.0465 17.7231C 18.0465 24.6462 23.6903 30.2538 30.6581 30.2538ZM 30.6581 5.88462C 37.2077 5.88462 42.5729 11.2154 42.5729 17.7231C 42.5729 24.2308 37.2077 29.5615 30.6581 29.5615C 24.1084 29.5615 18.7432 24.2308 18.7432 17.7231C 18.7432 11.1462 24.0387 5.88462 30.6581 5.88462Z" transform="translate(1 1)" fill="white"/>
<path d="M 3.6929 14.3308L 3.6929 33.6462C 3.6929 34.5462 4.45935 35.3077 5.36516 35.3077C 6.27097 35.3077 7.03742 34.5462 7.03742 33.6462L 7.03742 14.2615C 9.12774 13.5 10.5213 11.5615 10.5213 9.27692L 9.89419 0.9C 9.82452 0.415385 9.47613 0.0692308 8.98839 0.0692308L 8.70968 0.0692308C 8.22194 0.0692308 7.80387 0.484615 7.80387 0.969231L 7.80387 7.26923C 7.80387 7.61538 7.52516 7.89231 7.24645 7.89231C 6.89806 7.89231 6.61935 7.61539 6.61935 7.33846L 6.13161 0.9C 6.13161 0.415385 5.71355 2.06324e-09 5.22581 2.06324e-09C 4.73806 2.06324e-09 4.32 0.415385 4.32 0.9L 3.76258 7.33846C 3.76258 7.68462 3.48387 7.89231 3.13548 7.89231C 2.7871 7.89231 2.57806 7.61538 2.57806 7.26923L 2.57806 0.969231C 2.57806 0.484615 2.16 0.0692308 1.67226 0.0692308L 1.46323 0.0692308C 0.975484 0.0692308 0.627097 0.415385 0.557419 0.9L 8.3062e-09 9.27692C 8.3062e-09 11.6308 1.46323 13.6385 3.6929 14.3308ZM 1.25419 0.969231C 1.25419 0.9 1.32387 0.761538 1.46323 0.761538L 1.74194 0.761538C 1.81161 0.761538 1.95097 0.830769 1.95097 0.969231L 1.95097 7.26923C 1.95097 7.96154 2.57806 8.51538 3.27484 8.51538C 3.90194 8.51538 4.45935 8.03077 4.52903 7.33846L 5.08645 0.9C 5.08645 0.692308 5.43484 0.692308 5.43484 0.9L 5.99226 7.33846C 6.06194 8.03077 6.68903 8.58462 7.38581 8.51538C 8.0129 8.44615 8.57032 7.89231 8.57032 7.26923L 8.57032 0.969231C 8.57032 0.9 8.64 0.761538 8.77935 0.761538L 9.05806 0.761538C 9.12774 0.761538 9.2671 0.830769 9.2671 0.969231L 9.89419 9.27692C 9.89419 11.2846 8.57032 13.0846 6.61935 13.6385C 6.48 13.7077 6.34064 13.8462 6.34064 13.9846L 6.34064 33.6462C 6.34064 34.2 5.92258 34.6154 5.36516 34.6154C 4.80774 34.6154 4.38968 34.2 4.38968 33.6462L 4.38968 14.0538C 4.38968 13.9154 4.25032 13.7769 4.11097 13.7077C 2.09032 13.2231 0.627097 11.4231 0.627097 9.34615L 1.25419 0.969231ZM 56.0903 0.138462C 53.2335 0.138462 50.8645 3.32308 50.8645 7.2C 50.8645 10.2462 52.3277 12.9462 54.4181 13.9154L 54.4181 33.6462C 54.4181 34.5462 55.1845 35.3077 56.0903 35.3077C 56.9961 35.3077 57.7626 34.5462 57.7626 33.6462L 57.7626 13.9154C 59.8529 12.9462 61.3161 10.2462 61.3161 7.2C 61.3161 3.25385 58.9471 0.138462 56.0903 0.138462ZM 57.2748 13.3615C 57.1355 13.4308 57.0658 13.5692 57.0658 13.7077L 57.0658 33.7154C 57.0658 34.2692 56.6477 34.6846 56.0903 34.6846C 55.5329 34.6846 55.1148 34.2692 55.1148 33.7154L 55.1148 13.6385C 55.1148 13.5 55.0452 13.3615 54.9058 13.2923C 52.9548 12.5308 51.5613 10.0385 51.5613 7.13077C 51.5613 3.6 53.5819 0.761538 56.0903 0.761538C 58.5987 0.761538 60.6194 3.6 60.6194 7.13077C 60.6194 10.0385 59.2258 12.6 57.2748 13.3615ZM 30.6581 35.3077C 40.4129 35.3077 48.3561 27.4154 48.3561 17.7231C 48.3561 8.03077 40.4129 0.138462 30.6581 0.138462C 20.9032 0.138462 12.8903 7.96154 12.8903 17.7231C 12.96 27.4154 20.8335 35.3077 30.6581 35.3077ZM 30.6581 0.830769C 40.0645 0.830769 47.6593 8.37692 47.6593 17.7231C 47.6593 27.0692 39.9948 34.6154 30.6581 34.6154C 21.3213 34.6154 13.5871 27.0692 13.5871 17.7231C 13.6568 8.37692 21.2516 0.830769 30.6581 0.830769ZM 30.6581 30.2538C 37.6258 30.2538 43.2697 24.6462 43.2697 17.7231C 43.2697 10.8 37.6258 5.19231 30.6581 5.19231C 23.6903 5.19231 18.0465 10.8 18.0465 17.7231C 18.0465 24.6462 23.6903 30.2538 30.6581 30.2538ZM 30.6581 5.88462C 37.2077 5.88462 42.5729 11.2154 42.5729 17.7231C 42.5729 24.2308 37.2077 29.5615 30.6581 29.5615C 24.1084 29.5615 18.7432 24.2308 18.7432 17.7231C 18.7432 11.1462 24.0387 5.88462 30.6581 5.88462Z" stroke-width="0.75" stroke-miterlimit="10" transform="translate(1 1)" stroke="white"/>
</g>
</g>
</g>
</svg>

