<svg width="52" height="17" viewBox="0 0 52 17" version="1.1" xmlns="http://www.w3.org/2000/svg" xmlns:xlink="http://www.w3.org/1999/xlink">
<g id="Canvas" fill="none">
<g id="noun_669512_cc">
<g id="Group">
<g id="Group_2">
<g id="Vector">
<path fill-rule="evenodd" clip-rule="evenodd" d="M 37.0089 0.384857L 37.0087 0.385093L 33.2376 4.13596L 33.201 4.17234L 33.1494 4.17234L 1.01729 4.17234C 0.524065 4.17234 0.125 4.56938 0.125 5.05917L 0.125 9.10651C 0.125 12.9415 3.2627 16.0643 7.12103 16.0643L 27.4668 16.0643C 31.3242 16.0643 34.4629 12.9415 34.4629 9.10651L 34.4629 5.47807L 34.4629 5.4261L 34.4997 5.38945L 37.9728 1.93504L 38.0093 1.89867L 38.0609 1.89867L 49.8472 1.89867C 50.3413 1.89867 50.7395 1.50078 50.7395 1.01183C 50.7395 0.522889 50.3413 0.125 49.8472 0.125L 37.6397 0.125C 37.4019 0.125 37.1754 0.21832 37.0089 0.384857ZM 1.90958 5.94601L 2.03458 5.94601L 32.5533 5.94601L 32.6783 5.94601L 32.6783 6.07101L 32.6783 9.10651C 32.6783 11.9658 30.3399 14.2907 27.4668 14.2907L 7.12103 14.2907C 4.24796 14.2907 1.90958 11.9658 1.90958 9.10651L 1.90958 6.07101L 1.90958 5.94601Z" transform="translate(0.433594 0.580078)" fill="#f37032"/>
<path fill-rule="evenodd" clip-rule="evenodd" d="M 37.0089 0.384857L 37.0087 0.385093L 33.2376 4.13596L 33.201 4.17234L 33.1494 4.17234L 1.01729 4.17234C 0.524065 4.17234 0.125 4.56938 0.125 5.05917L 0.125 9.10651C 0.125 12.9415 3.2627 16.0643 7.12103 16.0643L 27.4668 16.0643C 31.3242 16.0643 34.4629 12.9415 34.4629 9.10651L 34.4629 5.47807L 34.4629 5.4261L 34.4997 5.38945L 37.9728 1.93504L 38.0093 1.89867L 38.0609 1.89867L 49.8472 1.89867C 50.3413 1.89867 50.7395 1.50078 50.7395 1.01183C 50.7395 0.522889 50.3413 0.125 49.8472 0.125L 37.6397 0.125C 37.4019 0.125 37.1754 0.21832 37.0089 0.384857ZM 1.90958 5.94601L 2.03458 5.94601L 32.5533 5.94601L 32.6783 5.94601L 32.6783 6.07101L 32.6783 9.10651C 32.6783 11.9658 30.3399 14.2907 27.4668 14.2907L 7.12103 14.2907C 4.24796 14.2907 1.90958 11.9658 1.90958 9.10651L 1.90958 6.07101L 1.90958 5.94601Z" stroke-width="0.25" stroke-miterlimit="8" transform="translate(0.433594 0.580078)" stroke="#f37032"/>
</g>
</g>
</g>
</g>
</g>
</svg>

