<svg width="43" height="30" viewBox="0 0 43 30" version="1.1" xmlns="http://www.w3.org/2000/svg" xmlns:xlink="http://www.w3.org/1999/xlink">
<g id="Canvas" fill="none">
<g id="noun_1234931_cc">
<path id="Vector" d="M 0.713105 1.42952C 1.10694 1.42952 1.42621 1.10951 1.42621 0.714759C 1.42621 0.320009 1.10694 0 0.713105 0C 0.319268 0 0 0.320009 0 0.714759C 0 1.10951 0.319268 1.42952 0.713105 1.42952Z" transform="matrix(0.0971707 -0.995278 0.995322 0.0967174 38.3398 11.7559)" fill="#f37032"/>
<path id="Vector_2" d="M 0.76583 0C 1.17427 0.050935 1.42955 0.356545 1.42955 0.764025C 1.3785 1.1715 1.02111 1.42618 0.663721 1.37525C 0.255278 1.32431 0 1.0187 0 0.61122C 0.0510553 0.254675 0.408443 0 0.76583 0Z" transform="translate(36.0039 8.75977)" fill="#f37032"/>
<path id="Vector_3" d="M 0.76583 0.00555427C 1.17427 0.0564893 1.42955 0.413034 1.42955 0.769579C 1.3785 1.17706 1.02111 1.43173 0.663721 1.43173C 0.255278 1.3808 0 1.02425 0 0.667709C 0 0.260229 0.357387 -0.0453807 0.76583 0.00555427Z" transform="translate(35.748 11.6582)" fill="#f37032"/>
<path id="Vector_4" d="M 0.748311 3.2933C 0.697256 3.2933 0.595145 3.2933 0.54409 3.24236C 0.339868 3.19143 0.186702 3.03862 0.0845909 2.88582C -0.0175198 2.68208 -0.017519 2.47834 0.0335363 2.2746C 0.0845917 2.07086 0.237757 1.91805 0.441979 1.81618L 3.65847 0.0843915C 3.86269 -0.0174785 4.06691 -0.0174777 4.27113 0.0334573C 4.47535 0.0843923 4.62852 0.237198 4.73063 0.390003C 4.83274 0.593743 4.83274 0.797481 4.78168 1.00122C 4.73063 1.20496 4.57746 1.35777 4.4243 1.45964L 1.20781 3.19143C 1.00359 3.24236 0.901477 3.2933 0.748311 3.2933ZM 4.01585 0.593741C 3.9648 0.593741 3.9648 0.593741 3.91374 0.593741L 0.697255 2.32553C 0.6462 2.32553 0.6462 2.37647 0.595144 2.4274C 0.595144 2.47834 0.595144 2.52927 0.595144 2.58021C 0.595144 2.63114 0.6462 2.63114 0.697255 2.63114C 0.748311 2.63114 0.799366 2.63114 0.850421 2.63114L 4.06691 0.899353C 4.11796 0.848418 4.11796 0.848417 4.16902 0.797482C 4.16902 0.746547 4.16902 0.695613 4.16902 0.644678C 4.11796 0.644678 4.06691 0.644676 4.01585 0.593741Z" transform="translate(6.20508 19.0137)" fill="#f37032"/>
<path id="Vector_5" d="M 0.102111 0.20374C 0.102111 0.30561 0.0510557 0.40748 3.89521e-07 0.458415C 0.0510557 0.30561 0.0510561 0.152806 0.102111 7.77206e-07C 0.102111 0.0509358 0.102111 0.10187 0.102111 0.20374Z" transform="translate(12.877 17.877)" fill="#f37032"/>
<path id="Vector_6" d="M 39.782 4.43063C 37.7909 2.74978 34.9828 1.93482 31.8685 2.13856C 30.6942 2.18949 29.4689 2.39323 28.2435 2.69884C 26.3545 3.15726 24.4654 3.87035 22.7806 4.73624C 21.7084 4.02315 20.5342 3.76848 19.2067 3.92128C 18.1346 4.02315 17.1645 4.48157 16.3476 5.09279C 16.2966 5.09279 16.1945 5.04185 16.1434 5.04185C 16.1434 5.04185 16.0924 5.04185 16.0413 5.04185C 15.5307 5.04185 15.0712 5.44933 15.0202 5.95868C 15.0202 6.00962 15.0202 6.06055 15.0202 6.16242C 15.0202 6.26429 15.0712 6.36616 15.0712 6.46803C 14.816 6.87551 14.6117 7.33393 14.4075 7.79234C 13.7949 7.63954 13.1311 7.5886 12.4674 7.63954C 11.7016 7.74141 11.0379 7.99608 10.4252 8.35263L 9.60833 8.09795C 9.4041 8.04702 9.19988 8.04702 8.99566 8.14889C 8.79144 8.25076 8.68933 8.40356 8.63827 8.6073C 8.53616 9.01478 8.74039 9.37133 9.09777 9.52413C 8.48511 10.3391 8.07667 11.3578 8.02561 12.4274C 8.02561 12.733 8.28089 12.9877 8.63827 12.9368C 8.8425 12.8858 8.94461 12.733 8.94461 12.5802C 8.94461 11.5106 9.35305 10.5428 10.0168 9.82974L 12.6716 10.5938C 12.7227 10.5938 12.8248 10.6447 12.8759 10.6447C 13.029 10.6447 13.1311 10.5938 13.2333 10.5428C 13.4375 10.441 13.5396 10.2882 13.5906 10.0844C 13.6417 9.88068 13.6417 9.67694 13.5396 9.4732C 13.4375 9.26946 13.2843 9.16759 13.0801 9.11665L 11.7527 8.76011C 12.4164 8.55637 13.1311 8.4545 13.897 8.6073C 14.1523 8.65824 14.3565 8.76011 14.6117 8.81104C 14.7139 8.86198 14.867 8.81104 14.9691 8.76011C 15.0712 8.70917 15.1734 8.6073 15.2244 8.4545C 15.3265 7.94515 15.5307 7.4358 15.8371 7.02832C 15.8881 7.02832 15.8881 7.02832 15.9392 7.02832L 15.9902 7.02832L 16.0413 7.02832C 16.5519 7.02832 17.0114 6.62084 17.0624 6.11149C 17.0624 6.00962 17.0624 5.95868 17.0624 5.85681C 17.0624 5.80588 17.0624 5.75494 17.0114 5.70401C 17.4198 5.3984 17.9303 5.14372 18.4409 4.93998C 18.6962 4.83811 19.0025 4.78718 19.3088 4.73624C 20.1768 4.63437 21.0958 4.78718 21.8616 5.14372C 21.3511 5.44933 20.7894 5.80588 20.3299 6.16242C 20.2789 6.21336 20.2278 6.21336 20.1768 6.26429L 19.3088 5.5512C 19.1557 5.3984 18.9515 5.34746 18.7472 5.3984C 18.6962 5.3984 18.6451 5.3984 18.5941 5.44933C 18.4409 5.50027 18.3388 5.60214 18.2367 5.70401C 18.0835 5.85681 18.0325 6.06055 18.0835 6.26429C 18.0835 6.46803 18.1856 6.67177 18.3898 6.77364L 19.0536 7.33393L 18.8493 7.48673C 17.4198 8.81104 16.2455 10.39 15.2244 12.0709C 15.1734 12.1218 15.1734 12.1728 15.1223 12.2237C 13.8459 12.0199 12.5185 11.9181 11.7527 12.4784C 11.4463 12.6821 11.2421 13.0386 11.14 13.4461C 10.3231 13.2424 9.50622 13.1405 8.74039 13.2933C 8.07667 13.4461 7.36189 13.7517 6.74923 14.4139C 6.18762 14.9742 5.88129 15.7891 5.88129 16.655C 5.88129 17.2153 6.03445 17.7756 6.28973 18.1831C 4.96229 18.6415 2.15425 19.9658 2.61374 22.2069C 3.02219 24.2953 5.31968 24.8046 6.74923 24.8046C 6.74923 24.8556 6.74923 24.8556 6.80028 24.9065L 6.80028 24.9574C 6.85134 25.1612 6.90239 25.3649 7.0045 25.5687C 7.15767 25.9252 7.41295 26.2308 7.77033 26.4345C 8.07667 26.6383 8.48511 26.7911 8.84249 26.842C 8.89355 26.842 8.94461 26.842 8.99566 26.842C 9.04672 26.842 9.04672 26.842 9.09777 26.842C 9.81255 26.893 10.5273 26.6383 11.0889 26.4345C 11.2421 26.3836 11.3953 26.3327 11.5484 26.2308C 11.191 26.893 10.6805 27.4532 10.0678 27.8607C 9.19988 28.421 8.07667 28.6248 6.80028 28.421C 5.01334 28.1663 3.63485 27.2495 2.6648 25.8233C 1.28631 23.735 0.877862 20.5261 1.64369 17.5209C 2.92008 12.5802 6.44289 7.5886 10.8847 4.48157C 14.4586 1.98575 20.4321 -0.102582 25.6397 2.18949C 25.946 2.3423 26.3034 2.18949 26.4566 1.88388C 26.6098 1.57827 26.4566 1.22173 26.1503 1.06892C 21.5042 -0.968477 15.2244 -0.0516468 10.221 3.46287C 5.57495 6.72271 1.84791 11.969 0.469419 17.2153C -0.449577 20.7808 0.00992184 24.3462 1.59264 26.7402C 2.71586 28.472 4.45174 29.5416 6.54501 29.8981C 6.90239 29.9491 7.31084 30 7.66822 30C 8.79144 30 9.8636 29.6944 10.6805 29.185L 40.5989 15.3817C 40.65 15.3817 40.65 15.3307 40.701 15.3307C 42.1306 14.363 42.8964 12.9368 42.9985 11.205C 43.0496 8.81104 41.7732 6.06055 39.782 4.43063ZM 12.9269 9.72787C 12.978 9.72787 13.029 9.77881 13.029 9.82974C 13.029 9.88068 13.0801 9.93161 13.029 9.93161C 13.029 9.98255 12.978 10.0335 12.9269 10.0335C 12.9269 10.0335 12.8759 10.0844 12.7738 10.0335L 10.3231 9.32039L 9.30199 9.01478C 9.19988 9.01478 9.14883 8.91291 9.19988 8.81104C 9.19988 8.76011 9.25094 8.76011 9.30199 8.70917C 9.30199 8.70917 9.35305 8.70917 9.4041 8.70917L 9.45516 8.70917L 12.9269 9.72787ZM 16.3987 6.11149C 16.3987 6.31523 16.1945 6.46803 15.9902 6.46803L 15.9392 6.46803C 15.735 6.46803 15.5818 6.31523 15.5818 6.11149C 15.5818 6.06055 15.5818 6.06055 15.5818 6.00962C 15.5818 5.80588 15.786 5.65307 15.9902 5.65307L 16.0413 5.65307C 16.2455 5.65307 16.3987 5.80588 16.3987 6.00962C 16.4497 6.06055 16.4497 6.06055 16.3987 6.11149ZM 18.6962 6.36616C 18.6451 6.31523 18.6451 6.31523 18.6451 6.26429C 18.6451 6.21336 18.6451 6.16242 18.6962 6.16242C 18.7472 6.11149 18.7983 6.11149 18.7983 6.11149C 18.7983 6.11149 18.7983 6.11149 18.8493 6.11149C 18.9004 6.11149 18.9004 6.11149 18.9515 6.16242L 19.7173 6.82458C 19.6662 6.87551 19.6152 6.92645 19.5641 6.97738C 19.5131 6.97738 19.5131 7.02832 19.462 7.07925L 18.6962 6.36616ZM 11.9569 25.2121C 11.5484 25.4159 11.14 25.6196 10.6805 25.7724C 10.221 25.9761 9.65938 26.1289 9.09777 26.078C 9.04672 26.078 8.99566 26.078 8.94461 26.078C 8.68933 26.0271 8.43405 25.9252 8.22983 25.7724C 8.02561 25.6196 7.87244 25.4668 7.82139 25.263C 7.77033 25.1102 7.71928 25.0084 7.66822 24.8046L 7.66822 24.7537C 7.56611 24.2443 7.464 23.9387 7.15767 23.9387C 7.10661 23.9387 7.10661 23.9387 7.05556 23.9387C 7.0045 23.9387 3.89013 24.1934 3.48169 22.1051C 3.07324 20.0677 7.05556 18.9471 7.10661 18.9471L 7.87244 18.7434L 7.31084 18.1831C 6.95345 17.8265 6.80028 17.3172 6.74923 16.706C 6.74923 16.0947 6.95345 15.4835 7.31084 15.127C 8.68933 13.7008 10.272 14.1592 12.059 14.7195L 12.4164 14.8214C 12.6716 14.8723 12.9269 14.7704 12.978 14.5158C 13.029 14.2611 12.9269 14.0064 12.6716 13.9555L 12.3653 13.8536C 12.2632 13.8027 12.11 13.8027 12.0079 13.7517C 12.0079 13.548 12.11 13.3952 12.2632 13.2933C 12.7227 12.9877 13.6928 12.9877 14.6117 13.1405C 13.948 14.4139 13.4885 15.7382 13.1311 17.1134C 12.978 17.0116 12.8759 16.9606 12.6716 16.9606C 12.5185 16.9606 12.3653 16.9606 12.2121 17.0116C 12.0079 17.0625 11.8548 17.2153 11.7527 17.4191L 11.7016 17.4191L 11.6505 17.6228C 11.5995 17.7247 11.5995 17.7756 11.5995 17.8775C 11.5484 18.1321 11.6505 18.4378 11.8037 18.6415C 11.9569 18.8452 12.2121 18.998 12.5185 18.998C 12.5695 18.998 12.5695 18.998 12.6206 18.998C 12.6716 18.998 12.7227 18.998 12.7738 18.998C 12.6716 19.7621 12.6206 20.5261 12.5695 21.2901C 12.4164 22.6654 12.3143 24.0406 11.9569 25.2121ZM 12.978 18.0812C 12.978 18.1831 12.9269 18.285 12.8759 18.3359C 12.7738 18.3868 12.6716 18.4378 12.5185 18.4378C 12.4164 18.4378 12.3143 18.3868 12.2632 18.285C 12.2121 18.1831 12.1611 18.0812 12.1611 17.9793L 12.1611 17.9284L 12.1611 17.8775C 12.2121 17.7756 12.2632 17.6737 12.3653 17.6737C 12.4164 17.6737 12.4674 17.6228 12.5695 17.6228C 12.6716 17.6228 12.7738 17.6737 12.8248 17.7756C 12.8759 17.8265 12.8759 17.8265 12.8759 17.8775C 12.978 17.9284 12.978 17.9793 12.978 18.0812ZM 41.6711 11.1031C 41.62 12.4274 41.0074 13.4971 39.9352 14.2102L 12.6206 26.893C 12.6716 26.7911 12.7227 26.6383 12.7738 26.5364C 13.4375 24.9574 13.5906 23.1747 13.6928 21.4429C 13.7438 20.4242 13.8459 19.5074 13.9991 18.6415C 14.4075 16.6041 15.1223 14.6176 16.1945 12.784C 17.1135 11.1541 18.2367 9.72787 19.5641 8.4545L 19.8705 8.14889C 19.9215 8.09795 19.9726 8.04702 20.0236 8.04702C 20.0236 8.04702 20.0236 8.04702 20.0747 8.04702C 20.1257 7.99608 20.2278 7.94515 20.2789 7.84328C 20.3299 7.79234 20.381 7.74141 20.4321 7.69047L 20.4831 7.63954C 20.5852 7.5886 20.6363 7.48673 20.7384 7.4358L 20.7894 7.38486C 20.8405 7.33393 20.8916 7.28299 20.9426 7.23206C 21.5042 6.82458 22.1169 6.4171 22.6785 6.06055C 22.7295 6.06055 22.7295 6.00962 22.7295 6.00962C 22.7295 6.00962 22.7806 6.00962 22.7806 5.95868C 24.4654 4.99092 26.4055 4.22689 28.3456 3.76848C 29.5199 3.5138 30.6942 3.31006 31.7663 3.25913C 34.5744 3.10632 37.0761 3.81941 38.812 5.29653C 40.701 6.77364 41.7732 9.11665 41.6711 11.1031Z" fill="#f37032"/>
<path id="Vector_7" d="M 1.02542 2.05065C 0.97436 2.05065 0.97436 2.05065 0.923304 2.05065C 0.361696 1.99971 -0.0467467 1.49036 0.00430865 0.930079C 0.055364 0.675404 0.157475 0.42073 0.361696 0.21699C 0.565918 0.0641851 0.821194 -0.0376857 1.12753 0.0132493C 1.68914 0.0641843 2.09758 0.573535 2.04652 1.13382C 1.99547 1.64317 1.53597 2.05065 1.02542 2.05065ZM 1.02542 0.62447C 0.923305 0.62447 0.821194 0.675405 0.770139 0.72634C 0.668028 0.777275 0.616973 0.879145 0.616973 0.981015C 0.616973 1.18475 0.770139 1.38849 0.97436 1.43943C 1.17858 1.43943 1.3828 1.28663 1.43386 1.08289C 1.43386 0.82821 1.28069 0.62447 1.02542 0.62447Z" transform="translate(9.44922 15.2656)" fill="#f37032"/>
</g>
</g>
</svg>
