<svg width="591" height="332" viewBox="0 0 591 332" fill="none" xmlns="http://www.w3.org/2000/svg">
<path d="M199.754 49.7135C199.754 49.7135 200.057 46.774 199.754 46.2552C199.451 45.7365 198.976 42.7969 199.841 40.5057C200.706 38.2146 202.307 36.399 202.826 38.3443C203.345 40.2896 205.379 42.0188 206.59 42.8833C207.802 43.7479 208.537 43.5318 208.105 46.2552C207.715 48.9787 206.763 51.3995 206.46 52.4802C206.158 53.6042 200.576 53.6474 200.23 52.4802C199.971 51.3563 199.754 49.7135 199.754 49.7135Z" fill="#FFD1BD"/>
<path d="M391.289 57.0193C391.289 57.0193 390.986 54.0797 391.289 53.5609C391.591 53.0422 392.067 50.1026 391.202 47.8115C390.337 45.5203 388.736 43.7047 388.217 45.65C387.698 47.5953 385.664 49.3245 384.453 50.1891C383.241 51.0536 382.506 50.8375 382.938 53.5609C383.371 56.2844 384.28 58.7052 384.583 59.7859C384.885 60.9099 390.467 60.9531 390.813 59.7859C391.072 58.662 391.289 57.0193 391.289 57.0193Z" fill="#FFD1BD"/>
<path d="M213.945 294.002C213.945 294.002 195.168 295.298 189.76 289.852C184.352 284.361 178.771 280.341 179.16 271.695C179.506 264.649 184.568 256.349 190.063 252.674C195.601 248.957 208.84 250.643 216.455 254.966C224.069 259.289 235.232 260.456 246.351 258.121C257.47 255.83 261.623 255.225 268.935 252.934C276.247 250.643 278.151 250.34 292.774 249.475C307.398 248.611 322.021 243.423 343.048 245.455C364.032 247.487 428.497 254.533 439.443 256.695C448.528 258.467 457.657 260.326 460.772 268.669C463.974 277.185 460.772 291.019 444.548 294.261C430.054 297.201 405.09 290.976 398.73 290.414C392.37 289.852 367.926 289.333 352.61 289.549C335.087 289.808 294.981 288.122 282.737 289.246C270.579 290.457 213.945 294.002 213.945 294.002Z" fill="#FFF5F5"/>
<path d="M329.895 263.568C386.956 263.568 433.212 217.35 433.212 160.337C433.212 103.324 386.956 57.1057 329.895 57.1057C272.835 57.1057 226.579 103.324 226.579 160.337C226.579 217.35 272.835 263.568 329.895 263.568Z" fill="#FFAB26"/>
<path d="M329.896 251.723C380.409 251.723 421.358 210.808 421.358 160.337C421.358 109.866 380.409 68.9505 329.896 68.9505C279.383 68.9505 238.434 109.866 238.434 160.337C238.434 210.808 279.383 251.723 329.896 251.723Z" fill="#FA9D0A"/>
<path d="M343.221 125.537C357.326 125.537 368.791 136.993 368.791 151.086V174.43C368.791 189.69 356.374 202.096 341.101 202.096H318.431C303.158 202.096 290.741 189.69 290.741 174.43V153.204C290.741 137.944 303.158 125.537 318.431 125.537H343.221ZM343.221 120.004H318.431C300.173 120.004 285.203 134.961 285.203 153.204V174.43C285.203 192.672 300.173 207.63 318.431 207.63H341.101C359.359 207.63 374.329 192.672 374.329 174.43V151.086C374.372 133.967 360.354 120.004 343.221 120.004Z" fill="#F9F8F7"/>
<path d="M353.518 168.637H306.316V176.721H353.518V168.637Z" fill="#F9F8F7"/>
<path d="M353.518 181.26H306.316V189.344H353.518V181.26Z" fill="#F9F8F7"/>
<path d="M314.407 168.637H306.316V189.301H314.407V168.637Z" fill="#F9F8F7"/>
<path d="M344.26 145.164C338.03 144.256 332.795 141.748 330.026 138.766C327.213 141.792 321.978 144.256 315.791 145.164C308.307 146.287 301.557 144.774 298.399 141.705L306.619 161.029H353.172L361.263 142.051C358.018 144.861 351.485 146.201 344.26 145.164Z" fill="#F9F8F7"/>
<path d="M234.886 270.917C234.886 270.917 231.597 272.646 229.607 276.71C227.617 280.73 227.877 282.459 231.078 282.459C234.28 282.459 237.006 279.26 238.347 278.266C241.419 275.975 244.014 272.69 241.505 271.566C240.121 270.96 234.886 270.917 234.886 270.917Z" fill="#58585B"/>
<path d="M260.628 270.053C260.628 270.053 263.916 271.782 265.907 275.845C267.897 279.866 267.637 281.595 264.436 281.595C261.234 281.595 258.508 278.396 257.167 277.402C254.095 275.11 251.499 271.825 254.009 270.701C255.393 270.096 260.628 270.053 260.628 270.053Z" fill="#58585B"/>
<path d="M221.949 186.75C221.949 186.75 227.141 236.896 228.439 246.622C229.737 256.349 232.549 272.56 232.549 272.56C232.549 272.56 236.962 274.938 239.731 273.641C242.5 272.344 242.5 272.344 242.5 272.344V238.841C242.5 238.841 242.543 221.377 243.625 213.379C244.707 205.382 247.692 197.773 247.692 197.773C247.692 197.773 248.99 196.693 249.639 202.961C250.288 209.229 253.057 243.38 252.97 250.297C252.884 257.214 253.965 271.911 253.965 271.911C253.965 271.911 260.455 273.857 262.099 272.56C263.743 271.263 266.512 236.031 266.512 226.305C266.512 216.578 270.406 188.522 269.973 185.367C269.541 182.211 268.459 178.104 263.484 176.807C258.508 175.51 222.512 176.202 221.949 178.536C221.387 180.914 221.949 186.75 221.949 186.75Z" fill="#191949"/>
<path d="M303.072 100.94C303.072 100.94 305.797 98.7786 309.691 98.649C313.585 98.5193 314.364 99.0812 315.445 99.2109C316.527 99.3406 319.253 98.5625 318.604 99.8161C317.955 101.07 311.768 103.966 310.902 103.88C310.037 103.793 312.417 104.096 312.547 105.09C312.676 106.084 313.066 107.165 310.902 106.517C308.739 105.868 307.009 106.906 306.057 106.733C305.105 106.56 301.817 105.782 301.73 104.485C301.644 103.188 303.072 100.94 303.072 100.94Z" fill="#FFD1BD"/>
<path d="M366.195 100.378C366.195 100.378 363.815 97.8276 360.008 97.1792C356.158 96.4875 355.336 96.9198 354.254 96.8766C353.172 96.8333 350.62 95.6661 351.052 97.0062C351.485 98.3463 357.196 102.107 358.061 102.151C358.927 102.151 356.547 102.151 356.287 103.102C356.028 104.053 355.465 105.047 357.672 104.744C359.878 104.442 361.479 105.695 362.474 105.652C363.469 105.609 366.801 105.306 367.104 104.053C367.363 102.712 366.195 100.378 366.195 100.378Z" fill="#FFD1BD"/>
<path d="M233.847 84.0807C233.847 84.0807 236.356 84.513 237.005 86.3719C237.654 88.2307 237.784 91.5594 237.784 91.5594C237.784 91.5594 237.135 93.7208 238.563 94.1531C239.991 94.5854 244.101 94.9313 244.101 94.9313C244.101 94.9313 244.231 92.8563 244.231 91.2568C244.231 89.6573 245.312 87.2365 246.524 86.8042C247.735 86.3719 248.817 86.2422 249.336 85.5938C249.855 84.9453 249.336 82.438 249.898 82.0057C250.461 81.5734 251.975 82.0057 252.062 81.3573C252.148 80.7089 251.499 77.5531 251.932 77.0344C252.365 76.5156 254.009 71.1984 250.634 70.3339C247.259 69.4693 240.683 68.2589 236.789 69.7719C232.895 71.2849 230.948 79.0662 231.165 80.0604C231.381 81.0547 233.847 84.0807 233.847 84.0807Z" fill="#FFD1BD"/>
<path d="M199.582 50.362C199.582 50.362 200.88 52.0911 203.605 51.875C206.331 51.6589 207.413 50.5781 207.845 50.362C208.278 50.1458 210.787 79.1526 210.571 83.3891C210.355 87.6255 211.22 90.0031 213.816 90.6516C216.412 91.3 222.123 90.5651 227.314 90.4354C232.506 90.3057 236.53 90.0896 236.963 90.2193C237.395 90.349 236.746 89.6573 238.39 90.738C240.034 91.8187 241.592 93.0724 242.89 92.7698C244.188 92.4672 244.75 90.8677 244.75 90.8677C244.75 90.8677 246.394 90.0896 249.855 90.4354C253.317 90.7812 260.672 96.6172 262.748 99.8594C264.263 102.28 268.979 109.802 271.272 113.477C272.007 114.644 273.478 115.033 274.69 114.428C275.166 114.211 275.728 113.909 276.377 113.563C279.405 112.05 289.054 107.381 289.054 107.381C289.054 107.381 300.086 101.848 301.817 101.545C303.547 101.243 303.115 101.113 303.028 102.626C302.898 104.139 305.191 106.214 306.489 106.646C307.787 107.079 296.322 115.941 293.813 117.67C291.303 119.399 272.916 129.255 272.18 129.255C271.445 129.255 273.997 137.987 274.776 144.083C275.512 149.53 275.988 170.582 274.646 175.77C273.478 180.439 272.353 183.248 271.185 184.113C270.017 184.978 266.642 181.303 261.104 180.871C255.566 180.439 245.096 178.926 235.232 181.649C229.434 183.248 225.67 184.545 223.594 185.323C222.512 185.712 221.387 185.021 221.257 183.854C220.608 176.851 219.44 155.668 219.657 147.022C219.916 136.388 220.435 125.062 220.868 121.085C221.301 117.108 224.243 108.548 222.512 106.733C219.786 103.836 212.864 106.084 208.97 103.361C205.076 100.637 200.923 96.2281 200.706 94.9312C200.49 93.6344 199.322 79.1526 199.668 74.8297C200.014 70.5068 199.582 50.362 199.582 50.362Z" fill="#F9F9F9"/>
<path d="M234.367 82.8271C233.718 83.5188 232.593 83.562 231.857 82.9135C229.607 80.925 225.281 76.6885 224.978 73.6625C224.545 69.5557 223.334 60.0453 230.083 57.8839C236.833 55.7224 237.006 57.0193 238.866 55.8089C240.727 54.5984 243.539 53.5177 246.005 53.7339C248.471 53.95 251.326 56.5438 253.793 57.6245C256.259 58.7052 259.417 57.6245 260.282 59.3536C261.148 61.0828 261.364 61.0828 260.282 63.6766C259.201 66.2703 256.908 69.2964 255.09 70.5068C253.273 71.7172 246.957 71.1552 244.75 72.063C242.284 73.187 237.265 79.801 234.367 82.8271Z" fill="#191949"/>
<path d="M240.77 91.862C240.77 91.862 243.928 91.1271 244.404 92.813C244.88 94.4557 244.966 97.1792 244.966 97.1792L249.077 108.981L256.864 131.676L262.056 146.59C262.056 146.59 259.46 156.965 259.244 157.614C259.028 158.262 251.889 150.048 251.889 150.048L247.649 128.65L244.361 111.574L242.76 102.713L241.678 98.6922C241.678 98.6922 240.337 98.3896 239.904 96.8766C239.472 95.3636 239.731 94.0667 239.948 93.5047C240.164 92.9427 240.77 91.862 240.77 91.862Z" fill="#FF9E00"/>
<path d="M400.764 257.905L404.744 256.652C405.436 256.435 406.215 256.781 406.474 257.473C407.08 258.986 407.556 261.666 404.83 263.439C402.364 265.038 399.768 264.692 398.124 264.173C397.216 263.871 396.87 262.79 397.432 262.012L400.071 258.381C400.201 258.165 400.461 257.992 400.764 257.905Z" fill="#59595B"/>
<path d="M420.32 264.044L416.339 262.79C415.647 262.574 414.868 262.92 414.609 263.611C414.003 265.124 413.527 267.805 416.253 269.577C418.719 271.177 421.315 270.831 422.959 270.312C423.867 270.009 424.213 268.929 423.651 268.151L421.012 264.519C420.882 264.303 420.622 264.13 420.32 264.044Z" fill="#59595B"/>
<path d="M390.553 202.053C390.553 202.053 386.789 216.837 388.26 222.025C389.602 226.823 399.726 253.409 401.197 257.3C401.326 257.603 401.586 257.776 401.889 257.776H405.091C405.523 257.776 405.869 257.43 405.826 256.997L403.922 223.538C403.922 223.495 403.922 223.495 403.922 223.452C403.793 222.63 401.413 207.846 406.172 202.053C410.585 196.693 395.399 197.341 392.284 197.514C391.981 197.514 391.678 197.773 391.635 198.076L390.553 202.053Z" fill="#FF9F00"/>
<path d="M410.931 198.249C410.498 198.249 410.109 198.638 410.152 199.07L412.142 230.973L414.133 263.655C414.176 264.087 414.522 264.39 414.911 264.39H420.579C420.968 264.39 421.315 264.087 421.358 263.655L427.372 199.07C427.415 198.595 427.069 198.206 426.593 198.206H410.931V198.249Z" fill="#FF9F00"/>
<path d="M419.887 100.076C416.599 98.4328 414.738 93.0292 412.142 95.6661C406.561 101.372 395.356 117.41 393.971 123.333C391.938 131.979 390.51 142.743 384.15 171.36C382.246 180.006 380.862 186.102 379.823 190.424C378.569 195.698 382.592 200.756 388.044 200.756H406.085H433.948C438.058 200.756 441.606 197.773 442.255 193.71C442.514 192.067 442.688 190.165 442.688 188.004C442.688 179.833 444.072 133.016 440.394 125.537C437.193 118.967 434.467 112.007 431.741 106.819C431.136 105.652 430.227 102.54 429.578 102.151C426.896 100.551 423.132 101.718 419.887 100.076Z" fill="#FFBB39"/>
<path d="M385.448 57.149H390.121C390.813 57.149 391.419 57.6677 391.505 58.4026C391.938 62.6391 393.409 76.5156 393.409 77.9422C393.409 79.6281 393.928 89.1385 395.832 91.1703C397.735 93.1589 398.255 93.8937 402.365 93.7641C404.139 93.7208 405.393 93.8937 406.172 94.1099C406.994 94.326 407.384 95.1906 407.081 95.9688L405.177 100.421C405.09 100.594 405.047 100.767 405.047 100.94V109.197C405.047 109.759 404.744 110.234 404.225 110.451L400.331 112.223C399.942 112.396 399.509 112.396 399.12 112.18C397.173 111.185 390.856 107.857 389.039 106.214C386.703 104.053 386.14 105.436 384.15 98.3031C382.376 91.9917 383.718 64.8005 384.064 58.4891C384.107 57.7109 384.713 57.149 385.448 57.149Z" fill="#FFBB39"/>
<path d="M413.094 86.7177L415.084 86.026C416.599 85.5073 418.156 86.6312 418.156 88.2307V92.9427C418.156 93.5047 417.94 94.0667 417.55 94.499L411.061 101.502C410.974 101.589 410.931 101.632 410.844 101.718L403.316 108.03C401.845 109.24 398.168 113.347 398.125 111.445L399.379 101.848C399.466 101.589 399.466 101.199 399.682 100.594L404.614 92.2078C404.787 91.9052 405.09 91.6026 405.393 91.4297L412.662 86.9338C412.791 86.8474 412.964 86.8042 413.094 86.7177Z" fill="#FA9D0A"/>
<path d="M404.225 65.2328C404.225 65.2328 400.98 66.7458 401.845 73.3599C402.711 79.974 405.696 87.5823 409.979 89.4411C413.614 91.0406 417.464 87.9714 418.892 85.6802C420.32 83.3891 422.18 76.1698 419.281 71.7604C416.382 67.351 413.267 61.0396 408.119 63.0281" fill="#F9D0BD"/>
<path d="M366.454 102.237L365.416 103.62C364.897 104.312 364.854 105.263 365.373 105.955C367.363 108.765 372.771 115.854 378.655 119.961C384.669 124.154 391.202 128.131 393.625 129.558C394.187 129.904 394.923 129.947 395.529 129.644C399.206 127.785 412.272 121.128 412.964 120.004C413.657 118.88 414.652 103.361 414.955 98.476C415.041 97.0063 413.527 95.9255 412.142 96.574C410.844 97.1792 409.07 98.6922 406.734 102.064C402.018 108.808 397.389 111.747 395.485 112.742C394.966 113.044 394.317 113.044 393.755 112.785L368.877 101.632C368.012 101.286 367.017 101.502 366.454 102.237Z" fill="#FFBB39"/>
<path d="M407.729 60.0885C407.729 60.0885 411.104 54.1661 417.031 58.7484C423.002 63.3307 429.145 65.276 431.222 76.7318C433.299 88.1875 434.553 99.7297 432.217 103.015C431.136 104.485 429.189 112.136 431.655 116.33C433.731 119.788 440.87 124.327 443.033 128.347C445.24 132.454 445.846 135.178 443.033 139.068C440.394 142.699 436.63 143.737 429.838 143.521C423.045 143.305 420.838 143.305 420.189 146.46C419.54 149.616 417.377 154.026 414.003 150.913C410.628 147.801 414.565 143.651 410.714 142.483C406.864 141.316 401.326 142.051 401.975 137.166C402.624 132.281 411.104 123.333 411.536 120.393C411.969 117.454 418.026 108.808 414.349 97.5682C411.407 88.5333 422.699 87.712 417.507 76.9047C412.315 66.0974 413.829 65.0167 409.59 64.1521C405.436 63.2875 401.802 67.0917 401.975 70.6365C402.148 74.1812 405.263 85.8531 407.772 87.4094C408.854 88.101 409.763 88.5766 410.498 88.8792C411.234 89.1818 411.32 90.176 410.714 90.6516C409.416 91.6458 407.296 92.8995 404.96 92.9859C404.701 92.9859 404.398 92.8562 404.225 92.6833L403.662 92.1214C403.532 91.9917 403.316 91.862 403.1 91.8187C401.975 91.6458 401.11 90.6083 401.239 89.4411C401.412 87.5823 401.369 84.5995 400.417 80.6656C398.687 73.4031 398.99 66.4865 400.85 63.8927C402.71 61.299 405.825 60.3047 406.821 60.5208C407.816 60.737 407.729 60.0885 407.729 60.0885Z" fill="#1F1F49"/>
</svg>
