<svg width="14" height="14" viewBox="0 0 14 14" fill="none" xmlns="http://www.w3.org/2000/svg">
<path d="M0.161538 7.53843C0.0538462 7.43074 0 7.2692 0 7.16151C0 7.05382 0.0538462 6.89228 0.161538 6.78459L0.915385 6.03074C1.13077 5.81536 1.45385 5.81536 1.66923 6.03074L1.72308 6.08459L4.68462 9.26151C4.79231 9.3692 4.95385 9.3692 5.06154 9.26151L12.2769 1.77689H12.3308C12.5462 1.56151 12.8692 1.56151 13.0846 1.77689L13.8385 2.53074C14.0538 2.74613 14.0538 3.0692 13.8385 3.28459L5.22308 12.223C5.11538 12.3307 5.00769 12.3846 4.84615 12.3846C4.68462 12.3846 4.57692 12.3307 4.46923 12.223L0.269231 7.69997L0.161538 7.53843Z" fill="white"/>
</svg>
