<svg width="32" height="32" viewBox="0 0 32 32" fill="none" xmlns="http://www.w3.org/2000/svg">
<circle opacity="0.8" cx="16" cy="16" r="15.5" stroke="#ECECEC"/>
<path fill-rule="evenodd" clip-rule="evenodd" d="M17.6639 15.9995L22.6554 11.008C23.1149 10.5485 23.1149 9.80359 22.6554 9.34418C22.1959 8.88471 21.451 8.88471 20.9916 9.34418L16 14.3358L11.0084 9.34412C10.5489 8.88464 9.80403 8.88464 9.34456 9.34412C8.88515 9.80359 8.88515 10.5485 9.34456 11.008L14.3361 15.9995L9.34456 20.9911C8.88515 21.4505 8.88515 22.1955 9.34456 22.6549C9.80403 23.1144 10.5489 23.1144 11.0084 22.6549L16 17.6633L20.9916 22.6549C21.451 23.1144 22.1959 23.1144 22.6554 22.6549C23.1149 22.1954 23.1149 21.4505 22.6554 20.9911L17.6639 15.9995Z" fill="#333333"/>
</svg>
