<svg width="63" height="64" viewBox="0 0 63 64" fill="none" xmlns="http://www.w3.org/2000/svg">
<path d="M37.9644 59.6611H57.4898C57.7775 59.6611 58.0534 59.5468 58.2568 59.3434C58.4603 59.14 58.5746 58.864 58.5746 58.5764V39.0509C58.5746 38.7632 58.4603 38.4873 58.2568 38.2839C58.0534 38.0805 57.7775 37.9662 57.4898 37.9662H37.9644C37.6767 37.9662 37.4008 38.0805 37.1974 38.2839C36.9939 38.4873 36.8796 38.7632 36.8796 39.0509V58.5764C36.8796 58.864 36.9939 59.14 37.1974 59.3434C37.4008 59.5468 37.6767 59.6611 37.9644 59.6611ZM39.0491 53.1526H43.3881V57.4916H39.0491V53.1526ZM49.8966 50.9831H45.5576V46.6442H49.8966V50.9831ZM52.0661 46.6442H56.4051V50.9831H52.0661V46.6442ZM43.3881 50.9831H39.0491V46.6442H43.3881V50.9831ZM45.5576 57.4916V53.1526H56.4051V57.4916H45.5576ZM56.4051 40.1357V44.4747H52.0661V40.1357H56.4051ZM49.8966 40.1357V44.4747H45.5576V40.1357H49.8966ZM43.3881 40.1357V44.4747H39.0491V40.1357H43.3881Z" fill="black"/>
<path d="M37.9644 35.7966H57.4898C57.7775 35.7966 58.0534 35.6823 58.2568 35.4789C58.4603 35.2755 58.5746 34.9996 58.5746 34.7119V28.2034C58.5746 27.9157 58.4603 27.6398 58.2568 27.4364C58.0534 27.2329 57.7775 27.1187 57.4898 27.1187H37.9644C37.6767 27.1187 37.4008 27.2329 37.1974 27.4364C36.9939 27.6398 36.8796 27.9157 36.8796 28.2034V34.7119C36.8796 34.9996 36.9939 35.2755 37.1974 35.4789C37.4008 35.6823 37.6767 35.7966 37.9644 35.7966ZM39.0491 29.2881H56.4051V33.6271H39.0491V29.2881Z" fill="black"/>
<path d="M61.8288 18.4407H58.5745V1.08475C58.5745 0.797053 58.4603 0.521144 58.2568 0.317715C58.0534 0.114285 57.7775 0 57.4898 0H8.67623C8.38854 0 8.11263 0.114285 7.9092 0.317715C7.70577 0.521144 7.59149 0.797053 7.59149 1.08475V16.0724C7.11289 16.0208 6.6288 16.0766 6.17454 16.2359L4.12708 16.952C3.72359 17.093 3.35184 17.3121 3.03304 17.5968C2.71425 17.8815 2.45466 18.2262 2.2691 18.6112C2.08354 18.9963 1.97565 19.4141 1.95158 19.8408C1.92751 20.2676 1.98775 20.6949 2.12884 21.0983L3.20301 24.17L2.17901 24.5281C1.36496 24.8138 0.697474 25.4108 0.322968 26.188C-0.0515387 26.9652 -0.102481 27.8592 0.181316 28.6739L1.97115 33.7938C2.01618 33.9307 2.08806 34.0573 2.18259 34.1662C2.27712 34.275 2.3924 34.3639 2.52169 34.4277C2.65098 34.4915 2.79169 34.5289 2.93559 34.5376C3.07949 34.5464 3.22369 34.5264 3.35977 34.4788C3.49586 34.4312 3.62108 34.357 3.72814 34.2604C3.83519 34.1639 3.92192 34.0469 3.98326 33.9165C4.04461 33.786 4.07933 33.6446 4.08539 33.5006C4.09146 33.3565 4.06876 33.2127 4.0186 33.0776L2.22877 27.9577C2.13435 27.6861 2.15146 27.3882 2.27637 27.1292C2.40127 26.8703 2.62377 26.6714 2.89508 26.5763L3.91908 26.2183L7.59149 36.7211V62.9153C7.59149 63.2029 7.70577 63.4789 7.9092 63.6823C8.11263 63.8857 8.38854 64 8.67623 64H61.8288C62.1165 64 62.3924 63.8857 62.5958 63.6823C62.7992 63.4789 62.9135 63.2029 62.9135 62.9153V19.5254C62.9135 19.2377 62.7992 18.9618 62.5958 18.7584C62.3924 18.555 62.1165 18.4407 61.8288 18.4407ZM18.6168 49.8072L18.6837 54.3805L18.1118 54.5803L15.3143 50.9619L18.6168 49.8072ZM14.2015 49.0527L12.0535 42.909L16.1492 41.4769L18.2974 47.6206L14.2015 49.0527ZM15.4332 39.429L11.3374 40.8612L10.6213 38.8137L14.7172 37.3817L15.4332 39.429ZM9.90525 36.7653L5.96708 25.5017L10.0628 24.0697L14.0011 35.3332L9.90525 36.7653ZM4.17671 20.3818C4.08181 20.1102 4.09868 19.8121 4.22361 19.553C4.34854 19.2938 4.5713 19.0949 4.84288 19L6.89033 18.2839C7.1619 18.189 7.46006 18.2058 7.71922 18.3307C7.97839 18.4556 8.17734 18.6783 8.2723 18.9498L9.34633 22.0217L5.25088 23.4537L4.17671 20.3818ZM9.76098 42.9258L12.5116 50.7932C12.5504 50.9031 12.6066 51.0059 12.6781 51.0979L16.8742 56.5256C17.0134 56.7057 17.2058 56.8375 17.4241 56.9022C17.6424 56.9669 17.8755 56.9613 18.0905 56.8861L18.5004 58.0587C18.5454 58.1957 18.6173 58.3223 18.7118 58.4311C18.8063 58.54 18.9216 58.6289 19.0509 58.6927C19.1802 58.7564 19.3209 58.7938 19.4648 58.8026C19.6087 58.8114 19.7529 58.7914 19.889 58.7438C20.0251 58.6962 20.1503 58.6219 20.2574 58.5254C20.3644 58.4288 20.4511 58.3119 20.5125 58.1814C20.5738 58.0509 20.6085 57.9096 20.6146 57.7655C20.6207 57.6215 20.598 57.4777 20.5478 57.3425L20.1378 56.17C20.3527 56.0949 20.5386 55.954 20.669 55.7674C20.7994 55.5808 20.8678 55.3578 20.8644 55.1302L20.764 48.2712H20.763C20.7617 48.1547 20.7416 48.0391 20.7034 47.9291L16.4071 35.6418L11.7527 22.3304L10.3206 18.2338C10.1944 17.8718 10.0049 17.5352 9.76098 17.2395V2.16949H56.4051V18.4407H33.6254C33.3377 18.4407 33.0618 18.555 32.8584 18.7584C32.6549 18.9618 32.5406 19.2377 32.5406 19.5254V26.0339H24.9474C24.6597 26.0339 24.3838 26.1482 24.1804 26.3516C23.977 26.555 23.8627 26.831 23.8627 27.1186V61.8305H9.76098V42.9258ZM32.5406 47.5422C31.9065 47.3177 31.3575 46.9022 30.9692 46.3528C30.5809 45.8035 30.3725 45.1473 30.3725 44.4746C30.3725 43.8019 30.5809 43.1457 30.9692 42.5963C31.3575 42.047 31.9065 41.6314 32.5406 41.4069V47.5422ZM32.5406 39.16C31.7537 39.3209 31.0126 39.6552 30.3711 40.1386V36.5094C31.1626 36.0542 31.8919 35.4984 32.5406 34.8559V39.16ZM30.3711 48.8106C31.0126 49.294 31.7537 49.6283 32.5406 49.7892V55.178C31.8919 54.5355 31.1626 53.9797 30.3711 53.5245V48.8106ZM26.0322 53.1525V28.2034H32.5406V31.3093C32.1549 32.0235 31.6643 32.6759 31.0853 33.2447L31.0738 33.2563C30.4115 33.9228 29.6436 34.4753 28.8013 34.8915C28.6211 34.9816 28.4696 35.1201 28.3637 35.2915C28.2578 35.4628 28.2017 35.6603 28.2017 35.8617V54.1722C28.2017 54.3736 28.2578 54.5711 28.3637 54.7424C28.4696 54.9138 28.6211 55.0523 28.8013 55.1424C29.6436 55.5586 30.4115 56.1111 31.0738 56.7776L31.0853 56.7892C31.6643 57.358 32.1549 58.0104 32.5406 58.7246V61.8305H26.0322V53.1525ZM60.744 61.8305H34.7101V20.6102H60.744V61.8305Z" fill="black"/>
<path d="M37.9644 22.7797H40.1338V24.9492H37.9644V22.7797Z" fill="black"/>
<path d="M42.3033 22.7797H44.4728V24.9492H42.3033V22.7797Z" fill="black"/>
<path d="M46.6423 22.7797H48.8118V24.9492H46.6423V22.7797Z" fill="black"/>
<path d="M50.9813 22.7797H58.5745V24.9492H50.9813V22.7797Z" fill="black"/>
<path d="M22.778 20.6101V19.5451C23.2172 19.3881 23.6162 19.1358 23.9464 18.8063L24.0142 18.7385C24.3712 18.3815 24.6383 17.9447 24.7934 17.4643C24.9485 16.9838 24.9872 16.4733 24.9063 15.975C24.8255 15.4766 24.6273 15.0045 24.3283 14.5978C24.0292 14.191 23.6377 13.8611 23.1861 13.6353L21.1707 12.6276C21.0265 12.5555 20.9016 12.4502 20.8061 12.3204C20.7107 12.1906 20.6474 12.0399 20.6216 11.8809C20.5958 11.7218 20.6082 11.5589 20.6577 11.4055C20.7072 11.2522 20.7924 11.1128 20.9064 10.9988L20.9742 10.931C21.1649 10.7403 21.4235 10.6332 21.6932 10.6332C21.9629 10.6332 22.2216 10.7403 22.4123 10.931L23.0957 11.6144C23.1964 11.7152 23.316 11.7951 23.4476 11.8496C23.5792 11.9041 23.7203 11.9322 23.8627 11.9322C24.0052 11.9322 24.1462 11.9041 24.2778 11.8496C24.4095 11.7951 24.529 11.7152 24.6298 11.6144C24.7305 11.5137 24.8104 11.3941 24.8649 11.2625C24.9194 11.1309 24.9475 10.9898 24.9475 10.8474C24.9475 10.7049 24.9194 10.5639 24.8649 10.4323C24.8104 10.3006 24.7305 10.1811 24.6298 10.0803L23.9464 9.39694C23.6162 9.06746 23.2172 8.81514 22.778 8.65809V7.59314H20.6085V8.65809C20.1693 8.81514 19.7703 9.06746 19.4401 9.39694L19.3723 9.46473C19.0153 9.82174 18.7482 10.2585 18.5931 10.739C18.438 11.2194 18.3992 11.7299 18.4801 12.2283C18.561 12.7267 18.7591 13.1987 19.0582 13.6055C19.3573 14.0122 19.7488 14.3421 20.2004 14.5679L22.2158 15.5756C22.3599 15.6477 22.4849 15.753 22.5804 15.8828C22.6758 16.0127 22.7391 16.1633 22.7649 16.3224C22.7907 16.4814 22.7783 16.6444 22.7288 16.7977C22.6793 16.9511 22.594 17.0905 22.4801 17.2044L22.4123 17.2722C22.2216 17.4629 21.9629 17.57 21.6932 17.57C21.4235 17.57 21.1649 17.4629 20.9742 17.2722L20.2908 16.5888C20.0874 16.3854 19.8114 16.2711 19.5237 16.2711C19.236 16.2711 18.9601 16.3854 18.7567 16.5888C18.5533 16.7922 18.439 17.0682 18.439 17.3559C18.439 17.6436 18.5533 17.9195 18.7567 18.1229L19.4401 18.8063C19.7703 19.1358 20.1693 19.3881 20.6085 19.5451V20.6101H22.778Z" fill="#F9BA48"/>
<path d="M31.4558 14.1017C31.4558 12.1708 30.8833 10.2833 29.8105 8.67783C28.7378 7.07236 27.2131 5.82105 25.4292 5.08214C23.6453 4.34322 21.6823 4.14989 19.7885 4.52658C17.8947 4.90328 16.1552 5.83309 14.7899 7.19843C13.4245 8.56377 12.4947 10.3033 12.118 12.1971C11.7413 14.0909 11.9346 16.0538 12.6736 17.8377C13.4125 19.6216 14.6638 21.1464 16.2693 22.2191C17.8747 23.2918 19.7623 23.8644 21.6931 23.8644C24.2815 23.8615 26.763 22.832 28.5932 21.0018C30.4234 19.1715 31.4529 16.69 31.4558 14.1017ZM14.0999 14.1017C14.0999 12.5999 14.5452 11.1318 15.3796 9.88314C16.214 8.63444 17.3999 7.6612 18.7873 7.08648C20.1748 6.51177 21.7016 6.3614 23.1745 6.65439C24.6474 6.94737 26.0004 7.67056 27.0624 8.73249C28.1243 9.79442 28.8475 11.1474 29.1405 12.6203C29.4334 14.0933 29.2831 15.62 28.7084 17.0075C28.1336 18.395 27.1604 19.5809 25.9117 20.4152C24.663 21.2496 23.1949 21.6949 21.6931 21.6949C19.68 21.6927 17.7499 20.8919 16.3264 19.4684C14.9029 18.0449 14.1022 16.1149 14.0999 14.1017Z" fill="#F9BA48"/>
<path d="M43.3882 7.59314H52.0661V9.76263H43.3882V7.59314Z" fill="black"/>
<path d="M43.3882 11.9321H52.0661V14.1016H43.3882V11.9321Z" fill="black"/>
<path d="M19.5238 27.1187H21.6933V29.2881H19.5238V27.1187Z" fill="black"/>
<path d="M19.5238 31.4575H21.6933V33.627H19.5238V31.4575Z" fill="black"/>
<path d="M19.5238 35.7965H21.6933V40.1355H19.5238V35.7965Z" fill="black"/>
<path d="M39.0492 11.9321H41.2187V14.1016H39.0492V11.9321Z" fill="black"/>
<path d="M39.0492 7.59314H41.2187V9.76263H39.0492V7.59314Z" fill="black"/>
</svg>
