<svg width="64" height="64" viewBox="0 0 64 64" fill="none" xmlns="http://www.w3.org/2000/svg">
<path d="M35.703 47.5777L37.7403 45.5409L39.1807 46.9813L37.1434 49.0181L35.703 47.5777Z" fill="black"/>
<path d="M28.6457 54.6352C28.2473 55.0336 27.6037 55.0326 27.2053 54.6352L24.2214 51.6518L22.781 53.0923L25.7648 56.0756C26.3607 56.6705 27.1431 56.9679 27.9255 56.9679C28.7079 56.9679 29.4903 56.6705 30.0862 56.0746L35.9514 50.2104L34.5109 48.77L28.6457 54.6352Z" fill="black"/>
<path d="M36.0746 0L21.8135 14.2611L9.35339 1.80104C8.477 0.924148 7.26386 0.421786 6.02437 0.421786C4.78438 0.421786 3.57125 0.924148 2.69535 1.80104L1.80104 2.69535C0.910719 3.58568 0.421786 4.76747 0.421786 6.02437C0.421786 7.28127 0.910719 8.46307 1.80104 9.35339L14.2611 21.8135L0 36.0746L27.9254 64L64 27.9254L36.0746 0ZM28.7615 28.7615L24.9928 28.2228L28.2238 24.9918L28.7615 28.7615ZM8.571 10.0114L24.4476 25.8881L22.8321 27.5036L6.95548 11.627L8.571 10.0114ZM25.8881 24.4476L10.0114 8.571L11.627 6.95548L27.5036 22.8321L25.8881 24.4476ZM2.45909 6.02437C2.45909 5.31112 2.73614 4.64113 3.24148 4.13579L4.13678 3.24049C5.13007 2.24621 6.91967 2.24621 7.91296 3.24049L10.1865 5.51505L5.51505 10.1865L3.24148 7.91296C2.73614 7.40761 2.45909 6.73713 2.45909 6.02437ZM2.88088 36.0746L15.7016 23.2539L22.3521 29.9045L31.1634 31.1634L29.9045 22.3521L23.2539 15.7016L36.0746 2.88088L61.1191 27.9254L27.9254 61.1191L2.88088 36.0746Z" fill="black"/>
<path d="M43.5544 19.7762C41.1992 19.7762 38.9859 20.6939 37.3196 22.3596L35.2311 24.4476L39.5524 28.769L41.6404 26.6814C42.1527 26.1701 42.8322 25.8881 43.5544 25.8881C45.047 25.8881 46.2612 27.1022 46.2612 28.5944C46.2612 29.3166 45.9801 29.996 45.4688 30.5078C44.5203 31.4559 43.2072 32 41.8677 32H35.8279L34.8909 32.9391L27.5444 41.2096L30.9366 44.6018L38.3209 38.1119H41.8667C44.8595 38.1119 47.6728 36.9465 49.7887 34.8296C51.4564 33.1644 52.3731 30.9495 52.3731 28.5944C52.3731 23.7324 48.4164 19.7762 43.5544 19.7762ZM48.3492 33.3892C46.6178 35.1211 44.3154 36.0746 41.8677 36.0746H37.5539L31.0271 41.8095L30.3437 41.1271L36.3741 34.3357L36.6715 34.0373H41.8677C43.7439 34.0373 45.5817 33.2763 46.9098 31.9488C47.8056 31.0515 48.2985 29.8607 48.2985 28.5944C48.2985 25.9786 46.1706 23.8508 43.5544 23.8508C42.2895 23.8508 41.0978 24.3437 40.2 25.24L39.5524 25.8881L38.112 24.4476L38.7596 23.7995C40.0413 22.5183 41.7444 21.8135 43.5544 21.8135C47.2942 21.8135 50.3358 24.855 50.3358 28.5944C50.3358 30.4059 49.631 32.1079 48.3492 33.3892Z" fill="#F9BA48"/>
<path d="M22.8322 46.2611C22.8322 47.9458 24.203 49.3171 25.8881 49.3171C27.5728 49.3171 28.9441 47.9458 28.9441 46.2611C28.9441 44.576 27.5728 43.2052 25.8881 43.2052C24.203 43.2052 22.8322 44.576 22.8322 46.2611ZM25.8881 45.2425C26.4502 45.2425 26.9068 45.6996 26.9068 46.2611C26.9068 46.8222 26.4502 47.2798 25.8881 47.2798C25.3256 47.2798 24.8695 46.8222 24.8695 46.2611C24.8695 45.6996 25.3256 45.2425 25.8881 45.2425Z" fill="#F9BA48"/>
<path d="M34.3352 8.27256L35.7756 6.83212L42.9057 13.9622L41.4653 15.4026L34.3352 8.27256Z" fill="black"/>
<path d="M31.2793 11.3285L32.7197 9.88809L39.8498 17.0182L38.4094 18.4586L31.2793 11.3285Z" fill="black"/>
<path d="M28.2234 14.3845L29.6638 12.944L36.7939 20.0741L35.3535 21.5146L28.2234 14.3845Z" fill="black"/>
<path d="M13.9623 29.6643L15.4027 28.2238L25.5892 38.4099L24.1488 39.8508L13.9623 29.6643Z" fill="black"/>
<path d="M10.9062 32.7202L12.3467 31.2798L22.5332 41.4658L21.0928 42.9067L10.9062 32.7202Z" fill="black"/>
<path d="M7.85022 35.7762L9.29066 34.3357L19.4772 44.5218L18.0367 45.9622L7.85022 35.7762Z" fill="black"/>
</svg>
