<svg width="65" height="64" viewBox="0 0 65 64" fill="none" xmlns="http://www.w3.org/2000/svg">
<path d="M26.9712 18.8852C24.6567 18.8852 22.7745 17.003 22.7745 14.6885C22.7745 12.3739 24.6567 10.4918 26.9712 10.4918C29.2858 10.4918 31.1679 12.3739 31.1679 14.6885C31.1679 17.003 29.2856 18.8852 26.9712 18.8852Z" fill="#F9BA48"/>
<path d="M38.512 14.6884C36.1974 14.6884 34.3153 12.8063 34.3153 10.4917C34.3153 8.17718 36.1974 6.29504 38.512 6.29504C40.8266 6.29504 42.7087 8.17718 42.7087 10.4917C42.7087 12.8063 40.8266 14.6884 38.512 14.6884Z" fill="#F9BA48"/>
<path d="M25.922 4.19666H23.8236V9.44264H25.922V4.19666Z" fill="#333333"/>
<path d="M30.1186 3.1474H28.0203V9.44245H30.1186V3.1474Z" fill="#333333"/>
<path d="M37.463 1.04907H35.3646V5.24577H37.463V1.04907Z" fill="#333333"/>
<path d="M41.6598 0H39.5614V5.24599H41.6598V0Z" fill="#333333"/>
<path d="M64.71 19.6793L63.4626 14.6885H58.4465V16.7868H60.5827L54.0474 25.7729L48.9264 21.6758L43.7182 26.884C43.5219 25.3365 42.2116 24.1309 40.6106 24.1309H40.3201L44.5168 16.7866H20.9081L24.8666 23.2947L21.3456 26.2293H0.741753V28.3276H22.1051L28.2658 23.194L34.7549 25.0479L36.9625 27.8061C37.2542 28.1712 37.3833 28.6287 37.3244 29.0924C37.2647 29.5562 37.0265 29.9665 36.6518 30.2476C35.9752 30.7563 35.0119 30.6861 34.4129 30.0882L32.2958 27.9711L26.3166 32.7542L26.9314 33.5221C26.7331 36.1776 25.5338 38.7607 23.4827 40.8696C23.4679 40.8853 23.4554 40.9021 23.4406 40.9168H23.023L20.9246 39.8675H0.741753V41.9659H20.4284L21.9717 42.737C20.7116 44.5909 19.9373 46.7143 19.7086 48.9575L15.43 44.68L0 60.1106L1.48351 61.5941L15.4302 47.6474L19.7214 51.9386C20.5018 58.4362 26.0688 63.7209 32.7027 63.9884C32.8936 63.9958 33.0836 64 33.2723 64C36.8132 64 40.1475 62.6622 42.7128 60.1977C45.4166 57.602 46.9052 54.1084 46.9052 50.3606C46.9052 46.9686 45.661 43.7782 43.4116 41.2738C43.6255 40.849 43.7578 40.3768 43.7578 39.8689C43.7578 39.06 43.442 38.3288 42.9395 37.7705C43.4431 37.2123 43.7578 36.4811 43.7578 35.6722C43.7578 34.8633 43.442 34.1321 42.9395 33.5738C43.4431 33.0156 43.7578 32.2844 43.7578 31.4755C43.7578 30.9907 43.6392 30.5374 43.442 30.1274L49.0812 24.4882L54.4519 28.7845L62.1696 18.1721L62.6743 20.1896L64.71 19.6793ZM41.6597 27.2786C41.6597 27.8567 41.1885 28.3276 40.6104 28.3276H39.3798C39.2842 27.6656 39.0304 27.0339 38.6002 26.4959L38.3863 26.2293H40.6104C41.1885 26.2293 41.6597 26.7004 41.6597 27.2786ZM27.7748 20.8712L26.497 21.9361L24.641 18.8852H40.9011L37.9037 24.1314H36.7087L35.9752 23.2144L27.7748 20.8712ZM37.9097 31.9265C38.4375 31.531 38.8279 31.0106 39.0879 30.4262H40.6104C41.1885 30.4262 41.6597 30.8974 41.6597 31.4755C41.6597 32.0536 41.1885 32.5248 40.6104 32.5248H36.7127C37.1355 32.3994 37.5415 32.2025 37.9097 31.9265ZM41.6597 35.6722C41.6597 36.2503 41.1885 36.7215 40.6104 36.7215H36.4137C35.8356 36.7215 35.3644 36.2503 35.3644 35.6722C35.3644 35.0941 35.8356 34.6229 36.4137 34.6229H40.6104C41.1885 34.6227 41.6597 35.0938 41.6597 35.6722ZM41.6597 39.8689C41.6597 40.447 41.1885 40.9182 40.6104 40.9182H36.4137C35.8356 40.9182 35.3644 40.447 35.3644 39.8689C35.3644 39.2908 35.8356 38.8196 36.4137 38.8196H40.6104C41.1885 38.8194 41.6597 39.2905 41.6597 39.8689ZM41.2599 58.6847C38.9738 60.8806 35.9804 62.0127 32.7878 61.8921C26.798 61.6508 21.8354 56.5727 21.7273 50.5726C21.6718 47.4787 22.8289 44.5524 24.9859 42.3334C27.4892 39.7599 28.9066 36.5545 29.0432 33.26L32.1393 30.783L32.9283 31.572C33.0469 31.6906 33.1781 31.7882 33.307 31.8867C33.393 32.5319 33.6689 33.1121 34.0844 33.5727C33.5808 34.1309 33.2661 34.8622 33.2661 35.6711C33.2661 36.48 33.5819 37.2112 34.0844 37.7694C33.5808 38.3276 33.2661 39.0589 33.2661 39.8678C33.2661 40.6767 33.5819 41.4079 34.0844 41.9661H32.2168V44.0645H31.6921C29.6672 44.0645 28.0201 45.7116 28.0201 47.7365C28.0201 49.7615 29.6672 51.4086 31.6921 51.4086H34.8398C35.7075 51.4086 36.4135 52.1147 36.4135 52.9823C36.4135 53.8498 35.7073 54.5571 34.8398 54.5571H31.6921C30.8244 54.5571 30.1184 53.851 30.1184 52.9834V52.4588H28.0201V52.9834C28.0201 55.0083 29.6672 56.6555 31.6921 56.6555H32.2168V58.7538H34.3151V56.6555H34.8398C36.8647 56.6555 38.5118 55.0083 38.5118 52.9834C38.5118 50.9585 36.8647 49.3114 34.8398 49.3114H31.6921C30.8244 49.3114 30.1184 48.6052 30.1184 47.7376C30.1184 46.8699 30.8246 46.1639 31.6921 46.1639H34.8398C35.7075 46.1639 36.4135 46.8701 36.4135 47.7376V48.2623H38.5118V47.7376C38.5118 45.7127 36.8647 44.0656 34.8398 44.0656H34.3151V42.198C34.8733 42.7016 35.6046 43.0163 36.4135 43.0163H40.6102C41.0719 43.0163 41.5082 42.9104 41.9039 42.7309C43.7746 44.8398 44.8069 47.5172 44.8069 50.3604C44.8071 53.5309 43.547 56.4878 41.2599 58.6847Z" fill="#333333"/>
</svg>
