<svg width="40" height="40" viewBox="0 0 40 40" fill="none" xmlns="http://www.w3.org/2000/svg">
<path d="M15.5502 27.8488H2.8608C2.54923 27.8488 2.28015 28.1037 2.28015 28.4294V36.5303C2.28015 36.8418 2.53507 37.1109 2.8608 37.1109H15.5502C15.8618 37.1109 16.1308 36.856 16.1308 36.5303V28.4436C16.1308 28.1037 15.8759 27.8488 15.5502 27.8488ZM14.9837 35.9496H3.44146V29.0667H14.9837V35.9496Z" fill="#F9BA48"/>
<path d="M22.4897 29.6049H31.6243C31.9359 29.6049 32.205 29.3783 32.2192 29.0667C32.2333 28.7268 31.9784 28.4578 31.6527 28.4578H22.4755C22.1498 28.4578 21.8807 28.7268 21.909 29.0667C21.9232 29.3783 22.1923 29.6049 22.4897 29.6049Z" fill="#F9BA48"/>
<path d="M31.6527 31.8992H22.4897C22.1781 31.8992 21.909 32.1258 21.8948 32.4373C21.8807 32.7772 22.1356 33.0463 22.4613 33.0463H31.6243C31.9359 33.0463 32.205 32.8197 32.2191 32.5082C32.2475 32.1824 31.9784 31.8992 31.6527 31.8992Z" fill="#F9BA48"/>
<path d="M31.6527 35.4114H22.4897C22.1781 35.4114 21.909 35.638 21.8948 35.9496C21.8807 36.2895 22.1356 36.5586 22.4613 36.5586H31.6243C31.9359 36.5586 32.205 36.332 32.2191 36.0204C32.2475 35.6805 31.9784 35.4114 31.6527 35.4114Z" fill="#F9BA48"/>
<path d="M6.91119 24.4073H9.19132C9.50289 24.4073 9.77197 24.1807 9.78613 23.8692C9.8003 23.5293 9.54537 23.2602 9.21964 23.2602H6.93952C6.62795 23.2602 6.35886 23.4868 6.3447 23.7984C6.31638 24.1383 6.58546 24.4073 6.91119 24.4073Z" fill="white"/>
<path d="M25.3363 16.9863H27.6164C27.928 16.9863 28.1971 16.7597 28.2112 16.4482C28.2254 16.1083 27.9705 15.8392 27.6448 15.8392H25.3646C25.0531 15.8392 24.784 16.0658 24.7698 16.3773C24.7415 16.7031 25.0106 16.9863 25.3363 16.9863Z" fill="white"/>
<path d="M32.8281 21.5749H30.5055V14.1255C30.5055 13.814 30.2506 13.5449 29.9249 13.5449H4.56025C4.24868 13.5449 3.9796 13.7998 3.9796 14.1255V21.5749H1.7278C0.778924 21.5749 0 22.3538 0 23.3027V25.6111V38.2722C0 39.2211 0.778924 40 1.7278 40H32.8281C33.777 40 34.5559 39.2211 34.5559 38.2722V25.6111V23.3027C34.5559 22.3538 33.777 21.5749 32.8281 21.5749ZM32.8281 22.722C33.1539 22.722 33.4088 22.977 33.4088 23.3027V25.0305H30.5055V22.722H32.8281ZM5.19755 14.6212H29.3584V25.0163H18.3543V24.3649C19.4165 24.1099 20.1529 23.2036 20.1529 22.1272C20.1529 21.0509 19.4165 20.1587 18.3543 19.8896V17.6661C18.765 17.8644 18.9916 18.2326 18.9916 18.6575C18.9916 18.969 19.2465 19.2381 19.5723 19.2381C19.8838 19.2381 20.1529 18.9832 20.1529 18.6575C20.1529 17.5811 18.4251 16.4198 18.4251 16.4198V15.7967C18.4251 15.4851 18.1985 15.216 17.8869 15.2019C17.547 15.1877 17.278 15.4426 17.278 15.7684V16.3915C16.2866 16.6464 15.5502 17.5528 15.5502 18.6291C15.5502 19.7055 16.2866 20.6119 17.278 20.8668V23.0903C16.9381 22.892 16.7115 22.5238 16.6973 22.0989C16.6973 21.8581 16.5557 21.6315 16.3291 21.5466C15.9184 21.405 15.5502 21.7024 15.5502 22.0847C15.5502 23.1611 16.2866 24.0675 17.278 24.3224V24.9738H5.19755V14.6212ZM17.278 19.6772C16.9381 19.4789 16.6973 19.1107 16.6973 18.6858C16.6973 18.2609 16.9239 17.8927 17.278 17.6944V19.6772ZM18.4251 21.15C18.765 21.3483 19.0058 21.7165 19.0058 22.1414C19.0058 22.5663 18.7792 22.9345 18.4251 23.1327V21.15ZM1.7278 22.722H4.05041V25.0163H1.14714V23.3027C1.14714 22.977 1.40206 22.722 1.7278 22.722ZM1.14714 38.2722V26.1635H4.60274H17.278V38.8529H1.7278C1.40206 38.8529 1.14714 38.5979 1.14714 38.2722ZM33.4088 38.2439C33.4088 38.5838 33.1397 38.8529 32.7998 38.8529H18.4251V26.1635H29.9532H33.4088V38.2439Z" fill="white"/>
<path d="M31.2986 19.8896H27.4748V21.3058H31.2986V19.8896Z" fill="white"/>
<path d="M30.5905 20.9659H28.1829V21.9289H30.5905V20.9659Z" fill="white"/>
<path d="M29.3867 15.7825C32.2807 15.7825 34.6267 13.4365 34.6267 10.5425C34.6267 7.6485 32.2807 5.30246 29.3867 5.30246C26.4927 5.30246 24.1467 7.6485 24.1467 10.5425C24.1467 13.4365 26.4927 15.7825 29.3867 15.7825Z" fill="white"/>
<path d="M31.8651 14.5079H26.9083V19.7479H31.8651V14.5079Z" fill="white"/>
<path d="M29.3584 4.39606C26.1436 4.39606 23.5519 7.00191 23.5377 10.2167C23.566 12.3128 24.5857 14.2672 26.2852 15.4993V19.7196C26.2852 19.7196 26.2994 19.8188 26.3418 19.8613V19.8896C26.3277 19.9037 26.3277 19.9179 26.3418 19.9321L27.8006 22.0989C27.8714 22.2122 28.1405 22.2972 28.1405 22.2972H30.548C30.548 22.2972 30.8171 22.2122 30.8879 22.0989L32.3466 19.9321C32.3608 19.9179 32.3608 19.9037 32.3325 19.8896V19.8613C32.3891 19.8188 32.3891 19.7196 32.3891 19.7196V15.4993C34.0886 14.2672 35.1083 12.3128 35.1366 10.2167C35.1366 7.01608 32.5591 4.42438 29.3584 4.39606ZM30.3498 21.4758H28.3812L27.4748 20.1303H31.242L30.3498 21.4758ZM27.1208 19.3089V18.2184H31.6102V19.3089H27.1208ZM31.8226 14.9328C31.8226 14.9469 31.6102 15.1594 31.6102 15.2868V17.3829H27.1208V15.2585C27.1208 15.1169 27.05 14.9894 26.9367 14.9186C25.3505 13.8565 24.3875 12.1003 24.3591 10.1884C24.4441 7.42678 26.7526 5.25995 29.5284 5.33077C32.1909 5.40158 34.3294 7.54008 34.4002 10.1884C34.3719 12.1003 33.4088 13.8848 31.8226 14.9328Z" fill="#F9BA48"/>
<path d="M29.5284 6.26547C29.3018 6.26547 29.1176 6.44958 29.1176 6.67618C29.1176 6.90277 29.3018 7.08688 29.5284 7.08688C31.242 7.08688 32.6299 8.47479 32.644 10.2026C32.644 10.4292 32.8282 10.6133 33.0548 10.6133C33.2814 10.6133 33.4655 10.4292 33.4655 10.2026C33.4655 8.02159 31.7093 6.26547 29.5284 6.26547Z" fill="#F9BA48"/>
<path d="M22.433 9.80603H19.4731C19.2607 9.80603 19.0766 9.94765 19.0483 10.1601C19.0058 10.415 19.2041 10.6274 19.459 10.6274H22.433C22.6596 10.6274 22.8438 10.4433 22.8438 10.2167C22.8438 9.99014 22.6596 9.80603 22.433 9.80603Z" fill="#F9BA48"/>
<path d="M39.272 9.80603H36.3121C36.0996 9.80603 35.9155 9.94765 35.8872 10.1601C35.8447 10.415 36.043 10.6274 36.2979 10.6274H39.2578C39.4703 10.6274 39.6544 10.4858 39.6827 10.2734C39.7252 10.0326 39.5269 9.80603 39.272 9.80603Z" fill="#F9BA48"/>
<path d="M24.8123 14.8195C24.6707 14.6495 24.4016 14.6212 24.2316 14.777C24.2175 14.7912 24.2033 14.8053 24.1891 14.8195V14.8053L22.079 16.9297C21.909 17.0713 21.8807 17.3404 22.0365 17.5103C22.1781 17.6803 22.4472 17.7086 22.6171 17.5528C22.6313 17.5386 22.6455 17.5245 22.6596 17.5103L24.7698 15.4001C24.9397 15.2444 24.9539 14.9894 24.8123 14.8195Z" fill="#F9BA48"/>
<path d="M36.6378 2.88069C36.482 2.75323 36.2554 2.75323 36.0996 2.88069L33.9895 4.99087C33.8337 5.14665 33.8195 5.41574 33.9895 5.57152C34.0744 5.65649 34.1736 5.69898 34.2869 5.69898C34.4002 5.69898 34.4993 5.6565 34.5843 5.58568L36.6803 3.46134C36.8219 3.2914 36.8077 3.03648 36.6378 2.88069Z" fill="#F9BA48"/>
<path d="M36.7653 17.0146C36.7369 16.9863 36.7086 16.958 36.6803 16.9297L34.5701 14.8053C34.4285 14.6354 34.1594 14.607 33.9895 14.7628C33.8195 14.9045 33.7912 15.1735 33.947 15.3435C33.9611 15.3576 33.9753 15.3718 33.9895 15.386L36.0996 17.4962C36.2413 17.6803 36.4962 17.7227 36.6803 17.5811C36.8502 17.4537 36.8927 17.1846 36.7653 17.0146Z" fill="#F9BA48"/>
<path d="M24.7557 4.99089L22.6455 2.88071C22.4755 2.73909 22.2065 2.75325 22.0648 2.9232C21.9374 3.07898 21.9374 3.30558 22.0648 3.46136L24.175 5.57154C24.345 5.71316 24.614 5.699 24.7557 5.52906C24.8831 5.37327 24.8831 5.14667 24.7557 4.99089Z" fill="#F9BA48"/>
<path d="M29.2876 0.00575662C29.0893 0.0340812 28.9335 0.218191 28.9335 0.430625V3.4047C28.9335 3.6313 29.1035 3.82957 29.3301 3.82957H29.3442C29.5708 3.82957 29.7549 3.64546 29.7549 3.41886V0.416461C29.7549 0.161541 29.5425 -0.0367302 29.2876 0.00575662Z" fill="#F9BA48"/>
</svg>
