<svg width="540" height="314" viewBox="0 0 540 314" fill="none" xmlns="http://www.w3.org/2000/svg">
<path d="M169.939 47.0182C169.939 47.0182 170.225 44.238 169.939 43.7474C169.652 43.2568 169.202 40.4766 170.021 38.3097C170.839 36.1427 172.353 34.4255 172.844 36.2654C173.335 38.1052 175.259 39.7406 176.404 40.5583C177.55 41.3761 178.246 41.1716 177.837 43.7474C177.468 46.3232 176.568 48.6128 176.282 49.6349C175.995 50.6979 170.716 50.7388 170.389 49.6349C170.143 48.5719 169.939 47.0182 169.939 47.0182Z" fill="#FFD1BD"/>
<path d="M174.727 284.808C174.727 284.808 158.603 286.034 153.979 280.883C149.355 275.69 144.526 271.888 144.894 263.711C145.181 257.047 149.518 249.197 154.265 245.721C159.012 242.205 170.348 243.8 176.896 247.888C183.443 251.977 192.978 253.081 202.554 250.873C212.089 248.706 215.649 248.134 221.91 245.967C228.171 243.8 229.808 243.514 242.371 242.696C254.935 241.878 267.457 236.972 285.463 238.894C303.469 240.815 358.755 247.479 368.126 249.524C375.901 251.2 383.717 252.958 386.418 260.849C389.16 268.903 386.418 281.987 372.505 285.053C360.105 287.833 338.662 281.946 333.219 281.414C327.776 280.883 306.783 280.392 293.647 280.597C278.629 280.842 244.213 279.247 233.737 280.311C223.261 281.414 174.727 284.808 174.727 284.808Z" fill="#FFF5F5"/>
<path d="M203.168 256.229C203.168 256.229 200.058 257.864 198.175 261.708C196.293 265.51 196.538 267.145 199.567 267.145C202.595 267.145 205.173 264.12 206.441 263.18C209.347 261.013 211.802 257.905 209.429 256.842C208.119 256.27 203.168 256.229 203.168 256.229Z" fill="#58585B"/>
<path d="M227.517 255.411C227.517 255.411 230.627 257.047 232.509 260.89C234.392 264.692 234.146 266.328 231.118 266.328C228.089 266.328 225.511 263.302 224.243 262.362C221.337 260.195 218.882 257.088 221.255 256.025C222.565 255.452 227.517 255.411 227.517 255.411Z" fill="#58585B"/>
<path d="M190.932 176.625C190.932 176.625 195.843 224.052 197.07 233.251C198.298 242.45 200.958 257.782 200.958 257.782C200.958 257.782 205.132 260.031 207.751 258.805C210.37 257.578 210.37 257.578 210.37 257.578V225.892C210.37 225.892 210.411 209.374 211.434 201.81C212.457 194.247 215.281 187.051 215.281 187.051C215.281 187.051 216.508 186.029 217.122 191.957C217.736 197.885 220.355 230.185 220.273 236.727C220.191 243.268 221.215 257.169 221.215 257.169C221.215 257.169 227.353 259.009 228.908 257.782C230.463 256.556 233.082 223.234 233.082 214.035C233.082 204.836 236.765 178.301 236.356 175.317C235.947 172.332 234.924 168.448 230.217 167.221C225.511 165.995 191.464 166.649 190.932 168.857C190.4 171.105 190.932 176.625 190.932 176.625Z" fill="#191949"/>
<path d="M348.279 44.974H265.615C260.991 44.974 257.226 48.7355 257.226 53.3555V256.147C257.226 260.767 260.991 264.529 265.615 264.529H348.279C352.903 264.529 356.668 260.767 356.668 256.147V53.3555C356.668 48.7355 352.903 44.974 348.279 44.974Z" fill="#FFA000"/>
<path d="M339.808 132.06H272.899C270.772 132.06 269.012 130.302 269.012 128.176V65.0078C269.012 62.8817 270.772 61.1237 272.899 61.1237H339.808C341.936 61.1237 343.695 62.8817 343.695 65.0078V128.176C343.695 130.302 341.936 132.06 339.808 132.06Z" fill="#FFBA47"/>
<path d="M342.918 151.685H317.382C316.809 151.685 316.318 151.235 316.318 150.622V148.823C316.318 148.251 316.768 147.76 317.382 147.76H342.918C343.491 147.76 343.982 148.21 343.982 148.823V150.622C343.982 151.235 343.532 151.685 342.918 151.685Z" fill="#FFBA47"/>
<path d="M267.661 95.4674C267.661 95.4674 270.24 93.4231 273.923 93.3005C277.606 93.1778 278.342 93.7093 279.365 93.832C280.388 93.9546 282.966 93.2187 282.353 94.4044C281.739 95.5901 275.887 98.3294 275.068 98.2476C274.25 98.1658 276.501 98.452 276.623 99.3924C276.746 100.333 277.114 101.355 275.068 100.742C273.022 100.128 271.385 101.11 270.485 100.946C269.585 100.783 266.475 100.047 266.393 98.82C266.311 97.5934 267.661 95.4674 267.661 95.4674Z" fill="#FFD1BD"/>
<path d="M202.186 79.5222C202.186 79.5222 204.559 79.931 205.173 81.6891C205.787 83.4472 205.91 86.5954 205.91 86.5954C205.91 86.5954 205.296 88.6396 206.646 89.0485C207.997 89.4573 211.884 89.7844 211.884 89.7844C211.884 89.7844 212.007 87.8219 212.007 86.3092C212.007 84.7964 213.03 82.5068 214.176 82.098C215.322 81.6891 216.345 81.5665 216.836 80.9532C217.327 80.3399 216.836 77.9685 217.368 77.5597C217.9 77.1508 219.332 77.5597 219.414 76.9464C219.496 76.3331 218.882 73.3485 219.291 72.8579C219.7 72.3672 221.255 67.3383 218.063 66.5206C214.872 65.7029 208.651 64.5581 204.968 65.9891C201.285 67.4201 199.444 74.7795 199.648 75.7198C199.853 76.6602 202.186 79.5222 202.186 79.5222Z" fill="#FFD1BD"/>
<path d="M169.775 47.6315C169.775 47.6315 171.003 49.2669 173.581 49.0625C176.159 48.8581 177.182 47.8359 177.591 47.6315C178 47.4271 180.374 74.8612 180.169 78.868C179.965 82.8747 180.783 85.1234 183.239 85.7367C185.694 86.35 191.096 85.6549 196.006 85.5323C200.917 85.4096 204.723 85.2052 205.132 85.3279C205.541 85.4505 204.927 84.7963 206.482 85.8185C208.037 86.8406 209.511 88.0263 210.738 87.7401C211.966 87.4539 212.498 85.9411 212.498 85.9411C212.498 85.9411 214.053 85.2052 217.327 85.5323C220.601 85.8594 227.557 91.3789 229.522 94.4453C230.954 96.7349 235.415 103.849 237.583 107.324C238.279 108.428 239.671 108.796 240.816 108.224C241.267 108.019 241.798 107.733 242.412 107.406C245.277 105.975 254.403 101.559 254.403 101.559C254.403 101.559 264.838 96.326 266.475 96.0398C268.112 95.7536 267.702 95.631 267.621 97.062C267.498 98.493 269.667 100.455 270.894 100.864C272.122 101.273 261.278 109.655 258.904 111.29C256.531 112.926 239.139 122.247 238.443 122.247C237.747 122.247 240.162 130.506 240.898 136.271C241.594 141.423 242.044 161.334 240.775 166.24C239.671 170.656 238.607 173.313 237.502 174.131C236.397 174.949 233.205 171.473 227.967 171.065C222.729 170.656 212.825 169.225 203.495 171.801C198.012 173.313 194.451 174.54 192.487 175.276C191.464 175.644 190.4 174.99 190.277 173.886C189.663 167.262 188.558 147.228 188.763 139.051C189.009 128.993 189.5 118.282 189.909 114.52C190.318 110.759 193.101 102.663 191.464 100.946C188.886 98.2068 182.338 100.333 178.655 97.757C174.972 95.1812 171.044 91.0109 170.839 89.7844C170.634 88.5578 169.529 74.8612 169.857 70.7727C170.184 66.6841 169.775 47.6315 169.775 47.6315Z" fill="#F9F9F9"/>
<path d="M202.677 78.3365C202.063 78.9906 200.999 79.0315 200.303 78.4182C198.175 76.5375 194.083 72.5307 193.796 69.6687C193.387 65.7846 192.241 56.7898 198.625 54.7455C205.009 52.7013 205.173 53.9278 206.933 52.783C208.692 51.6383 211.352 50.6161 213.685 50.8205C216.017 51.025 218.718 53.4781 221.051 54.5002C223.383 55.5224 226.371 54.5002 227.189 56.1357C228.008 57.7711 228.212 57.7711 227.189 60.2242C226.166 62.6773 223.997 65.5393 222.278 66.6841C220.56 67.8289 214.585 67.2974 212.498 68.156C210.165 69.219 205.418 75.4745 202.677 78.3365Z" fill="#191949"/>
<path d="M208.733 86.8815C208.733 86.8815 211.72 86.1864 212.171 87.781C212.621 89.3346 212.703 91.9104 212.703 91.9104L216.59 103.072L223.956 124.537L228.867 138.642C228.867 138.642 226.412 148.455 226.207 149.068C226.002 149.681 219.25 141.913 219.25 141.913L215.24 121.675L212.13 105.525L210.616 97.1437L209.593 93.3414C209.593 93.3414 208.324 93.0552 207.915 91.6242C207.505 90.1932 207.751 88.9666 207.956 88.4351C208.16 87.9036 208.733 86.8815 208.733 86.8815Z" fill="#FF9E00"/>
</svg>
