<svg width="40" height="40" viewBox="0 0 40 40" fill="none" xmlns="http://www.w3.org/2000/svg">
<path d="M38.454 19.3069L39.4662 18.5868L38.7253 17.5328L28.5718 24.7019C28.1231 23.4705 26.9439 22.5731 25.556 22.5731C24.0011 22.5731 22.6967 23.6792 22.3941 25.1506H15.7886C15.486 23.9819 14.3798 23.1262 13.0963 23.2201C11.8962 23.314 10.9049 24.2427 10.7483 25.4324C10.6544 26.0793 10.8214 26.6846 11.1344 27.1855L3.62104 37.3808V33.5406H4.91502V32.2466H3.62104V30.9526H6.19856V29.6586H3.62104V28.3647H4.91502V27.0707H3.62104V25.808H6.19856V24.5141H3.62104V23.2201H4.91502V21.9261H3.62104V20.6321H6.19856V19.3382H3.62104V18.0442H4.91502V16.7502H3.62104V15.4562H6.19856V14.1623H3.62104V12.8683H4.91502V11.616H3.62104V10.3221H6.19856V9.0281H3.62104V6.45058H5.95855L2.98449 0.492035L0 6.45058H2.3375V40H39.748V38.706H38.454V19.3069ZM3.00536 3.38261L3.89236 5.16704H2.10793L3.00536 3.38261ZM37.1705 38.706H34.593V22.0409L37.1705 20.2147V38.706ZM28.7492 26.1628L29.4275 25.6828V38.706H26.85V28.7508C27.8726 28.3021 28.6135 27.3316 28.7492 26.1628ZM30.711 24.7749L33.2886 22.9488V38.706H30.711V24.7749ZM25.5873 23.8566C26.6517 23.8566 27.5178 24.7228 27.5178 25.7872C27.5178 26.8516 26.6517 27.7177 25.5873 27.7177C24.5229 27.7177 23.6568 26.8516 23.6568 25.7872C23.6568 24.7228 24.5125 23.8566 25.5873 23.8566ZM25.556 29.0325V38.706H22.9785V27.7177C23.5629 28.5108 24.4916 29.0325 25.556 29.0325ZM7.49253 34.3128L10.07 30.8065V38.706H7.49253V34.3128ZM6.19856 38.706H4.24716L6.19856 36.0659V38.706ZM11.364 29.0638L12.0945 28.0725C12.4597 28.2708 12.8667 28.3855 13.305 28.3855C13.5241 28.3855 13.7433 28.3438 13.952 28.2916V38.706H11.364V29.0638ZM15.2355 27.4985C15.4964 27.2064 15.6842 26.8516 15.7886 26.455H17.813V38.7165H15.2355V27.4985ZM19.107 26.455H21.6845V38.7165H19.107V26.455ZM13.3259 24.5036C14.0355 24.5036 14.6198 25.0776 14.6198 25.7976C14.6198 26.5176 14.0459 27.0916 13.3259 27.0916C12.6058 27.0916 12.0319 26.5176 12.0319 25.7976C12.0319 25.0776 12.6163 24.5036 13.3259 24.5036Z" fill="white"/>
<path d="M11.5205 17.4598L10.6022 18.8372L13.1797 21.4148L14.5572 20.4965C14.912 20.6843 15.2877 20.8408 15.6738 20.9556L15.9973 22.5835H19.6392L19.9627 20.9556C20.3488 20.8304 20.7244 20.6739 21.0792 20.4965L22.4567 21.4148L25.0342 18.8372L24.1159 17.4598C24.1368 17.4181 24.1472 17.3867 24.1681 17.345C25.8586 18.6494 27.9248 19.359 30.0745 19.359C35.5321 19.359 39.9462 14.8197 39.748 9.30984C39.5601 4.19655 35.3651 0.0954821 30.2519 0.00156456C25.556 -0.0819177 21.5488 3.18433 20.6097 7.6715C20.401 7.57758 20.1818 7.4941 19.9627 7.43148L19.6392 5.80358H15.9973L15.6738 7.43148C15.2877 7.55671 14.912 7.71324 14.5572 7.89064L13.1797 6.97233L10.6022 9.53941L11.5205 10.9169C11.3327 11.2717 11.1762 11.6473 11.0614 12.0334L9.43347 12.3569V15.9989L11.0614 16.3223C11.1762 16.7293 11.3327 17.0946 11.5205 17.4598ZM30.1997 1.27467C34.7912 1.34772 38.5062 5.15659 38.454 9.75855C38.4018 14.3396 34.6556 18.0442 30.064 18.0442C28.1752 18.0442 26.3595 17.4076 24.8881 16.2493L26.1925 15.9884V15.6023C27.33 16.3537 28.6657 16.7502 30.064 16.7502C31.6919 16.7502 33.2885 16.1763 34.5512 15.1432L33.7372 14.1414C32.7042 14.9866 31.3997 15.4562 30.064 15.4562C28.624 15.4562 27.2569 14.924 26.1925 13.964V12.3465L24.5646 12.023C24.4394 11.6369 24.2829 11.2612 24.1055 10.9064L25.0342 9.52898L24.3455 8.84025C24.4916 7.79672 24.909 6.8158 25.5873 5.99142L24.5855 5.17746C23.9594 5.93924 23.5107 6.8158 23.2498 7.75498L22.4671 6.97233L22.0497 7.25409C23.0933 3.71652 26.3804 1.22249 30.1997 1.27467ZM10.717 13.4318L12.0945 13.1605L12.1988 12.7639C12.3345 12.2213 12.5536 11.71 12.8354 11.2299L13.0441 10.8751L12.2614 9.70638L13.3363 8.63154L14.505 9.41419L14.8598 9.20548C15.3398 8.92373 15.8512 8.70459 16.3938 8.56893L16.7903 8.46458L17.0617 7.08712H18.5852L18.8565 8.46458L19.2531 8.56893C19.7957 8.70459 20.307 8.92373 20.7871 9.20548L21.1419 9.41419L22.3106 8.63154L23.3854 9.70638L22.6028 10.8751L22.8115 11.2299C23.0933 11.71 23.3124 12.2213 23.4481 12.7639L23.5524 13.1605L24.9299 13.4318V14.9553L23.5524 15.2266L23.4481 15.6232C23.3124 16.1658 23.0933 16.6771 22.8115 17.1572L22.6028 17.512L23.3854 18.6807L22.2897 19.7556L21.121 18.9729L20.7662 19.1816C20.2862 19.4634 19.7748 19.6825 19.2322 19.8182L18.8357 19.9225L18.5643 21.3H17.0408L16.7695 19.9225L16.3729 19.8182C15.8303 19.6825 15.319 19.4634 14.8389 19.1816L14.4841 18.9729L13.3154 19.7556L12.2406 18.6807L13.0232 17.512L12.8145 17.1572C12.5327 16.6771 12.3136 16.1658 12.178 15.6232L12.0736 15.2266L10.6961 14.9553V13.4318H10.717Z" fill="#F9BA48"/>
<path d="M17.8444 10.9482C19.6184 10.9482 21.0689 12.3987 21.0689 14.1727C21.0689 14.8405 20.8601 15.4875 20.474 16.0406L21.528 16.7919C22.0811 16.0197 22.3628 15.1223 22.3628 14.1727C22.3628 11.6787 20.3384 9.65421 17.8444 9.65421C16.9052 9.65421 15.9973 9.94639 15.2251 10.489L15.9764 11.543C16.5191 11.1569 17.1661 10.9482 17.8444 10.9482Z" fill="#F9BA48"/>
<path d="M17.8443 18.6912C18.7835 18.6912 19.6913 18.399 20.4635 17.8563L19.7122 16.8024C19.1591 17.1989 18.5121 17.3972 17.8443 17.3972C16.0703 17.3972 14.6198 15.9467 14.6198 14.1727C14.6198 13.5048 14.8285 12.8578 15.2146 12.3048L14.1606 11.5534C13.6076 12.3256 13.3258 13.2231 13.3258 14.1727C13.3258 16.6667 15.3503 18.6912 17.8443 18.6912Z" fill="#F9BA48"/>
<path d="M28.7805 7.09755H31.358C31.7128 7.09755 32.005 7.38974 32.005 7.74454H33.3199C33.3199 6.68014 32.4537 5.81401 31.3893 5.81401H30.7215V5.16702H29.4275V5.81401H28.7805C27.7161 5.81401 26.85 6.68014 26.85 7.74454V8.39153C26.85 9.45592 27.7161 10.3221 28.7805 10.3221H31.358C31.7128 10.3221 32.005 10.6142 32.005 10.969V11.616C32.005 11.9708 31.7128 12.263 31.358 12.263H28.7805C28.4257 12.263 28.1335 11.9708 28.1335 11.616H26.8708C26.8708 12.6804 27.737 13.5466 28.8014 13.5466H29.4171V14.1935H30.711V13.5466H31.358C32.4224 13.5466 33.2885 12.6804 33.2885 11.616V10.969C33.2885 9.90464 32.4224 9.03851 31.358 9.03851H28.7805C28.4257 9.03851 28.1335 8.74633 28.1335 8.39153V7.74454C28.1335 7.38974 28.4257 7.09755 28.7805 7.09755Z" fill="#F9BA48"/>
<path d="M30.0953 3.85217C33.299 3.85217 35.8973 6.46099 35.8973 9.65419C35.8973 10.9899 35.4278 12.2943 34.5825 13.3274L35.5843 14.1414C36.6174 12.8787 37.1913 11.2821 37.1913 9.65419C37.1913 5.74096 34.0086 2.5582 30.0953 2.5582C28.4674 2.5582 26.8708 3.13214 25.6082 4.16523L26.4221 5.16702C27.4552 4.32176 28.7596 3.85217 30.0953 3.85217Z" fill="#F9BA48"/>
</svg>
