<svg width="64" height="64" viewBox="0 0 64 64" fill="none" xmlns="http://www.w3.org/2000/svg">
<path d="M17.4363 53.0407C21.3766 53.0407 24.5708 49.9986 24.5708 46.2459C24.5708 42.4933 21.3766 39.4512 17.4363 39.4512C13.496 39.4512 10.3018 42.4933 10.3018 46.2459C10.3018 49.9986 13.496 53.0407 17.4363 53.0407Z" fill="#F9BA48"/>
<path d="M47.1878 36.3214L27.6797 16.8132L23.8918 20.6011L43.4 40.1093L47.1878 36.3214Z" fill="#F9BA48"/>
<path d="M46.9059 33.3139L30.623 17.031L28.54 19.114L44.8229 35.3969L46.9059 33.3139Z" fill="#F9BA48"/>
<path d="M42.5221 26.7386C45.6695 26.7386 48.2209 24.3343 48.2209 21.3685C48.2209 18.4027 45.6695 15.9985 42.5221 15.9985C39.3747 15.9985 36.8232 18.4027 36.8232 21.3685C36.8232 24.3343 39.3747 26.7386 42.5221 26.7386Z" fill="#F9BA48"/>
<path d="M55.6732 15.1217C59.4258 15.1217 62.468 12.0796 62.468 8.32694C62.468 4.57429 59.4258 1.53217 55.6732 1.53217C51.9205 1.53217 48.8784 4.57429 48.8784 8.32694C48.8784 12.0796 51.9205 15.1217 55.6732 15.1217Z" fill="#F9BA48"/>
<path d="M51.399 17.3136C54.1227 17.3136 56.3307 15.1056 56.3307 12.3819C56.3307 9.65819 54.1227 7.4502 51.399 7.4502C48.6753 7.4502 46.4673 9.65819 46.4673 12.3819C46.4673 15.1056 48.6753 17.3136 51.399 17.3136Z" fill="#F9BA48"/>
<path d="M48.1115 20.163C50.4721 20.163 52.3857 18.2494 52.3857 15.8889C52.3857 13.5283 50.4721 11.6147 48.1115 11.6147C45.751 11.6147 43.8374 13.5283 43.8374 15.8889C43.8374 18.2494 45.751 20.163 48.1115 20.163Z" fill="#F9BA48"/>
<path d="M53.043 16.4368C56.3115 16.4368 58.9611 14.0816 58.9611 11.1764C58.9611 8.27109 56.3115 5.91589 53.043 5.91589C49.7746 5.91589 47.125 8.27109 47.125 11.1764C47.125 14.0816 49.7746 16.4368 53.043 16.4368Z" fill="#F9BA48"/>
<path d="M17.5065 38.2106C12.9518 38.2106 9.24756 41.9148 9.24756 46.4695C9.24756 51.022 12.9518 54.7285 17.5065 54.7285C22.0612 54.7285 25.7654 51.0242 25.7654 46.4695C25.7654 41.9148 22.0612 38.2106 17.5065 38.2106ZM17.5065 52.6637C14.0916 52.6637 11.3123 49.8866 11.3123 46.4695C11.3123 43.0524 14.0894 40.2753 17.5065 40.2753C20.9236 40.2753 23.7007 43.0524 23.7007 46.4695C23.7007 49.8866 20.9236 52.6637 17.5065 52.6637Z" fill="black"/>
<path d="M48.5914 4.24105L47.4757 6.19181H12.9934L0 19.183V64H51.614V20.0641L59.8598 15.3516C62.4133 13.8918 64.0002 11.1564 64.0002 8.21709C64.0002 3.54404 60.0833 -0.228157 55.3599 0.0107564C52.5346 0.151036 49.9964 1.78397 48.5914 4.24105ZM12.3884 9.71632V18.5802H3.52452L12.3884 9.71632ZM49.5492 61.9353H2.06473V20.6428H14.4531V8.25435H46.2965L42.6383 14.6568L37.4458 16.7325L35.8479 19.9326L35.0084 19.0931C33.5048 17.5895 31.5124 16.6448 29.3907 16.5264C26.938 16.3905 24.6102 17.2826 22.8874 19.0054L21.2501 20.6428L23.3148 22.7075L20.2177 25.8046L38.1932 43.7801L41.2903 40.683L43.355 42.7477L44.9047 41.1981C46.4083 39.6944 47.353 37.702 47.4714 35.5803C47.6073 33.1276 46.7152 30.7999 44.9924 29.077L44.0652 28.1499L47.2653 26.552L49.341 21.3595L49.5492 21.2389V61.9353ZM43.4909 30.5566C44.7074 31.773 45.3781 33.3928 45.3781 35.1134C45.3781 36.834 44.7074 38.4538 43.4909 39.6703L43.3134 39.8479L24.128 20.6625L24.3056 20.4849C25.5221 19.2685 27.1418 18.5978 28.8624 18.5978C30.5831 18.5978 32.2028 19.2685 33.4193 20.4849L43.4909 30.5566ZM39.7889 39.2429L38.1516 40.8802L23.0935 25.8221L24.7308 24.1848L39.7889 39.2429ZM58.7945 13.5762L47.6489 19.9436L45.5973 25.0747L42.4849 26.6309L37.345 21.491L38.9012 18.3786L44.0323 16.327L50.4019 5.18136C51.4934 3.26786 53.5406 2.07988 55.7435 2.07988C59.1365 2.07988 61.896 4.83943 61.896 8.23244C61.896 10.4353 60.708 12.4825 58.7945 13.5762Z" fill="black"/>
<path d="M51.5723 8.25654H53.637C53.637 7.11897 54.562 6.19181 55.7017 6.19181C56.2102 6.19181 56.699 6.37812 57.0782 6.71786L58.4547 5.17917C57.6963 4.49969 56.7188 4.12708 55.7017 4.12708C53.4244 4.12708 51.5723 5.9792 51.5723 8.25654Z" fill="black"/>
<path d="M16.5156 10.3212H41.2903V12.386H16.5156V10.3212Z" fill="black"/>
<path d="M16.5156 14.4508H22.7098V16.5155H16.5156V14.4508Z" fill="black"/>
<path d="M28.2815 40.7114C28.4305 39.3327 27.9549 37.9804 26.973 37.0006C25.9932 36.0208 24.6386 35.5408 23.2643 35.6942L23.2161 35.6986C22.392 35.7753 21.5788 35.4334 21.0527 34.778C20.1848 33.6996 18.8916 33.0793 17.5063 33.0793C16.121 33.0793 14.8278 33.6996 13.9577 34.778C13.4229 35.4422 12.5965 35.7885 11.7483 35.692C10.374 35.543 9.01722 36.0186 8.03745 37.0006C7.05769 37.9804 6.58206 39.3327 6.7311 40.7092L6.73549 40.7574C6.81001 41.5903 6.47027 42.397 5.8149 42.9208C4.73651 43.7888 4.11621 45.082 4.11621 46.4672C4.11621 47.8525 4.73651 49.1457 5.8149 50.0159C6.47904 50.5507 6.82316 51.377 6.72891 52.2253C6.57986 53.604 7.0555 54.9563 8.03745 55.9361C9.01722 56.9159 10.3696 57.3915 11.7461 57.2424L11.7943 57.2381C12.6206 57.1592 13.4316 57.5033 13.9577 58.1586C14.8257 59.2392 16.1189 59.8573 17.5063 59.8573C18.8937 59.8573 20.1848 59.237 21.0549 58.1586C21.5897 57.4945 22.4183 57.1504 23.2643 57.2446C24.6408 57.3937 25.9954 56.918 26.9751 55.9361C27.9549 54.9563 28.4305 53.604 28.2815 52.2275L28.2771 52.1792C28.2026 51.3463 28.5423 50.5397 29.1977 50.0159C30.2783 49.1479 30.8964 47.8547 30.8964 46.4672C30.8964 45.0798 30.2761 43.7888 29.1977 42.9186C28.5314 42.386 28.1894 41.5619 28.2815 40.7114ZM28.5467 49.2137L27.9001 48.4092C26.6836 49.3868 26.059 50.897 26.2277 52.4466L26.2321 52.4949C26.2979 53.2313 26.037 53.9525 25.5154 54.4763C24.9784 55.0111 24.2397 55.2741 23.4857 55.1909C21.9426 55.0265 20.4259 55.6468 19.4461 56.8633C18.497 58.0447 16.5178 58.0447 15.5687 56.8633C14.6941 55.7783 13.3987 55.1624 12.0266 55.1624C11.8623 55.1624 11.6979 55.1711 11.5313 55.1887L11.4831 55.1931C10.7422 55.2632 10.0255 54.998 9.50162 54.4763C8.9668 53.9393 8.70597 53.2006 8.78707 52.4466C8.95584 50.897 8.33116 49.3868 7.11468 48.407C6.52288 47.9314 6.18752 47.2256 6.18533 46.4694C6.18533 45.7132 6.52507 45.0053 7.11468 44.5296C8.33116 43.5521 8.95584 42.0419 8.78707 40.4922L8.78269 40.444C8.71693 39.7075 8.97776 38.9864 9.49943 38.4626C10.0342 37.9277 10.7707 37.6647 11.5291 37.748C13.0744 37.9168 14.5889 37.2921 15.5687 36.0756C16.5178 34.8942 18.497 34.8942 19.4461 36.0756C20.4237 37.2899 21.9295 37.9234 23.4835 37.748L23.5317 37.7436C24.2748 37.6757 24.9915 37.9387 25.5132 38.4604C26.048 38.9974 26.3088 39.736 26.2277 40.49C26.059 42.0397 26.6836 43.5499 27.9001 44.5296C28.4919 45.0053 28.8295 45.7111 28.8295 46.4672C28.8295 47.2234 28.4897 47.9314 27.9001 48.4049L28.5467 49.2137Z" fill="black"/>
<path d="M18.5805 42.3224H15.4834V50.5814H17.5481V48.5166H18.5169C20.0973 48.5166 21.5505 47.2344 21.6688 45.6585C21.8069 43.8436 20.3669 42.3224 18.5805 42.3224ZM18.5476 46.4519H17.5481V44.3872H18.5805C19.2008 44.3872 19.694 44.9351 19.6019 45.5752C19.5274 46.0859 19.0649 46.4519 18.5476 46.4519Z" fill="black"/>
<path d="M4.12939 22.7075H18.5825V24.7723H4.12939V22.7075Z" fill="black"/>
<path d="M8.25879 26.8369H18.5825V28.9016H8.25879V26.8369Z" fill="black"/>
<path d="M4.12939 26.8369H6.19413V28.9016H4.12939V26.8369Z" fill="black"/>
<path d="M33.0337 57.8058H47.4868V59.8705H33.0337V57.8058Z" fill="black"/>
<path d="M45.4219 53.6763H47.4866V55.7411H45.4219V53.6763Z" fill="black"/>
<path d="M33.0337 53.6763H43.3574V55.7411H33.0337V53.6763Z" fill="black"/>
<path d="M33.0337 49.5468H47.4868V51.6116H33.0337V49.5468Z" fill="black"/>
<path d="M33.0337 45.4196H47.4868V47.4843H33.0337V45.4196Z" fill="black"/>
</svg>
