<svg width="27" height="39" viewBox="0 0 27 39" fill="none" xmlns="http://www.w3.org/2000/svg">
<path d="M25.5595 10.1204C25.4243 9.62055 25.1496 9.08798 24.9464 8.62171C22.5149 2.8604 17.202 0.795654 12.9122 0.795654C7.16941 0.795654 0.844437 4.59222 0 12.4178V14.0167C0 14.0834 0.023324 14.6828 0.0564548 14.9826C0.529827 18.7121 3.51469 22.6757 5.7439 26.4052C8.14221 30.401 10.6308 34.3317 13.0964 38.2607C14.6167 35.6967 16.1315 33.099 17.6172 30.6013C18.0221 29.8683 18.4921 29.1358 18.8974 28.4361C19.1676 27.9703 19.6837 27.5045 19.9195 27.071C22.3178 22.742 26.178 18.3795 26.178 14.0833V12.3184C26.1781 11.8526 25.5925 10.2208 25.5595 10.1204ZM13.0173 18.1464C11.3292 18.1464 9.48149 17.3142 8.56947 15.0159C8.43359 14.6501 8.44454 13.9169 8.44454 13.8498V12.8174C8.44454 9.88752 10.9678 8.55516 13.1629 8.55516C15.8653 8.55516 17.9554 10.6868 17.9554 13.3512C17.9554 16.0155 15.7197 18.1464 13.0173 18.1464Z" fill="#D51212"/>
</svg>
