<svg width="75" height="72" viewBox="0 0 75 72" fill="none" xmlns="http://www.w3.org/2000/svg">
<path d="M53.4702 70.5472C64.3124 70.5472 73.1017 61.7578 73.1017 50.9157C73.1017 40.0735 64.3124 31.2842 53.4702 31.2842C42.6281 31.2842 33.8387 40.0735 33.8387 50.9157C33.8387 61.7578 42.6281 70.5472 53.4702 70.5472Z" fill="#F9BA48"/>
<path d="M59.4845 6.77344H2.51917V15.3977H59.4845V6.77344Z" fill="#F9BA48"/>
<path d="M20.6755 2.23438H16.5903V10.4047H20.6755V2.23438Z" fill="white"/>
<path d="M45.8673 2.23438H41.1013V10.4047H45.8673V2.23438Z" fill="white"/>
<path d="M53.3795 29.832C41.7368 29.832 32.2955 39.2733 32.2955 50.916C32.2955 62.5587 41.7368 72 53.3795 72C65.0222 72 74.4635 62.5587 74.4635 50.916C74.4408 39.2733 65.0222 29.832 53.3795 29.832ZM53.3795 69.5262C43.0985 69.5262 34.7693 61.197 34.7693 50.916C34.7693 40.635 43.0985 32.3058 53.3795 32.3058C63.6605 32.3058 71.9897 40.635 71.9897 50.916C71.967 61.1743 63.6378 69.5035 53.3795 69.5262Z" fill="black"/>
<path d="M54.605 47.3527V39.6816H52.1312V47.3527C51.0872 47.7385 50.2475 48.5555 49.8844 49.5995H44.6871V52.0733H49.8844C50.4518 53.7074 52.0858 54.7287 53.8107 54.5244C55.5355 54.3201 56.8972 52.9811 57.0788 51.2563C57.2604 49.5541 56.2391 47.9201 54.605 47.3527ZM53.3795 52.1414C52.6986 52.1414 52.1312 51.5967 52.1312 50.8931C52.1312 50.2123 52.6759 49.6449 53.3795 49.6449C54.083 49.6449 54.6277 50.1896 54.6277 50.8931C54.605 51.5967 54.0603 52.1414 53.3795 52.1414Z" fill="black"/>
<path d="M37.2432 49.5996H39.717V52.0734H37.2432V49.5996Z" fill="black"/>
<path d="M52.1312 64.4878H54.605V66.9616H52.1312V64.4878Z" fill="black"/>
<path d="M67.0194 49.5996H69.4932V52.0734H67.0194V49.5996Z" fill="black"/>
<path d="M52.1312 34.7114H54.605V37.1852H52.1312V34.7114Z" fill="black"/>
<path d="M2.49649 53.3216V17.3494H59.5526V28.5155H62.0264V11.1536C62.0264 7.72658 59.2576 4.95775 55.8306 4.95775H47.1383V3.80028C47.1383 1.89387 45.595 0.146333 43.6886 0.0101605C41.5098 -0.148707 39.6942 1.57614 39.6942 3.7322V4.98045H22.3322V3.82298C22.3322 1.91657 20.789 0.169029 18.8825 0.0328572C16.7038 -0.12601 14.8882 1.59884 14.8882 3.75489V5.00314H6.19583C2.76883 5.00314 0 7.77197 0 11.199V53.3669C0 56.7939 2.76883 59.5628 6.19583 59.5628H31.0019V57.089H6.21853C4.17595 57.0436 2.49649 55.3868 2.49649 53.3216ZM42.1907 3.77759C42.1907 3.02864 42.8488 2.43856 43.6205 2.55204C44.2333 2.64282 44.6872 3.18751 44.6872 3.82298V8.70248C44.6872 9.31526 44.256 9.88264 43.6205 9.97343C42.8488 10.0869 42.1907 9.49682 42.1907 8.74787V3.77759ZM17.3846 3.77759C17.3846 3.02864 18.0428 2.43856 18.8145 2.55204C19.4272 2.64282 19.8811 3.18751 19.8811 3.82298V8.70248C19.8811 9.31526 19.4499 9.88264 18.8145 9.97343C18.0428 10.0869 17.3846 9.49682 17.3846 8.74787V3.77759ZM6.21853 7.43154H14.9109V8.58901C14.9109 10.4954 16.4541 12.243 18.3605 12.3791C20.5393 12.538 22.3549 10.8132 22.3549 8.65709V7.40885H39.7169V8.56631C39.7169 10.4727 41.2602 12.2203 43.1666 12.3564C45.3453 12.5153 47.161 10.7905 47.161 8.6344V7.38615H55.8533C57.9186 7.38615 59.5753 9.04292 59.5753 11.1082V14.8302H2.49649V11.1082C2.49649 9.08831 4.17595 7.43154 6.21853 7.43154Z" fill="black"/>
<path d="M14.9109 24.7935H9.94059C8.57887 24.7935 7.4668 25.9055 7.4668 27.2673V32.2375C7.4668 33.5993 8.57887 34.7113 9.94059 34.7113H14.9109C16.2726 34.7113 17.3847 33.5993 17.3847 32.2375V27.2673C17.3847 25.9055 16.2726 24.7935 14.9109 24.7935ZM9.94059 32.2375V27.2673H14.9109V32.2375H9.94059Z" fill="black"/>
<path d="M27.3252 24.7935H22.3549C20.9932 24.7935 19.8811 25.9055 19.8811 27.2673V32.2375C19.8811 33.5993 20.9932 34.7113 22.3549 34.7113H27.3252C28.6869 34.7113 29.799 33.5993 29.799 32.2375V27.2673C29.799 25.9055 28.6869 24.7935 27.3252 24.7935ZM22.3549 32.2375V27.2673H27.3252V32.2375H22.3549Z" fill="black"/>
<path d="M42.1907 30.9893V27.2673C42.1907 25.9055 41.0786 24.7935 39.7169 24.7935H34.7466C33.3849 24.7935 32.2728 25.9055 32.2728 27.2673V32.2375C32.2728 33.5993 33.3849 34.7113 34.7466 34.7113H37.2431V32.2375H34.7466V27.2673H39.7169V30.9893H42.1907Z" fill="black"/>
<path d="M14.9109 39.6816H9.94059C8.57887 39.6816 7.4668 40.7937 7.4668 42.1554V47.1257C7.4668 48.4874 8.57887 49.5995 9.94059 49.5995H14.9109C16.2726 49.5995 17.3847 48.4874 17.3847 47.1257V42.1554C17.3847 40.7937 16.2726 39.6816 14.9109 39.6816ZM9.94059 47.1257V42.1554H14.9109V47.1257H9.94059Z" fill="black"/>
<path d="M27.3252 39.6816H22.3549C20.9932 39.6816 19.8811 40.7937 19.8811 42.1554V47.1257C19.8811 48.4874 20.9932 49.5995 22.3549 49.5995H27.3252C28.6869 49.5995 29.799 48.4874 29.799 47.1257V42.1554C29.799 40.7937 28.6869 39.6816 27.3252 39.6816ZM22.3549 47.1257V42.1554H27.3252V47.1257H22.3549Z" fill="black"/>
<path d="M54.605 28.5155V27.2673C54.605 25.9055 53.4929 24.7935 52.1312 24.7935H47.1609C45.7992 24.7935 44.6871 25.9055 44.6871 27.2673V28.5155H47.1609V27.2673H52.1312V28.5155H54.605Z" fill="black"/>
</svg>
