<svg width="66" height="73" viewBox="0 0 66 73" fill="none" xmlns="http://www.w3.org/2000/svg">
<path d="M24.595 15.0446C24.595 11.7541 23.3123 8.65879 20.9978 6.3443C18.6833 4.0298 15.588 2.74707 12.2975 2.74707C9.00701 2.74707 5.91172 4.0298 3.59722 6.3443C1.28273 8.65879 0 11.7541 0 15.0446C0 17.5543 0.752909 19.9524 2.17507 22.0159C2.3145 22.239 2.62123 22.2948 2.84432 22.1275C3.0674 21.9881 3.12318 21.6813 2.95586 21.4582C1.64524 19.562 0.948105 17.3312 0.948105 15.0446C0.948105 8.93765 5.77229 3.97403 11.8234 3.72306V6.90201C7.47331 7.15298 4.01551 10.8339 4.12705 15.2677C4.23859 19.6457 7.83582 23.1871 12.2138 23.2429C14.3331 23.2708 16.2572 22.49 17.7352 21.1794L19.966 23.4102C17.9304 25.2785 15.2534 26.394 12.2975 26.394C9.983 26.394 7.75216 25.6968 5.85595 24.3862C5.63287 24.2468 5.32613 24.3025 5.1867 24.4977C5.04727 24.7208 5.10304 25.0276 5.29824 25.167C7.36177 26.5892 9.75992 27.3421 12.2696 27.3421C15.5601 27.3421 18.6554 26.0593 20.9699 23.7448C23.3123 21.4303 24.595 18.3351 24.595 15.0446ZM20.6353 22.7131L18.4044 20.4822C19.5756 19.1437 20.3564 17.4427 20.4679 15.5465H23.6469C23.5075 18.2793 22.392 20.789 20.6353 22.7131ZM23.619 14.5705H20.4401C20.1891 10.4435 16.8986 7.12509 12.7716 6.90201V3.72306C18.6554 3.94615 23.368 8.68668 23.619 14.5705ZM5.10304 15.0446C5.10304 11.0569 8.33776 7.82223 12.3254 7.82223C16.313 7.82223 19.5477 11.0569 19.5477 15.0446C19.5477 19.0322 16.313 22.2669 12.3254 22.2669C8.33776 22.239 5.10304 19.0043 5.10304 15.0446Z" fill="black"/>
<path d="M16.3409 14.1802H14.1379V11.5868C14.1379 11.308 13.9148 11.1128 13.6639 11.1128H10.959C10.6801 11.1128 10.4849 11.3359 10.4849 11.5868V14.1802H8.28197C8.00312 14.1802 7.80792 14.4033 7.80792 14.6543V18.5024C7.80792 18.7813 8.03101 18.9765 8.28197 18.9765H16.3688C16.6476 18.9765 16.8428 18.7534 16.8428 18.5024V14.6543C16.8149 14.4033 16.5919 14.1802 16.3409 14.1802ZM8.72814 15.1562H10.457V18.0284H8.72814V15.1562ZM11.433 14.6543V12.0609H13.1619V18.0284H11.433V14.6543ZM15.8389 18.0284H14.11V15.1562H15.8389V18.0284Z" fill="black"/>
<path d="M3.93185 22.9082C3.79242 22.9082 3.68088 22.964 3.59722 23.0476C3.51357 23.1313 3.45779 23.2707 3.45779 23.3823C3.45779 23.5217 3.51357 23.6332 3.59722 23.7169C3.68088 23.8005 3.82031 23.8563 3.93185 23.8563C4.07128 23.8563 4.18282 23.8005 4.26648 23.7169C4.35013 23.6332 4.4059 23.4938 4.4059 23.3823C4.4059 23.2428 4.35013 23.1313 4.26648 23.0476C4.18282 22.964 4.07128 22.9082 3.93185 22.9082Z" fill="black"/>
<path d="M38.482 59.3828H33.4626V71.0947H38.482V59.3828Z" fill="#F9BA48"/>
<path d="M37.9242 54.0845H34.2991V57.7096H37.9242V54.0845Z" fill="#F9BA48"/>
<path d="M25.0969 6.3999H21.4718V19.7849H25.0969V6.3999Z" fill="#F9BA48"/>
<path d="M27.8855 4.72656H24.8181V17.275H27.8855V4.72656Z" fill="#F9BA48"/>
<path d="M51.0304 9.46729H45.4533V13.6501H51.0304V9.46729Z" fill="#F9BA48"/>
<path d="M50.7516 12.2559H47.963V20.0638H50.7516V12.2559Z" fill="#F9BA48"/>
<path d="M39.1791 13.6504C45.7244 13.6504 51.0304 11.0286 51.0304 7.79443C51.0304 4.56028 45.7244 1.93848 39.1791 1.93848C32.6338 1.93848 27.3278 4.56028 27.3278 7.79443C27.3278 11.0286 32.6338 13.6504 39.1791 13.6504Z" fill="#F9BA48"/>
<path d="M53.5959 45.1888L44.6447 44.408C44.1148 42.7906 43.7244 41.0896 43.5293 39.3886C44.9514 37.9664 46.1226 36.3212 46.9592 34.4807C47.4332 33.4769 47.8236 32.4451 48.1304 31.3854C49.7477 30.995 53.0103 29.5171 53.0103 24.191C53.1219 22.7688 52.7315 21.3746 51.9228 20.2313C52.4805 17.6379 53.9863 8.63089 49.9987 3.52785C48.0746 1.15758 45.1466 -0.15303 42.0792 0.0142826C31.427 0.0142826 27.9692 2.32877 26.8537 3.66728C21.7228 3.89036 19.0458 6.81834 19.0458 12.1445C19.0458 14.8772 19.4083 17.61 20.1054 20.2591C19.3247 21.4024 18.9621 22.7967 19.0458 24.191C19.0458 29.5171 22.2805 30.995 23.8979 31.3854C24.2046 32.4451 24.595 33.4769 25.0412 34.4807C25.8777 36.3212 27.0489 38.0222 28.499 39.4165C28.2759 41.1175 27.9134 42.7627 27.3836 44.408L18.4044 45.1888C12.1302 45.7186 7.22236 50.8216 6.91562 57.0959C6.60888 63.3701 10.959 68.9472 17.1496 70.1184C17.9583 71.7357 19.6314 72.7675 21.4439 72.7954H50.5564C52.3689 72.7954 54.0421 71.7636 54.8508 70.1184C61.0413 68.9472 65.3915 63.398 65.0847 57.0959C64.778 50.7937 59.8701 45.7186 53.5959 45.1888ZM43.334 54.8929L41.1311 56.566L38.0358 52.69C39.8763 51.8255 41.6609 50.7937 43.334 49.6504V54.8929ZM36.0002 57.4026L34.7174 55.7016L36.0002 54.1121L37.2829 55.7016L36.0002 57.4026ZM30.8971 56.5381L28.6942 54.865V49.6225C30.3952 50.7659 32.152 51.7976 33.9924 52.6621L30.8971 56.5381ZM28.6942 57.9324L30.3952 59.2152C30.925 59.6055 31.65 59.5219 32.0683 58.9921L33.128 57.6814L33.5184 58.2113L31.3154 70.3693H28.6942V57.9324ZM35.7213 59.8007C35.805 59.8286 35.8886 59.8286 36.0002 59.8286C36.0838 59.8286 36.1675 59.8007 36.279 59.8007L38.2031 70.3415H33.8251L35.7213 59.8007ZM38.482 58.2113L38.8724 57.6814L39.932 58.9921C40.3503 59.494 41.0753 59.6055 41.6052 59.2152L43.3062 57.9324V70.3693H40.6849L38.482 58.2113ZM48.716 28.4575C49.0506 26.3661 49.2179 24.2468 49.2458 22.1275C49.4689 21.9601 49.7477 21.8486 50.0545 21.8207C50.0545 21.8207 50.5006 22.2111 50.5006 24.1631C50.5006 26.5891 49.6641 27.8161 48.716 28.4575ZM27.5509 6.06543C28.0528 6.09332 28.499 5.78657 28.6663 5.34041C28.6942 5.31252 30.3115 2.44032 42.0792 2.44032C44.3658 2.27301 46.5967 3.22111 48.0746 5.00578C51.2535 9.07706 50.0823 16.8571 49.5804 19.4505C49.4967 19.4783 49.4131 19.4783 49.3294 19.5062C49.3294 17.4148 48.9948 15.3234 48.3256 13.3157C48.3256 13.2878 48.2977 13.2599 48.2977 13.232C48.2698 13.1762 48.2419 13.1205 48.1861 13.0647C48.1582 12.981 48.1025 12.9253 48.0467 12.8695C47.9909 12.8137 47.9352 12.7579 47.8794 12.7301C47.7678 12.6185 47.6284 12.5349 47.489 12.5349C47.4053 12.507 47.3496 12.4791 47.2659 12.4791C47.1822 12.4791 47.0986 12.4791 47.0149 12.507C46.9592 12.507 46.8755 12.507 46.8197 12.5349C37.1714 15.2398 29.6144 8.93763 29.5307 8.85398C29.1403 8.51935 28.5826 8.46358 28.1365 8.74243C27.6903 8.9934 27.4672 9.52323 27.5509 10.0252C28.0249 13.4272 26.3239 16.7735 23.2844 18.4187C23.2007 18.4745 23.1171 18.5302 23.0334 18.6139C22.8382 18.837 22.6988 19.0879 22.6988 19.3947C22.6988 19.4226 22.6988 19.4226 22.6988 19.4505C22.6988 19.4783 22.6988 19.4783 22.6988 19.5062V19.562C22.5873 19.5341 22.5036 19.5341 22.3921 19.5062C21.7786 17.1081 21.4718 14.6542 21.4718 12.2002C21.4997 7.93376 23.368 6.06543 27.5509 6.06543ZM21.4439 24.1631C21.4439 22.2111 21.8901 21.8207 21.8901 21.8207C22.169 21.8486 22.4757 21.9601 22.6988 22.1275C22.7267 24.2468 22.894 26.3661 23.2007 28.4575C22.2805 27.8161 21.4439 26.5891 21.4439 24.1631ZM27.272 33.449C26.7422 32.3335 26.3239 31.1624 26.0172 29.9354C25.3758 27.1468 25.097 24.3304 25.1248 21.4582C25.1248 21.0399 25.1248 20.5938 25.1248 20.1476C25.1527 20.0918 25.1806 20.0082 25.2364 19.9524C27.9134 18.1677 29.6702 15.2676 30.0327 12.0608C34.8848 15.1561 40.7407 16.2157 46.3736 15.0724C46.7918 16.7456 46.987 18.4466 46.9592 20.1476C46.9592 20.5938 46.9592 21.0399 46.9592 21.4861C47.0149 24.3304 46.7082 27.1747 46.0668 29.9354C45.7601 31.1345 45.3418 32.3057 44.812 33.449C42.7485 37.827 39.7926 40.0299 36.0559 40.0299C32.2635 40.0299 29.3077 37.7991 27.272 33.449ZM36.0002 42.456C37.8685 42.456 39.6811 41.9819 41.2984 41.0338C41.5773 42.707 41.9956 44.3243 42.5812 45.9138V45.9417C42.6927 46.2763 42.8321 46.583 42.9437 46.8898C40.7686 48.4792 38.4262 49.7899 35.9723 50.8495C33.5184 49.7899 31.176 48.4514 29.0009 46.8898C29.1125 46.6109 29.2519 46.3042 29.3634 45.9696C29.949 44.3801 30.3952 42.7348 30.674 41.0617C32.3193 41.9819 34.1318 42.456 36.0002 42.456ZM19.0179 67.9154V60.6652C19.0179 60.0517 18.5996 59.5219 17.9862 59.4382C17.2332 59.3267 16.5919 59.9123 16.5919 60.6373V67.4693C11.935 66.075 8.89548 61.5575 9.39742 56.6776C9.89936 51.8255 13.7476 48.0052 18.5996 47.5869L26.3239 46.9177C26.296 47.0292 26.2681 47.1129 26.2681 47.2244C26.2681 47.2523 26.2681 47.2523 26.2681 47.2802V70.3136H21.4439C20.1054 70.3415 19.0179 69.2539 19.0179 67.9154ZM55.4085 67.4971V60.6931C55.4085 60.0796 54.9902 59.5498 54.3767 59.4661C53.6238 59.3546 52.9824 59.9402 52.9824 60.6652V67.9433C52.9824 69.2818 51.8949 70.3693 50.5564 70.3693H45.7322V47.3359C45.7322 47.3081 45.7322 47.3081 45.7322 47.2802C45.7322 47.1686 45.7043 47.0571 45.6764 46.9734L53.4007 47.6427C58.2528 48.061 62.1289 51.8813 62.6029 56.7333C63.1049 61.5854 60.0653 66.1029 55.4085 67.4971Z" fill="black"/>
<path d="M21.6391 55.7015L23.7584 51.4908C23.9536 51.1004 23.9258 50.6542 23.6748 50.2917C23.4238 49.9292 23.0334 49.734 22.5872 49.7619C22.1411 49.7898 21.7786 50.0408 21.5834 50.4312L19.1573 55.2832C18.9621 55.6736 18.99 56.1477 19.241 56.5102L21.667 60.1353C22.0295 60.693 22.7824 60.8324 23.3402 60.4699C23.8979 60.1074 24.0373 59.3545 23.6748 58.7968L21.6391 55.7015Z" fill="black"/>
<path d="M50.4169 50.4033C50.2217 50.0129 49.8313 49.762 49.4131 49.7341C48.9948 49.7062 48.5765 49.9014 48.3255 50.2639C48.0746 50.6264 48.0467 51.1005 48.2419 51.463L50.3612 55.6737L48.3255 58.7132C48.0746 59.0757 48.0467 59.5498 48.2419 59.9402C48.4371 60.3306 48.8275 60.5815 49.2457 60.6094C49.6919 60.6373 50.1102 60.4142 50.3333 60.0517L52.7593 56.4266C53.0103 56.0641 53.0382 55.59 52.843 55.1996L50.4169 50.4033Z" fill="black"/>
</svg>
