<svg width="76" height="72" viewBox="0 0 76 72" fill="none" xmlns="http://www.w3.org/2000/svg">
<path d="M10.2171 32.1383V40.8305C10.2171 41.349 10.6441 41.7759 11.1626 41.7759H19.8547C20.3732 41.7759 20.8002 41.349 20.8002 40.8305V32.1383C20.8002 31.6199 20.3732 31.1929 19.8547 31.1929H11.1626C10.6441 31.1929 10.2171 31.6199 10.2171 32.1383ZM18.9398 39.885H12.108V33.0533H18.9398V39.885Z" fill="#F9BA48"/>
<path d="M40.5634 31.5586H24.1856C23.6671 31.5586 23.2096 31.9551 23.2096 32.4736C23.2096 33.0225 23.6366 33.4495 24.1551 33.4495H40.5329C41.0209 33.4495 41.4479 33.114 41.5089 32.6261C41.5699 32.0466 41.1124 31.5586 40.5634 31.5586Z" fill="#F9BA48"/>
<path d="M40.5024 35.7373H24.1856C23.6671 35.7373 23.2096 36.1338 23.2096 36.6523C23.2096 37.2012 23.6366 37.6282 24.1551 37.6282H40.5634C41.0819 37.6282 41.5089 37.2012 41.5089 36.6523C41.4784 36.1338 41.0209 35.7373 40.5024 35.7373Z" fill="#F9BA48"/>
<path d="M24.1245 39.8848C23.6061 39.8848 23.1791 40.3118 23.1791 40.8607C23.1791 41.3792 23.6366 41.7757 24.155 41.7757H36.69C37.2085 41.7757 37.666 41.3792 37.666 40.8607C37.666 40.3118 37.239 39.8848 36.7205 39.8848H24.1245Z" fill="#F9BA48"/>
<path d="M49.6825 14.3877C50.9024 14.3877 51.9089 13.3813 51.9089 12.1613V8.31847C51.9089 7.76949 51.4514 7.31201 50.9024 7.31201H13.328C13.206 7.31201 13.084 7.37301 12.9925 7.434C12.23 8.25747 12.8095 9.20293 13.6025 9.20293H49.6825C49.8655 9.20293 49.9875 9.35543 49.9875 9.50792V12.0393C49.9875 12.2223 49.835 12.3443 49.6825 12.3443H2.22641C2.04342 12.3443 1.92142 12.1918 1.92142 12.0393V9.50792C1.92142 9.32493 2.07392 9.20293 2.22641 9.20293H9.08863C9.60711 9.20293 10.0646 8.80645 10.0646 8.28797C10.0646 7.73899 9.63761 7.31201 9.11913 7.31201H2.25691C1.03696 7.31201 0.0305006 8.31847 0.0305006 9.53842V12.1613C0.0305006 13.3813 1.03696 14.3877 2.25691 14.3877H2.80589V24.6963C2.80589 25.1843 3.14137 25.6113 3.62935 25.6723C4.20883 25.7333 4.69681 25.2758 4.69681 24.7268V14.3877H47.1206V44.7035H4.66631V29.2101C4.66631 28.7221 4.33083 28.2952 3.84285 28.2342C3.26337 28.1732 2.77539 28.6306 2.77539 29.1796V44.7035H2.22641C1.00646 44.7035 0 45.71 0 46.9299V49.5528C0 50.7728 1.00646 51.7792 2.22641 51.7792H16.6828L8.17367 70.658C7.99068 71.0849 8.14317 71.6339 8.60065 71.8779C8.75315 71.9694 8.90564 71.9999 9.05813 71.9999H14.1819C14.5479 71.9999 14.9139 71.7864 15.0664 71.4204L22.3556 55.2866V71.0239C22.3556 71.5424 22.7826 71.9694 23.3011 71.9694H28.4554C28.9738 71.9694 29.4008 71.5424 29.4008 71.0239V55.2866L36.69 71.4204C36.8425 71.7559 37.178 71.9999 37.5745 71.9999H42.7288C43.1253 71.9999 43.5217 71.7559 43.6437 71.3594C43.7352 71.0849 43.7047 70.8104 43.5827 70.597L35.0736 51.8097H42.2408C42.6373 51.8097 43.0033 51.5657 43.1558 51.1997C43.4607 50.4678 42.9118 49.7663 42.2408 49.7663H2.22641C2.04342 49.7663 1.92142 49.6138 1.92142 49.4613V46.9299C1.92142 46.7469 2.07392 46.6249 2.22641 46.6249H49.713C49.896 46.6249 50.018 46.7774 50.018 46.9299V49.4613C50.018 49.6443 49.8655 49.7663 49.713 49.7663H46.6631C46.2666 49.7663 45.9007 49.9798 45.7482 50.3458C45.4432 51.0777 45.9921 51.7792 46.6631 51.7792H49.6825C50.9024 51.7792 51.9089 50.7728 51.9089 49.5528V46.9299C51.9089 45.71 50.9024 44.7035 49.6825 44.7035H49.1335V14.3877H49.6825ZM32.9387 51.7792L41.1123 70.0785H38.1235L29.9498 51.7792H32.9387ZM27.5404 51.7792V70.0785H24.3685V51.7792H27.5404ZM21.8676 51.7792L13.6939 70.0785H10.6746L18.8482 51.7792H21.8676Z" fill="black"/>
<path d="M23.1485 20.8843C22.8741 20.6708 22.5081 20.6403 22.2031 20.7623L7.53318 27.0145C7.04519 27.228 6.8317 27.777 7.0147 28.265C7.16719 28.631 7.53317 28.8445 7.89916 28.8445C8.02115 28.8445 8.14315 28.814 8.26515 28.753L22.4166 22.7142L28.4858 27.228C28.7603 27.4415 29.1568 27.472 29.4618 27.3195L41.4173 21.6163L40.7768 23.7512C40.6243 24.2696 40.8988 24.7881 41.4173 24.9406C41.5088 24.9711 41.6003 24.9711 41.6918 24.9711C42.0883 24.9711 42.4848 24.6966 42.6068 24.3001L43.8877 20.0913C44.0402 19.6033 43.7657 19.0849 43.2777 18.9019L39.3129 17.4989C38.8249 17.3159 38.2759 17.5904 38.0929 18.0784C37.9099 18.5664 38.1844 19.1154 38.6724 19.2983L40.4719 19.9388L29.1568 25.3371L23.1485 20.8843Z" fill="#F9BA48"/>
<path d="M54.2878 40.7391C65.287 40.7391 74.2035 31.8225 74.2035 20.8234C74.2035 9.82428 65.287 0.907715 54.2878 0.907715C43.2887 0.907715 34.3721 9.82428 34.3721 20.8234C34.3721 31.8225 43.2887 40.7391 54.2878 40.7391Z" fill="white"/>
<path d="M57.3377 40.373H51.2075V46.5033H57.3377V40.373Z" fill="#F9BA48"/>
<path d="M54.2878 35.7672C62.5413 35.7672 69.2322 29.0764 69.2322 20.8228C69.2322 12.5693 62.5413 5.87842 54.2878 5.87842C46.0342 5.87842 39.3434 12.5693 39.3434 20.8228C39.3434 29.0764 46.0342 35.7672 54.2878 35.7672Z" fill="#F9BA48"/>
<path d="M58.4662 60.9594V41.2572C62.492 40.4338 66.1213 38.4818 69.0492 35.554C77.1619 27.4413 77.1619 14.2048 69.0187 6.09215C60.8755 -2.05102 47.6391 -2.02052 39.5264 6.12265C31.3832 14.2658 31.4137 27.5023 39.5569 35.615C42.4848 38.5428 46.1141 40.4948 50.14 41.2877V46.7165V60.9594C50.14 62.0879 50.567 63.1248 51.3599 63.9178C52.1529 64.7108 53.1899 65.1378 54.3183 65.1378C55.4468 65.1378 56.4837 64.7108 57.2767 63.9178C58.0392 63.1248 58.4966 62.0879 58.4662 60.9594ZM51.3294 39.3968C47.3951 38.7868 43.8267 36.9569 41.0209 34.151C33.7011 26.8313 33.7011 14.9368 40.9904 7.58659C48.3101 0.266883 60.2046 0.266886 67.5548 7.55609C74.905 14.8453 74.8745 26.7703 67.5853 34.1205C64.7794 36.9264 61.211 38.7563 57.2767 39.3968C55.2943 39.7018 53.2814 39.7018 51.3294 39.3968ZM52.2139 41.5927C53.6168 41.7452 54.9893 41.7147 56.3922 41.5927V45.771C55.0198 45.893 53.6168 45.893 52.2139 45.771V41.5927ZM54.3183 63.0638C53.7693 63.0638 53.2509 62.8503 52.8544 62.4539C52.4579 62.0574 52.2444 61.5389 52.2444 60.9899V47.8755C53.6473 47.967 55.0198 47.967 56.4227 47.8755V60.9899C56.4227 61.5389 56.2092 62.0574 55.8128 62.4539C55.3858 62.8503 54.8673 63.0638 54.3183 63.0638Z" fill="black"/>
<path d="M66.3043 8.8674C59.7776 2.37116 49.1945 2.37116 42.6983 8.89789C36.202 15.4246 36.202 26.0077 42.7288 32.5039C49.2555 39.0002 59.8386 39.0002 66.3348 32.4734C72.831 25.9467 72.8005 15.3636 66.3043 8.8674ZM44.1622 31.0095C38.4589 25.3062 38.4589 16.0651 44.1622 10.3618C49.8655 4.65857 59.1066 4.65857 64.8099 10.3618C70.5131 16.0651 70.5131 25.3062 64.8099 31.0095C59.1371 36.6823 49.8655 36.6823 44.1622 31.0095Z" fill="black"/>
<path d="M55.1723 20.0298H53.8303C53.0069 20.0298 52.3664 19.3589 52.3969 18.5659C52.4579 17.8339 53.0373 17.2545 53.7693 17.2545H56.4532C56.7887 17.2545 57.0632 17.0105 57.0937 16.7055C57.1242 16.3395 56.8497 16.004 56.4532 16.004H55.0808V14.6316C55.0808 14.2961 54.8368 14.0216 54.5318 13.9911C54.1658 13.9606 53.8303 14.2351 53.8303 14.6316V16.0345C52.3664 16.0345 51.1464 17.1935 51.1464 18.6574C51.1159 20.1518 52.3359 21.3413 53.7998 21.3413H55.1113C55.9347 21.3413 56.5752 22.0123 56.5447 22.8052C56.4837 23.5372 55.9042 24.1167 55.1723 24.1167H52.4579C52.1224 24.1167 51.8479 24.3607 51.8174 24.6656C51.7869 25.0316 52.0614 25.3671 52.4579 25.3671H53.8608V26.7396C53.8608 27.0751 54.1048 27.3495 54.4098 27.38C54.7758 27.4105 55.1113 27.1361 55.1113 26.7396V25.3366C56.5752 25.3366 57.7952 24.1777 57.7952 22.7137C57.8562 21.2498 56.6667 20.0298 55.1723 20.0298Z" fill="black"/>
</svg>
