<svg width="56" height="56" viewBox="0 0 56 56" fill="none" xmlns="http://www.w3.org/2000/svg">
<path d="M11.7419 11.7421C10.7457 11.7421 9.93548 10.9319 9.93548 9.93566C9.93548 8.9394 10.7457 8.12921 11.7419 8.12921C12.7382 8.12921 13.5484 8.9394 13.5484 9.93566H15.3548C15.3548 7.94314 13.7344 6.32275 11.7419 6.32275C9.74942 6.32275 8.12903 7.94314 8.12903 9.93566C8.12903 11.9282 9.74942 13.5486 11.7419 13.5486C12.7382 13.5486 13.5484 14.3588 13.5484 15.355C13.5484 16.3513 12.7382 17.1615 11.7419 17.1615C10.7457 17.1615 9.93548 16.3513 9.93548 15.355H8.12903C8.12903 17.3475 9.74942 18.9679 11.7419 18.9679C13.7344 18.9679 15.3548 17.3475 15.3548 15.355C15.3548 13.3625 13.7344 11.7421 11.7419 11.7421Z" fill="#F9BA48"/>
<path d="M12.6452 4.51611H10.8387V7.22579H12.6452V4.51611Z" fill="#F9BA48"/>
<path d="M12.6452 18.0645H10.8387V20.7741H12.6452V18.0645Z" fill="#F9BA48"/>
<path d="M0 50.5806V55.9999H16.2581V50.5806H0ZM14.4516 54.1935H1.80645V52.387H14.4516V54.1935Z" fill="black"/>
<path d="M0 46.9678V52.3871H16.2581V46.9678H0ZM14.4516 50.5807H1.80645V48.7742H14.4516V50.5807Z" fill="black"/>
<path d="M0 43.3547V48.7741H16.2581V43.3547H0ZM14.4516 46.9676H1.80645V45.1612H14.4516V46.9676Z" fill="black"/>
<path d="M23.4839 50.5806V52.387H32.5161V54.1935H19.871V52.387H21.6774V50.5806H18.0645V55.9999H34.3226V50.5806H23.4839Z" fill="black"/>
<path d="M18.0645 46.9678V51.4839H19.871V48.7742H32.5161V51.4839H34.3226V46.9678H18.0645Z" fill="black"/>
<path d="M18.0645 43.3547V48.7741H34.3226V43.3547H18.0645ZM32.5161 46.9676H19.871V45.1612H32.5161V46.9676Z" fill="black"/>
<path d="M18.0645 39.7419V45.1613H34.3226V39.7419H18.0645ZM32.5161 43.3548H19.871V41.5484H32.5161V43.3548Z" fill="black"/>
<path d="M18.0645 36.1292V41.5485H34.3226V36.1292H18.0645ZM32.5161 39.7421H19.871V37.9356H32.5161V39.7421Z" fill="black"/>
<path d="M36.129 50.5806V55.9999H52.3871V50.5806H36.129ZM50.5806 54.1935H37.9355V52.387H50.5806V54.1935Z" fill="black"/>
<path d="M36.129 46.9678V52.3871H52.3871V46.9678H36.129ZM50.5806 50.5807H37.9355V48.7742H50.5806V50.5807Z" fill="black"/>
<path d="M36.129 43.3547V48.7741H52.3871V43.3547H36.129ZM50.5806 46.9676H37.9355V45.1612H50.5806V46.9676Z" fill="black"/>
<path d="M36.129 39.7419V45.1613H52.3871V39.7419H36.129ZM50.5806 43.3548H37.9355V41.5484H50.5806V43.3548Z" fill="black"/>
<path d="M48.7742 36.1292V37.9356H50.5806V39.7421H37.9355V37.9356H46.9677V36.1292H36.129V41.5485H52.3871V36.1292H48.7742Z" fill="black"/>
<path d="M36.129 32.5161V37.0322H37.9355V34.3226H50.5806V37.0322H52.3871V32.5161H36.129Z" fill="black"/>
<path d="M36.129 28.9033V34.3227H52.3871V28.9033H36.129ZM50.5806 32.5162H37.9355V30.7098H50.5806V32.5162Z" fill="black"/>
<path d="M42.4516 0C40.9577 0 39.7419 1.21574 39.7419 2.70968C39.7419 4.20361 40.9577 5.41936 42.4516 5.41936H46.5938L33.2893 18.7248L26.1348 14.2529L0.345032 34.5096L1.46142 35.9303L26.2523 16.4577L33.5494 21.0181L50.9546 3.6129H42.4516C41.953 3.6129 41.5484 3.20736 41.5484 2.70968C41.5484 2.212 41.953 1.80645 42.4516 1.80645H54.1936V13.5484C54.1936 14.0461 53.7889 14.4516 53.2903 14.4516C52.7917 14.4516 52.3871 14.0461 52.3871 13.5484V5.94865L34.1654 24.1694L26.1023 19.6903L3.04839 38.1333L4.17742 39.5441L26.2848 21.8581L34.4797 26.4112L50.5806 10.3094V13.5484C50.5806 15.0423 51.7964 16.2581 53.2903 16.2581C54.7843 16.2581 56 15.0423 56 13.5484V0H42.4516Z" fill="black"/>
<path d="M5.41937 11.7419H3.61292V13.5484H5.41937V11.7419Z" fill="#F9BA48"/>
<path d="M19.871 11.7419H18.0645V13.5484H19.871V11.7419Z" fill="#F9BA48"/>
<path d="M11.7419 0.90332C5.26761 0.90332 0 6.17093 0 12.6453C0 19.1196 5.26761 24.3872 11.7419 24.3872C18.2163 24.3872 23.4839 19.1196 23.4839 12.6453C23.4839 6.17093 18.2163 0.90332 11.7419 0.90332ZM11.7419 22.5807C6.26387 22.5807 1.80645 18.1233 1.80645 12.6453C1.80645 7.16719 6.26387 2.70977 11.7419 2.70977C17.22 2.70977 21.6774 7.16719 21.6774 12.6453C21.6774 18.1233 17.22 22.5807 11.7419 22.5807Z" fill="#F9BA48"/>
</svg>
