<svg width="65" height="64" viewBox="0 0 65 64" fill="none" xmlns="http://www.w3.org/2000/svg">
<path d="M63.9963 38.3117C63.9963 29.8157 60.4964 18.7057 50.7557 14.7181V10.4612L53.6521 8.14409C53.9138 7.93458 54.066 7.6175 54.0659 7.28234V1.10339C54.0659 0.494041 53.5718 0 52.9625 0H49.6523C49.3597 0 49.0791 0.116407 48.8722 0.323292L47.4456 1.74997L46.0189 0.323292C45.812 0.116407 45.5315 0 45.2388 0H40.8253C40.5326 0 40.252 0.116407 40.0452 0.323292L38.6185 1.74997L37.1918 0.323292C36.9849 0.116407 36.7044 0 36.4117 0H33.1016C32.4922 0 31.9982 0.494041 31.9982 1.10339V7.28234C31.998 7.6175 32.1503 7.93458 32.4119 8.14409L35.3083 10.4612V14.7181C25.5676 18.7057 22.0677 29.8201 22.0677 38.3117C22.047 40.304 22.3565 42.2861 22.9835 44.1773C22.5091 44.1509 22.0313 44.1354 21.5546 44.1354H18.7576C18.7576 43.5261 18.2635 43.032 17.6542 43.032H8.82708C8.21774 43.032 7.7237 43.5261 7.7237 44.1354H0V46.3422H7.7237V57.376H0V59.5828H7.7237C7.7237 60.1922 8.21774 60.6862 8.82708 60.6862H17.6542C18.2635 60.6862 18.7576 60.1922 18.7576 59.5828V59.1624L26.9954 62.5829C31.4862 64.417 36.5067 64.4727 41.0371 62.7385L58.0822 56.2384C59.0919 55.8547 59.9046 55.0803 60.3364 54.0902C60.9993 52.6112 60.7181 50.8797 59.6214 49.6865C62.5915 46.6641 64.1755 42.5456 63.9963 38.3117ZM16.5508 58.4794H9.93047V45.2388H16.5508V58.4794ZM34.2049 6.75272V2.20677H35.9549L37.8384 4.09025C38.2693 4.52098 38.9677 4.52098 39.3986 4.09025L41.2821 2.20677H44.782L46.6655 4.09025C47.0963 4.52098 47.7948 4.52098 48.2257 4.09025L50.1091 2.20677H51.8591V6.75272L49.265 8.82708H36.7968L34.2049 6.75272ZM48.549 11.0339V14.344H37.5151V11.0339H48.549ZM58.3128 53.2008C58.1179 53.6513 57.7495 54.0042 57.2911 54.1795L40.246 60.6785C36.2408 62.2127 31.8019 62.165 27.8307 60.545L18.7576 56.7725V46.3422H21.5546C25.2132 46.3465 28.821 47.1981 32.0953 48.8303C33.1765 49.37 34.3681 49.6514 35.5765 49.6523H44.1354C45.0494 49.6583 45.7857 50.404 45.7797 51.318C45.7748 52.0836 45.2453 52.7461 44.4995 52.9195C44.355 52.9327 44.2138 52.9625 44.067 52.9625H30.8948V55.1693H44.067C44.0902 55.1693 44.1122 55.1693 44.1354 55.1693C44.1575 55.1693 44.1784 55.1626 44.2016 55.1626C45.0773 55.1486 45.9421 54.9653 46.7482 54.6231L55.9736 50.7072C56.4131 50.5196 56.9101 50.5196 57.3496 50.7072C57.8066 50.9001 58.1652 51.271 58.3426 51.7344C58.53 52.2075 58.5193 52.7359 58.3128 53.2008ZM57.6552 48.5004C56.8111 48.2742 55.9158 48.3359 55.1108 48.6758L47.9564 51.7135C47.9773 51.579 47.9909 51.4434 47.9973 51.3074C47.9973 49.1746 46.2683 47.4456 44.1354 47.4456H35.5765C34.7106 47.4443 33.8567 47.2425 33.0817 46.8564C30.6869 45.6657 28.122 44.8534 25.4783 44.4488C24.6536 42.5094 24.2436 40.4189 24.2745 38.3117C24.2745 30.3674 27.5195 19.9393 36.6324 16.5508H49.4317C58.5445 19.9393 61.7896 30.3674 61.7896 38.3117C61.9749 42.1504 60.463 45.8764 57.6552 48.5004Z" fill="black"/>
<path d="M14.344 54.0659H12.1372V56.2727H14.344V54.0659Z" fill="black"/>
<path d="M45.3756 31.6163L41.3869 30.2868C40.9567 30.1457 40.7222 29.6825 40.8633 29.2523C40.9741 28.9147 41.2896 28.6869 41.6451 28.688H44.419C44.8719 28.6885 45.2388 29.0559 45.2388 29.5089V30.2327H47.4455V29.5089C47.4443 27.8377 46.0902 26.483 44.419 26.4812H44.1354V24.2744H41.9286V26.4812H41.6451C39.9736 26.4801 38.6175 27.8342 38.6164 29.5057C38.6156 30.8102 39.4506 31.9685 40.6884 32.3799L44.6772 33.7095C45.1073 33.8506 45.3418 34.3137 45.2007 34.7439C45.09 35.0815 44.7744 35.3094 44.419 35.3083H41.6451C41.1921 35.3077 40.8252 34.9403 40.8252 34.4873V33.7635H38.6185V34.4873C38.6197 36.1586 39.9738 37.5132 41.6451 37.515H41.9286V39.7218H44.1354V37.515H44.419C46.0905 37.5161 47.4465 36.162 47.4476 34.4905C47.4486 33.186 46.6135 32.0278 45.3756 31.6163Z" fill="#F9BA48"/>
<path d="M43.032 19.861C36.3288 19.861 30.8948 25.295 30.8948 31.9982C30.9026 38.6981 36.3321 44.1276 43.032 44.1354C49.7352 44.1354 55.1693 38.7014 55.1693 31.9982C55.1693 25.295 49.7352 19.861 43.032 19.861ZM43.032 41.9287C37.5476 41.9287 33.1015 37.4826 33.1015 31.9982C33.1076 26.5163 37.5501 22.0738 43.032 22.0677C48.5165 22.0677 52.9625 26.5137 52.9625 31.9982C52.9625 37.4827 48.5165 41.9287 43.032 41.9287Z" fill="#F9BA48"/>
</svg>
