<svg width="57" height="70" viewBox="0 0 57 70" fill="none" xmlns="http://www.w3.org/2000/svg">
<path d="M7.13913 44.9345L6.43652 43.647L5.16037 44.3559L5.86298 45.6434L7.13913 44.9345Z" fill="black"/>
<path d="M5.81997 45.7976L5.00977 44.312L6.48225 43.4934L7.29245 44.9791L5.81997 45.7976ZM5.31345 44.4002L5.9085 45.4901L6.98877 44.8909L6.39372 43.8009L5.31345 44.4002Z" fill="black"/>
<circle cx="28.1061" cy="41.8939" r="26.8561" stroke="black" stroke-width="2.5"/>
<mask id="path-4-inside-1" fill="white">
<path d="M28.0679 70C25.449 70 22.8144 69.6257 20.2292 68.8693C13.0415 66.7675 7.09551 61.9679 3.48712 55.3537C-0.122394 48.7395 -0.962858 41.1043 1.12037 33.8524C3.2036 26.6005 7.96062 20.6013 14.5162 16.9607C21.0719 13.3189 28.6394 12.4709 35.827 14.5728C43.0147 16.6746 48.9607 21.4742 52.5691 28.0884C56.1786 34.7026 57.0191 42.3378 54.9358 49.5897C52.8526 56.8416 48.0956 62.8408 41.54 66.4814C37.3432 68.8128 32.7308 70 28.0679 70ZM27.9906 14.5728C23.5148 14.5728 19.0872 15.7113 15.0575 17.95C8.76411 21.4459 4.19759 27.2054 2.19728 34.1667C0.196981 41.128 1.00383 48.4591 4.46878 54.8087C7.93373 61.1584 13.6422 65.7657 20.5418 67.7839C27.4415 69.8021 34.7076 68.9881 41.0009 65.4921C47.2943 61.9962 51.8609 56.2367 53.8612 49.2754C55.8615 42.3141 55.0546 34.983 51.5897 28.6334C48.1247 22.2837 42.4163 17.6764 35.5166 15.6582C33.0345 14.9323 30.5041 14.5728 27.9906 14.5728Z"/>
</mask>
<path d="M28.0679 70C25.449 70 22.8144 69.6257 20.2292 68.8693C13.0415 66.7675 7.09551 61.9679 3.48712 55.3537C-0.122394 48.7395 -0.962858 41.1043 1.12037 33.8524C3.2036 26.6005 7.96062 20.6013 14.5162 16.9607C21.0719 13.3189 28.6394 12.4709 35.827 14.5728C43.0147 16.6746 48.9607 21.4742 52.5691 28.0884C56.1786 34.7026 57.0191 42.3378 54.9358 49.5897C52.8526 56.8416 48.0956 62.8408 41.54 66.4814C37.3432 68.8128 32.7308 70 28.0679 70ZM27.9906 14.5728C23.5148 14.5728 19.0872 15.7113 15.0575 17.95C8.76411 21.4459 4.19759 27.2054 2.19728 34.1667C0.196981 41.128 1.00383 48.4591 4.46878 54.8087C7.93373 61.1584 13.6422 65.7657 20.5418 67.7839C27.4415 69.8021 34.7076 68.9881 41.0009 65.4921C47.2943 61.9962 51.8609 56.2367 53.8612 49.2754C55.8615 42.3141 55.0546 34.983 51.5897 28.6334C48.1247 22.2837 42.4163 17.6764 35.5166 15.6582C33.0345 14.9323 30.5041 14.5728 27.9906 14.5728Z" fill="black"/>
<path d="M20.2292 68.8693L22.4756 61.1912L22.4745 61.1909L20.2292 68.8693ZM3.48712 55.3537L10.51 51.5224L10.5095 51.5215L3.48712 55.3537ZM14.5162 16.9607L18.4003 23.9545L18.4012 23.954L14.5162 16.9607ZM52.5691 28.0884L45.5462 31.9197L45.5467 31.9207L52.5691 28.0884ZM41.54 66.4814L37.6559 59.4876L37.655 59.4881L41.54 66.4814ZM15.0575 17.95L18.9423 24.9434L18.9425 24.9433L15.0575 17.95ZM35.5166 15.6582L37.7626 7.97992L37.7621 7.97977L35.5166 15.6582ZM28.0679 62C26.2135 62 24.3352 61.7353 22.4756 61.1912L17.9827 76.5474C21.2936 77.5162 24.6845 78 28.0679 78V62ZM22.4745 61.1909C17.3408 59.6897 13.107 56.2828 10.51 51.5224L-3.53576 59.185C1.08398 67.6531 8.74226 73.8453 17.9838 76.5478L22.4745 61.1909ZM10.5095 51.5215C7.90976 46.7576 7.30643 41.2932 8.8094 36.0612L-6.56866 31.6436C-9.23215 40.9154 -8.15455 50.7214 -3.53526 59.186L10.5095 51.5215ZM8.8094 36.0612C10.312 30.8304 13.7098 26.5594 18.4003 23.9545L10.6322 9.9668C2.21144 14.6433 -3.90483 22.3706 -6.56866 31.6436L8.8094 36.0612ZM18.4012 23.954C23.0901 21.3492 28.4502 20.7506 33.5817 22.2512L38.0724 6.89434C28.8286 4.19121 19.0536 5.28854 10.6313 9.96731L18.4012 23.954ZM33.5817 22.2512C38.7154 23.7524 42.9492 27.1593 45.5462 31.9197L59.592 24.2571C54.9722 15.789 47.3139 9.5968 38.0724 6.89434L33.5817 22.2512ZM45.5467 31.9207C48.1464 36.6845 48.7498 42.1489 47.2468 47.3809L62.6249 51.7985C65.2883 42.5267 64.2108 32.7207 59.5915 24.2562L45.5467 31.9207ZM47.2468 47.3809C45.7442 52.6117 42.3464 56.8827 37.6559 59.4876L45.424 73.4753C53.8448 68.7988 59.961 61.0715 62.6249 51.7985L47.2468 47.3809ZM37.655 59.4881C34.6368 61.1647 31.36 62 28.0679 62V78C34.1015 78 40.0497 76.4609 45.4249 73.4748L37.655 59.4881ZM27.9906 6.57277C22.145 6.57277 16.3816 8.0628 11.1725 10.9567L18.9425 24.9433C21.7929 23.3598 24.8846 22.5728 27.9906 22.5728V6.57277ZM11.1727 10.9565C3.01467 15.4883 -2.91068 22.9755 -5.49159 31.9573L9.88616 36.3761C11.3059 31.4353 14.5135 27.4036 18.9423 24.9434L11.1727 10.9565ZM-5.49159 31.9573C-8.07239 40.9389 -7.02834 50.4409 -2.55368 58.6408L11.4912 50.9766C9.03599 46.4773 8.46636 41.3172 9.88616 36.3761L-5.49159 31.9573ZM-2.55368 58.6408C1.92261 66.8438 9.34293 72.8434 18.2959 75.4622L22.7877 60.1057C17.9414 58.6881 13.9449 55.473 11.4912 50.9766L-2.55368 58.6408ZM18.2959 75.4622C27.252 78.0819 36.7257 77.0184 44.8857 72.4856L37.1161 58.4987C32.6894 60.9577 27.6309 61.5223 22.7877 60.1057L18.2959 75.4622ZM44.8857 72.4856C53.0438 67.9539 58.9691 60.4667 61.55 51.4848L46.1723 47.066C44.7526 52.0068 41.5449 56.0385 37.1161 58.4987L44.8857 72.4856ZM61.55 51.4848C64.1308 42.5032 63.0868 33.0012 58.6121 24.8013L44.5672 32.4655C47.0224 36.9648 47.5921 42.1249 46.1723 47.066L61.55 51.4848ZM58.6121 24.8013C54.1358 16.5983 46.7155 10.5987 37.7626 7.97992L33.2707 23.3364C38.117 24.754 42.1136 27.9691 44.5672 32.4655L58.6121 24.8013ZM37.7621 7.97977C34.5552 7.04198 31.269 6.57277 27.9906 6.57277V22.5728C29.7392 22.5728 31.5137 22.8226 33.2712 23.3366L37.7621 7.97977Z" fill="black" mask="url(#path-4-inside-1)"/>
<mask id="path-6-inside-2" fill="white">
<path d="M19.2341 68.1752L18.3757 67.4482C18.407 67.4109 21.5145 63.6662 24.3049 59.5213C29.2434 52.1857 28.9263 49.9776 28.561 49.3693C28.1082 48.6163 26.6761 48.7554 25.5543 49.0053C22.7259 49.635 20.469 49.2834 18.8474 47.9594C14.6093 44.4997 16.3249 35.7418 16.4 35.3709L16.4191 35.2748L16.4695 35.19C16.4818 35.1697 17.7694 32.9513 16.9514 29.9993C16.1154 26.9838 13.4618 24.2692 9.06445 21.931L9.58666 20.9304C14.2809 23.4269 17.1239 26.3846 18.0384 29.7234C18.8867 32.8213 17.7537 35.1787 17.4814 35.6818C17.3178 36.575 16.0437 44.217 19.5512 47.0809C20.8948 48.1776 22.8335 48.4535 25.3123 47.9018C27.4639 47.4224 28.8792 47.7197 29.518 48.7837C30.587 50.5644 29.184 54.2865 25.226 60.1635C22.4054 64.3548 19.2654 68.1368 19.2341 68.1752Z"/>
</mask>
<path d="M19.2341 68.1752L18.3757 67.4482C18.407 67.4109 21.5145 63.6662 24.3049 59.5213C29.2434 52.1857 28.9263 49.9776 28.561 49.3693C28.1082 48.6163 26.6761 48.7554 25.5543 49.0053C22.7259 49.635 20.469 49.2834 18.8474 47.9594C14.6093 44.4997 16.3249 35.7418 16.4 35.3709L16.4191 35.2748L16.4695 35.19C16.4818 35.1697 17.7694 32.9513 16.9514 29.9993C16.1154 26.9838 13.4618 24.2692 9.06445 21.931L9.58666 20.9304C14.2809 23.4269 17.1239 26.3846 18.0384 29.7234C18.8867 32.8213 17.7537 35.1787 17.4814 35.6818C17.3178 36.575 16.0437 44.217 19.5512 47.0809C20.8948 48.1776 22.8335 48.4535 25.3123 47.9018C27.4639 47.4224 28.8792 47.7197 29.518 48.7837C30.587 50.5644 29.184 54.2865 25.226 60.1635C22.4054 64.3548 19.2654 68.1368 19.2341 68.1752Z" fill="black"/>
<path d="M19.2341 68.1752L14.0638 74.28L20.2803 79.5449L25.4316 73.2339L19.2341 68.1752ZM18.3757 67.4482L12.2529 62.2992L7.12182 68.4007L13.2054 73.553L18.3757 67.4482ZM24.3049 59.5213L17.6686 55.0536L17.6685 55.0538L24.3049 59.5213ZM28.561 49.3693L35.4192 45.2504L35.4172 45.2472L28.561 49.3693ZM25.5543 49.0053L27.293 56.814L27.2937 56.8139L25.5543 49.0053ZM18.8474 47.9594L23.9071 41.7626L23.9065 41.7621L18.8474 47.9594ZM16.4 35.3709L24.2409 36.9584L24.2441 36.9426L24.2472 36.9268L16.4 35.3709ZM16.4191 35.2748L9.54285 31.1861L8.83949 32.369L8.57183 33.7189L16.4191 35.2748ZM16.4695 35.19L9.6268 31.0454L9.60992 31.0733L9.59328 31.1013L16.4695 35.19ZM16.9514 29.9993L24.6608 27.8629L24.6606 27.862L16.9514 29.9993ZM9.06445 21.931L1.9722 18.2297L-1.70074 25.2675L5.30859 28.9946L9.06445 21.931ZM9.58666 20.9304L13.343 13.8671L6.2246 10.0815L2.4944 17.2291L9.58666 20.9304ZM18.0384 29.7234L25.7543 27.6105L25.7542 27.6102L18.0384 29.7234ZM17.4814 35.6818L10.4458 31.874L9.84119 32.991L9.61233 34.2404L17.4814 35.6818ZM19.5512 47.0809L14.4915 53.2777L14.4925 53.2785L19.5512 47.0809ZM25.3123 47.9018L27.0504 55.7107L27.0521 55.7103L25.3123 47.9018ZM29.518 48.7837L36.3769 44.6659L36.3768 44.6658L29.518 48.7837ZM25.226 60.1635L18.5905 55.6947L18.589 55.697L25.226 60.1635ZM24.4043 62.0704L23.5459 61.3434L13.2054 73.553L14.0638 74.28L24.4043 62.0704ZM24.4984 72.5972C24.613 72.461 27.9239 68.4709 30.9412 63.9889L17.6685 55.0538C15.1051 58.8616 12.2011 62.3608 12.2529 62.2992L24.4984 72.5972ZM30.9411 63.989C33.5954 60.0464 35.2202 56.9372 36.0442 54.3517C36.8124 51.9409 37.3509 48.467 35.4191 45.2504L21.7028 53.4882C20.9252 52.1935 20.752 50.9876 20.7449 50.258C20.7383 49.5771 20.8713 49.2682 20.7996 49.4935C20.6388 49.998 19.9529 51.6606 17.6686 55.0536L30.9411 63.989ZM35.4172 45.2472C33.0255 41.2692 28.8929 40.8813 27.7135 40.8215C26.0965 40.7395 24.6392 41.013 23.8149 41.1966L27.2937 56.8139C27.5912 56.7476 27.4109 56.8267 26.9035 56.801C26.6328 56.7872 25.912 56.7286 25.0051 56.3542C24.0234 55.949 22.6702 55.0973 21.7047 53.4915L35.4172 45.2472ZM23.8157 41.1965C23.1217 41.351 22.8843 41.2955 22.9806 41.3105C23.0387 41.3195 23.1748 41.3482 23.3582 41.4276C23.5451 41.5085 23.7348 41.622 23.9071 41.7626L13.7878 54.1562C17.968 57.5693 23.0477 57.7593 27.293 56.814L23.8157 41.1965ZM23.9065 41.7621C24.363 42.1348 24.3766 42.4202 24.2626 42.0751C24.1452 41.7198 24.0314 41.1022 24.0016 40.2327C23.9412 38.4714 24.2547 36.8902 24.2409 36.9584L8.5591 33.7835C8.4702 34.2225 7.88839 37.2057 8.01095 40.7809C8.11623 43.8521 8.80513 50.0887 13.7884 54.1567L23.9065 41.7621ZM24.2472 36.9268L24.2663 36.8307L8.57183 33.7189L8.55278 33.815L24.2472 36.9268ZM23.2953 39.3635L23.3457 39.2787L9.59328 31.1013L9.54285 31.1861L23.2953 39.3635ZM23.3122 39.3346C23.8155 38.5036 26.3348 33.9036 24.6608 27.8629L9.24189 32.1356C9.21335 32.0326 9.22119 31.9172 9.24065 31.8357C9.24996 31.7967 9.26748 31.7381 9.3071 31.6453C9.32775 31.5969 9.35664 31.534 9.39726 31.4542C9.41764 31.4141 9.4416 31.3686 9.46977 31.3172C9.48378 31.2916 9.49956 31.2632 9.51721 31.2321C9.52592 31.2168 9.53622 31.1988 9.548 31.1784C9.55377 31.1685 9.56139 31.1554 9.57044 31.1399C9.57379 31.1342 9.59678 31.095 9.6268 31.0454L23.3122 39.3346ZM24.6606 27.862C22.97 21.7641 18.0408 17.6434 12.8203 14.8675L5.30859 28.9946C6.99641 29.892 8.02953 30.6966 8.62263 31.3034C8.90962 31.597 9.06768 31.8177 9.15021 31.9533C9.1912 32.0207 9.21439 32.0684 9.22667 32.0964C9.23291 32.1106 9.23677 32.1208 9.23899 32.127C9.24121 32.1332 9.24207 32.1363 9.24214 32.1365L24.6606 27.862ZM16.1567 25.6324L16.6789 24.6318L2.4944 17.2291L1.9722 18.2297L16.1567 25.6324ZM5.83035 27.9937C9.60916 30.0033 10.2393 31.5329 10.3225 31.8366L25.7542 27.6102C24.0085 21.2363 18.9527 16.8504 13.343 13.8671L5.83035 27.9937ZM10.3224 31.8362C10.3341 31.8791 10.3402 31.9121 10.3435 31.936C10.3468 31.9603 10.348 31.9803 10.3482 31.9968C10.3487 32.0301 10.3451 32.0591 10.3404 32.0825C10.3352 32.1078 10.3309 32.1151 10.3389 32.0944C10.3472 32.073 10.3753 32.0042 10.4458 31.874L24.517 39.4897C25.2494 38.1366 27.3798 33.5468 25.7543 27.6105L10.3224 31.8362ZM9.61233 34.2404C9.48622 34.929 9.01105 37.7324 9.1466 40.9764C9.25804 43.6434 9.85632 49.493 14.4915 53.2777L24.6108 40.8842C25.286 41.4354 25.3959 41.9356 25.3274 41.7265C25.2611 41.524 25.164 41.0589 25.1326 40.3084C25.0693 38.7921 25.313 37.3279 25.3505 37.1232L9.61233 34.2404ZM14.4925 53.2785C18.4937 56.5444 23.3332 56.5381 27.0504 55.7107L23.5741 40.0929C23.0062 40.2193 22.9027 40.1565 23.1341 40.1895C23.2632 40.2078 23.4839 40.2548 23.7599 40.3704C24.041 40.4881 24.3341 40.6583 24.6099 40.8834L14.4925 53.2785ZM27.0521 55.7103C27.5464 55.6001 27.1855 55.7709 26.3398 55.5935C25.8632 55.4935 25.1884 55.2719 24.4699 54.795C23.7284 54.3029 23.1074 53.6481 22.6591 52.9015L36.3768 44.6658C32.814 38.7316 26.2029 39.5072 23.5725 40.0932L27.0521 55.7103ZM22.6591 52.9014C21.8595 51.5696 21.8452 50.395 21.8704 49.9894C21.8938 49.6133 21.9619 49.6104 21.7717 50.1147C21.3839 51.143 20.4442 52.9423 18.5905 55.6947L31.8615 64.6323C33.9659 61.5077 35.7066 58.5074 36.7426 55.7603C37.5832 53.531 38.9489 48.9502 36.3769 44.6659L22.6591 52.9014ZM18.589 55.697C16.0005 59.5434 13.0807 63.0623 13.0365 63.1165L25.4316 73.2339C25.3968 73.2766 25.6544 72.965 26.016 72.5163C26.3862 72.0569 26.9024 71.4086 27.5095 70.6245C28.7143 69.0685 30.3196 66.9236 31.863 64.63L18.589 55.697Z" fill="black" mask="url(#path-6-inside-2)"/>
<mask id="path-8-inside-3" fill="white">
<path d="M50.376 57.8943C50.0309 57.6455 41.9546 51.7538 44.82 47.0616C45.1741 46.4828 45.2873 46.0226 45.1663 45.654C44.9164 44.892 43.6254 44.373 42.3771 43.871C40.5493 43.1361 38.4784 42.3028 38.7698 40.2688C39.0611 38.2382 41.3651 38.4134 43.0472 38.5412C43.8014 38.5988 45.0654 38.6949 45.2346 38.4044C45.2615 38.358 45.4644 37.8956 44.2317 35.9938C43.4898 34.8496 42.8634 34.0277 42.3602 33.3662C41.4447 32.1632 40.8911 31.4374 41.1433 30.5001C41.364 29.6804 42.144 28.9262 43.8529 27.271C44.9007 26.2568 46.3362 24.8672 48.1662 22.9463L48.9741 23.7298C47.1274 25.6677 45.6829 27.0663 44.6284 28.0873C43.2153 29.4542 42.3636 30.2796 42.2247 30.7963C42.1216 31.1785 42.4443 31.6217 43.2478 32.6777C43.7633 33.3538 44.4043 34.195 45.1685 35.3754C46.325 37.1595 46.6332 38.237 46.1984 38.9799C45.675 39.8742 44.3572 39.7747 42.962 39.6684C40.927 39.5135 39.998 39.587 39.877 40.4305C39.7234 41.5023 40.9303 42.0721 42.7894 42.8206C44.2765 43.4187 45.814 44.0372 46.2275 45.299C46.455 45.9932 46.3015 46.7858 45.7714 47.6541C43.4495 51.4576 50.9487 56.9185 51.0249 56.9728L50.376 57.8943Z"/>
</mask>
<path d="M50.376 57.8943C50.0309 57.6455 41.9546 51.7538 44.82 47.0616C45.1741 46.4828 45.2873 46.0226 45.1663 45.654C44.9164 44.892 43.6254 44.373 42.3771 43.871C40.5493 43.1361 38.4784 42.3028 38.7698 40.2688C39.0611 38.2382 41.3651 38.4134 43.0472 38.5412C43.8014 38.5988 45.0654 38.6949 45.2346 38.4044C45.2615 38.358 45.4644 37.8956 44.2317 35.9938C43.4898 34.8496 42.8634 34.0277 42.3602 33.3662C41.4447 32.1632 40.8911 31.4374 41.1433 30.5001C41.364 29.6804 42.144 28.9262 43.8529 27.271C44.9007 26.2568 46.3362 24.8672 48.1662 22.9463L48.9741 23.7298C47.1274 25.6677 45.6829 27.0663 44.6284 28.0873C43.2153 29.4542 42.3636 30.2796 42.2247 30.7963C42.1216 31.1785 42.4443 31.6217 43.2478 32.6777C43.7633 33.3538 44.4043 34.195 45.1685 35.3754C46.325 37.1595 46.6332 38.237 46.1984 38.9799C45.675 39.8742 44.3572 39.7747 42.962 39.6684C40.927 39.5135 39.998 39.587 39.877 40.4305C39.7234 41.5023 40.9303 42.0721 42.7894 42.8206C44.2765 43.4187 45.814 44.0372 46.2275 45.299C46.455 45.9932 46.3015 46.7858 45.7714 47.6541C43.4495 51.4576 50.9487 56.9185 51.0249 56.9728L50.376 57.8943Z" fill="black"/>
<path d="M50.376 57.8943L45.6987 64.3845L52.2605 69.1134L56.9171 62.5001L50.376 57.8943ZM44.82 47.0616L37.9956 42.887L37.9925 42.8922L44.82 47.0616ZM45.1663 45.654L37.5646 48.1468L37.5655 48.1497L45.1663 45.654ZM42.3771 43.871L45.3618 36.4486L45.3616 36.4485L42.3771 43.871ZM38.7698 40.2688L30.8509 39.1325L30.8506 39.1344L38.7698 40.2688ZM43.0472 38.5412L43.6571 30.5644L43.6531 30.5641L43.0472 38.5412ZM45.2346 38.4044L52.1479 42.4302L52.1543 42.419L45.2346 38.4044ZM44.2317 35.9938L50.9448 31.6425L50.9443 31.6417L44.2317 35.9938ZM42.3602 33.3662L48.7273 28.5227L48.7263 28.5213L42.3602 33.3662ZM41.1433 30.5001L33.4185 28.4197L33.4179 28.4219L41.1433 30.5001ZM43.8529 27.271L38.289 21.5227L38.287 21.5246L43.8529 27.271ZM48.1662 22.9463L53.7355 17.2033L47.9412 11.5841L42.3738 17.4283L48.1662 22.9463ZM48.9741 23.7298L54.7655 29.2489L60.2366 23.5078L54.5435 17.9868L48.9741 23.7298ZM44.6284 28.0873L50.1905 33.8373L50.1931 33.8348L44.6284 28.0873ZM42.2247 30.7963L49.9485 32.88L49.9502 32.8739L42.2247 30.7963ZM43.2478 32.6777L36.8811 37.5218L36.8859 37.5281L43.2478 32.6777ZM45.1685 35.3754L38.4532 39.7233L38.4554 39.7268L45.1685 35.3754ZM46.1984 38.9799L39.2941 34.9386L39.2936 34.9395L46.1984 38.9799ZM42.962 39.6684L43.5697 31.6915L43.5692 31.6915L42.962 39.6684ZM39.877 40.4305L31.9581 39.2942L31.9578 39.2962L39.877 40.4305ZM42.7894 42.8206L39.8017 50.2418L39.8042 50.2428L42.7894 42.8206ZM46.2275 45.299L53.8297 42.8078L53.8297 42.8076L46.2275 45.299ZM45.7714 47.6541L52.5996 51.8225L52.5997 51.8223L45.7714 47.6541ZM51.0249 56.9728L57.566 61.5787L62.1472 55.0726L55.6657 50.4565L51.0249 56.9728ZM55.0533 51.4041C55.1051 51.4414 54.7359 51.1774 54.2042 50.7157C53.6542 50.2382 53.0624 49.6631 52.595 49.0897C52.0718 48.4478 52.0388 48.2151 52.1024 48.4302C52.1501 48.5916 52.2409 48.9883 52.1922 49.5522C52.1403 50.1541 51.9452 50.7437 51.6476 51.2311L37.9925 42.8922C35.8417 46.414 35.9119 50.102 36.7591 52.9673C37.5419 55.6145 39.0123 57.7501 40.1931 59.1987C42.5739 62.1196 45.3676 64.1458 45.6987 64.3845L55.0533 51.4041ZM51.6444 51.2363C52.3526 50.0786 54.0163 46.9628 52.767 43.1583L37.5655 48.1497C37.0612 46.6138 37.1848 45.2546 37.4029 44.3681C37.6054 43.5447 37.9087 43.029 37.9956 42.887L51.6444 51.2363ZM52.768 43.1612C51.6274 39.683 48.7676 38.0869 48.0771 37.6974C47.0167 37.0991 45.8494 36.6447 45.3618 36.4486L39.3923 51.2933C39.7252 51.4272 39.9295 51.51 40.1041 51.5862C40.2791 51.6626 40.2916 51.6757 40.2151 51.6326C40.1635 51.6035 39.8006 51.4001 39.3474 50.978C38.8984 50.5597 38.0547 49.6415 37.5646 48.1468L52.768 43.1612ZM45.3616 36.4485C44.863 36.2481 44.6281 36.1507 44.4484 36.0648C44.268 35.9787 44.4197 36.0309 44.7035 36.2525C45.001 36.4849 45.6543 37.0675 46.155 38.1023C46.7033 39.2357 46.8298 40.42 46.689 41.4032L30.8506 39.1344C30.1869 43.7679 32.5836 47.088 34.854 48.8616C36.631 50.2496 38.7651 51.0411 39.3926 51.2934L45.3616 36.4485ZM46.6887 41.405C46.5324 42.4941 45.9826 43.8415 44.8133 44.9443C43.7578 45.9397 42.6866 46.2727 42.2236 46.3819C41.7693 46.4891 41.5205 46.4707 41.6635 46.4715C41.7953 46.4723 41.9782 46.483 42.4413 46.5182L43.6531 30.5641C43.1367 30.5249 40.8138 30.2754 38.5504 30.8092C37.2647 31.1125 35.4577 31.7745 33.8357 33.3041C32.0999 34.9412 31.1528 37.0282 30.8509 39.1325L46.6887 41.405ZM42.4373 46.5179C42.7392 46.541 43.6065 46.6128 44.4546 46.6028C44.8471 46.5982 45.6241 46.5763 46.503 46.3998C46.9394 46.3121 47.7122 46.127 48.5845 45.7084C49.3877 45.3229 51.0058 44.3914 52.1478 42.4302L38.3214 34.3785C39.4212 32.49 40.9628 31.619 41.6614 31.2837C42.4293 30.9151 43.0697 30.7698 43.352 30.7131C43.6786 30.6475 43.9241 30.6243 44.0376 30.6153C44.1631 30.6054 44.2443 30.6042 44.2659 30.6039C44.3007 30.6035 44.2637 30.6049 44.1256 30.5972C43.9941 30.5899 43.8534 30.5795 43.6571 30.5644L42.4373 46.5179ZM52.1543 42.419C53.6815 39.7868 53.3089 37.1729 52.9122 35.7486C52.5037 34.2819 51.7694 32.9146 50.9448 31.6425L37.5186 40.3452C37.9267 40.9748 37.7072 40.7896 37.4988 40.0412C37.3021 39.3351 36.8146 36.9756 38.3149 34.3897L52.1543 42.419ZM50.9443 31.6417C50.0275 30.2277 49.2449 29.203 48.7273 28.5227L35.9932 38.2098C36.4819 38.8523 36.9522 39.4716 37.5191 40.346L50.9443 31.6417ZM48.7263 28.5213C48.4714 28.1864 48.3672 28.0475 48.2974 27.948C48.2305 27.8527 48.3424 27.9981 48.4895 28.2965C48.6493 28.6208 48.9035 29.229 49.0204 30.0602C49.1437 30.9375 49.0775 31.8018 48.8686 32.5782L33.4179 28.4219C32.6694 31.2044 33.2819 33.6332 34.1382 35.3705C34.7781 36.6686 35.7096 37.8372 35.9942 38.2112L48.7263 28.5213ZM48.868 32.5805C48.6876 33.2502 48.4275 33.76 48.2254 34.0871C48.0434 34.3818 47.91 34.5247 47.9574 34.4705C48.003 34.4186 48.123 34.2883 48.391 34.0209C48.6564 33.756 48.9777 33.4446 49.4188 33.0174L38.287 21.5246C37.5378 22.2503 36.6276 23.1225 35.9226 23.9272C35.189 24.7645 33.9999 26.2609 33.4185 28.4197L48.868 32.5805ZM49.4169 33.0192C50.4795 31.9907 52.0114 30.5082 53.9585 28.4643L42.3738 17.4283C40.661 19.2262 39.3219 20.5229 38.289 21.5227L49.4169 33.0192ZM42.5968 28.6893L43.4048 29.4728L54.5435 17.9868L53.7355 17.2033L42.5968 28.6893ZM43.1827 18.2108C41.4521 20.0268 40.1032 21.3333 39.0637 22.3398L50.1931 33.8348C51.2626 32.7994 52.8026 31.3087 54.7655 29.2489L43.1827 18.2108ZM39.0662 22.3373C38.4266 22.9561 37.6642 23.6896 37.0644 24.3408C36.7548 24.677 36.3352 25.154 35.933 25.7216C35.5838 26.2144 34.8907 27.2626 34.4991 28.7187L49.9502 32.8739C49.776 33.5217 49.5481 34.012 49.3878 34.3163C49.2239 34.6274 49.0739 34.8507 48.9873 34.9729C48.8974 35.0997 48.8325 35.1784 48.8139 35.2006C48.7936 35.225 48.7963 35.2204 48.833 35.1805C48.9135 35.0931 49.0561 34.9455 49.302 34.7023C49.545 34.462 49.8293 34.1867 50.1905 33.8373L39.0662 22.3373ZM34.5008 28.7126C33.5918 32.0818 35.0113 34.6954 35.4729 35.4927C35.9512 36.3187 36.5975 37.1491 36.8811 37.5218L49.6144 27.8335C49.4067 27.5606 49.294 27.4106 49.2189 27.3067C49.1344 27.1897 49.204 27.2762 49.3196 27.4759C49.4447 27.692 50.7544 29.893 49.9485 32.88L34.5008 28.7126ZM36.8859 37.5281C37.3806 38.1769 37.8651 38.815 38.4532 39.7233L51.8838 31.0274C50.9434 29.5749 50.146 28.5307 49.6097 27.8273L36.8859 37.5281ZM38.4554 39.7268C38.8941 40.4036 38.7487 40.3281 38.5881 39.7664C38.491 39.4266 38.3442 38.7589 38.3983 37.8688C38.4561 36.9171 38.7345 35.8948 39.2941 34.9386L53.1026 43.0211C54.7746 40.1647 54.5173 37.277 53.9722 35.3699C53.4772 33.6376 52.5994 32.1314 51.8816 31.024L38.4554 39.7268ZM39.2936 34.9395C39.9897 33.7499 40.9728 32.9085 41.9537 32.3943C42.84 31.9296 43.58 31.8044 43.8809 31.7655C44.191 31.7253 44.3518 31.7391 44.2338 31.7354C44.1161 31.7317 43.9541 31.7208 43.5697 31.6915L42.3544 47.6453C42.8068 47.6798 44.3814 47.834 45.9333 47.6333C47.6325 47.4135 51.0422 46.5422 53.1031 43.0202L39.2936 34.9395ZM43.5692 31.6915C42.7271 31.6274 40.8594 31.4708 39.0715 31.8429C38.042 32.0572 36.3294 32.5772 34.7538 34.004C33.013 35.5805 32.2072 37.558 31.9581 39.2942L47.7958 41.5667C47.6072 42.8812 46.963 44.5332 45.4939 45.8636C44.1902 47.0442 42.8597 47.3973 42.332 47.5072C41.7933 47.6193 41.4699 47.6028 41.6019 47.6034C41.6922 47.6038 41.9098 47.6115 42.3549 47.6453L43.5692 31.6915ZM31.9578 39.2962C31.6743 41.275 32.0338 43.2843 33.0221 45.0531C33.9153 46.6516 35.1021 47.6628 35.9102 48.2435C37.3499 49.278 39.0599 49.9431 39.8017 50.2418L45.7772 35.3995C45.3314 35.22 45.0889 35.1162 44.9393 35.0457C44.7693 34.9656 44.9402 35.0298 45.2467 35.2501C45.54 35.4608 46.3376 36.0818 46.9896 37.2486C47.7367 38.5857 48.0028 40.1219 47.7961 41.5648L31.9578 39.2962ZM39.8042 50.2428C40.2032 50.4033 40.4266 50.4943 40.6141 50.5787C40.7952 50.6601 40.7882 50.6678 40.6837 50.6028C40.5553 50.5229 39.2526 49.7045 38.6253 47.7903L53.8297 42.8076C52.7889 39.6317 50.5107 37.8732 49.1384 37.019C47.8098 36.1921 46.3594 35.6337 45.7747 35.3985L39.8042 50.2428ZM38.6253 47.7902C37.8696 45.4842 38.7529 43.7975 38.9431 43.4859L52.5997 51.8223C53.8501 49.774 55.0404 46.5022 53.8297 42.8078L38.6253 47.7902ZM38.9432 43.4857C36.7107 47.1428 37.1676 50.9003 38.0762 53.4204C38.9302 55.7894 40.3606 57.6924 41.4419 58.9456C43.6477 61.5021 46.1375 63.3135 46.384 63.4891L55.6657 50.4565C55.8294 50.573 55.533 50.366 55.043 49.9473C54.5504 49.5262 54.0005 49.0086 53.5558 48.4932C53.339 48.242 53.196 48.0472 53.1125 47.918C53.023 47.7794 53.0601 47.8059 53.1278 47.9938C53.1959 48.1826 53.3471 48.6809 53.323 49.4092C53.2968 50.1996 53.0676 51.0559 52.5996 51.8225L38.9432 43.4857ZM44.4838 52.3669L43.8349 53.2884L56.9171 62.5001L57.566 61.5787L44.4838 52.3669Z" fill="black" mask="url(#path-8-inside-3)"/>
<path d="M10.8315 32.9453L10.1289 31.6577L8.85275 32.3666L9.55536 33.6542L10.8315 32.9453Z" fill="black"/>
<path d="M9.51138 33.8085L8.70117 32.3228L10.1737 31.5054L10.9839 32.991L9.51138 33.8085ZM9.00486 32.4121L9.59991 33.5021L10.6802 32.9017L10.0851 31.8118L9.00486 32.4121Z" fill="black"/>
<path d="M15.5317 47.8874L14.8291 46.5999L13.5529 47.3088L14.2556 48.5963L15.5317 47.8874Z" fill="black"/>
<path d="M14.2116 48.7509L13.4014 47.2652L14.8739 46.4478L15.6841 47.9334L14.2116 48.7509ZM13.7051 47.3545L14.3001 48.4445L15.3804 47.8441L14.7853 46.7542L13.7051 47.3545Z" fill="black"/>
<path d="M15.2856 58.2207L14.583 56.9331L13.3068 57.642L14.0095 58.9296L15.2856 58.2207Z" fill="black"/>
<path d="M13.9655 59.0839L13.1553 57.5982L14.6278 56.7808L15.438 58.2664L13.9655 59.0839ZM13.459 57.6875L14.054 58.7774L15.1343 58.1782L14.5392 57.0883L13.459 57.6875Z" fill="black"/>
<path d="M15.2856 58.2207L14.583 56.9331L13.3068 57.642L14.0095 58.9296L15.2856 58.2207Z" fill="black"/>
<path d="M13.9655 59.0839L13.1553 57.5982L14.6278 56.7808L15.438 58.2664L13.9655 59.0839ZM13.459 57.6875L14.054 58.7774L15.1343 58.1782L14.5392 57.0883L13.459 57.6875Z" fill="black"/>
<path d="M50.8198 44.8051L50.1172 43.5176L48.841 44.2265L49.5436 45.514L50.8198 44.8051Z" fill="black"/>
<path d="M49.4998 45.6687L48.6885 44.1831L50.161 43.3645L50.9712 44.8502L49.4998 45.6687ZM48.9933 44.2724L49.5883 45.3623L50.6686 44.7631L50.0747 43.6732L48.9933 44.2724Z" fill="black"/>
<path d="M25.3774 54.6792L24.6748 53.3916L23.3986 54.1005L24.1013 55.388L25.3774 54.6792Z" fill="black"/>
<path d="M24.0583 55.5425L23.248 54.0569L24.7205 53.2383L25.5307 54.7239L24.0583 55.5425ZM23.5517 54.1462L24.1457 55.2361L25.2259 54.6357L24.6309 53.5458L23.5517 54.1462Z" fill="black"/>
<path d="M51.2407 33.8584L50.5381 32.5708L49.2619 33.2797L49.9645 34.5673L51.2407 33.8584Z" fill="black"/>
<path d="M49.9217 34.722L49.1104 33.2364L50.5828 32.4189L51.393 33.9046L49.9217 34.722ZM49.4152 33.3246L50.0102 34.4145L51.0905 33.8141L50.4965 32.7242L49.4152 33.3246Z" fill="black"/>
<path d="M26.4372 40.1037C14.9251 23.2651 12.7881 21.5364 12.7881 15.3484C12.7881 6.87201 19.5992 0 28.0005 0C36.4018 0 43.2129 6.87201 43.2129 15.3484C43.2129 21.5364 41.0759 23.2651 29.5638 40.1037C28.8085 41.2038 27.1925 41.2038 26.4372 40.1037Z" fill="#F9BA48"/>
<path d="M28.0842 21.0299C24.2842 21.0299 21.1924 17.9105 21.1924 14.0765C21.1924 10.2425 24.2842 7.12305 28.0842 7.12305C31.8842 7.12305 34.976 10.2425 34.976 14.0765C34.976 17.9105 31.8842 21.0299 28.0842 21.0299ZM28.0842 8.25368C24.9016 8.25368 22.313 10.8655 22.313 14.0765C22.313 17.2875 24.9016 19.8992 28.0842 19.8992C31.2667 19.8992 33.8554 17.2875 33.8554 14.0765C33.8554 10.8655 31.2667 8.25368 28.0842 8.25368Z" fill="black"/>
<circle cx="28.5" cy="13.5" r="6.25" stroke="black" stroke-width="2.5"/>
</svg>
