<svg width="58" height="64" viewBox="0 0 58 64" fill="none" xmlns="http://www.w3.org/2000/svg">
<path d="M13.2491 5.7113H8.93237V14.6769H13.2491V5.7113Z" fill="#F9BA48"/>
<path d="M19.7244 13.3488C24.4008 13.3488 28.1919 10.6728 28.1919 7.37172C28.1919 4.07068 24.4008 1.39465 19.7244 1.39465C15.0479 1.39465 11.2568 4.07068 11.2568 7.37172C11.2568 10.6728 15.0479 13.3488 19.7244 13.3488Z" fill="#F9BA48"/>
<path d="M25.0373 15.6731C28.2467 15.6731 30.8484 13.4431 30.8484 10.6922C30.8484 7.94133 28.2467 5.7113 25.0373 5.7113C21.828 5.7113 19.2263 7.94133 19.2263 10.6922C19.2263 13.4431 21.828 15.6731 25.0373 15.6731Z" fill="#F9BA48"/>
<path d="M21.2186 42.5701H17.5659V47.551H21.2186V42.5701Z" fill="#F9BA48"/>
<path d="M22.2148 48.2151H16.5698V55.5204H22.2148V48.2151Z" fill="#F9BA48"/>
<path d="M43.3006 57.1808C47.2435 57.1808 50.4399 53.9844 50.4399 50.0415C50.4399 46.0986 47.2435 42.9022 43.3006 42.9022C39.3577 42.9022 36.1613 46.0986 36.1613 50.0415C36.1613 53.9844 39.3577 57.1808 43.3006 57.1808Z" fill="#F9BA48"/>
<path d="M14.8431 20.4548C15.4666 20.4548 15.9721 19.9493 15.9721 19.3258C15.9721 18.7022 15.4666 18.1968 14.8431 18.1968C14.2195 18.1968 13.7141 18.7022 13.7141 19.3258C13.7141 19.9493 14.2195 20.4548 14.8431 20.4548Z" fill="black"/>
<path d="M23.9747 20.4548C24.5982 20.4548 25.1037 19.9493 25.1037 19.3258C25.1037 18.7022 24.5982 18.1968 23.9747 18.1968C23.3512 18.1968 22.8457 18.7022 22.8457 19.3258C22.8457 19.9493 23.3512 20.4548 23.9747 20.4548Z" fill="black"/>
<path d="M18.2633 22.7794H20.5213C21.0858 22.7794 21.6171 22.3809 21.6835 21.8164C21.7831 21.1191 21.2518 20.5214 20.5545 20.5214H19.8572L20.4881 18.5954C20.6873 17.9977 20.3885 17.3336 19.7908 17.1343C19.1931 16.9351 18.5289 17.234 18.3297 17.8317C18.3297 17.8317 18.3297 17.8317 18.3297 17.8649L17.2007 21.2519C17.0679 21.6172 17.1343 22.0156 17.3667 22.3145C17.566 22.6465 17.9312 22.7794 18.2633 22.7794Z" fill="black"/>
<path d="M16.3041 26.0334C17.9976 27.7269 20.7869 27.7269 22.4804 26.0334C22.9121 25.5685 22.9121 24.8712 22.4804 24.4063C22.0487 23.9746 21.3182 23.9746 20.8865 24.4063C20.0564 25.2364 18.7613 25.2364 17.9312 24.4063C17.4663 23.9746 16.769 23.9746 16.3041 24.4063C15.8724 24.8712 15.8724 25.5685 16.3041 26.0334Z" fill="black"/>
<path d="M43.4002 41.0093C38.3529 41.0093 34.2686 45.0936 34.2686 50.1409C34.2686 55.1882 38.3529 59.2726 43.4002 59.2726C48.4475 59.2726 52.5318 55.1882 52.5318 50.1409C52.5318 45.0936 48.4475 41.0093 43.4002 41.0093ZM36.5266 50.1409C36.5266 46.7871 38.9506 43.9314 42.238 43.4001V44.9608C41.7731 45.0936 41.3082 45.3261 40.9097 45.6581C40.5445 45.957 40.2788 46.3555 40.1128 46.7871C39.5815 48.4142 40.312 49.9417 41.5739 50.5726L44.1307 51.8676C44.2636 51.9341 44.3632 52.0337 44.4296 52.1665C44.5956 52.565 44.3964 52.9302 44.0975 53.0963C43.6326 53.3287 43.0681 53.3287 42.6033 53.0963L41.5739 52.5982C40.8433 52.2329 39.8804 52.731 39.9136 53.7272C39.9136 53.9596 40.0132 54.1921 40.1792 54.3913C40.312 54.5241 40.4449 54.6237 40.5445 54.6569L41.5739 55.155C41.7731 55.2547 41.9723 55.3543 42.2048 55.4207V56.9814C38.9174 56.3505 36.5266 53.4947 36.5266 50.1409ZM44.496 56.915V55.3543C44.9609 55.2215 45.4258 54.989 45.8242 54.6569C46.1895 54.3581 46.4551 53.9596 46.6212 53.5279C47.1525 51.9009 46.4219 50.3734 45.1601 49.7425L42.6033 48.4474C42.4704 48.381 42.3708 48.2814 42.3044 48.1486C42.1384 47.7501 42.3376 47.3848 42.6365 47.2188C43.1013 46.9864 43.6658 46.9864 44.1307 47.2188L45.1601 47.7169C45.8906 48.0822 46.8536 47.5841 46.8204 46.5879C46.8204 46.3555 46.7208 46.123 46.5548 45.9238C46.4219 45.7909 46.2891 45.6913 46.1895 45.6581L45.1601 45.16C44.9609 45.0604 44.7616 44.9608 44.5292 44.8944V43.3337C48.2483 43.9646 50.7719 47.4845 50.141 51.2367C49.6429 54.1589 47.3849 56.4169 44.496 56.915Z" fill="black"/>
<path d="M43.367 36.4934C41.109 36.4934 38.851 37.0579 36.8586 38.1537C36.7258 37.9876 36.593 37.8548 36.4602 37.722C34.9991 36.2609 33.0399 35.4308 31.0144 35.3644L27.893 34.335L25.1037 32.4754V30.2174C27.6274 28.5239 29.2877 25.8342 29.6197 22.8125H29.6861C32.2098 22.8125 34.2686 20.7537 34.2686 18.2633C34.2686 16.6362 33.4052 15.1087 31.9773 14.3118V12.5519C31.9773 9.86218 31.114 7.23891 29.4869 5.08052C29.4537 5.04731 29.4205 4.9809 29.3873 4.94769C29.0552 4.48281 28.69 4.08433 28.2915 3.68586C23.4102 -1.22862 15.4408 -1.22862 10.5595 3.68586C10.161 4.08433 9.79576 4.51602 9.43049 4.9809C9.39729 5.01411 9.36408 5.08052 9.33087 5.11372C7.70378 7.27211 6.84043 9.89538 6.84043 12.5851V14.345C4.4496 15.7396 3.78548 18.9274 5.5786 21.1854C6.44195 22.2812 7.8034 22.8789 9.19805 22.8789C9.53011 25.9007 11.1904 28.5903 13.7141 30.2838V32.5419L10.9248 34.4014L7.8034 35.4308C3.45342 35.5304 0 39.0834 0 43.4334V60.5677C0 62.4604 1.52747 63.9879 3.42021 63.9879H35.3976C36.3605 63.9879 37.2903 63.5894 37.9544 62.8589C44.8945 65.8807 52.9635 62.6929 55.9853 55.7528C59.007 48.8128 55.8192 40.7437 48.8792 37.722C47.1193 36.8918 45.2597 36.4934 43.367 36.4934ZM34.9327 39.3491C33.7705 40.2456 32.7743 41.3414 31.9441 42.5701V37.6888C33.0399 37.9212 34.0361 38.4525 34.8331 39.2495C34.8663 39.2827 34.8995 39.3159 34.9327 39.3491ZM9.09843 37.2571L10.7919 36.6926L14.9095 44.9277C15.0423 45.1933 15.2415 45.3926 15.5072 45.4922L15.9057 47.883L15.0755 53.5945L12.9835 52.5651C12.6515 52.399 12.2862 52.399 11.9541 52.5651L9.03202 54.0261V37.2571H9.09843ZM15.9721 33.0399V31.28C18.1969 32.077 20.6209 32.077 22.8125 31.28V33.8037L19.3923 38.9506L15.9721 33.8037V33.0399ZM19.4255 42.6697L21.1522 44.3964L20.7537 46.7872H18.1305L17.732 44.3964L19.4255 42.6697ZM18.1305 49.0452H20.7205L21.5507 54.7567H17.4331L17.3335 54.7234L18.1305 49.0452ZM23.8087 54.7567L22.8457 47.9162L23.2442 45.5254C23.5098 45.4258 23.7423 45.2265 23.8419 44.9609L27.9594 36.7258L29.7193 37.3235C29.6861 37.4231 29.6861 37.5228 29.6861 37.6224V54.7567H23.8087ZM22.5136 42.5036L20.8533 40.8433L24.8049 34.9327L25.9007 35.6632L22.5136 42.5036ZM29.6529 20.4549V15.8725C30.9148 15.8725 31.9441 16.9018 31.9441 18.1637C31.9441 19.4255 30.9148 20.4549 29.6529 20.4549ZM9.09843 12.5187C9.09843 10.3271 9.79576 8.16867 11.124 6.40876C11.124 6.37555 11.1572 6.37555 11.1572 6.34234C14.5442 1.79312 20.9862 0.896563 25.5354 4.28357C25.9339 4.58243 26.2991 4.91449 26.6312 5.24655C26.9632 5.57861 27.2953 5.94387 27.561 6.34234C27.561 6.37555 27.5942 6.37555 27.6274 6.40876C28.9556 8.16867 29.6529 10.3271 29.6529 12.5187V13.6477H28.5239C27.893 13.6477 27.3949 14.1457 27.3949 14.7767C23.1114 14.7435 18.9938 13.216 15.7064 10.4599L15.6732 10.4267C15.6068 10.3603 15.5404 10.3271 15.474 10.2606C15.1751 9.995 14.7767 9.89538 14.4114 9.995C14.0461 10.0946 13.7805 10.3271 13.6477 10.6591C13.6144 10.7255 13.6144 10.7919 13.5812 10.8584C13.5812 10.8916 13.5812 10.8916 13.548 10.9248V10.958C12.9171 12.5519 12.1866 13.7805 11.4229 14.6438C11.3564 14.0793 10.8584 13.6809 10.2939 13.6809H9.16484V12.5187H9.09843ZM6.80722 18.1637C6.80722 16.9018 7.83661 15.8725 9.09843 15.8725V20.4549C7.83661 20.4549 6.80722 19.4255 6.80722 18.1637ZM11.3896 21.5839V17.566L12.2198 16.9018C12.253 16.8686 12.3194 16.8354 12.3526 16.8022L12.3858 16.769C12.3858 16.769 12.419 16.769 12.419 16.7358C13.4484 15.8725 14.3782 14.5774 15.1419 12.8839C18.695 15.5404 22.9785 16.9683 27.3949 17.0015V21.5839C27.3949 24.506 25.801 27.1957 23.2442 28.5903C20.8533 29.9186 17.9312 29.9186 15.5404 28.5903C12.9835 27.1957 11.3896 24.506 11.3896 21.5839ZM14.0129 34.9659L17.9644 40.8766L16.3041 42.5369L12.8839 35.7296L14.0129 34.9659ZM2.258 43.3338C2.258 40.6109 4.18395 38.2865 6.84043 37.722V44.4628H2.258V43.3338ZM2.258 60.4681V46.754H6.84043V55.8857C6.84043 56.0185 6.87363 56.1181 6.90684 56.2509L8.69996 61.5971H3.42021C2.75609 61.6303 2.258 61.099 2.258 60.4681ZM35.3976 61.6303H11.0908L9.36408 56.4834L12.5519 54.8895L16.603 56.915C16.769 56.9815 16.935 57.0479 17.1011 57.0479H30.8151C31.0144 57.0479 31.2468 56.9815 31.4129 56.8818C32.4754 58.7746 33.9365 60.3685 35.7296 61.5639C35.63 61.5971 35.5304 61.6303 35.3976 61.6303ZM43.4002 61.5639C37.0911 61.5639 31.9773 56.4502 31.9773 50.141C31.9773 43.8319 37.0911 38.7182 43.4002 38.7182C49.7093 38.7182 54.8231 43.8319 54.8231 50.141C54.8231 56.4502 49.7093 61.5639 43.4002 61.5639Z" fill="black"/>
</svg>
