<svg width="78" height="65" viewBox="0 0 78 65" fill="none" xmlns="http://www.w3.org/2000/svg">
<path d="M65.8666 8.10181H57.5426V30.9255H65.8666V8.10181Z" fill="#F9BA48"/>
<path d="M56.4686 5.95361H47.6076V30.657H56.4686V5.95361Z" fill="#F9BA48"/>
<path d="M47.0706 4.61108H27.469V30.657H47.0706V4.61108Z" fill="#F9BA48"/>
<path d="M74.5933 40.1893H72.4989V23.6219C72.4989 21.3395 70.6462 19.4868 68.3638 19.4868H67.2897V10.223C67.2897 8.50455 65.8935 7.13512 64.2018 7.13512H57.8112C57.3815 5.89996 56.2269 5.09441 54.9112 5.06756H48.6817C48.2521 3.83239 47.0706 3.02685 45.7549 3H29.0533C27.3348 3 25.9653 4.39628 25.9653 6.08792V19.5405C22.958 20.0507 20.7562 22.6016 20.7562 25.6358V58.7973C20.7562 62.2074 23.5487 65 26.9589 65H68.3369C70.6193 65 72.4721 63.1473 72.4721 60.8649V54.5816H74.5665C76.285 54.5816 77.6544 53.1854 77.6544 51.4937V43.2772C77.6812 41.5587 76.285 40.1893 74.5933 40.1893ZM70.4045 23.5951V30.3616C69.4378 29.8514 68.3369 29.6635 67.2629 29.7977V21.5275H68.3369C69.4916 21.5275 70.4045 22.4673 70.4045 23.5951ZM57.9454 29.8783V22.8701C61.5704 23.4608 64.4435 26.2534 65.0879 29.8783H57.9454ZM28.0866 29.8783C28.6505 25.7969 32.5708 22.6553 37.2967 22.6553C42.0225 22.6553 45.9428 25.8237 46.5067 29.8783H28.0866ZM48.7354 22.8701C52.3603 23.4608 55.2334 26.2534 55.8779 29.8783H48.7354V22.8701ZM65.1953 10.223V13.311C62.9129 13.311 61.0602 11.4582 61.0602 9.17583H64.1481C64.7388 9.17583 65.1953 9.63231 65.1953 10.223ZM65.1953 15.3785V24.9376C63.3963 22.6821 60.7917 21.1784 57.9186 20.722V9.17583H58.9658C58.9926 12.6128 61.7583 15.3785 65.1953 15.3785ZM55.8779 8.15548V11.2434C53.5955 11.2434 51.7427 9.39065 51.7427 7.10827H54.8575C55.4214 7.10827 55.8779 7.5916 55.8779 8.15548ZM55.8779 13.311V24.9376C54.0788 22.6821 51.4742 21.1784 48.6011 20.722V7.10827H49.6483C49.6483 10.5453 52.4409 13.311 55.8779 13.311ZM46.6678 6.08792V9.17583C44.3854 9.17583 42.5327 7.32309 42.5327 5.04071H45.6206C46.2113 5.06756 46.6678 5.52404 46.6678 6.08792ZM29.0533 5.06756H32.1412C32.1412 7.34993 30.2884 9.20269 28.0061 9.20269V6.11477C28.0329 5.52404 28.4894 5.06756 29.0533 5.06756ZM34.2356 5.06756H40.4651C40.4651 8.47769 43.2577 11.2702 46.6947 11.2702V24.9913C44.4123 22.1988 40.9753 20.5877 37.3772 20.5877C33.7791 20.5877 30.3421 22.1988 28.0598 24.9913V11.2702C31.443 11.2434 34.2356 8.47769 34.2356 5.06756ZM25.9653 21.7155V29.6903C24.1394 29.2339 22.8774 27.5959 22.8774 25.7163C22.8774 23.8367 24.1394 22.1719 25.9653 21.7155ZM70.4045 60.8917C70.4045 62.0463 69.4916 62.9593 68.3369 62.9593H26.9589C24.6765 62.9593 22.8237 61.1065 22.8237 58.8242V30.3616C23.9515 31.382 25.4283 31.9459 26.9589 31.9459H68.3638C69.5184 31.9459 70.4314 32.8588 70.4314 34.0134V40.1893H63.3426C59.288 40.1893 55.9316 43.492 56.0121 47.5466C56.0927 51.4669 59.288 54.6085 63.2083 54.6085H70.4045V60.8917ZM74.4591 52.5409H63.2352C60.2547 52.5409 57.8112 50.0437 57.9991 47.0901C58.1602 44.4049 60.3889 42.2568 63.1278 42.2568H74.4591C75.0229 42.2568 75.4794 42.7133 75.4794 43.2772V51.4937C75.5063 52.0845 75.0498 52.5409 74.4591 52.5409Z" fill="black"/>
<path d="M63.1546 44.2976C61.4361 44.2976 60.0667 45.6939 60.0667 47.3855C60.0667 49.0772 61.463 50.4734 63.1546 50.4734C64.8731 50.4734 66.2425 49.0772 66.2425 47.3855C66.2425 45.6939 64.8731 44.2976 63.1546 44.2976ZM63.1546 48.4327C62.5907 48.4327 62.1342 47.9763 62.1342 47.4124C62.1342 46.8485 62.5907 46.392 63.1546 46.392C63.7185 46.392 64.175 46.8485 64.175 47.4124C64.175 47.9763 63.7185 48.4327 63.1546 48.4327Z" fill="black"/>
<path d="M28.006 34.0134H25.9922C25.4283 34.0134 24.9718 34.4162 24.9181 34.9801C24.8913 35.5708 25.3477 36.081 25.9385 36.081H27.9523C28.5162 36.081 28.9727 35.6782 29.0264 35.1143C29.0801 34.4968 28.5968 34.0134 28.006 34.0134Z" fill="black"/>
<path d="M54.8306 34.0134H32.2217C31.6578 34.0134 31.2014 34.4162 31.1477 34.9801C31.1208 35.5708 31.5773 36.081 32.168 36.081H54.777C55.3408 36.081 55.7973 35.6782 55.851 35.1143C55.9047 34.4968 55.4214 34.0134 54.8306 34.0134Z" fill="black"/>
<path d="M33.1885 40.78H0.402832V45.0494H33.1885V40.78Z" fill="white"/>
<path d="M32.7856 45.4521H0.832397V61.2139H32.7856V45.4521Z" fill="white"/>
<path d="M32.7856 38.229H0.832397V40.3503H32.7856V38.229Z" fill="white"/>
<path d="M31.3088 37.3699H2.36293C1.04721 37.3699 0 38.4171 0 39.7328V40.1624V45.7744V59.6834C0 60.9992 1.04721 62.0464 2.36293 62.0464H31.3088C32.6245 62.0464 33.6717 60.9992 33.6717 59.6834V45.7744V40.1624V39.7328C33.6717 38.4171 32.5977 37.3699 31.3088 37.3699ZM1.66479 41.8541C1.98701 41.8541 2.22867 41.6124 2.22867 41.2902H4.48419C4.48419 41.6124 4.72586 41.8541 5.04807 41.8541C5.37029 41.8541 5.61196 41.6124 5.61196 41.2902H7.86748C7.86748 41.6124 8.10914 41.8541 8.43136 41.8541C8.75358 41.8541 8.99524 41.6124 8.99524 41.2902H11.2508C11.2508 41.6124 11.4924 41.8541 11.8146 41.8541C12.1369 41.8541 12.3785 41.6124 12.3785 41.2902H14.634C14.634 41.6124 14.8757 41.8541 15.1979 41.8541C15.5201 41.8541 15.7618 41.6124 15.7618 41.2902H18.0173C18.0173 41.6124 18.259 41.8541 18.5812 41.8541C18.9034 41.8541 19.1451 41.6124 19.1451 41.2902H21.4006C21.4006 41.6124 21.6423 41.8541 21.9645 41.8541C22.2867 41.8541 22.5284 41.6124 22.5284 41.2902H24.7839C24.7839 41.6124 25.0256 41.8541 25.3478 41.8541C25.67 41.8541 25.9116 41.6124 25.9116 41.2902H28.1672C28.1672 41.6124 28.4088 41.8541 28.7311 41.8541C29.0533 41.8541 29.2949 41.6124 29.2949 41.2902H31.5505C31.5505 41.6124 31.7921 41.8541 32.1143 41.8541C32.4366 41.8541 32.6782 41.6124 32.6782 41.2902V44.6466C32.6782 44.3244 32.4366 44.0827 32.1143 44.0827C31.7921 44.0827 31.5505 44.3244 31.5505 44.6466H29.2949C29.2949 44.3244 29.0533 44.0827 28.7311 44.0827C28.4088 44.0827 28.1672 44.3244 28.1672 44.6466H25.9116C25.9116 44.3244 25.67 44.0827 25.3478 44.0827C25.0256 44.0827 24.7839 44.3244 24.7839 44.6466H22.5284C22.5284 44.3244 22.2867 44.0827 21.9645 44.0827C21.6423 44.0827 21.4006 44.3244 21.4006 44.6466H19.1451C19.1451 44.3244 18.9034 44.0827 18.5812 44.0827C18.259 44.0827 18.0173 44.3244 18.0173 44.6466H15.7618C15.7618 44.3244 15.5201 44.0827 15.1979 44.0827C14.8757 44.0827 14.634 44.3244 14.634 44.6466H12.3785C12.3785 44.3244 12.1369 44.0827 11.8146 44.0827C11.4924 44.0827 11.2508 44.3244 11.2508 44.6466H8.99524C8.99524 44.3244 8.75358 44.0827 8.43136 44.0827C8.10914 44.0827 7.86748 44.3244 7.86748 44.6466H5.61196C5.61196 44.3244 5.37029 44.0827 5.04807 44.0827C4.72586 44.0827 4.48419 44.3244 4.48419 44.6466H2.22867C2.22867 44.3244 1.98701 44.0827 1.66479 44.0827C1.34257 44.0827 1.10091 44.3244 1.10091 44.6466V41.2902C1.10091 41.6124 1.36942 41.8541 1.66479 41.8541ZM31.3088 60.9454H2.36293C1.66479 60.9454 1.12776 60.3816 1.12776 59.7103V45.8012H32.5708V59.7103C32.544 60.3816 31.9801 60.9454 31.3088 60.9454ZM1.10091 40.1893V39.7597C1.10091 39.0615 1.66479 38.5245 2.33608 38.5245H31.2819C31.9801 38.5245 32.5171 39.0884 32.5171 39.7597V40.1893H1.10091Z" fill="black"/>
<path d="M4.02775 49.1575H9.07582C9.39804 49.1575 9.6397 48.9159 9.6397 48.5937C9.6397 48.2714 9.39804 48.0298 9.07582 48.0298H4.02775C3.70553 48.0298 3.46387 48.2714 3.46387 48.5937C3.46387 48.9159 3.70553 49.1575 4.02775 49.1575Z" fill="#F9BA48"/>
<path d="M11.3045 49.1575H16.3526C16.6748 49.1575 16.9164 48.9159 16.9164 48.5937C16.9164 48.2714 16.6748 48.0298 16.3526 48.0298H11.3045C10.9823 48.0298 10.7406 48.2714 10.7406 48.5937C10.7406 48.9159 11.0091 49.1575 11.3045 49.1575Z" fill="#F9BA48"/>
<path d="M4.02775 51.9769H4.59163C4.91384 51.9769 5.15551 51.7352 5.15551 51.413C5.15551 51.0908 4.91384 50.8491 4.59163 50.8491H4.02775C3.70553 50.8491 3.46387 51.0908 3.46387 51.413C3.46387 51.7352 3.70553 51.9769 4.02775 51.9769Z" fill="#F9BA48"/>
<path d="M7.94805 50.8491H6.82029C6.49807 50.8491 6.25641 51.0908 6.25641 51.413C6.25641 51.7352 6.49807 51.9769 6.82029 51.9769H7.94805C8.27027 51.9769 8.51193 51.7352 8.51193 51.413C8.51193 51.0908 8.24342 50.8491 7.94805 50.8491Z" fill="#F9BA48"/>
<path d="M10.2035 51.9769H10.7674C11.0896 51.9769 11.3313 51.7352 11.3313 51.413C11.3313 51.0908 11.0896 50.8491 10.7674 50.8491H10.2035C9.88131 50.8491 9.63965 51.0908 9.63965 51.413C9.63965 51.7352 9.88131 51.9769 10.2035 51.9769Z" fill="#F9BA48"/>
<path d="M14.1239 50.8491H12.9961C12.6739 50.8491 12.4323 51.0908 12.4323 51.413C12.4323 51.7352 12.6739 51.9769 12.9961 51.9769H14.1239C14.4461 51.9769 14.6878 51.7352 14.6878 51.413C14.6878 51.0908 14.4193 50.8491 14.1239 50.8491Z" fill="#F9BA48"/>
<path d="M15.9766 50.7419C15.8692 50.8493 15.8155 50.9836 15.8155 51.1447C15.8155 51.2789 15.8692 51.4401 15.9766 51.5475C16.084 51.6549 16.2183 51.7086 16.3794 51.7086C16.5136 51.7086 16.6747 51.6549 16.7821 51.5475C16.8895 51.4401 16.9433 51.3058 16.9433 51.1447C16.9433 51.0104 16.8895 50.8493 16.7821 50.7419C16.5673 50.5271 16.1646 50.5271 15.9766 50.7419Z" fill="#F9BA48"/>
<path d="M13.56 43.2772C13.8714 43.2772 14.1239 43.0247 14.1239 42.7133C14.1239 42.4019 13.8714 42.1494 13.56 42.1494C13.2485 42.1494 12.9961 42.4019 12.9961 42.7133C12.9961 43.0247 13.2485 43.2772 13.56 43.2772Z" fill="black"/>
<path d="M16.9164 43.2772C17.2278 43.2772 17.4803 43.0247 17.4803 42.7133C17.4803 42.4019 17.2278 42.1494 16.9164 42.1494C16.605 42.1494 16.3525 42.4019 16.3525 42.7133C16.3525 43.0247 16.605 43.2772 16.9164 43.2772Z" fill="black"/>
<path d="M10.2035 43.2772C10.5149 43.2772 10.7674 43.0247 10.7674 42.7133C10.7674 42.4019 10.5149 42.1494 10.2035 42.1494C9.8921 42.1494 9.63965 42.4019 9.63965 42.7133C9.63965 43.0247 9.8921 43.2772 10.2035 43.2772Z" fill="black"/>
<path d="M3.46385 43.2772C3.77527 43.2772 4.02772 43.0247 4.02772 42.7133C4.02772 42.4019 3.77527 42.1494 3.46385 42.1494C3.15242 42.1494 2.89996 42.4019 2.89996 42.7133C2.89996 43.0247 3.15242 43.2772 3.46385 43.2772Z" fill="black"/>
<path d="M6.82029 43.2772C7.13171 43.2772 7.38417 43.0247 7.38417 42.7133C7.38417 42.4019 7.13171 42.1494 6.82029 42.1494C6.50887 42.1494 6.25641 42.4019 6.25641 42.7133C6.25641 43.0247 6.50887 43.2772 6.82029 43.2772Z" fill="black"/>
<path d="M30.3958 43.2772C30.7073 43.2772 30.9597 43.0247 30.9597 42.7133C30.9597 42.4019 30.7073 42.1494 30.3958 42.1494C30.0844 42.1494 29.832 42.4019 29.832 42.7133C29.832 43.0247 30.0844 43.2772 30.3958 43.2772Z" fill="black"/>
<path d="M27.0394 43.2772C27.3508 43.2772 27.6033 43.0247 27.6033 42.7133C27.6033 42.4019 27.3508 42.1494 27.0394 42.1494C26.728 42.1494 26.4755 42.4019 26.4755 42.7133C26.4755 43.0247 26.728 43.2772 27.0394 43.2772Z" fill="black"/>
<path d="M20.2997 43.2772C20.6111 43.2772 20.8636 43.0247 20.8636 42.7133C20.8636 42.4019 20.6111 42.1494 20.2997 42.1494C19.9883 42.1494 19.7358 42.4019 19.7358 42.7133C19.7358 43.0247 19.9883 43.2772 20.2997 43.2772Z" fill="black"/>
<path d="M23.6561 43.2772C23.9675 43.2772 24.22 43.0247 24.22 42.7133C24.22 42.4019 23.9675 42.1494 23.6561 42.1494C23.3447 42.1494 23.0922 42.4019 23.0922 42.7133C23.0922 43.0247 23.3447 43.2772 23.6561 43.2772Z" fill="black"/>
<path d="M30.2885 51.9771H20.1923V58.7168H30.2885V51.9771ZM29.1876 57.589H21.3201V53.1048H29.1876V57.589Z" fill="#F9BA48"/>
<path d="M8.85802 31.2182C13.0605 31.2182 16.4672 27.9866 16.4672 24.0002C16.4672 20.0137 13.0605 16.7821 8.85802 16.7821C4.65559 16.7821 1.24884 20.0137 1.24884 24.0002C1.24884 27.9866 4.65559 31.2182 8.85802 31.2182Z" fill="white"/>
<path d="M14.5472 18.3112C13.0538 16.8178 11.0626 16 8.9292 16C6.79578 16 4.84015 16.8178 3.3112 18.3112C1.81781 19.8046 1 21.7958 1 23.9292C1 26.0626 1.81781 28.0182 3.3112 29.5472C4.80459 31.0406 6.79578 31.8584 8.9292 31.8584C11.0626 31.8584 13.0182 31.0406 14.5472 29.5472C16.0406 28.0538 16.8584 26.0626 16.8584 23.9292C16.8584 21.7958 16.0406 19.8046 14.5472 18.3112ZM8.9292 30.9339C5.08905 30.9339 1.92448 27.8049 1.92448 23.9292C1.92448 20.089 5.05349 16.9245 8.9292 16.9245C12.7693 16.9245 15.9339 20.0535 15.9339 23.9292C15.9339 27.7693 12.8049 30.9339 8.9292 30.9339Z" fill="#F9BA48"/>
<path d="M9.42703 23.4312H8.46699C7.86252 23.4312 7.40029 22.9334 7.43584 22.3289C7.4714 21.7956 7.89808 21.3689 8.46699 21.3689H10.4582C10.7071 21.3689 10.9204 21.1911 10.9204 20.9422C10.956 20.6578 10.7426 20.4089 10.4582 20.4089H9.39147V19.4133C9.39147 19.1644 9.21369 18.951 8.96479 18.951C8.68034 18.9155 8.43144 19.1288 8.43144 19.4133V20.4444C7.36473 20.4444 6.4758 21.2978 6.44025 22.3645C6.44025 23.4667 7.29361 24.3557 8.39588 24.3557H9.39147C9.85371 24.3557 10.316 24.7468 10.4226 25.209C10.5293 25.8846 10.0315 26.4535 9.39147 26.4535H7.43584C7.18694 26.4535 6.9736 26.6313 6.9736 26.8802C6.93804 27.1647 7.15139 27.4136 7.43584 27.4136H8.46699V28.4447C8.46699 28.6581 8.60922 28.8714 8.85812 28.907C9.14258 28.9425 9.39147 28.7292 9.39147 28.4447V27.378C10.3515 27.378 11.2049 26.6669 11.3471 25.7068C11.5249 24.4979 10.6004 23.4312 9.42703 23.4312Z" fill="#F9BA48"/>
<path d="M8.9467 23.3902C13.1966 23.3902 16.6417 20.1221 16.6417 16.0907C16.6417 12.0592 13.1966 8.79114 8.9467 8.79114C4.69684 8.79114 1.25165 12.0592 1.25165 16.0907C1.25165 20.1221 4.69684 23.3902 8.9467 23.3902Z" fill="white"/>
<path d="M14.7001 10.3373C13.1898 8.82704 11.1762 8 9.01868 8C6.86119 8 4.88348 8.82704 3.33728 10.3373C1.82704 11.8475 1 13.8612 1 16.0187C1 18.1762 1.82704 20.1539 3.33728 21.7001C4.84753 23.2103 6.86119 24.0374 9.01868 24.0374C11.1762 24.0374 13.1539 23.2103 14.7001 21.7001C16.2103 20.1898 17.0374 18.1762 17.0374 16.0187C17.0374 13.8612 16.2103 11.8475 14.7001 10.3373ZM9.01868 23.1024C5.13519 23.1024 1.93492 19.9381 1.93492 16.0187C1.93492 12.0992 5.09923 8.93492 9.01868 8.93492C12.9022 8.93492 16.1024 12.0992 16.1024 16.0187C16.1024 19.9381 12.9381 23.1024 9.01868 23.1024Z" fill="#F9BA48"/>
<path d="M9.52208 15.5154H8.5512C7.93991 15.5154 7.47246 15.012 7.50842 14.4007C7.54438 13.8613 7.97587 13.4298 8.5512 13.4298H10.5649C10.8166 13.4298 11.0323 13.25 11.0323 12.9983C11.0683 12.7106 10.8525 12.4589 10.5649 12.4589H9.48612V11.4521C9.48612 11.2004 9.30633 10.9846 9.05462 10.9846C8.76696 10.9487 8.51525 11.1644 8.51525 11.4521V12.4949C7.4365 12.4949 6.53755 13.3579 6.50159 14.4366C6.50159 15.5513 7.36458 16.4503 8.47929 16.4503H9.48612C9.95357 16.4503 10.421 16.8458 10.5289 17.3133C10.6368 17.9965 10.1334 18.5718 9.48612 18.5718H7.50842C7.25671 18.5718 7.04096 18.7516 7.04096 19.0033C7.005 19.291 7.22075 19.5427 7.50842 19.5427H8.5512V20.5855C8.5512 20.8012 8.69504 21.017 8.94675 21.0529C9.23441 21.0889 9.48612 20.8731 9.48612 20.5855V19.5067C10.457 19.5067 11.32 18.7876 11.4638 17.8167C11.6436 16.5941 10.7087 15.5154 9.52208 15.5154Z" fill="#F9BA48"/>
<path d="M8.85802 15.2185C13.0605 15.2185 16.4672 11.9868 16.4672 8.00041C16.4672 4.01398 13.0605 0.782349 8.85802 0.782349C4.65559 0.782349 1.24884 4.01398 1.24884 8.00041C1.24884 11.9868 4.65559 15.2185 8.85802 15.2185Z" fill="white"/>
<path d="M14.5472 2.3112C13.0538 0.81781 11.0626 0 8.9292 0C6.79578 0 4.84015 0.81781 3.3112 2.3112C1.81781 3.80459 1 5.79578 1 7.9292C1 10.0626 1.81781 12.0182 3.3112 13.5472C4.80459 15.0406 6.79578 15.8584 8.9292 15.8584C11.0626 15.8584 13.0182 15.0406 14.5472 13.5472C16.0406 12.0538 16.8584 10.0626 16.8584 7.9292C16.8584 5.79578 16.0406 3.80459 14.5472 2.3112ZM8.9292 14.9339C5.08905 14.9339 1.92448 11.8049 1.92448 7.9292C1.92448 4.05349 5.05349 0.924483 8.9292 0.924483C12.7693 0.924483 15.9339 4.05349 15.9339 7.9292C15.9339 11.8049 12.8049 14.9339 8.9292 14.9339Z" fill="#F9BA48"/>
<path d="M9.42703 7.43156H8.46699C7.86252 7.43156 7.40029 6.93376 7.43584 6.3293C7.4714 5.79594 7.89808 5.36926 8.46699 5.36926H10.4582C10.7071 5.36926 10.9204 5.19147 10.9204 4.94257C10.956 4.65812 10.7426 4.40922 10.4582 4.40922H9.39147V3.41363C9.39147 3.16473 9.21369 2.95139 8.96479 2.95139C8.68034 2.91583 8.43144 3.12917 8.43144 3.41363V4.44478C7.36473 4.44478 6.4758 5.29814 6.44025 6.36485C6.44025 7.46711 7.29361 8.35604 8.39588 8.35604H9.39147C9.85371 8.35604 10.316 8.74717 10.4226 9.20941C10.5293 9.88499 10.0315 10.4539 9.39147 10.4539H7.43584C7.18694 10.4539 6.9736 10.6317 6.9736 10.8806C6.93804 11.165 7.15139 11.4139 7.43584 11.4139H8.46699V12.4451C8.46699 12.6584 8.60922 12.8718 8.85812 12.9073C9.14258 12.9429 9.39147 12.7295 9.39147 12.4451V11.3784C10.3515 11.3784 11.2049 10.6672 11.3471 9.70721C11.5249 8.49827 10.6004 7.43156 9.42703 7.43156Z" fill="#F9BA48"/>
</svg>
