<svg width="60" height="60" viewBox="0 0 60 60" fill="none" xmlns="http://www.w3.org/2000/svg">
<rect x="2.9032" y="5.8064" width="54.1936" height="35.8064" fill="#F9BA48"/>
<path d="M46 19C45.7349 18.9997 45.4807 18.8943 45.2932 18.7068C45.1057 18.5193 45.0003 18.2651 45 18H43C43.0019 18.6184 43.1952 19.221 43.5533 19.7251C43.9114 20.2293 44.4167 20.6102 45 20.8156V22H47V20.8158C47.667 20.5812 48.2293 20.1181 48.5874 19.5085C48.9456 18.8989 49.0763 18.1823 48.9565 17.4855C48.8367 16.7887 48.4741 16.1569 47.9329 15.7019C47.3917 15.247 46.707 14.9983 46 15C45.8022 15 45.6089 14.9414 45.4444 14.8315C45.28 14.7216 45.1518 14.5654 45.0761 14.3827C45.0004 14.2 44.9806 13.9989 45.0192 13.8049C45.0578 13.6109 45.153 13.4327 45.2929 13.2929C45.4327 13.153 45.6109 13.0578 45.8049 13.0192C45.9989 12.9806 46.2 13.0004 46.3827 13.0761C46.5654 13.1518 46.7216 13.28 46.8315 13.4444C46.9414 13.6089 47 13.8022 47 14H49C48.9981 13.3816 48.8049 12.779 48.4468 12.2748C48.0887 11.7706 47.5833 11.3897 47 11.1842V10H45V11.1842C44.333 11.4188 43.7707 11.8819 43.4126 12.4915C43.0544 13.1011 42.9237 13.8177 43.0435 14.5145C43.1633 15.2113 43.5259 15.8431 44.0671 16.2981C44.6083 16.753 45.293 17.0017 46 17C46.2652 17 46.5196 17.1054 46.7071 17.2929C46.8946 17.4804 47 17.7348 47 18C47 18.2652 46.8946 18.5196 46.7071 18.7071C46.5196 18.8946 46.2652 19 46 19Z" fill="black"/>
<path d="M57 0H3C2.20462 0.000893291 1.44208 0.317251 0.879666 0.879666C0.317251 1.44208 0.000893291 2.20462 0 3V5C0 5.26522 0.105357 5.51957 0.292893 5.70711C0.48043 5.89464 0.734783 6 1 6H2V41H1C0.734783 41 0.48043 41.1054 0.292893 41.2929C0.105357 41.4804 0 41.7348 0 42V44C0.000893291 44.7954 0.317251 45.5579 0.879666 46.1203C1.44208 46.6827 2.20462 46.9991 3 47H18.5437L14.0664 58.6411C14.0081 58.7926 13.9876 58.956 14.0066 59.1172C14.0257 59.2784 14.0836 59.4325 14.1755 59.5663C14.2675 59.7001 14.3905 59.8094 14.5342 59.885C14.6778 59.9606 14.8377 60 15 60H19C19.2022 60 19.3996 59.9388 19.5663 59.8243C19.733 59.7099 19.8611 59.5476 19.9336 59.3589L24.6875 47H27V59C27 59.2652 27.1054 59.5196 27.2929 59.7071C27.4804 59.8946 27.7348 60 28 60H32C32.2652 60 32.5196 59.8946 32.7071 59.7071C32.8946 59.5196 33 59.2652 33 59V47H35.3125L40.0659 59.3589C40.1385 59.5477 40.2666 59.71 40.4334 59.8245C40.6002 59.9389 40.7977 60.0001 41 60H45C45.1623 60 45.3222 59.9606 45.4658 59.885C45.6095 59.8094 45.7325 59.7001 45.8244 59.5663C45.9164 59.4325 45.9743 59.2784 45.9933 59.1172C46.0124 58.956 45.9919 58.7926 45.9336 58.6411L41.4562 47H57C57.7954 46.9991 58.5579 46.6827 59.1203 46.1203C59.6827 45.5579 59.9991 44.7954 60 44V42C60 41.7348 59.8946 41.4804 59.7071 41.2929C59.5196 41.1054 59.2652 41 59 41H58V6H59C59.2652 6 59.5196 5.89464 59.7071 5.70711C59.8946 5.51957 60 5.26522 60 5V3C59.9991 2.20462 59.6827 1.44208 59.1203 0.879666C58.5579 0.317251 57.7954 0.000893291 57 0ZM18.3135 58H16.456L20.6865 47H22.544L18.3135 58ZM31 58H29V47H31V58ZM43.544 58H41.6865L37.456 47H39.3135L43.544 58ZM58 44C57.9997 44.2651 57.8943 44.5193 57.7068 44.7068C57.5193 44.8943 57.2651 44.9997 57 45H3C2.73486 44.9997 2.48066 44.8943 2.29319 44.7068C2.10571 44.5193 2.00026 44.2651 2 44V43H58V44ZM56 41H4V6H56V41ZM58 4H2V3C2.00026 2.73486 2.10571 2.48066 2.29319 2.29319C2.48066 2.10571 2.73486 2.00026 3 2H57C57.2651 2.00026 57.5193 2.10571 57.7068 2.29319C57.8943 2.48066 57.9997 2.73486 58 3V4Z" fill="black"/>
<path d="M9 37H53V35H49V25C49 24.7348 48.8946 24.4804 48.7071 24.2929C48.5196 24.1054 48.2652 24 48 24H44C43.7348 24 43.4804 24.1054 43.2929 24.2929C43.1054 24.4804 43 24.7348 43 25V35H41V28C41 27.7348 40.8946 27.4804 40.7071 27.2929C40.5196 27.1054 40.2652 27 40 27H36C35.7348 27 35.4804 27.1054 35.2929 27.2929C35.1054 27.4804 35 27.7348 35 28V35H33V31C33 30.7348 32.8946 30.4804 32.7071 30.2929C32.5196 30.1054 32.2652 30 32 30H28C27.7348 30 27.4804 30.1054 27.2929 30.2929C27.1054 30.4804 27 30.7348 27 31V35H25V32C25 31.7348 24.8946 31.4804 24.7071 31.2929C24.5196 31.1054 24.2652 31 24 31H20C19.7348 31 19.4804 31.1054 19.2929 31.2929C19.1054 31.4804 19 31.7348 19 32V35H10V29H12V27H10V22H12V20H10V16H12V14H10V10H8V36C8 36.2652 8.10536 36.5196 8.29289 36.7071C8.48043 36.8946 8.73478 37 9 37ZM45 26H47V35H45V26ZM37 29H39V35H37V29ZM29 32H31V35H29V32ZM21 33H23V35H21V33Z" fill="black"/>
<path d="M39.4483 17.2666C32.7774 23.4521 23.502 27 14 27V29C24.001 29 33.7715 25.2577 40.8076 18.7334L39.4483 17.2666Z" fill="black"/>
<path d="M15.9414 19.9438C15.2971 19.9813 14.65 20 14 20V22C14.6885 22 15.374 21.9803 16.0566 21.9408L15.9414 19.9438Z" fill="black"/>
<path d="M38.9795 11.7602L37.5713 10.3403C36.617 11.2862 35.606 12.1731 34.544 12.9961L35.769 14.5771C36.8954 13.7042 37.9675 12.7635 38.9795 11.7602Z" fill="black"/>
<path d="M34.043 15.8335L32.916 14.1812C31.8052 14.9381 30.6498 15.6274 29.456 16.2452L30.374 18.0215C31.6399 17.3667 32.8652 16.6361 34.043 15.8335Z" fill="black"/>
<path d="M28.4482 18.9457L27.6396 17.1167C26.4096 17.6608 25.1483 18.1313 23.8625 18.5258L24.4485 20.4383C25.8102 20.0206 27.1458 19.5222 28.4482 18.9457Z" fill="black"/>
<path d="M22.3868 21.002L21.918 19.0576C20.6107 19.3731 19.2858 19.6104 17.9503 19.7681L18.1846 21.7544C19.5991 21.5874 21.0023 21.3362 22.3868 21.002Z" fill="black"/>
</svg>
