<svg width="70" height="70" viewBox="0 0 70 70" fill="none" xmlns="http://www.w3.org/2000/svg">
<circle r="2.5" transform="matrix(1 0 0 -1 58.5 21.5254)" fill="white" stroke="white" stroke-width="2"/>
<circle r="2.5" transform="matrix(1 0 0 -1 58.5 42.5254)" fill="white" stroke="white" stroke-width="2"/>
<circle r="2.5" transform="matrix(1 0 0 -1 58.5 63.5254)" fill="white" stroke="white" stroke-width="2"/>
<line x1="40" y1="43.0254" x2="55" y2="43.0254" stroke="white" stroke-width="2" stroke-linecap="round"/>
<path d="M40 33.0254H54.5L58.5 24.0254" stroke="white" stroke-width="2" stroke-linecap="round" stroke-linejoin="round"/>
<path d="M40 53.0254C39.4477 53.0254 39 52.5777 39 52.0254C39 51.4731 39.4477 51.0254 40 51.0254V53.0254ZM54.5 52.0254V51.0254C54.8952 51.0254 55.2533 51.2581 55.4138 51.6193L54.5 52.0254ZM59.4138 60.6193C59.6381 61.1239 59.4108 61.7149 58.9061 61.9392C58.4015 62.1635 57.8105 61.9362 57.5862 61.4315L59.4138 60.6193ZM40 51.0254H54.5V53.0254H40V51.0254ZM55.4138 51.6193L59.4138 60.6193L57.5862 61.4315L53.5862 52.4315L55.4138 51.6193Z" fill="white"/>
<rect y="30.0254" width="34" height="25" rx="3" fill="#FF634E"/>
<path fill-rule="evenodd" clip-rule="evenodd" d="M26.1844 6.82848C28.5283 9.1724 29.8868 12.3175 29.9934 15.6201H30.001V31.5254H27.4795V16.0406H27.4727C27.4727 13.2557 26.3664 10.5849 24.3972 8.61563C22.428 6.64641 19.7572 5.54011 16.9722 5.54011C14.1873 5.54011 11.5165 6.64641 9.54728 8.61563C7.67738 10.4855 6.58556 12.988 6.48016 15.6201H6.52251V31.5254H4.00098V16.0406H3.94434C3.94434 12.5854 5.31692 9.27169 7.76012 6.82848C10.2033 4.38527 13.517 3.0127 16.9722 3.0127C20.4275 3.0127 23.7412 4.38528 26.1844 6.82848Z" fill="#FF634E"/>
<circle cx="17" cy="40" r="3" fill="#181818"/>
<rect x="16" y="42.0254" width="2" height="7" rx="1" fill="#181818"/>
</svg>
