<svg width="70" height="70" viewBox="0 0 70 70" fill="none" xmlns="http://www.w3.org/2000/svg">
<g clip-path="url(#clip0)">
<path fill-rule="evenodd" clip-rule="evenodd" d="M9 5H3C1.34315 5 0 6.34315 0 8V67C0 68.6569 1.34315 70 3 70H32C33.6569 70 35 68.6569 35 67V8C35 6.34315 33.6569 5 32 5H26V7C26 8.10457 25.1046 9 24 9H11C9.89543 9 9 8.10457 9 7V5Z" fill="#FF634E"/>
<path d="M31.0202 31.5123L36.6639 37.156M31.0202 31.5123L26.5654 35.967M31.0202 31.5123L35.475 27.0575M14.3901 59.4299L8.74634 53.7861L13.2011 49.3314M58.9378 14.8821L53.2941 9.23841L48.8393 13.6932M17.6559 44.8766L13.2011 49.3314M17.6559 44.8766L22.1107 40.4218M17.6559 44.8766L20.8247 48.0454M13.2011 49.3314L16.37 52.5002M22.1107 40.4218L26.5654 35.967M22.1107 40.4218L25.2795 43.5907M26.5654 35.967L29.7343 39.1359M35.475 27.0575L39.9297 22.6027M35.475 27.0575L38.6438 30.2264M39.9297 22.6027L44.3845 18.148M39.9297 22.6027L43.0986 25.7716M44.3845 18.148L48.8393 13.6932M44.3845 18.148L47.5534 21.3168M48.8393 13.6932L52.0082 16.862" stroke="white" stroke-width="2" stroke-linecap="round"/>
<path d="M21.0713 62.3326C21.4136 62.6748 21.678 63.043 21.8647 63.4371C22.0514 63.8208 22.1603 64.2097 22.1914 64.6038C22.2225 64.9875 22.1732 65.3635 22.0436 65.7316C21.914 66.0894 21.7066 66.4109 21.4214 66.6961C21.131 66.9865 20.8069 67.1965 20.4491 67.3262C20.0861 67.4506 19.7102 67.4999 19.3212 67.474C18.9323 67.4377 18.5434 67.3288 18.1545 67.1473C17.7656 66.9554 17.4 66.6884 17.0578 66.3461C16.7156 66.0039 16.4511 65.6409 16.2644 65.2572C16.0777 64.8631 15.9689 64.4742 15.9377 64.0904C15.9066 63.6964 15.9533 63.3178 16.0777 62.9548C16.2022 62.5919 16.4096 62.2652 16.7 61.9748C16.9852 61.6896 17.3093 61.4848 17.6723 61.3603C18.0404 61.2307 18.419 61.184 18.8079 61.2203C19.1968 61.2462 19.5857 61.3551 19.9746 61.547C20.3635 61.7285 20.7291 61.9903 21.0713 62.3326ZM20.0213 63.3826C19.8139 63.1752 19.6013 63.0093 19.3835 62.8848C19.1605 62.7552 18.9427 62.6722 18.7301 62.6359C18.5227 62.5944 18.3256 62.5996 18.139 62.6515C17.9575 62.6982 17.7967 62.7915 17.6567 62.9315C17.5115 63.0767 17.413 63.2426 17.3611 63.4293C17.3145 63.6108 17.3093 63.8078 17.3456 64.0204C17.3871 64.2279 17.4726 64.4431 17.6023 64.666C17.7267 64.8838 17.8927 65.0964 18.1001 65.3038C18.3075 65.5113 18.5201 65.6772 18.7379 65.8016C18.9557 65.9261 19.1683 66.0091 19.3757 66.0505C19.5883 66.0868 19.7853 66.0817 19.9668 66.035C20.1535 65.9831 20.3194 65.8846 20.4646 65.7394C20.6046 65.5994 20.698 65.4387 20.7447 65.2572C20.7965 65.0705 20.8017 64.8735 20.7602 64.666C20.7239 64.4534 20.6435 64.2382 20.5191 64.0204C20.3946 63.8027 20.2287 63.5901 20.0213 63.3826Z" fill="white"/>
<path d="M44.7648 41.3144L45.7059 42.2555L42.548 45.4135L41.6068 44.4723L42.7113 43.3678L40.3545 41.011C40.3701 41.1199 40.3597 41.2599 40.3234 41.431C40.2871 41.5918 40.2379 41.7603 40.1756 41.9366C40.1134 42.1129 40.0356 42.284 39.9423 42.45C39.8541 42.6107 39.7608 42.7404 39.6623 42.8389L38.69 41.8666C38.7833 41.7733 38.8689 41.6307 38.9467 41.4388C39.0193 41.2418 39.0789 41.0369 39.1256 40.8243C39.1723 40.6117 39.2034 40.4199 39.2189 40.2487C39.2345 40.0673 39.2319 39.9402 39.2111 39.8676L40.2768 38.802L43.7769 42.3022L44.7648 41.3144Z" fill="white"/>
<path d="M64.3463 23.6157C64.1129 23.3823 63.9211 23.1542 63.7707 22.9312C63.6151 22.703 63.501 22.4645 63.4284 22.2156C63.361 21.9615 63.3351 21.6867 63.3507 21.3911C63.3714 21.0903 63.4362 20.7507 63.5451 20.3722C63.6436 20.0455 63.7318 19.7603 63.8096 19.5166C63.8874 19.2625 63.9444 19.0447 63.9807 18.8632C64.017 18.6817 64.0274 18.5261 64.0118 18.3965C63.9911 18.2617 63.9314 18.145 63.8329 18.0465C63.6773 17.8909 63.4829 17.8209 63.2495 17.8365C63.011 17.8468 62.7751 17.9687 62.5417 18.2021C62.4173 18.3265 62.3213 18.4587 62.2539 18.5987C62.1813 18.7336 62.1269 18.8762 62.0906 19.0265C62.0595 19.1717 62.0413 19.3195 62.0361 19.4699C62.031 19.6099 62.0361 19.7499 62.0517 19.8899L60.6127 19.7888C60.6076 19.6488 60.6257 19.4751 60.6672 19.2677C60.7035 19.0551 60.7683 18.8295 60.8616 18.591C60.955 18.3421 61.0794 18.0932 61.235 17.8443C61.3906 17.585 61.585 17.3387 61.8184 17.1053C62.0828 16.8409 62.3525 16.6386 62.6273 16.4986C62.8969 16.3534 63.1614 16.2705 63.4207 16.2497C63.6799 16.2186 63.9288 16.2497 64.1674 16.3431C64.4059 16.426 64.6211 16.5634 64.813 16.7553C64.9944 16.9368 65.1215 17.1313 65.1941 17.3387C65.2667 17.5461 65.3056 17.7561 65.3108 17.9687C65.3159 18.1813 65.2978 18.3913 65.2563 18.5987C65.2148 18.7958 65.1682 18.9825 65.1163 19.1588C65.0748 19.304 65.0282 19.4699 64.9763 19.6566C64.9244 19.8432 64.8804 20.0377 64.8441 20.2399C64.8078 20.4318 64.7844 20.6211 64.7741 20.8077C64.7585 20.9892 64.7663 21.1474 64.7974 21.2822L67.1542 18.9254L68.0953 19.8666L64.3463 23.6157Z" fill="white"/>
</g>
<defs>
<clipPath id="clip0">
<rect width="70" height="70" fill="white"/>
</clipPath>
</defs>
</svg>
