<svg width="70" height="65" viewBox="0 0 70 65" fill="none" xmlns="http://www.w3.org/2000/svg">
<path fill-rule="evenodd" clip-rule="evenodd" d="M9 0H3C1.34315 0 0 1.34315 0 3V62C0 63.6569 1.34315 65 3 65H32C33.6569 65 35 63.6569 35 62V3C35 1.34315 33.6569 0 32 0H26V2C26 3.10457 25.1046 4 24 4H11C9.89543 4 9 3.10457 9 2V0Z" fill="#FF634E"/>
<path d="M31.02 26.512L36.6637 32.1558M31.02 26.512L26.5652 30.9668M31.02 26.512L35.4747 22.0573M14.3898 54.4296L8.74609 48.7859L13.2009 44.3311M58.9376 9.8819L53.2938 4.23816L48.839 8.69293M17.6556 39.8763L13.2009 44.3311M17.6556 39.8763L22.1104 35.4216M17.6556 39.8763L20.8245 43.0452M13.2009 44.3311L16.3697 47.5M22.1104 35.4216L26.5652 30.9668M22.1104 35.4216L25.2793 38.5904M26.5652 30.9668L29.734 34.1357M35.4747 22.0573L39.9295 17.6025M35.4747 22.0573L38.6436 25.2261M39.9295 17.6025L44.3843 13.1477M39.9295 17.6025L43.0984 20.7713M44.3843 13.1477L48.839 8.69293M44.3843 13.1477L47.5531 16.3166M48.839 8.69293L52.0079 11.8618" stroke="white" stroke-width="2" stroke-linecap="round"/>
<path d="M21.0713 57.3326C21.4136 57.6748 21.678 58.043 21.8647 58.4371C22.0514 58.8208 22.1603 59.2097 22.1914 59.6038C22.2225 59.9875 22.1732 60.3635 22.0436 60.7316C21.914 61.0894 21.7066 61.4109 21.4214 61.6961C21.131 61.9865 20.8069 62.1965 20.4491 62.3262C20.0861 62.4506 19.7102 62.4999 19.3212 62.474C18.9323 62.4377 18.5434 62.3288 18.1545 62.1473C17.7656 61.9554 17.4 61.6884 17.0578 61.3461C16.7156 61.0039 16.4511 60.6409 16.2644 60.2572C16.0777 59.8631 15.9689 59.4742 15.9377 59.0904C15.9066 58.6964 15.9533 58.3178 16.0777 57.9548C16.2022 57.5919 16.4096 57.2652 16.7 56.9748C16.9852 56.6896 17.3093 56.4848 17.6723 56.3603C18.0404 56.2307 18.419 56.184 18.8079 56.2203C19.1968 56.2462 19.5857 56.3551 19.9746 56.547C20.3635 56.7285 20.7291 56.9903 21.0713 57.3326ZM20.0213 58.3826C19.8139 58.1752 19.6013 58.0093 19.3835 57.8848C19.1605 57.7552 18.9427 57.6722 18.7301 57.6359C18.5227 57.5944 18.3256 57.5996 18.139 57.6515C17.9575 57.6982 17.7967 57.7915 17.6567 57.9315C17.5115 58.0767 17.413 58.2426 17.3611 58.4293C17.3145 58.6108 17.3093 58.8078 17.3456 59.0204C17.3871 59.2279 17.4726 59.4431 17.6023 59.666C17.7267 59.8838 17.8927 60.0964 18.1001 60.3038C18.3075 60.5113 18.5201 60.6772 18.7379 60.8016C18.9557 60.9261 19.1683 61.0091 19.3757 61.0505C19.5883 61.0868 19.7853 61.0817 19.9668 61.035C20.1535 60.9831 20.3194 60.8846 20.4646 60.7394C20.6046 60.5994 20.698 60.4387 20.7447 60.2572C20.7965 60.0705 20.8017 59.8735 20.7602 59.666C20.7239 59.4534 20.6435 59.2382 20.5191 59.0204C20.3946 58.8027 20.2287 58.5901 20.0213 58.3826Z" fill="white"/>
<path d="M42.4307 40.5317C42.1973 40.2984 42.0055 40.0702 41.8551 39.8472C41.6995 39.6191 41.5881 39.378 41.5206 39.1239C41.4532 38.8698 41.4273 38.595 41.4429 38.2994C41.4584 38.0038 41.5206 37.6668 41.6295 37.2882C41.7229 36.9667 41.8084 36.6841 41.8862 36.4404C41.964 36.1863 42.021 35.9685 42.0573 35.787C42.0988 35.6004 42.1118 35.4422 42.0962 35.3126C42.0755 35.1777 42.0159 35.0611 41.9173 34.9626C41.7618 34.807 41.5673 34.737 41.334 34.7525C41.0954 34.7629 40.8595 34.8848 40.6262 35.1181C40.5017 35.2426 40.4058 35.3748 40.3384 35.5148C40.2658 35.6496 40.2113 35.7922 40.175 35.9426C40.1439 36.0878 40.1258 36.2356 40.1206 36.386C40.1154 36.526 40.1206 36.666 40.1361 36.806L38.6972 36.7049C38.692 36.5649 38.7101 36.3911 38.7516 36.1837C38.7879 35.9711 38.8527 35.7456 38.9461 35.507C39.0394 35.2581 39.1639 35.0092 39.3194 34.7603C39.475 34.501 39.6694 34.2547 39.9028 34.0214C40.1672 33.7569 40.4369 33.5547 40.7117 33.4147C40.9814 33.2695 41.2458 33.1865 41.5051 33.1658C41.7644 33.1347 42.0133 33.1658 42.2518 33.2591C42.4903 33.3421 42.7055 33.4795 42.8974 33.6714C43.0789 33.8529 43.2059 34.0473 43.2785 34.2547C43.3511 34.4622 43.39 34.6722 43.3952 34.8848C43.4004 35.0974 43.3822 35.3074 43.3407 35.5148C43.2993 35.7118 43.2526 35.8985 43.2007 36.0748C43.1592 36.22 43.1152 36.3782 43.0685 36.5493C43.027 36.7152 42.9933 36.8889 42.9674 37.0704C42.9363 37.2467 42.9207 37.423 42.9207 37.5994C42.9259 37.7705 42.9544 37.9286 43.0063 38.0738L45.2386 35.8415L46.1798 36.7826L42.4307 40.5317Z" fill="white"/>
<path d="M67.4693 17.4683L66.3103 16.3093L64.0391 18.5806L63.1135 17.655L62.3668 11.7124L63.0824 10.9968L66.4192 14.3337L67.1037 13.6492L68.0371 14.5826L67.3526 15.2671L68.5116 16.426L67.4693 17.4683ZM64.148 16.6049L65.4936 15.2593L63.7358 13.5014L64.148 16.6049Z" fill="white"/>
</svg>
