<svg width="70" height="70" viewBox="0 0 70 70" fill="none" xmlns="http://www.w3.org/2000/svg">
<g clip-path="url(#clip0)">
<path fill-rule="evenodd" clip-rule="evenodd" d="M0 13C0 11.3431 1.34315 10 3 10H30V20C27.2386 20 25 22.2386 25 25C25 27.7614 27.2386 30 30 30V40H20C20 42.7614 17.7614 45 15 45C12.2386 45 10 42.7614 10 40H0V13Z" fill="#FF634E"/>
<path d="M30 10H31C31 9.44772 30.5523 9 30 9V10ZM30 20V21C30.5523 21 31 20.5523 31 20H30ZM30 30H31C31 29.4477 30.5523 29 30 29V30ZM30 40V41C30.5523 41 31 40.5523 31 40H30ZM20 40V39C19.4477 39 19 39.4477 19 40H20ZM10 40H11C11 39.4477 10.5523 39 10 39V40ZM0 40H-1C-1 40.5523 -0.552285 41 0 41L0 40ZM3 9C0.790861 9 -1 10.7909 -1 13H1C1 11.8954 1.89543 11 3 11V9ZM30 9H3V11H30V9ZM31 20V10H29V20H31ZM26 25C26 22.7909 27.7909 21 30 21V19C26.6863 19 24 21.6863 24 25H26ZM30 29C27.7909 29 26 27.2091 26 25H24C24 28.3137 26.6863 31 30 31V29ZM31 40V30H29V40H31ZM20 41H30V39H20V41ZM19 40C19 42.2091 17.2091 44 15 44V46C18.3137 46 21 43.3137 21 40H19ZM15 44C12.7909 44 11 42.2091 11 40H9C9 43.3137 11.6863 46 15 46V44ZM0 41H10V39H0V41ZM-1 13V40H1V13H-1Z" fill="#181818"/>
<path fill-rule="evenodd" clip-rule="evenodd" d="M60 67C60 68.6569 58.6569 70 57 70H30V60C32.7614 60 35 57.7614 35 55C35 52.2386 32.7614 50 30 50V40H40C40 37.2386 42.2386 35 45 35C47.7614 35 50 37.2386 50 40H60V67Z" fill="#FF634E"/>
<path d="M30 70H29C29 70.5523 29.4477 71 30 71V70ZM30 60V59C29.4477 59 29 59.4477 29 60H30ZM30 50H29C29 50.5523 29.4477 51 30 51V50ZM30 40V39C29.4477 39 29 39.4477 29 40H30ZM40 40V41C40.5523 41 41 40.5523 41 40H40ZM50 40H49C49 40.5523 49.4477 41 50 41V40ZM60 40H61C61 39.4477 60.5523 39 60 39V40ZM57 71C59.2091 71 61 69.2091 61 67H59C59 68.1046 58.1046 69 57 69V71ZM30 71H57V69H30V71ZM29 60V70H31V60H29ZM34 55C34 57.2091 32.2091 59 30 59V61C33.3137 61 36 58.3137 36 55H34ZM30 51C32.2091 51 34 52.7909 34 55H36C36 51.6863 33.3137 49 30 49V51ZM29 40V50H31V40H29ZM40 39H30V41H40V39ZM41 40C41 37.7909 42.7909 36 45 36V34C41.6863 34 39 36.6863 39 40H41ZM45 36C47.2091 36 49 37.7909 49 40H51C51 36.6863 48.3137 34 45 34V36ZM60 39H50V41H60V39ZM61 67V40H59V67H61Z" fill="#181818"/>
<path fill-rule="evenodd" clip-rule="evenodd" d="M0 67C0 68.6569 1.34315 70 3 70H30V60C32.7614 60 35 57.7614 35 55C35 52.2386 32.7614 50 30 50V40H20C20 42.7614 17.7614 45 15 45C12.2386 45 10 42.7614 10 40H0V67Z" fill="#FF634E"/>
<path d="M30 70H31C31 70.5523 30.5523 71 30 71V70ZM30 60H29C29 59.4477 29.4477 59 30 59V60ZM30 50V51C29.4477 51 29 50.5523 29 50H30ZM30 40V39C30.5523 39 31 39.4477 31 40H30ZM20 40H19C19 39.4477 19.4477 39 20 39V40ZM10 40V39C10.5523 39 11 39.4477 11 40H10ZM0 40H-1C-1 39.4477 -0.552285 39 0 39L0 40ZM3 71C0.790861 71 -1 69.2091 -1 67H1C1 68.1046 1.89543 69 3 69V71ZM30 71H3V69H30V71ZM31 60V70H29V60H31ZM30 59C32.2091 59 34 57.2091 34 55H36C36 58.3137 33.3137 61 30 61V59ZM34 55C34 52.7909 32.2091 51 30 51V49C33.3137 49 36 51.6863 36 55H34ZM31 40V50H29V40H31ZM20 39H30V41H20V39ZM15 44C17.2091 44 19 42.2091 19 40H21C21 43.3137 18.3137 46 15 46V44ZM11 40C11 42.2091 12.7909 44 15 44V46C11.6863 46 9 43.3137 9 40H11ZM0 39H10V41H0V39ZM-1 67V40H1V67H-1Z" fill="#181818"/>
<path d="M39 1H38C38 0.447715 38.4477 0 39 0V1ZM39 11H40C40 11.5523 39.5523 12 39 12V11ZM39 21V20C39.5523 20 40 20.4477 40 21H39ZM39 31V32C38.4477 32 38 31.5523 38 31H39ZM49 31H50C50 31.5523 49.5523 32 49 32V31ZM59 31V32C58.4477 32 58 31.5523 58 31H59ZM69 31H70C70 31.5523 69.5523 32 69 32V31ZM66 0C68.2091 0 70 1.79086 70 4H68C68 2.89543 67.1046 2 66 2V0ZM39 0H66V2H39V0ZM38 11V1H40V11H38ZM39 12C36.7909 12 35 13.7909 35 16H33C33 12.6863 35.6863 10 39 10V12ZM35 16C35 18.2091 36.7909 20 39 20V22C35.6863 22 33 19.3137 33 16H35ZM38 31V21H40V31H38ZM49 32H39V30H49V32ZM54 27C51.7909 27 50 28.7909 50 31H48C48 27.6863 50.6863 25 54 25V27ZM58 31C58 28.7909 56.2091 27 54 27V25C57.3137 25 60 27.6863 60 31H58ZM69 32H59V30H69V32ZM70 4V31H68V4H70Z" fill="white"/>
</g>
<defs>
<clipPath id="clip0">
<rect width="70" height="70" fill="white"/>
</clipPath>
</defs>
</svg>
