<svg width="70" height="70" viewBox="0 0 70 70" fill="none" xmlns="http://www.w3.org/2000/svg">
<g clip-path="url(#clip0)">
<rect x="21" y="27" width="35.8974" height="25" rx="3" fill="#FF634E"/>
<rect x="21" y="32.7686" width="35.8974" height="5.1282" fill="#181818"/>
<path d="M10 4H11C11 3.44772 10.5523 3 10 3V4ZM27 4V3C26.4477 3 26 3.44772 26 4H27ZM4 5H10V3H4V5ZM2 7C2 5.89543 2.89543 5 4 5V3C1.79086 3 0 4.79086 0 7H2ZM2 66V7H0V66H2ZM4 68C2.89543 68 2 67.1046 2 66H0C0 68.2091 1.79086 70 4 70V68ZM33 68H4V70H33V68ZM35 66C35 67.1046 34.1046 68 33 68V70C35.2091 70 37 68.2091 37 66H35ZM35 7V66H37V7H35ZM33 5C34.1046 5 35 5.89543 35 7H37C37 4.79086 35.2091 3 33 3V5ZM27 5H33V3H27V5ZM26 4V6H28V4H26ZM26 6C26 6.55229 25.5523 7 25 7V9C26.6569 9 28 7.65685 28 6H26ZM25 7H12V9H25V7ZM12 7C11.4477 7 11 6.55228 11 6H9C9 7.65685 10.3431 9 12 9V7ZM11 6V4H9V6H11Z" fill="white"/>
</g>
<defs>
<clipPath id="clip0">
<rect width="70" height="70" fill="white"/>
</clipPath>
</defs>
</svg>
