<svg width="388" height="240" viewBox="0 0 388 240" fill="none" xmlns="http://www.w3.org/2000/svg">
<line x1="353.586" y1="27.5815" x2="106.582" y2="41.4138" stroke="#F45B46" stroke-width="3" stroke-linecap="round" stroke-linejoin="round"/>
<circle cx="104.5" cy="39.5" r="13.5" fill="#FF705C"/>
<circle cx="354.5" cy="25.5" r="25.5" fill="#181818"/>
<line x1="31.78" y1="127.89" x2="102.89" y2="40.22" stroke="#F45B46" stroke-width="3" stroke-linecap="round" stroke-linejoin="round"/>
<path opacity="0.2" d="M231.471 207.62C262.353 209.219 285 216.015 285 223.61C285 232.804 253.431 240 215 240C176.569 240 145 232.405 145 223.61C145 216.015 166.618 209.619 196.471 207.62" fill="#FF634E"/>
<path fill-rule="evenodd" clip-rule="evenodd" d="M218.46 216.431C232.018 185.973 271.825 94.2938 271.825 67.8239C271.825 35.921 245.903 10 214.001 10C182.098 10 156.177 35.921 156.177 67.8239C156.177 94.2938 195.983 185.973 209.541 216.431C211.283 220.345 216.718 220.345 218.46 216.431ZM232.342 71.8113C232.342 82.1627 223.951 90.5542 213.599 90.5542C203.248 90.5542 194.856 82.1627 194.856 71.8113C194.856 61.4598 203.248 53.0684 213.599 53.0684C223.951 53.0684 232.342 61.4598 232.342 71.8113Z" fill="#FF634E"/>
<line x1="354.489" y1="180.511" x2="353.423" y2="34.5115" stroke="#F45B46" stroke-width="3" stroke-linecap="round" stroke-linejoin="round"/>
<circle cx="27" cy="130" r="27" fill="#181818"/>
<line x1="353.284" y1="183.247" x2="28.2466" y2="131.716" stroke="#F45B46" stroke-width="3" stroke-linecap="round" stroke-linejoin="round"/>
<circle cx="355" cy="176" r="33" fill="#FF634E"/>
</svg>
