<svg width="334" height="294" viewBox="0 0 334 294" fill="none" xmlns="http://www.w3.org/2000/svg">
<line x1="315.643" y1="24.6302" x2="77.6302" y2="46.3574" stroke="#F45B46" stroke-width="3" stroke-linecap="round" stroke-linejoin="round"/>
<circle cx="75.5" cy="47.5" r="14.5" fill="#FF705C"/>
<circle cx="317" cy="23" r="17" fill="#181818"/>
<line x1="32.998" y1="185.13" x2="74.1303" y2="49.002" stroke="#F45B46" stroke-width="3" stroke-linecap="round" stroke-linejoin="round"/>
<path d="M280 234.929C280 241.059 246.47 253 185 253C123.53 253 90 241.059 90 234.929V220.3C90 208.684 96.3424 198.009 106.553 192.452L146.91 170.468C153.664 166.786 157.857 159.724 157.857 152.048V133.891L156.803 132.635C156.695 132.504 145.607 119.109 141.377 100.717L140.965 98.9275L139.423 97.9336C136.803 96.2439 135.238 93.4112 135.238 90.3571V72.2857C135.238 69.7512 136.315 67.3884 138.269 65.6219L139.762 64.2801V36.1429L139.721 35.551C139.708 35.429 138.17 22.9055 146.982 12.8669C154.478 4.32811 167.271 0 185 0C202.665 0 215.432 4.29648 222.937 12.7765C231.745 22.7203 230.288 35.4426 230.279 35.551L230.238 64.2801L231.731 65.6264C233.685 67.3884 234.762 69.7512 234.762 72.2857V90.3571C234.762 94.3012 232.174 97.7529 228.329 98.9366L226.076 99.6278L225.352 101.864C222.326 111.266 218.015 119.949 212.532 127.675C211.188 129.577 209.881 131.262 208.745 132.549L207.619 133.832V152.469C207.619 160.465 212.066 167.653 219.227 171.231L262.443 192.809C273.273 198.216 280 209.086 280 221.181V234.929Z" fill="#FF634E"/>
<path opacity="0.2" d="M205.941 261.62C245.206 263.219 274 270.015 274 277.61C274 286.804 233.863 294 185 294C136.137 294 96 286.405 96 277.61C96 270.015 123.485 263.619 161.441 261.62" fill="#FF634E"/>
<line x1="309.539" y1="259.462" x2="315.462" y2="27.4612" stroke="#F45B46" stroke-width="3" stroke-linecap="round" stroke-linejoin="round"/>
<circle cx="32.5" cy="196.5" r="32.5" fill="#181818"/>
<line x1="293.225" y1="260.162" x2="43.1202" y2="207.975" stroke="#F45B46" stroke-width="3" stroke-linecap="round" stroke-linejoin="round"/>
<circle cx="310.5" cy="260.5" r="23.5" fill="#FF634E"/>
</svg>
