<svg width="67" height="55" viewBox="0 0 67 55" fill="none" xmlns="http://www.w3.org/2000/svg">
<path d="M2.72848 37.1108L2.30154 36.2065L1.54643 36.563L1.76255 37.3696L2.72848 37.1108ZM40.364 52.9435L39.9849 53.8688L40.6893 54.1574L41.155 53.5553L40.364 52.9435ZM23.4058 30.5496C13.7761 31.454 9.32025 32.8927 2.30154 36.2065L3.15542 38.0151C9.97256 34.7964 14.2034 33.4227 23.5928 32.5409L23.4058 30.5496ZM65.0077 19.4147C56.5503 19.6967 51.8888 21.1518 43.8319 25.0809L44.7085 26.8785C52.5786 23.0405 56.9632 21.684 65.0744 21.4136L65.0077 19.4147ZM44.215 24.9812C35.2454 25.4769 30.571 26.8018 23.0437 30.6551L23.955 32.4354C31.2341 28.7092 35.6357 27.4584 44.3254 26.9782L44.215 24.9812ZM21.3698 6.2372L27.4151 4.61738L26.8975 2.68553L20.8522 4.30535L21.3698 6.2372ZM27.4151 4.61738L33.4604 2.99756L32.9427 1.06571L26.8975 2.68553L27.4151 4.61738ZM24.4811 31.3552C23.9936 28.8368 23.576 24.4033 23.9417 19.3938C24.3075 14.3819 25.4523 8.86528 28.0342 4.13019L26.2783 3.17272C23.5133 8.24358 22.3251 14.0678 21.947 19.2482C21.5687 24.4312 21.9961 29.0416 22.5176 31.7353L24.4811 31.3552ZM45.2062 25.6279C44.214 22.9879 42.164 18.7209 39.2136 14.4066C36.2671 10.0982 32.376 5.67378 27.6783 2.79853L26.6342 4.50438C30.9984 7.17549 34.6999 11.3494 37.5627 15.5356C40.4215 19.7159 42.3976 23.8398 43.3341 26.3316L45.2062 25.6279ZM1.76255 37.3696C1.83729 37.6485 2.01219 37.8128 2.03524 37.8356C2.09183 37.8916 2.14497 37.9316 2.17477 37.9532C2.23753 37.9987 2.30215 38.0372 2.35065 38.065C2.45337 38.1238 2.58496 38.1913 2.73134 38.2631C3.02899 38.409 3.45113 38.6037 3.97266 38.8373C5.01886 39.3058 6.50113 39.9471 8.26956 40.7008C11.8082 42.2088 16.5122 44.1748 21.2095 46.1251C25.9075 48.0756 30.6013 50.0116 34.1204 51.4598C35.8801 52.1839 37.3461 52.7861 38.3723 53.2073C38.8853 53.4179 39.2885 53.5833 39.5633 53.696C39.7008 53.7524 39.8062 53.7956 39.8772 53.8247C39.9127 53.8392 39.9396 53.8503 39.9577 53.8577C39.9667 53.8614 39.9735 53.8642 39.9781 53.866C39.9803 53.867 39.9821 53.8677 39.9832 53.8681C39.9838 53.8684 39.9842 53.8685 39.9845 53.8687C39.9848 53.8688 39.9849 53.8688 40.364 52.9435C40.7431 52.0181 40.743 52.0181 40.7427 52.018C40.7424 52.0178 40.742 52.0177 40.7414 52.0174C40.7403 52.017 40.7386 52.0163 40.7363 52.0153C40.7318 52.0135 40.725 52.0107 40.716 52.007C40.698 51.9996 40.6711 51.9886 40.6357 51.9741C40.5647 51.945 40.4595 51.9019 40.3221 51.8455C40.0475 51.7329 39.6446 51.5677 39.1317 51.3571C38.106 50.9361 36.6405 50.3341 34.8816 49.6103C31.3635 48.1625 26.6718 46.2274 21.9764 44.278C17.2804 42.3282 12.5834 40.3651 9.05364 38.8609C7.2879 38.1084 5.81919 37.4728 4.79015 37.012C4.27407 36.7808 3.87754 36.5976 3.61201 36.4674C3.47681 36.4011 3.3907 36.3559 3.34416 36.3292C3.31803 36.3143 3.32514 36.3169 3.34806 36.3335C3.35795 36.3407 3.39559 36.3681 3.44118 36.4132C3.45323 36.4251 3.62161 36.5803 3.69441 36.852L1.76255 37.3696ZM41.1494 52.3245L24.2847 30.9263L22.7139 32.1642L39.5786 53.5625L41.1494 52.3245ZM41.3537 53.0868L45.2599 26.1231L43.2805 25.8363L39.3744 52.8001L41.3537 53.0868ZM40.364 52.9435C41.155 53.5553 41.1551 53.5552 41.1553 53.5549C41.1555 53.5547 41.1558 53.5543 41.1562 53.5538C41.1569 53.5528 41.1581 53.5514 41.1596 53.5494C41.1626 53.5455 41.1671 53.5397 41.173 53.532C41.185 53.5166 41.2028 53.4936 41.2263 53.4632C41.2732 53.4025 41.3429 53.3124 41.4337 53.1948C41.6154 52.9598 41.8818 52.615 42.2209 52.1761C42.899 51.2982 43.8675 50.0437 45.0293 48.5368C47.3529 45.523 50.4498 41.4995 53.5431 37.4613C56.636 33.4236 59.7268 29.369 62.0373 26.2937C63.192 24.7569 64.155 23.4603 64.8268 22.5314C65.1617 22.0684 65.4299 21.6888 65.6147 21.4135C65.7056 21.2782 65.7858 21.1539 65.8454 21.0517C65.8735 21.0034 65.9102 20.9377 65.9418 20.8669C65.9568 20.8333 65.9828 20.772 66.0038 20.6953C66.0124 20.664 66.0817 20.4343 66.007 20.1554L64.0751 20.673C64.0023 20.4013 64.0705 20.1827 64.075 20.1664C64.092 20.1046 64.1109 20.062 64.1158 20.0509C64.1274 20.025 64.1322 20.0192 64.1171 20.0452C64.0901 20.0915 64.0381 20.1737 63.9542 20.2988C63.7893 20.5443 63.5375 20.9012 63.2062 21.3594C62.5454 22.2731 61.5913 23.5578 60.4383 25.0924C58.1336 28.16 55.0474 32.2086 51.9554 36.2451C48.8638 40.2811 45.7682 44.3028 43.4454 47.3156C42.284 48.822 41.3159 50.076 40.6381 50.9535C40.2992 51.3922 40.0329 51.7368 39.8514 51.9717C39.7606 52.0891 39.691 52.1791 39.6441 52.2398C39.6206 52.2701 39.6029 52.2931 39.591 52.3085C39.585 52.3162 39.5805 52.322 39.5775 52.3258C39.576 52.3278 39.5749 52.3292 39.5742 52.3302C39.5738 52.3307 39.5735 52.331 39.5733 52.3313C39.5731 52.3315 39.573 52.3317 40.364 52.9435ZM66.007 20.1554C62.148 5.75347 47.3446 -2.79327 32.9427 1.06571L33.4604 2.99756C46.7953 -0.575535 60.502 7.33804 64.0751 20.673L66.007 20.1554ZM3.69441 36.852C0.121312 23.517 8.03487 9.8103 21.3698 6.2372L20.8522 4.30535C6.4503 8.16433 -2.09642 22.9677 1.76255 37.3696L3.69441 36.852Z" fill="white"/>
</svg>
