<svg width="63" height="68" viewBox="0 0 63 68" fill="none" xmlns="http://www.w3.org/2000/svg">
<path d="M38.3727 0.99999L38.937 0.174454C38.4811 -0.137227 37.8588 -0.0202893 37.5471 0.435641L38.3727 0.99999ZM4.51172 50.5322L3.68618 49.9678C3.53651 50.1868 3.47994 50.4562 3.52892 50.7169C3.5779 50.9775 3.72842 51.208 3.94737 51.3577L4.51172 50.5322ZM44.977 5.51478L45.8025 6.07913C46.1142 5.6232 45.9972 5.00093 45.5413 4.68925L44.977 5.51478ZM54.8834 12.287L55.4477 11.4614C55.2288 11.3118 54.9594 11.2552 54.6987 11.3042C54.438 11.3532 54.2075 11.5037 54.0579 11.7226L54.8834 12.287ZM61.4877 16.8018L62.3132 17.3661C62.6249 16.9102 62.508 16.2879 62.052 15.9762L61.4877 16.8018ZM27.6267 66.3339L27.0624 67.1595C27.5183 67.4712 28.1406 67.3542 28.4523 66.8983L27.6267 66.3339ZM21.0224 61.8191L20.1969 61.2548C20.0472 61.4737 19.9907 61.7432 20.0396 62.0038C20.0886 62.2645 20.2391 62.495 20.4581 62.6447L21.0224 61.8191ZM11.116 55.047L10.5517 55.8725C11.0076 56.1842 11.6299 56.0672 11.9415 55.6113L11.116 55.047ZM37.5471 0.435641L3.68618 49.9678L5.33726 51.0965L39.1982 1.56434L37.5471 0.435641ZM45.5413 4.68925L38.937 0.174454L37.8083 1.82553L44.4126 6.34032L45.5413 4.68925ZM47.1084 13.0286C44.8288 11.4702 44.2441 8.35879 45.8025 6.07913L44.1514 4.95043C41.9696 8.14195 42.7882 12.4979 45.9797 14.6796L47.1084 13.0286ZM54.0579 11.7226C52.4994 14.0023 49.3881 14.587 47.1084 13.0286L45.9797 14.6796C49.1712 16.8614 53.5272 16.0428 55.7089 12.8513L54.0579 11.7226ZM62.052 15.9762L55.4477 11.4614L54.319 13.1125L60.9233 17.6273L62.052 15.9762ZM28.4523 66.8983L62.3132 17.3661L60.6621 16.2374L26.8012 65.7696L28.4523 66.8983ZM20.4581 62.6447L27.0624 67.1595L28.1911 65.5084L21.5868 60.9936L20.4581 62.6447ZM18.891 54.3054C21.1706 55.8638 21.7553 58.9751 20.1969 61.2548L21.848 62.3835C24.0297 59.192 23.2112 54.8361 20.0197 52.6543L18.891 54.3054ZM11.9415 55.6113C13.5 53.3317 16.6113 52.747 18.891 54.3054L20.0197 52.6543C16.8282 50.4725 12.4722 51.2911 10.2905 54.4826L11.9415 55.6113ZM3.94737 51.3577L10.5517 55.8725L11.6804 54.2214L5.07607 49.7066L3.94737 51.3577Z" fill="white"/>
<rect x="28.1211" y="16.56" width="2" height="4" transform="rotate(-55.6429 28.1211 16.56)" fill="white"/>
<rect x="34.7266" y="21.0746" width="2" height="4" transform="rotate(-55.6429 34.7266 21.0746)" fill="white"/>
<rect x="41.3301" y="25.5893" width="2" height="4" transform="rotate(-55.6429 41.3301 25.5893)" fill="white"/>
<rect x="47.9355" y="30.1039" width="2" height="4" transform="rotate(-55.6429 47.9355 30.1039)" fill="white"/>
<path fill-rule="evenodd" clip-rule="evenodd" d="M1 29L61 29V37C57.6863 37 55 39.6863 55 43C55 46.3137 57.6863 49 61 49V57H1L1 49C4.31371 49 7 46.3137 7 43C7 39.6863 4.31371 37 1 37L1 29Z" fill="#FF634E"/>
<path d="M61 29H62C62 28.4477 61.5523 28 61 28V29ZM1 29V28C0.447715 28 0 28.4477 0 29H1ZM61 37V38C61.5523 38 62 37.5523 62 37H61ZM61 49H62C62 48.4477 61.5523 48 61 48V49ZM61 57V58C61.5523 58 62 57.5523 62 57H61ZM1 57H0C0 57.5523 0.447715 58 1 58L1 57ZM1 49V48C0.447715 48 0 48.4477 0 49H1ZM1 37H0C0 37.5523 0.447715 38 1 38L1 37ZM61 28L1 28V30L61 30V28ZM62 37V29H60V37H62ZM56 43C56 40.2386 58.2386 38 61 38V36C57.134 36 54 39.134 54 43H56ZM61 48C58.2386 48 56 45.7614 56 43H54C54 46.866 57.134 50 61 50V48ZM62 57V49H60V57H62ZM1 58H61V56H1V58ZM0 49L0 57H2L2 49H0ZM6 43C6 45.7614 3.76142 48 1 48V50C4.86599 50 8 46.866 8 43H6ZM1 38C3.76142 38 6 40.2386 6 43H8C8 39.134 4.86599 36 1 36V38ZM0 29L0 37H2L2 29H0Z" fill="#181818"/>
<rect x="43" y="29" width="2" height="4" fill="#181818"/>
<rect x="43" y="37" width="2" height="4" fill="#181818"/>
<rect x="43" y="45" width="2" height="4" fill="#181818"/>
<rect x="43" y="53" width="2" height="4" fill="#181818"/>
</svg>
