<?xml version="1.0" encoding="UTF-8"?>
<svg width="80px" height="54px" viewBox="0 0 80 54" version="1.1" xmlns="http://www.w3.org/2000/svg" xmlns:xlink="http://www.w3.org/1999/xlink">
    <!-- Generator: Sketch 43.1 (39012) - http://www.bohemiancoding.com/sketch -->
    <title>concert-ua</title>
    <desc>Created with Sketch.</desc>
    <defs></defs>
    <g id="Page-1" stroke="none" stroke-width="1" fill="none" fill-rule="evenodd">
        <g id="concert-ua">
            <g id="text" transform="translate(0.000000, 44.000000)">
                <path d="M4.43384615,0.421538462 C6.16512821,0.421538462 8.03846154,1.36461538 8.35948718,3.59589744 L6.25794872,3.59589744 C5.96153846,2.74923077 5.32615385,2.36564103 4.43282051,2.36564103 C3.17897436,2.36564103 2.35538462,3.30974359 2.35538462,4.69384615 C2.35538462,5.92358974 3.16769231,6.99794872 4.43282051,7.01025641 C5.34,7.01025641 6.06769231,6.55692308 6.29487179,5.66102564 L8.39487179,5.66102564 C8.08512821,8.02512821 6.21128205,8.95589744 4.43282051,8.95589744 C2.30666667,8.96666667 0.159487179,7.53487179 0.147179487,4.69333333 C0.160512821,1.85230769 2.30717949,0.421538462 4.43384615,0.421538462" id="Shape" fill="#FFFFFF"></path>
                <path d="M15.9051282,4.70717949 C15.9051282,1.6974359 11.7123077,1.6974359 11.7123077,4.70717949 C11.7123077,7.73692308 15.9051282,7.73692308 15.9051282,4.70717949 L15.9051282,4.70717949 Z M9.51897436,4.70717949 C9.51897436,-1.07230769 18.0882051,-1.07230769 18.0882051,4.70717949 C18.0882051,10.4948718 9.51897436,10.4948718 9.51897436,4.70717949 L9.51897436,4.70717949 Z" id="Shape" fill="#FFFFFF"></path>
                <path d="M21.9066667,4.76512821 L21.9066667,8.87128205 L19.6969231,8.87128205 L19.6969231,0.481025641 L20.4748718,0.481025641 L24.6974359,4.61076923 L24.6974359,0.515897436 L26.8830769,0.515897436 L26.8830769,8.88307692 L26.1205128,8.88307692 L21.9066667,4.76512821 L21.9066667,4.76512821 Z" id="Shape" fill="#FFFFFF"></path>
                <path d="M32.7917949,0.421538462 C34.5225641,0.421538462 36.3958974,1.36461538 36.7189744,3.59589744 L34.6164103,3.59589744 C34.32,2.74923077 33.6866667,2.36564103 32.7907692,2.36564103 C31.5374359,2.36564103 30.7148718,3.30974359 30.7148718,4.69384615 C30.7148718,5.92358974 31.525641,6.99794872 32.7907692,7.01025641 C33.6974359,7.01025641 34.4266667,6.55692308 34.6533333,5.66102564 L36.7538462,5.66102564 C36.4446154,8.02512821 34.5692308,8.95589744 32.7907692,8.95589744 C30.665641,8.96666667 28.5184615,7.53487179 28.505641,4.69333333 C28.5194872,1.85230769 30.6671795,0.421538462 32.7917949,0.421538462" id="Shape" fill="#FFFFFF"></path>
                <path d="M43.605641,2.42564103 L40.514359,2.42564103 L40.514359,3.60769231 L43.3548718,3.60769231 L43.3548718,5.50512821 L40.514359,5.50512821 L40.514359,6.97282051 L43.7123077,6.97282051 L43.7123077,8.87128205 L38.3887179,8.87128205 L38.3887179,0.515897436 L43.605641,0.515897436 L43.605641,2.42564103" id="Shape" fill="#FFFFFF"></path>
                <path d="M49.2020513,2.42564103 C48.7010256,2.41282051 48.1764103,2.42564103 47.6758974,2.42564103 L47.6758974,4.49025641 L49.2020513,4.49025641 C50.3620513,4.49025641 50.4205128,2.43794872 49.2020513,2.42564103 L49.2020513,2.42564103 Z M52.6030769,8.56051282 L52.6030769,8.87128205 L50.2164103,8.87128205 L48.7866667,6.41333333 L47.6769231,6.41333333 L47.6769231,8.87128205 L45.5379487,8.87128205 L45.5379487,0.515897436 L49.2025641,0.515897436 C52.4846154,0.528205128 53.0825641,4.47897436 50.9702564,5.91128205 L52.6030769,8.56051282 L52.6030769,8.56051282 Z" id="Shape" fill="#FFFFFF"></path>
                <path d="M53.0702564,2.42564103 L53.0702564,0.515384615 L59.2748718,0.515384615 L59.2748718,2.42564103 L57.2358974,2.42564103 L57.2358974,8.87128205 L55.1235897,8.87128205 L55.1235897,2.42564103 L53.0702564,2.42564103 L53.0702564,2.42564103 Z" id="Shape" fill="#FFFFFF"></path>
                <path d="M60.0164103,7.85641026 C60.0164103,7.18871795 60.5410256,6.74666667 61.2107692,6.74666667 C61.8533333,6.74666667 62.3784615,7.18820513 62.3784615,7.85641026 C62.3784615,8.51333333 61.8533333,8.94307692 61.2107692,8.94307692 C60.5415385,8.94307692 60.0164103,8.51384615 60.0164103,7.85641026" id="Shape" fill="#13110C"></path>
                <path d="M69.5887179,6.05487179 L69.5887179,1.31692308 L69.4589744,1.31692308 L69.4589744,6.05487179 C69.4589744,7.29589744 68.3584615,7.96358974 67.2251282,7.96358974 C66.0923077,7.96358974 64.9938462,7.29589744 64.9938462,6.05487179 L64.9938462,1.31692308 L64.8615385,1.31692308 L64.8615385,6.05487179 C64.8615385,7.35692308 66.0307692,8.09538462 67.2241026,8.09538462 C68.4189744,8.09487179 69.5887179,7.35641026 69.5887179,6.05487179 L69.5887179,6.05487179 Z M68.4897436,6.05487179 L68.4897436,0.515897436 L70.5179487,0.515897436 L70.5179487,6.08974359 C70.5179487,7.92820513 68.9435897,8.99025641 67.2246154,8.99025641 C65.5189744,8.99025641 63.9302564,7.92871795 63.9302564,6.08974359 L63.9302564,0.515897436 L65.9471795,0.515897436 L65.9471795,6.05487179 C65.9471795,6.73487179 66.6046154,7.06769231 67.2246154,7.06769231 C67.8451282,7.06717949 68.4897436,6.73435897 68.4897436,6.05487179 L68.4897436,6.05487179 Z" id="Shape" fill="#FFFFFF"></path>
                <path d="M76.3784615,5.9 L74.6369231,5.9 L75.4969231,3.9774359 L76.3784615,5.9 L76.3784615,5.9 Z M73.2512821,6.74666667 L77.7753846,6.74666667 L75.5071795,1.88769231 L75.4964103,1.88769231 L73.2512821,6.74666667 L73.2512821,6.74666667 Z M75.5317949,1.62564103 L75.4594872,1.62564103 L72.4887179,8.05948718 L72.6435897,8.05948718 L73.2041026,6.8774359 L77.8235897,6.8774359 L78.3723077,8.05948718 L78.5297436,8.05948718 L75.5317949,1.62564103 L75.5317949,1.62564103 Z M77.1548718,7.82153846 L73.8615385,7.82153846 L73.3707692,8.87128205 L71.2820513,8.87128205 L71.2820513,8.56051282 L75.0425641,0.408717949 L75.9615385,0.408717949 L79.7328205,8.56051282 L79.7328205,8.87128205 L77.6451282,8.87128205 L77.1548718,7.82153846 L77.1548718,7.82153846 Z" id="Shape" fill="#FFFFFF"></path>
            </g>
            <g id="logo" opacity="0.900000036" transform="translate(23.000000, 0.000000)">
                <polygon id="Shape" fill="#FFFFFF" points="16.8263571 0 17.9507857 1.47292857 19.2816429 0.177285714 20.1802143 1.79835714 21.6798571 0.714 22.3355714 2.44678571 23.9785 1.59314286 24.3719286 3.40121429 26.1205 2.79285714 26.248 4.64221429 28.067 4.29735714 27.9200714 6.14671429 29.7730714 6.06778571 29.3577857 7.87342857 31.1998571 8.06528571 30.532 9.792 32.3230714 10.2522143 31.4111429 11.8647857 33.1220714 12.5763571 31.9806429 14.042 33.5677143 14.9952143 32.2271429 16.2762857 33.6563571 17.4541429 32.1421429 18.5251429 33.388 19.8948571 31.7341429 20.7351429 32.7650714 22.2772857 31.008 22.865 31.8057857 24.5395 29.9807143 24.8661429 30.5210714 26.6365714 28.6692857 26.6948571 28.9534286 28.5235714 27.1125714 28.3135 27.1186429 30.1689286 25.3324286 29.6868571 25.0737857 31.5240714 23.3689286 30.787 22.8431429 32.5647143 21.2682143 31.5932857 20.4922857 33.2750714 19.074 32.0814286 18.0552143 33.6320714 16.8263571 32.2477857 15.5987143 33.6320714 14.5811429 32.0814286 13.1640714 33.2750714 12.3905714 31.5932857 10.812 32.5647143 10.2862143 30.787 8.58621429 31.5240714 8.32757143 29.6868571 6.53771429 30.1689286 6.54864286 28.3135 4.70414286 28.5235714 4.98707143 26.6948571 3.13407143 26.6365714 3.67564286 24.8661429 1.853 24.5395 2.65321429 22.865 0.890071429 22.2772857 1.91978571 20.7351429 0.269571429 19.8948571 1.513 18.5251429 0 17.4541429 1.43164286 16.2762857 0.0922857143 14.9952143 1.67692857 14.042 0.5355 12.5763571 2.24885714 11.8647857 1.33207143 10.2522143 3.12435714 9.792 2.45528571 8.06528571 4.29735714 7.87342857 3.88328571 6.06778571 5.73385714 6.14671429 5.59178571 4.29735714 7.41321429 4.64221429 7.53707143 2.79285714 9.28685714 3.40121429 9.6815 1.59314286 11.3256429 2.44678571 11.9789286 0.714 13.4822143 1.79835714 14.3771429 0.177285714 15.7007143 1.47292857"></polygon>
                <path d="M21.845,7.82485714 C21.2439286,7.85035714 20.7642857,8.34457143 20.7642857,8.94928571 L20.7642857,15.6922143 L23.0131429,15.6922143 L23.0131429,8.94928571 C23.0131429,8.34457143 22.5298571,7.85035714 21.9287857,7.82485714 C21.9008571,7.82364286 21.8729286,7.82364286 21.845,7.82485714 L21.845,7.82485714 Z M15.1421429,12.3201429 L15.1421429,12.3201429 C14.5216429,12.3201429 14.0177143,12.8265 14.0177143,13.4433571 L14.0177143,15.6934286 L16.2665714,15.6934286 L16.2665714,13.4433571 C16.2665714,12.8265 15.7614286,12.3201429 15.1421429,12.3201429 L15.1421429,12.3201429 Z M11.7275714,7.82485714 C11.1289286,7.84914286 10.6456429,8.34457143 10.6456429,8.94928571 L10.6456429,10.0725 L10.6456429,19.6265 C10.6456429,22.9827857 13.3522857,25.7319286 16.6927857,25.806 C16.7802143,25.8072143 16.864,25.8072143 16.949,25.806 C20.2907143,25.7404286 23.0119286,22.9864286 23.0119286,19.6265 L23.0119286,16.8166429 L14.0177143,16.8166429 C14.0335,18.3952143 14.6867857,19.0667143 16.2665714,19.0667143 L20.7655,19.0667143 L20.7655,19.6277143 C20.7655,21.7563571 19.0472857,23.5037143 16.9307857,23.5595714 C16.8725,23.5607857 16.8093571,23.5607857 16.7522857,23.5595714 C14.6272857,23.5219286 12.8969286,21.7648571 12.8969286,19.6277143 L12.8969286,10.0737143 L12.8969286,8.94928571 C12.8969286,8.34214286 12.4087857,7.8455 11.8052857,7.82364286 C11.781,7.82364286 11.7518571,7.82364286 11.7275714,7.82485714 L11.7275714,7.82485714 Z M17.3873571,13.4433571 L17.3873571,15.6934286 L19.6386429,15.6934286 L19.6386429,13.4433571 C19.6386429,12.8265 19.1322857,12.3201429 18.5154286,12.3201429 C17.8949286,12.3201429 17.3873571,12.8265 17.3873571,13.4433571 L17.3873571,13.4433571 Z" id="Shape" fill="#D51116"></path>
            </g>
        </g>
    </g>
</svg>