<svg id="SvgjsSvg1011" xmlns="http://www.w3.org/2000/svg" version="1.1" xmlns:xlink="http://www.w3.org/1999/xlink" xmlns:svgjs="http://svgjs.com/svgjs" width="1965" height="156" viewBox="0 0 1965 156"><defs id="SvgjsDefs1012"></defs><path id="SvgjsPath1013" d="M28 1817C86.1132 1808.62 314.707 1820.07 391 1781C467.293 1741.93 625.4449999999999 1736.2 692 1755C758.5550000000001 1773.8 814.984 1695.34 936 1683C1057.02 1670.66 1198.8899999999999 1747.36 1305 1757C1411.11 1766.64 1630.04 1767.35 1678 1750C1725.96 1732.65 1748.34 1714.8 1800 1747C1851.66 1779.2 1933.59 1709.95 1965 1691C1996.41 1672.05 1936 2037 1936 2037L73 1960C73 1960 -30.113299999999995 1825.38 28 1817Z " fill="#cc5159" fill-opacity="1" transform="matrix(1,0,0,1,-10,-1681)"></path></svg>