<svg id="SvgjsSvg1000" xmlns="http://www.w3.org/2000/svg" version="1.1" xmlns:xlink="http://www.w3.org/1999/xlink" xmlns:svgjs="http://svgjs.com/svgjs" width="75" height="30" viewBox="0 0 75 30"><defs id="SvgjsDefs1001"></defs><path id="SvgjsPath1007" d="M1477.29 2420.85C1477.29 2421.17 1477.17 2421.43 1476.95 2421.66C1476.73 2421.8799999999997 1476.45 2422 1476.14 2422C1475.8300000000002 2422 1475.5600000000002 2421.88 1475.3400000000001 2421.66C1475.1200000000001 2421.43 1475.0000000000002 2421.16 1475.0000000000002 2420.85L1475.0000000000002 2407C1475.0000000000002 2404.77 1475.7900000000002 2402.87 1477.3500000000001 2401.29C1478.92 2399.71 1480.8100000000002 2398.92 1483.0200000000002 2398.92C1485.2400000000002 2398.92 1487.13 2399.71 1488.6900000000003 2401.28C1490.2600000000002 2402.8700000000003 1491.0400000000002 2404.77 1491.0400000000002 2406.9900000000002C1491.0400000000002 2409.23 1490.2500000000002 2411.13 1488.6900000000003 2412.71C1487.1200000000003 2414.29 1485.2300000000002 2415.07 1483.0200000000002 2415.07C1480.8000000000002 2415.07 1478.9100000000003 2414.28 1477.3500000000001 2412.71L1477.2900000000002 2412.65ZM1507.04 2412.72C1505.47 2414.2999999999997 1503.58 2415.08 1501.37 2415.08C1499.1499999999999 2415.08 1497.26 2414.29 1495.6899999999998 2412.72C1494.12 2411.1299999999997 1493.35 2409.23 1493.35 2407C1493.35 2404.77 1494.1299999999999 2402.87 1495.6899999999998 2401.29C1497.2599999999998 2399.71 1499.1499999999999 2398.92 1501.37 2398.92C1503.59 2398.92 1505.4799999999998 2399.71 1507.04 2401.28C1508.6 2402.8700000000003 1509.3899999999999 2404.77 1509.3899999999999 2407C1509.3899999999999 2409.24 1508.6 2411.14 1507.04 2412.72ZM1518.56 2400.07C1518.56 2399.75 1518.6799999999998 2399.4900000000002 1518.8999999999999 2399.26C1519.12 2399.0400000000004 1519.3899999999999 2398.92 1519.7099999999998 2398.92C1520.0199999999998 2398.92 1520.2899999999997 2399.04 1520.5099999999998 2399.26C1520.7299999999998 2399.4900000000002 1520.8499999999997 2399.76 1520.8499999999997 2400.07L1520.8499999999997 2401.01C1522.2799999999997 2399.61 1523.9999999999998 2398.92 1526.0099999999998 2398.92C1528.0599999999997 2398.92 1529.8199999999997 2399.65 1531.2699999999998 2401.12C1532.7299999999998 2402.58 1533.4599999999998 2404.35 1533.4599999999998 2406.42L1533.4599999999998 2413.92C1533.4599999999998 2414.2400000000002 1533.34 2414.5 1533.12 2414.73C1532.8899999999999 2414.95 1532.62 2415.07 1532.31 2415.07C1532 2415.07 1531.73 2414.9500000000003 1531.51 2414.73C1531.28 2414.5 1531.17 2414.23 1531.17 2413.92L1531.17 2406.42C1531.17 2404.98 1530.66 2403.76 1529.65 2402.75C1528.65 2401.73 1527.43 2401.24 1526.01 2401.24C1524.58 2401.24 1523.37 2401.74 1522.36 2402.7599999999998C1521.35 2403.77 1520.85 2404.99 1520.85 2406.43L1520.85 2413.93C1520.85 2414.25 1520.73 2414.5099999999998 1520.51 2414.74C1520.29 2414.9599999999996 1520.02 2415.08 1519.71 2415.08C1519.39 2415.08 1519.1200000000001 2414.96 1518.9 2414.74C1518.68 2414.5099999999998 1518.5600000000002 2414.24 1518.5600000000002 2413.93ZM1477.29 2407C1477.29 2408.61 1477.85 2409.96 1478.97 2411.09C1480.08 2412.21 1481.44 2412.77 1483.02 2412.77C1484.61 2412.77 1485.96 2412.21 1487.07 2411.09C1488.1899999999998 2409.96 1488.75 2408.6000000000004 1488.75 2407C1488.75 2405.4 1488.19 2404.05 1487.07 2402.92C1485.96 2401.79 1484.61 2401.2400000000002 1483.02 2401.2400000000002C1481.43 2401.2400000000002 1480.08 2401.8 1478.97 2402.92C1477.8500000000001 2404.05 1477.29 2405.4 1477.29 2407ZM1501.37 2401.24C1499.78 2401.24 1498.4299999999998 2401.7999999999997 1497.31 2402.9199999999996C1496.2 2404.0499999999997 1495.6399999999999 2405.4099999999994 1495.6399999999999 2406.9999999999995C1495.6399999999999 2408.6099999999997 1496.1999999999998 2409.9599999999996 1497.31 2411.0899999999997C1498.4299999999998 2412.2099999999996 1499.79 2412.7699999999995 1501.37 2412.7699999999995C1502.9599999999998 2412.7699999999995 1504.31 2412.2099999999996 1505.4199999999998 2411.0899999999997C1506.5399999999997 2409.9599999999996 1507.1 2408.6 1507.1 2406.9999999999995C1507.1 2405.3999999999996 1506.54 2404.0499999999997 1505.4199999999998 2402.9199999999996C1504.31 2401.7899999999995 1502.9499999999998 2401.24 1501.37 2401.24ZM1512.83 2400.07C1512.83 2399.75 1512.9499999999998 2399.4900000000002 1513.1699999999998 2399.26C1513.3899999999999 2399.0400000000004 1513.6599999999999 2398.92 1513.9699999999998 2398.92C1514.2899999999997 2398.92 1514.5599999999997 2399.04 1514.7799999999997 2399.26C1514.9999999999998 2399.4900000000002 1515.1199999999997 2399.76 1515.1199999999997 2400.07L1515.1199999999997 2413.92C1515.1199999999997 2414.2400000000002 1514.9999999999998 2414.5 1514.7799999999997 2414.73C1514.5599999999997 2414.95 1514.2799999999997 2415.07 1513.9699999999998 2415.07C1513.6499999999999 2415.07 1513.3899999999999 2414.9500000000003 1513.1699999999998 2414.73C1512.9499999999998 2414.5 1512.83 2414.23 1512.83 2413.92ZM1550 2394.48C1550 2395.05 1549.8 2395.53 1549.4 2395.93C1549 2396.33 1548.52 2396.54 1547.95 2396.54C1547.39 2396.54 1546.91 2396.33 1546.51 2395.93C1546.11 2395.5299999999997 1545.91 2395.0499999999997 1545.91 2394.48C1545.91 2393.91 1546.1100000000001 2393.43 1546.51 2393.02C1546.91 2392.62 1547.39 2392.42 1547.95 2392.42C1548.52 2392.42 1549 2392.62 1549.4 2393.02C1549.8100000000002 2393.43 1550 2393.91 1550 2394.48ZM1547.96 2393.02C1547.56 2393.02 1547.22 2393.16 1546.94 2393.44C1546.65 2393.73 1546.51 2394.08 1546.51 2394.48C1546.51 2394.89 1546.65 2395.23 1546.94 2395.51C1547.22 2395.8 1547.5700000000002 2395.94 1547.96 2395.94C1548.3700000000001 2395.94 1548.71 2395.8 1548.99 2395.51C1549.27 2395.23 1549.42 2394.88 1549.42 2394.48C1549.42 2394.07 1549.27 2393.73 1548.99 2393.44C1548.71 2393.15 1548.3700000000001 2393.02 1547.96 2393.02ZM1515.41 2395.47C1515.41 2395.8599999999997 1515.26 2396.2 1514.98 2396.48C1514.7 2396.76 1514.3600000000001 2396.91 1513.97 2396.91C1513.59 2396.91 1513.25 2396.7599999999998 1512.97 2396.48C1512.68 2396.2 1512.54 2395.86 1512.54 2395.47C1512.54 2395.0699999999997 1512.68 2394.73 1512.97 2394.45C1513.25 2394.1699999999996 1513.59 2394.02 1513.97 2394.02C1514.3600000000001 2394.02 1514.7 2394.17 1514.98 2394.45C1515.26 2394.73 1515.41 2395.0699999999997 1515.41 2395.47ZM1542.72 2412.77C1540.43 2412.77 1539.27 2411.61 1539.27 2409.3L1539.27 2401.23L1541.58 2401.23C1541.8999999999999 2401.23 1542.1699999999998 2401.11 1542.3999999999999 2400.88C1542.62 2400.6600000000003 1542.7399999999998 2400.4 1542.7399999999998 2400.07C1542.7399999999998 2399.76 1542.62 2399.4900000000002 1542.3999999999999 2399.26C1542.1599999999999 2399.0400000000004 1541.8999999999999 2398.92 1541.58 2398.92L1539.27 2398.92L1539.27 2393.15C1539.27 2392.84 1539.16 2392.57 1538.94 2392.34C1538.71 2392.1200000000003 1538.45 2392 1538.13 2392C1537.8200000000002 2392 1537.5500000000002 2392.12 1537.3300000000002 2392.34C1537.1000000000001 2392.57 1536.9900000000002 2392.83 1536.9900000000002 2393.15L1536.9900000000002 2398.9300000000003L1535.8400000000001 2398.9300000000003C1535.5300000000002 2398.9300000000003 1535.2600000000002 2399.05 1535.0400000000002 2399.2700000000004C1534.8100000000002 2399.5000000000005 1534.7000000000003 2399.76 1534.7000000000003 2400.0800000000004C1534.7000000000003 2400.4000000000005 1534.8100000000002 2400.6700000000005 1535.0400000000002 2400.8900000000003C1535.2600000000002 2401.1200000000003 1535.5200000000002 2401.2400000000002 1535.8400000000001 2401.2400000000002L1536.9900000000002 2401.2400000000002L1536.9900000000002 2409.3100000000004C1536.9900000000002 2413.1600000000003 1538.9000000000003 2415.0800000000004 1542.7200000000003 2415.0800000000004C1543.0300000000002 2415.0800000000004 1543.3000000000002 2414.9600000000005 1543.5200000000002 2414.7400000000002C1543.7500000000002 2414.51 1543.8600000000001 2414.2500000000005 1543.8600000000001 2413.9300000000003C1543.8600000000001 2413.61 1543.7500000000002 2413.34 1543.5200000000002 2413.1200000000003C1543.3000000000002 2412.8900000000003 1543.0400000000002 2412.7700000000004 1542.7200000000003 2412.7700000000004Z " fill="#cc5159" fill-opacity="1" transform="matrix(1,0,0,1,-1475,-2392)"></path></svg>