<svg id="SvgjsSvg1008" xmlns="http://www.w3.org/2000/svg" version="1.1" xmlns:xlink="http://www.w3.org/1999/xlink" xmlns:svgjs="http://svgjs.com/svgjs" width="1861" height="88" viewBox="0 0 1861 88"><title>Фигура 5</title><desc>Created with Avocode.</desc><defs id="SvgjsDefs1009"></defs><path id="SvgjsPath1010" d="M30 1893C30 1893 78.8318 1836.66 135 1835C191.168 1833.34 399.412 1864.93 458 1854C516.588 1843.07 592.216 1815.41 682 1838C771.784 1860.59 901.125 1820.52 970 1827C1038.87 1833.48 1215.19 1869.35 1294 1848C1501.1 1791.89 1598.6 1857.11 1628 1850C1795.55 1809.46 1782.7 1878.34 1821 1863C1859.3 1847.66 1870.26 1846.53 1882 1835C1890.18 1826.97 1890 1818 1890 1818L824 1805L157 1816L30 1819Z " fill="#cc5159" fill-opacity="1" transform="matrix(1,0,0,1,-30,-1805)"></path></svg>