<svg id="SvgjsSvg1014" xmlns="http://www.w3.org/2000/svg" version="1.1" xmlns:xlink="http://www.w3.org/1999/xlink" xmlns:svgjs="http://svgjs.com/svgjs" width="2371" height="1012" viewBox="0 0 2371 1012"><title>Фигура 1</title><desc>Created with Avocode.</desc><defs id="SvgjsDefs1015"></defs><path id="SvgjsPath1016" d="M-224.679 1519.98C-251.177 1457.25 -321.24 1263.79 -94.91470000000001 1241.1C131.41 1218.4099999999999 165.556 1160.2099999999998 209.881 1122.9099999999999C254.20499999999998 1085.61 303.96299999999997 1122.0199999999998 344.172 1130.1699999999998C384.38 1138.32 501.63100000000003 1177.35 564.469 1124.9799999999998C627.308 1072.61 719.5730000000001 980.2689999999998 848.1400000000001 1068.9999999999998C976.7070000000001 1157.7299999999998 1065.66 1171.1599999999999 1116.72 1124.9799999999998C1167.79 1078.8099999999997 1137.8600000000001 1057.8199999999997 1269.1200000000001 1036.0799999999997C1400.38 1014.3499999999997 1624.71 1011.0799999999997 1664.45 1204.0399999999997C1704.18 1396.9899999999998 1839.1200000000001 1279.8299999999997 1862.1100000000001 1250.4299999999998C1883.63 1222.9199999999998 1913.9 1078.34 1961.7 1085.59C2009.5 1092.84 2099.01 1177.86 2099.01 1177.86L2114 1990.6299999999999L-248.53900000000021 1876.4199999999998C-248.53900000000021 1876.4199999999998 -198.1810000000002 1582.7199999999998 -224.6790000000002 1519.9799999999998Z " fill="#ea5a57" fill-opacity="0.5" transform="matrix(1,0,0,1,257,-912)"></path><path id="SvgjsPath1017" d="M-189.958 1544.23C-216.063 1484.73 -285.086 1301.23 -62.120599999999996 1279.71C160.844 1258.2 187.945 1205.22 231.37800000000001 1169.68C274.36 1134.51 316.68600000000004 1171.04 359.914 1177.68C400.006 1183.8400000000001 525.568 1219.25 587.4739999999999 1169.5800000000002C649.3789999999999 1119.91 731.882 1033.9900000000002 858.54 1118.15C985.198 1202.3100000000002 1091.1399999999999 1210.9 1141.44 1167.1000000000001C1191.75 1123.3000000000002 1192.8700000000001 1090.5900000000001 1322.24 1070.19C1452.42 1049.66 1588.74 1064.54 1627.72 1247.54C1666.71 1430.57 1867.08 1308.3999999999999 1885.63 1280.45C1904.3700000000001 1252.22 1931.7 1122.44 1978.8000000000002 1129.3200000000002C2025.89 1136.19 2099.23 1219.7300000000002 2099.23 1219.7300000000002L2114 1990.63L-213.46500000000015 1882.3000000000002C-213.46500000000015 1882.3000000000002 -163.85400000000016 1603.7300000000002 -189.95800000000014 1544.2300000000002Z " fill="#db484d" fill-opacity="0.5" transform="matrix(1,0,0,1,257,-912)"></path><path id="SvgjsPath1018" d="M-183.412 1590.48C-209.288 1530.96 -277.706 1347.42 -56.69370000000001 1325.89C164.31799999999998 1304.3700000000001 191.18099999999998 1251.3700000000001 234.234 1215.8200000000002C276.84000000000003 1180.64 318.795 1217.18 361.644 1223.8300000000002C401.385 1229.9900000000002 525.848 1265.41 587.211 1215.7300000000002C648.5740000000001 1166.0400000000002 730.354 1080.1000000000004 855.903 1164.2900000000002C981.451 1248.4700000000003 1116 1251.9100000000003 1165.87 1208.0900000000001C1215.7299999999998 1164.2800000000002 1216.85 1131.5500000000002 1345.08 1111.14C1474.12 1090.6100000000001 1554.6499999999999 1131.21 1587.96 1286.18C1627.29 1469.18 1894.63 1338.73 1914.04 1311.3700000000001C1933.12 1284.46 1957.1599999999999 1166 2003.84 1172.88C2050.52 1179.75 2085.73 1265.89 2085.73 1265.89L2100.37 2037L-206.712 1928.65C-206.712 1928.65 -157.536 1650 -183.41199999999998 1590.48Z " fill="#ca3c49" fill-opacity="0.5" transform="matrix(1,0,0,1,257,-912)"></path></svg>