<?xml version="1.0" encoding="utf-8"?>
<!-- Generator: Adobe Illustrator 19.2.1, SVG Export Plug-In . SVG Version: 6.00 Build 0)  -->
<svg version="1.1" id="Слой_1" xmlns="http://www.w3.org/2000/svg" xmlns:xlink="http://www.w3.org/1999/xlink" x="0px" y="0px"
	 width="35.5px" height="50.7px" viewBox="0 0 35.5 50.7" style="enable-background:new 0 0 35.5 50.7;" xml:space="preserve">
<style type="text/css">
	.st0{fill:#FFFFFF;}
</style>
<g>
	<path class="st0" d="M30.4,9.5c2.6,0,4.7-2.1,4.7-4.7S33,0.1,30.4,0.1s-4.7,2.1-4.7,4.7S27.8,9.5,30.4,9.5z M30.4,1.5
		c1.8,0,3.2,1.5,3.2,3.2c0,1.8-1.5,3.2-3.2,3.2c-1.8,0-3.2-1.5-3.2-3.2C27.2,3,28.6,1.5,30.4,1.5z"/>
	<path class="st0" d="M34.8,17h-5.2v-3c1.6,0.1,3.3,0.2,5,0.2c0.4,0,0.7-0.3,0.7-0.7c0-0.4-0.3-0.7-0.7-0.7
		c-20.8,0-33-11.3-33.1-11.4c-0.3-0.3-0.7-0.3-1,0c-0.3,0.3-0.3,0.7,0,1c0.1,0.1,1.8,1.7,5,3.7V17H0.7C0.3,17,0,17.3,0,17.7
		s0.3,0.7,0.7,0.7h34.1c0.4,0,0.7-0.3,0.7-0.7S35.2,17,34.8,17z M28.2,17h-6.1v-4.2c1.9,0.4,3.9,0.8,6.1,1V17z M20.7,17h-6.2v-6.5
		c1.8,0.7,3.9,1.4,6.2,1.9V17z M7,6.9c0.8,0.5,1.6,0.9,2.5,1.4c1.1,0.5,2.3,1.1,3.6,1.7c0,0,0,0,0,0v7H7V6.9z"/>
	<path class="st0" d="M34.5,24.1h-9.1c-0.4,0-0.7,0.3-0.7,0.7s0.3,0.7,0.7,0.7h9.1c0.4,0,0.7-0.3,0.7-0.7S34.9,24.1,34.5,24.1z"/>
	<path class="st0" d="M34.5,28.5h-9.1c-0.4,0-0.7,0.3-0.7,0.7s0.3,0.7,0.7,0.7h9.1c0.4,0,0.7-0.3,0.7-0.7S34.9,28.5,34.5,28.5z"/>
	<path class="st0" d="M34.5,32.9h-9.1c-0.4,0-0.7,0.3-0.7,0.7c0,0.4,0.3,0.7,0.7,0.7h9.1c0.4,0,0.7-0.3,0.7-0.7
		C35.2,33.2,34.9,32.9,34.5,32.9z"/>
	<path class="st0" d="M14.9,1.4c1.1,0,2,0.9,2,2c0,0.4,0.3,0.7,0.7,0.7l0,0h0c0.4,0,0.7-0.3,0.7-0.7c0-1.1,0.9-2,2-2
		c0.4,0,0.7-0.3,0.7-0.7C21,0.3,20.7,0,20.3,0c-1.1,0-2.1,0.5-2.7,1.3C17,0.5,16,0,14.9,0c-0.4,0-0.7,0.3-0.7,0.7
		C14.2,1.1,14.6,1.4,14.9,1.4z"/>
	<path class="st0" d="M21.1,24c-0.3,0-1.3,0.1-1.9-0.3c-0.2-0.1-0.4-0.2-0.6-0.4c-0.6-0.4-1.3-1-2.4-1c-0.1,0-0.1,0-0.2,0
		c-1.2,0-2.1,0.8-2.9,1.4l-0.1,0.1c-0.4,0.3-0.7,0.3-0.7,0.3c0,0,0,0,0,0l0,0c0,0,0,0,0,0c0,0-0.3,0-0.7-0.3l-0.1-0.1
		c-0.7-0.6-1.5-1.3-2.6-1.4c-0.1,0-0.1,0-0.2,0c-1.2,0-2.1,0.8-2.9,1.4l-0.1,0.1c-0.4,0.3-0.7,0.3-0.7,0.3c0,0,0,0,0,0l0,0
		c-0.1,0-0.4,0-0.8-0.3l-0.1-0.1c-0.8-0.7-1.7-1.4-3.5-1.4c-0.4,0-0.7,0.3-0.7,0.7c0,0.4,0.3,0.7,0.7,0.7c1.3,0,1.8,0.5,2.5,1.1
		L3.5,25c0.6,0.5,1.3,0.6,1.6,0.6c0.2,0,0.3,0,0.4,0c0,0,0.1,0,0.1,0c0.3-0.1,0.8-0.2,1.2-0.6l0.1-0.1c0.6-0.5,1.2-1,1.9-1.1
		c0.7,0,1.3,0.6,1.9,1.1l0.1,0.1c0.7,0.6,1.3,0.7,1.6,0.7c0.1,0,0.2,0,0.2,0c0,0,0,0,0,0c0.4,0,0.8-0.2,1.4-0.6l0.1-0.1
		c0.6-0.5,1.2-1,1.9-1.1c0.7,0,1.2,0.4,1.8,0.8c0.2,0.2,0.5,0.3,0.7,0.5c0.7,0.4,1.5,0.5,2.1,0.5c0.4,0,0.7,0,0.7,0
		c0.4-0.1,0.7-0.4,0.6-0.8C21.8,24.3,21.5,24,21.1,24z"/>
	<path class="st0" d="M21.1,28.5c-0.3,0-1.3,0.1-1.9-0.3c-0.2-0.1-0.4-0.2-0.6-0.4c-0.6-0.4-1.3-1-2.4-1c-0.1,0-0.1,0-0.2,0
		c-1.2,0-2.1,0.8-2.9,1.4l-0.1,0.1c-0.4,0.3-0.7,0.3-0.7,0.3c0,0,0,0,0,0l0,0c0,0,0,0,0,0c0,0-0.3,0-0.7-0.3l-0.1-0.1
		c-0.7-0.6-1.5-1.3-2.6-1.4c-0.1,0-0.1,0-0.2,0c-1.2,0-2.1,0.8-2.9,1.4l-0.1,0.1c-0.4,0.3-0.7,0.3-0.7,0.3c0,0,0,0,0,0l0,0
		c-0.1,0-0.4,0-0.8-0.3l-0.1-0.1c-0.8-0.7-1.7-1.4-3.5-1.4c-0.4,0-0.7,0.3-0.7,0.7c0,0.4,0.3,0.7,0.7,0.7c1.3,0,1.8,0.5,2.5,1.1
		l0.2,0.1C4.1,29.9,4.7,30,5.1,30c0.2,0,0.3,0,0.4,0c0,0,0.1,0,0.1,0c0.3-0.1,0.8-0.2,1.2-0.6l0.1-0.1c0.6-0.5,1.2-1,1.9-1.1
		c0.7,0,1.3,0.6,1.9,1.1l0.1,0.1c0.7,0.6,1.3,0.7,1.6,0.7c0.1,0,0.2,0,0.2,0c0,0,0,0,0,0c0.4,0,0.8-0.2,1.4-0.6l0.1-0.1
		c0.6-0.5,1.2-1,1.9-1.1c0.7,0,1.2,0.4,1.8,0.8c0.2,0.2,0.5,0.3,0.7,0.5c0.7,0.4,1.5,0.5,2.1,0.5c0.4,0,0.7,0,0.7,0
		c0.4-0.1,0.7-0.4,0.6-0.8C21.8,28.7,21.5,28.4,21.1,28.5z"/>
	<path class="st0" d="M21.1,32.9c-0.3,0-1.3,0.1-1.9-0.3c-0.2-0.1-0.4-0.2-0.6-0.4c-0.6-0.4-1.3-1-2.4-1c-0.1,0-0.1,0-0.2,0
		c-1.2,0-2.1,0.8-2.9,1.4l-0.1,0.1C12.7,33,12.4,33,12.4,33c0,0,0,0,0,0l0,0c0,0,0,0,0,0c0,0-0.3,0-0.7-0.3l-0.1-0.1
		c-0.7-0.6-1.5-1.3-2.6-1.4c-0.1,0-0.1,0-0.2,0c-1.2,0-2.1,0.8-2.9,1.4l-0.1,0.1C5.5,33,5.2,33,5.2,33c0,0,0,0,0,0l0,0
		c-0.1,0-0.4,0-0.8-0.3l-0.1-0.1c-0.8-0.7-1.7-1.4-3.5-1.4c-0.4,0-0.7,0.3-0.7,0.7c0,0.4,0.3,0.7,0.7,0.7c1.3,0,1.8,0.5,2.5,1.1
		l0.2,0.1c0.6,0.5,1.3,0.6,1.6,0.6c0.2,0,0.3,0,0.4,0c0,0,0.1,0,0.1,0c0.3-0.1,0.8-0.2,1.2-0.6l0.1-0.1c0.6-0.5,1.2-1,1.9-1.1
		c0.7,0,1.3,0.6,1.9,1.1l0.1,0.1c0.7,0.6,1.3,0.7,1.6,0.7c0.1,0,0.2,0,0.2,0c0,0,0,0,0,0c0.4,0,0.8-0.2,1.4-0.6l0.1-0.1
		c0.6-0.5,1.2-1,1.9-1.1c0.7,0,1.2,0.4,1.8,0.8c0.2,0.2,0.5,0.3,0.7,0.5c0.7,0.4,1.5,0.5,2.1,0.5c0.4,0,0.7,0,0.7,0
		c0.4-0.1,0.7-0.4,0.6-0.8C21.8,33.1,21.5,32.8,21.1,32.9z"/>
</g>
<g>
	<g>
		<path class="st0" d="M4.6,45.7l-1.8,0v4.2c0,0.2-0.1,0.4-0.2,0.5c-0.1,0.1-0.3,0.2-0.5,0.2c-0.2,0-0.4-0.1-0.5-0.2
			c-0.1-0.1-0.2-0.3-0.2-0.5v-9.8c0-0.2,0.1-0.4,0.2-0.5c0.1-0.1,0.3-0.2,0.5-0.2c0.2,0,0.4,0.1,0.5,0.2c0.1,0.1,0.2,0.3,0.2,0.5
			v4.3l1.8,0"/>
		<path class="st0" d="M4.1,44.9c0-1.6,0.5-3,1.6-4.1c1.1-1.1,2.4-1.7,4-1.7c1.6,0,2.9,0.6,4,1.7c1.1,1.1,1.6,2.5,1.6,4.1
			c0,1.6-0.5,2.9-1.6,4.1c-1.1,1.1-2.4,1.7-4,1.7c-1.6,0-2.9-0.6-4-1.7C4.6,47.9,4.1,46.5,4.1,44.9z M9.7,40.6
			c-1.2,0-2.1,0.4-2.9,1.3c-0.8,0.8-1.2,1.8-1.2,3c0,1.2,0.4,2.2,1.2,3c0.8,0.8,1.8,1.2,2.9,1.2c1.2,0,2.2-0.4,3-1.2
			c0.8-0.8,1.2-1.8,1.2-3c0-1.2-0.4-2.2-1.2-3C11.9,41.1,10.9,40.6,9.7,40.6z"/>
	</g>
	<g>
		<path class="st0" d="M22.4,43.7c1.1,0,1.9,0.3,2.5,1c0.6,0.7,0.8,1.5,0.8,2.5c0,1-0.3,1.8-0.8,2.5c-0.6,0.7-1.4,1-2.5,1h-3.8
			c-0.2,0-0.3-0.1-0.4-0.2C18,50.3,18,50.2,18,50v-9.9c0-0.2,0.1-0.4,0.2-0.5c0.1-0.1,0.3-0.2,0.5-0.2c0.2,0,0.4,0.1,0.5,0.2
			c0.1,0.1,0.2,0.3,0.2,0.5v3.5H22.4z M23.8,48.6c0.3-0.4,0.5-0.9,0.5-1.5c0-0.6-0.2-1.1-0.5-1.5c-0.3-0.4-0.8-0.6-1.4-0.6h-2.8v4.2
			h2.9C23,49.3,23.5,49,23.8,48.6z"/>
		<path class="st0" d="M18,40.2c0-0.2,0.1-0.4,0.2-0.5c0.2-0.2,0.3-0.2,0.5-0.2h5.1c0.2,0,0.4,0.1,0.5,0.2c0.1,0.1,0.2,0.3,0.2,0.5
			c0,0.2-0.1,0.4-0.2,0.5s-0.3,0.2-0.5,0.2h-4.4"/>
	</g>
	<path class="st0" d="M31.3,45l4.1,4.4c0.1,0.2,0.2,0.3,0.2,0.5c0,0.2-0.1,0.4-0.2,0.5c-0.2,0.2-0.3,0.3-0.5,0.3
		c-0.2,0-0.4-0.1-0.5-0.2L30,45.8v4.1c0,0.2-0.1,0.4-0.2,0.5c-0.1,0.1-0.3,0.2-0.5,0.2c-0.2,0-0.4-0.1-0.5-0.2
		c-0.1-0.1-0.2-0.3-0.2-0.5v-9.8c0-0.2,0.1-0.4,0.2-0.5c0.1-0.1,0.3-0.2,0.5-0.2c0.2,0,0.4,0.1,0.5,0.2c0.1,0.1,0.2,0.3,0.2,0.5v4.2
		l3.6-4.6c0.1-0.2,0.3-0.3,0.5-0.3c0.2,0,0.4,0,0.5,0.1c0.2,0.1,0.3,0.3,0.4,0.5c0,0.2,0,0.4-0.1,0.6L31.3,45z"/>
</g>
</svg>
