<svg width="54" height="48" viewBox="0 0 54 48" fill="none" xmlns="http://www.w3.org/2000/svg">
<path d="M16.7719 0.666015L1.45829 43.8844C1.10344 44.8859 2.34879 45.6765 3.10414 44.9293L16.7157 31.4643C16.9029 31.2791 17.1556 31.1753 17.4189 31.1753H53C53.5523 31.1753 54 30.7275 54 30.1753V1C54 0.447715 53.5523 0 53 0H17.7145C17.2909 0 16.9133 0.266805 16.7719 0.666015Z" fill="#FF59A3"/>
<path d="M41.8571 9H26V23H41.8571V9Z" stroke="white" stroke-miterlimit="10" stroke-linecap="round" stroke-linejoin="round"/>
<path d="M29 9H26V11.8H29V9Z" stroke="white" stroke-miterlimit="10" stroke-linecap="round" stroke-linejoin="round"/>
<path d="M41.8574 9H38.8574V11.8H41.8574V9Z" stroke="white" stroke-miterlimit="10" stroke-linecap="round" stroke-linejoin="round"/>
<path d="M29 11.8H26V14.6H29V11.8Z" stroke="white" stroke-miterlimit="10" stroke-linecap="round" stroke-linejoin="round"/>
<path d="M41.8574 11.8H38.8574V14.6H41.8574V11.8Z" stroke="white" stroke-miterlimit="10" stroke-linecap="round" stroke-linejoin="round"/>
<path d="M29 14.6H26V17.4H29V14.6Z" stroke="white" stroke-miterlimit="10" stroke-linecap="round" stroke-linejoin="round"/>
<path d="M41.8574 14.6H38.8574V17.4H41.8574V14.6Z" stroke="white" stroke-miterlimit="10" stroke-linecap="round" stroke-linejoin="round"/>
<path d="M29 17.4H26V20.2H29V17.4Z" stroke="white" stroke-miterlimit="10" stroke-linecap="round" stroke-linejoin="round"/>
<path d="M41.8574 17.4H38.8574V20.2H41.8574V17.4Z" stroke="white" stroke-miterlimit="10" stroke-linecap="round" stroke-linejoin="round"/>
<path d="M29 20.2H26V23H29V20.2Z" stroke="white" stroke-miterlimit="10" stroke-linecap="round" stroke-linejoin="round"/>
<path d="M41.8574 20.2H38.8574V23H41.8574V20.2Z" stroke="white" stroke-miterlimit="10" stroke-linecap="round" stroke-linejoin="round"/>
<path d="M32.1714 13.2401L36.3286 15.8801C36.4143 15.9201 36.4143 16.0401 36.3286 16.1201L32.1714 18.7601C32.0857 18.8001 32 18.7601 32 18.6401V13.3601C32 13.2401 32.1286 13.1601 32.1714 13.2401Z" stroke="white" stroke-miterlimit="10" stroke-linecap="round" stroke-linejoin="round"/>
</svg>
