<?xml version="1.0" encoding="UTF-8"?><!DOCTYPE svg PUBLIC "-//W3C//DTD SVG 1.1//EN" "http://www.w3.org/Graphics/SVG/1.1/DTD/svg11.dtd"><svg xmlns="http://www.w3.org/2000/svg"><symbol id="icon-apple" viewBox="0 0 15 20">
    <path d="M13.372 16.875c-.726 1.137-1.496 2.246-2.669 2.264-1.173.028-1.549-.724-2.879-.724-1.339 0-1.75.706-2.861.752-1.146.046-2.013-1.21-2.748-2.32-1.496-2.264-2.642-6.434-1.102-9.24.761-1.393 2.126-2.273 3.605-2.3 1.12-.019 2.187.797 2.879.797.682 0 1.977-.98 3.333-.834.57.028 2.162.239 3.186 1.815-.08.055-1.9 1.173-1.882 3.493a4.022 4.022 0 0 0 2.345 3.703c-.026.064-.367 1.32-1.207 2.594zM8.375 2.21c.64-.761 1.698-1.339 2.573-1.376.114 1.073-.298 2.155-.91 2.925-.604.779-1.601 1.384-2.581 1.301-.132-1.054.358-2.154.918-2.85z"/>
</symbol><symbol id="icon-facebook" viewBox="0 0 7 13">
    <path d="M6.625.25v2.5h-1.25c-.431 0-.625.506-.625.938V5.25h1.875v2.5H4.75v5h-2.5v-5H.375v-2.5H2.25v-2.5a2.5 2.5 0 0 1 2.5-2.5h1.875z"/>
</symbol><symbol id="icon-instagram" viewBox="0 0 13 13">
    <path d="M3.875.25h5.25c2 0 3.625 1.625 3.625 3.625v5.25a3.625 3.625 0 0 1-3.625 3.625h-5.25c-2 0-3.625-1.625-3.625-3.625v-5.25A3.625 3.625 0 0 1 3.875.25zM3.75 1.5A2.25 2.25 0 0 0 1.5 3.75v5.5a2.249 2.249 0 0 0 2.25 2.25h5.5a2.25 2.25 0 0 0 2.25-2.25v-5.5A2.249 2.249 0 0 0 9.25 1.5h-5.5zm6.031.938a.781.781 0 1 1 0 1.562.781.781 0 0 1 0-1.563zM6.5 3.375a3.125 3.125 0 1 1 0 6.25 3.125 3.125 0 0 1 0-6.25zm0 1.25a1.875 1.875 0 1 0 0 3.75 1.875 1.875 0 0 0 0-3.75z"/>
</symbol><symbol id="icon-linkedin" viewBox="0 0 12 12">
    <path d="M11.25 11.25H8.917V7.312c0-.618-.694-1.131-1.313-1.131-.618 0-1.02.513-1.02 1.131v3.938H4.25v-7h2.333v1.167C6.968 4.793 7.96 4.39 8.625 4.39a2.63 2.63 0 0 1 2.625 2.63v4.23zm-8.167 0H.75v-7h2.333v7zM1.917.75a1.167 1.167 0 1 1 0 2.333 1.167 1.167 0 0 1 0-2.333z"/>
</symbol><symbol id="icon-logo" viewBox="0 0 152 18">
    <path d="M14.44.139L8.153 15.646 1.796.14H0l7.393 17.723h1.52L16.305.139H14.44z"/>
    <path d="M46.567 9.762h5.804a3.14 3.14 0 0 0 1.382-.346c.414-.208.76-.554 1.105-.9.276-.416.553-.831.69-1.316.14-.484.277-.969.277-1.523 0-.554-.069-1.038-.276-1.523-.207-.485-.484-.9-.76-1.315a5.27 5.27 0 0 0-1.175-.9c-.483-.277-.898-.346-1.381-.346h-5.666v8.169zm-1.727 8.1V.139h7.462c.76 0 1.45.138 2.072.484a7.442 7.442 0 0 1 1.659 1.246c.483.554.829 1.108 1.105 1.8.276.693.415 1.316.415 2.008 0 .623-.07 1.246-.277 1.87a5.79 5.79 0 0 1-.829 1.592c-.345.484-.76.9-1.244 1.177-.483.346-1.036.553-1.589.692l4.353 6.854h-2.003l-4.146-6.577h-5.25v6.577H44.84z"/>
    <path d="M68.262.139h-1.727v17.723h1.727V.139z"/>
    <path d="M88.505 3.462c-.483-.554-1.174-1.039-2.003-1.385a7.38 7.38 0 0 0-2.833-.554c-1.59 0-2.695.277-3.386.9-.69.623-1.105 1.385-1.105 2.423 0 .554.069.97.276 1.316.208.346.484.623.899.9.414.277.898.484 1.52.623.621.208 1.381.346 2.21.554.968.207 1.797.415 2.557.692.76.277 1.382.554 1.934.97.553.345.968.83 1.244 1.384.276.554.415 1.177.415 2.008 0 .83-.139 1.523-.484 2.146a4.66 4.66 0 0 1-1.313 1.523c-.553.415-1.244.692-2.004.9-.76.207-1.658.277-2.556.277-2.764 0-5.113-.831-7.116-2.562l.898-1.454c.345.346.69.623 1.105.97.415.276.899.553 1.451.761.553.208 1.106.415 1.728.554a8.72 8.72 0 0 0 1.934.208c1.382 0 2.487-.277 3.316-.762.76-.485 1.175-1.246 1.175-2.285 0-.553-.138-1.038-.345-1.384-.208-.346-.553-.693-1.037-.97-.414-.276-1.036-.484-1.658-.692-.69-.207-1.45-.415-2.35-.623-.897-.207-1.726-.415-2.417-.692a6.239 6.239 0 0 1-1.797-.9 3.792 3.792 0 0 1-1.105-1.246 4.64 4.64 0 0 1-.346-1.8c0-.831.139-1.523.484-2.216.276-.623.76-1.177 1.313-1.592a6.002 6.002 0 0 1 2.004-.97 9.514 9.514 0 0 1 5.734.209c.898.346 1.727.83 2.487 1.523l-.829 1.246z"/>
    <path d="M100.458.139h-1.727v17.723h1.727V.139z"/>
    <path d="M117.524 16.408c1.105 0 2.072-.208 2.763-.623.76-.416 1.313-.97 1.797-1.662.414-.692.76-1.454.898-2.354.207-.9.276-1.8.276-2.7V.14h1.727v8.93c0 1.177-.138 2.354-.414 3.393-.276 1.107-.691 2.007-1.313 2.838s-1.382 1.454-2.28 1.939c-.967.484-2.073.692-3.454.692-1.382 0-2.557-.277-3.524-.762a5.865 5.865 0 0 1-2.28-2.007c-.553-.831-.967-1.8-1.244-2.839-.276-1.038-.345-2.146-.345-3.323V.14h1.727v8.93c0 .9.069 1.87.277 2.7.207.831.483 1.662.967 2.354.414.693 1.036 1.246 1.727 1.662.691.415 1.589.623 2.695.623z"/>
    <path d="M150.204.139l-6.909 12.115L136.386.14h-1.796v17.723h1.727V3.323l6.495 11.216h.967l6.494-11.216v14.539h1.728V.139h-1.797z"/>
    <path d="M35.926.139H24.25v1.523h11.676V.139z"/>
    <path d="M35.926 7.962H24.25v1.523h11.676V7.962z"/>
    <path d="M35.926 16.27H24.25v1.523h11.676V16.27z"/>
</symbol><symbol id="icon-playmarket" viewBox="0 0 17 20">
    <path d="M.625 17.791V2.208c0-.54.297-1.017.735-1.237L9.979 10 1.36 19.029a1.39 1.39 0 0 1-.735-1.238zm12.084-4.931L3.294 18.56l7.428-7.782 1.987 2.08zm2.931-3.951c.297.248.516.633.516 1.09 0 .46-.192.826-.498 1.082l-2.004 1.21L11.466 10l2.188-2.292L15.64 8.91zM3.294 1.439l9.415 5.7-1.986 2.082-7.43-7.783z"/>
</symbol><symbol id="icon-twitter" viewBox="0 0 14 11">
    <path d="M13.102 1.5c-.45.204-.934.339-1.435.403.513-.31.91-.8 1.096-1.389a5.04 5.04 0 0 1-1.586.613A2.465 2.465 0 0 0 9.333.333a2.5 2.5 0 0 0-2.49 2.503c0 .198.023.39.064.572A7.113 7.113 0 0 1 1.75.794c-.216.368-.338.8-.338 1.255 0 .869.437 1.639 1.114 2.076-.414 0-.8-.117-1.138-.292v.018c0 1.213.864 2.228 2.007 2.456a2.462 2.462 0 0 1-1.126.04 2.497 2.497 0 0 0 2.334 1.739 4.97 4.97 0 0 1-3.11 1.073c-.198 0-.396-.011-.595-.035a7.084 7.084 0 0 0 3.839 1.126c4.596 0 7.122-3.815 7.122-7.122 0-.111 0-.216-.006-.327.49-.35.91-.793 1.249-1.3z"/>
</symbol><symbol id="icon-union" viewBox="0 0 24 18">
    <path d="M0 0h9.69l6.633 16.688 2.31-5.813L14.312 0H24l-7.155 18h-9.69L0 0z"/>
</symbol></svg>