<svg width="41" height="30" viewBox="0 0 41 30" version="1.1" xmlns="http://www.w3.org/2000/svg" xmlns:xlink="http://www.w3.org/1999/xlink">
<g id="Canvas" fill="none">
<g id="noun_1501106_cc">
<g id="Vector">
<path d="M 38.9364 5.32779C 38.3147 5.01358 37.611 4.96293 36.9528 5.1848C 36.8668 5.21349 36.7803 5.24979 36.6934 5.29193C 35.8191 4.33586 34.4327 3.96159 33.1839 4.38606C 32.6808 4.5537 32.2365 4.84101 31.8751 5.20811C 31.8466 5.06109 31.7481 4.93424 31.6041 4.87732C 27.6454 3.3027 23.43 2.74689 19.3167 3.13506C 19.8675 2.32197 19.8889 1.89302 19.8394 1.62812C 19.7244 1.00912 19.2512 0.514275 18.5074 0.234581C 17.8411 -0.0159779 17.0145 -0.0684205 16.1811 0.0898037C 14.3548 0.434042 13.1008 1.64919 13.3258 2.85716C 13.3753 3.12251 13.5504 3.51516 14.3637 4.07589C 10.4166 5.21752 6.71371 7.26547 3.60976 10.1583C 3.46403 10.2941 3.42526 10.5102 3.51439 10.6886C 3.59149 10.8419 3.74658 10.9356 3.9128 10.9356C 3.93999 10.9356 3.96762 10.9329 3.99525 10.9275L 31.4464 5.74912C 31.2703 6.02209 31.1282 6.31792 31.0368 6.63482C 30.5827 6.5631 30.1241 6.66305 29.7391 6.92034C 29.3304 7.19241 29.0523 7.60926 28.9583 8.08707C 28.8892 8.41204 28.9093 8.74821 29.0158 9.05973C 29.096 9.29325 29.3491 9.41831 29.5822 9.33763C 29.8148 9.25739 29.9387 9.00235 29.8585 8.76793C 29.8041 8.60836 29.7943 8.44162 29.8309 8.26816C 29.8799 8.02029 30.0225 7.80693 30.2315 7.66708C 30.4432 7.52634 30.6977 7.47748 30.9526 7.53037C 31.0297 7.54517 31.1046 7.57072 31.1754 7.60613C 31.3042 7.67067 31.4571 7.66843 31.585 7.5994C 31.712 7.53082 31.7984 7.40353 31.8163 7.25964C 31.9312 6.32688 32.5779 5.53307 33.4665 5.23635C 34.479 4.8939 35.6105 5.2619 36.2233 6.13011C 36.3628 6.32688 36.6333 6.37843 36.8334 6.24396C 36.9809 6.1449 37.1132 6.07677 37.2371 6.03464C 37.6672 5.88941 38.1289 5.92348 38.5366 6.12922C 38.9453 6.3354 39.2501 6.6886 39.3945 7.12159C 39.6053 7.76256 39.4204 8.46896 38.923 8.92122C 38.7408 9.08707 38.7265 9.37079 38.8918 9.55412C 38.9796 9.65183 39.1008 9.70159 39.2221 9.70159C 39.3286 9.70159 39.4355 9.66349 39.5211 9.58549C 40.2791 8.89522 40.5617 7.81814 40.2399 6.83831C 40.0193 6.17718 39.5567 5.64065 38.9364 5.32779ZM 14.2011 2.69087C 14.0892 2.08934 14.9422 1.23458 16.3455 0.969673C 17.0216 0.842825 17.6776 0.879132 18.195 1.07366C 18.4494 1.16913 18.8884 1.39011 18.9637 1.79262C 18.9642 1.7962 19.0154 2.1633 18.084 3.27894C 17.2359 3.39862 16.3946 3.55908 15.5616 3.75854C 14.2862 3.05527 14.202 2.6949 14.2011 2.69087ZM 5.44405 9.74148C 10.1078 5.92214 15.9391 3.90825 21.8319 3.90825C 24.4907 3.90825 27.1623 4.31838 29.744 5.15746L 5.44405 9.74148ZM 34.0035 8.1422C 34.3186 7.80648 34.6849 7.7016 35.0949 7.8271C 35.5575 7.96964 35.8917 8.36587 35.9274 8.58685C 35.9635 8.80693 36.1524 8.96291 36.3668 8.96291C 36.3908 8.96291 36.4145 8.96112 36.439 8.95708C 36.6819 8.91674 36.8467 8.68635 36.8071 8.44252C 36.7068 7.82755 36.0833 7.19465 35.356 6.97009C 34.6279 6.74553 33.8992 6.94813 33.3555 7.52589C 33.1866 7.70563 33.1942 7.98936 33.3729 8.15968C 33.5516 8.32956 33.8337 8.32284 34.0035 8.1422ZM 37.7594 10.4811C 37.5139 10.4421 37.2893 10.6151 37.2541 10.8598C 37.1877 11.3165 36.9475 11.616 36.5415 11.7486C 36.082 11.8992 35.5815 11.7693 35.4256 11.6083C 35.2527 11.4322 34.971 11.4291 34.795 11.6016C 34.6189 11.7751 34.6167 12.0593 34.7883 12.2359C 35.086 12.5411 35.5896 12.711 36.1101 12.711C 36.3485 12.711 36.59 12.6751 36.8173 12.6007C 37.5406 12.3641 38.021 11.7764 38.1356 10.9889C 38.1717 10.7442 38.0032 10.5169 37.7594 10.4811ZM 40.9891 4.45867C 40.8193 3.70386 39.9908 2.96384 39.0612 2.73748C 38.1244 2.50889 37.2509 2.80965 36.6048 3.58463C 36.447 3.77423 36.4715 4.05706 36.66 4.21618C 36.8494 4.37485 37.1302 4.34975 37.2879 4.1606C 37.8223 3.51964 38.4337 3.50664 38.8513 3.60883C 39.4952 3.76616 40.0363 4.287 40.1196 4.65679C 40.1664 4.86477 40.3504 5.00596 40.5541 5.00596C 40.5866 5.00596 40.6196 5.00237 40.653 4.9952C 40.8923 4.94052 41.043 4.70072 40.9891 4.45867ZM 29.961 23.2403C 29.7146 23.2403 29.5154 23.4406 29.5154 23.6885L 29.5154 24.6836C 29.5154 25.3402 29.26 25.9592 28.7965 26.4254C 28.6223 26.6006 28.6223 26.8839 28.7965 27.0592C 28.8834 27.1466 28.9975 27.1905 29.1116 27.1905C 29.2257 27.1905 29.3398 27.1466 29.4267 27.0592C 30.0586 26.4236 30.4067 25.58 30.4067 24.6836L 30.4067 23.6885C 30.4067 23.4406 30.2075 23.2403 29.961 23.2403ZM 29.961 15.7298C 29.7146 15.7298 29.5154 15.9301 29.5154 16.178L 29.5154 21.6343C 29.5154 21.8822 29.7146 22.0825 29.961 22.0825C 30.2075 22.0825 30.4067 21.8822 30.4067 21.6343L 30.4067 16.178C 30.4067 15.9301 30.2075 15.7298 29.961 15.7298ZM 35.4037 15.5052L 32.2632 15.5052C 32.2824 14.1637 32.6291 12.8378 33.2735 11.6639C 33.3497 11.525 33.3471 11.3555 33.2668 11.2193C 33.1866 11.083 33.0405 10.9992 32.8831 10.9992L 4.0104 10.9992C 3.85264 10.9992 3.70647 11.083 3.6267 11.2193C 3.54692 11.3555 3.5438 11.525 3.62001 11.6639C 4.26442 12.8387 4.61114 14.165 4.6303 15.5052L 1.51476 15.5052C 0.679616 15.5052 0 16.1865 0 17.0292C 0 17.8692 0.679616 18.5527 1.51476 18.5527L 4.63386 18.5527L 4.63386 24.992C 4.63386 27.7535 6.86746 30 9.6131 30L 27.28 30C 30.0256 30 32.2597 27.7535 32.2597 24.992L 32.2597 18.5532L 35.4042 18.5532C 36.2393 18.5532 36.9189 17.8696 36.9189 17.0238C 36.9189 16.1865 36.2389 15.5052 35.4037 15.5052ZM 1.51476 17.6567C 1.17117 17.6567 0.891299 17.3752 0.891299 17.0238C 0.891299 16.6805 1.17117 16.4017 1.51476 16.4017L 4.63386 16.4017L 4.63386 17.6567L 1.51476 17.6567ZM 31.3684 24.9924C 31.3684 27.2595 29.5345 29.104 27.28 29.104L 9.6131 29.104C 7.35901 29.104 5.52516 27.2595 5.52516 24.9924L 5.52516 15.6231C 5.52516 14.3394 5.25198 13.0646 4.73012 11.8957L 32.163 11.8957C 31.6416 13.0642 31.3684 14.3389 31.3684 15.6231L 31.3684 24.9924ZM 35.4037 17.6567L 32.2592 17.6567L 32.2592 16.4017L 35.4037 16.4017C 35.7473 16.4017 36.0272 16.6805 36.0272 17.0292C 36.0276 17.3752 35.7478 17.6567 35.4037 17.6567ZM 27.5835 8.97949C 27.9186 8.97949 28.19 9.25246 28.19 9.58953C 28.19 9.9266 27.9186 10.1996 27.5835 10.1996C 27.2483 10.1996 26.9769 9.9266 26.9769 9.58953C 26.9769 9.25246 27.2483 8.97949 27.5835 8.97949Z" fill="#333333"/>
</g>
</g>
</g>
</svg>

