<svg width="25" height="28" viewBox="0 0 25 28" version="1.1" xmlns="http://www.w3.org/2000/svg" xmlns:xlink="http://www.w3.org/1999/xlink">
<g id="Canvas" fill="none">
<g id="Vector">
<path fill-rule="evenodd" clip-rule="evenodd" d="M 6.60464 25.8093L 6.6372 25.8005C 7.75481 25.5001 8.9241 25.477 10.0519 25.733L 10.1117 25.7466L 10.1665 25.7742C 10.9373 26.1633 11.6224 26.7131 12.1803 27.3883L 12.2096 27.4237L 12.2319 27.4639C 12.2404 27.4791 12.2508 27.4885 12.2595 27.4936C 12.2681 27.4986 12.2757 27.5001 12.282 27.5L 12.2882 27.4999L 12.2892 27.4989L 12.2902 27.4998L 12.2905 27.4998C 12.2893 27.4987 12.2894 27.4987 12.2894 27.4987L 12.2896 27.4984L 12.2902 27.4978L 12.2918 27.4962L 12.2969 27.491L 12.3141 27.4738C 12.3287 27.4594 12.3495 27.4391 12.376 27.4138C 12.4291 27.3633 12.5055 27.2926 12.6022 27.2085C 12.795 27.0406 13.0713 26.8169 13.4067 26.5926C 14.0636 26.1532 15.0105 25.6683 16.0305 25.6683L 16.0399 25.6683L 16.0494 25.6686C 17.1429 25.71 18.2304 25.8561 19.2984 26.1052L 19.3002 26.1056C 20.1019 26.2958 20.9178 26.4121 21.7385 26.4532L 24.2444 26.4532C 24.2454 26.4518 24.2466 26.4496 24.2478 26.4467C 24.2496 26.4421 24.2508 26.4364 24.2508 26.4299L 24.2508 26.4239L 24.2509 26.4239L 24.5 5.75767C 24.4998 5.7518 24.4986 5.74655 24.4969 5.74226C 24.496 5.73994 24.4951 5.73812 24.4942 5.73673C 24.4939 5.73638 24.4937 5.73605 24.4935 5.73575L 21.7012 5.73575L 21.6874 5.73575L 21.6874 5.73556C 20.8638 5.71275 20.0488 5.55647 19.2715 5.27257C 18.2252 4.91117 17.1342 4.71459 16.0338 4.68899L 16.0307 4.68892C 15.5372 4.67434 14.9259 4.87811 14.3025 5.1928C 13.6918 5.50106 13.1287 5.88499 12.7472 6.16308L 12.2857 6.49959L 12.0132 5.99758C 11.7354 5.48563 11.2721 4.69083 10.7308 3.92232C 10.1814 3.14221 9.58495 2.43786 9.04714 2.0611C 8.2044 1.47529 7.01015 1.08443 5.97102 0.838493C 4.99718 0.608005 4.21034 0.516106 4.07864 0.501041C 4.07786 0.502266 4.07701 0.503832 4.0762 0.505786C 4.07418 0.510596 4.07281 0.516727 4.07285 0.52355L 4.07286 0.525937L 4.07285 0.539993L 4.63704 0.628563C 5.13262 0.706362 5.90246 0.848982 6.709 1.08325C 7.50824 1.31539 8.38015 1.64776 9.05655 2.12036C 9.7547 2.60815 10.4768 3.57469 11.0375 4.42892C 11.6119 5.304 12.0688 6.14362 12.2281 6.44857L 12.2849 6.55735L 12.2849 6.6801L 12.2849 25.1583L 12.2849 26.9794L 11.355 25.4136C 10.6444 24.2169 9.67953 23.2129 8.53871 22.4794C 7.25557 21.7697 5.88114 21.2612 4.45909 20.9697L 4.07285 20.8905L 4.07285 20.9351L 4.07285 20.9413L 4.07281 20.9413C 4.07266 20.9536 4.07696 20.9623 4.08002 20.9662L 4.07983 20.9663L 4.08003 20.9662C 4.08009 20.9662 4.08014 20.9663 4.0802 20.9664L 4.08134 20.9666L 4.08134 20.9666C 5.63331 21.2503 7.13614 21.7735 8.54105 22.5187L 8.55964 22.5285L 8.57734 22.5399C 9.6544 23.2331 10.5682 24.1689 11.2535 25.2774L 10.5771 25.9727L 10.1607 25.7309C 10.0762 25.6865 9.88262 25.6278 9.57353 25.5822C 9.2744 25.5381 8.91358 25.5126 8.53661 25.5098C 7.76403 25.504 7.0132 25.594 6.60822 25.7568C 5.83691 26.0794 4.70536 26.2438 3.67021 26.3322C 2.61647 26.4222 1.59675 26.438 1.01654 26.438L 0.517054 26.438L 0.516544 25.9385L 0.5 9.73256L 0.5 26.4718L 0.5 26.4719C 0.499998 26.4833 0.503746 26.4913 0.506517 26.4952C 0.517557 26.4953 0.532104 26.4955 0.549989 26.4958C 0.811487 26.4992 1.78635 26.5118 2.93879 26.4443C 4.24709 26.3676 5.69437 26.1912 6.57356 25.8223L 6.60464 25.8093ZM 12.2908 27.5004L 12.2962 27.5057L 12.647 27.8481C 12.3852 27.5926 12.315 27.524 12.2962 27.5055C 12.2936 27.503 12.292 27.5014 12.291 27.5004C 12.2909 27.5004 12.2909 27.5004 12.2908 27.5004ZM 0.5 5.91321L 0.996612 5.91321L 3.57285 5.91321L 4.0595 5.91321L 4.0595 5.86658L 3.57285 5.86658L 0.506487 5.86658C 0.505448 5.86805 0.504207 5.87018 0.503059 5.87309C 0.501233 5.87772 0.5 5.88346 0.5 5.88989L 0.5 5.91321ZM 19.3199 5.33593L 19.3199 5.33596C 20.0875 5.61354 20.891 5.76403 21.7018 5.78238L 23.9934 5.78238L 24.4996 5.78238L 24.4934 6.28847L 24.2542 25.9127L 24.2482 26.4066L 23.7542 26.4066L 21.7311 26.4066L 21.7175 26.4066L 21.7039 26.4059C 20.8813 26.3611 20.0638 26.2432 19.2604 26.0533C 18.1999 25.8072 17.1204 25.6629 16.0353 25.6222C 14.9746 25.6841 13.9533 26.0799 13.1048 26.7621L 12.2915 27.4158L 12.2915 26.3724L 12.2915 6.80046L 12.2915 6.54836L 12.4942 6.39845C 12.8547 6.13186 13.4305 5.72456 14.0483 5.38197C 14.6432 5.05215 15.3658 4.73052 15.9956 4.73052L 16.0476 4.73052L 16.0788 4.73709C 17.1799 4.76778 18.2704 4.96904 19.3149 5.33417L 19.3199 5.33593Z" fill="#333333"/>
<path fill-rule="evenodd" clip-rule="evenodd" d="M 6.60464 25.8093L 6.6372 25.8005C 7.75481 25.5001 8.9241 25.477 10.0519 25.733L 10.1117 25.7466L 10.1665 25.7742C 10.9373 26.1633 11.6224 26.7131 12.1803 27.3883L 12.2096 27.4237L 12.2319 27.4639C 12.2404 27.4791 12.2508 27.4885 12.2595 27.4936C 12.2681 27.4986 12.2757 27.5001 12.282 27.5L 12.2882 27.4999L 12.2892 27.4989L 12.2902 27.4998L 12.2905 27.4998C 12.2893 27.4987 12.2894 27.4987 12.2894 27.4987L 12.2896 27.4984L 12.2902 27.4978L 12.2918 27.4962L 12.2969 27.491L 12.3141 27.4738C 12.3287 27.4594 12.3495 27.4391 12.376 27.4138C 12.4291 27.3633 12.5055 27.2926 12.6022 27.2085C 12.795 27.0406 13.0713 26.8169 13.4067 26.5926C 14.0636 26.1532 15.0105 25.6683 16.0305 25.6683L 16.0399 25.6683L 16.0494 25.6686C 17.1429 25.71 18.2304 25.8561 19.2984 26.1052L 19.3002 26.1056C 20.1019 26.2958 20.9178 26.4121 21.7385 26.4532L 24.2444 26.4532C 24.2454 26.4518 24.2466 26.4496 24.2478 26.4467C 24.2496 26.4421 24.2508 26.4364 24.2508 26.4299L 24.2508 26.4239L 24.2509 26.4239L 24.5 5.75767C 24.4998 5.7518 24.4986 5.74655 24.4969 5.74226C 24.496 5.73994 24.4951 5.73812 24.4942 5.73673C 24.4939 5.73638 24.4937 5.73605 24.4935 5.73575L 21.7012 5.73575L 21.6874 5.73575L 21.6874 5.73556C 20.8638 5.71275 20.0488 5.55647 19.2715 5.27257C 18.2252 4.91117 17.1342 4.71459 16.0338 4.68899L 16.0307 4.68892C 15.5372 4.67434 14.9259 4.87811 14.3025 5.1928C 13.6918 5.50106 13.1287 5.88499 12.7472 6.16308L 12.2857 6.49959L 12.0132 5.99758C 11.7354 5.48563 11.2721 4.69083 10.7308 3.92232C 10.1814 3.14221 9.58495 2.43786 9.04714 2.0611C 8.2044 1.47529 7.01015 1.08443 5.97102 0.838493C 4.99718 0.608005 4.21034 0.516106 4.07864 0.501041C 4.07786 0.502266 4.07701 0.503832 4.0762 0.505786C 4.07418 0.510596 4.07281 0.516727 4.07285 0.52355L 4.07286 0.525937L 4.07285 0.539993L 4.63704 0.628563C 5.13262 0.706362 5.90246 0.848982 6.709 1.08325C 7.50824 1.31539 8.38015 1.64776 9.05655 2.12036C 9.7547 2.60815 10.4768 3.57469 11.0375 4.42892C 11.6119 5.304 12.0688 6.14362 12.2281 6.44857L 12.2849 6.55735L 12.2849 6.6801L 12.2849 25.1583L 12.2849 26.9794L 11.355 25.4136C 10.6444 24.2169 9.67953 23.2129 8.53871 22.4794C 7.25557 21.7697 5.88114 21.2612 4.45909 20.9697L 4.07285 20.8905L 4.07285 20.9351L 4.07285 20.9413L 4.07281 20.9413C 4.07266 20.9536 4.07696 20.9623 4.08002 20.9662L 4.07983 20.9663L 4.08003 20.9662C 4.08009 20.9662 4.08014 20.9663 4.0802 20.9664L 4.08134 20.9666L 4.08134 20.9666C 5.63331 21.2503 7.13614 21.7735 8.54105 22.5187L 8.55964 22.5285L 8.57734 22.5399C 9.6544 23.2331 10.5682 24.1689 11.2535 25.2774L 10.5771 25.9727L 10.1607 25.7309C 10.0762 25.6865 9.88262 25.6278 9.57353 25.5822C 9.2744 25.5381 8.91358 25.5126 8.53661 25.5098C 7.76403 25.504 7.0132 25.594 6.60822 25.7568C 5.83691 26.0794 4.70536 26.2438 3.67021 26.3322C 2.61647 26.4222 1.59675 26.438 1.01654 26.438L 0.517054 26.438L 0.516544 25.9385L 0.5 9.73256L 0.5 26.4718L 0.5 26.4719C 0.499998 26.4833 0.503746 26.4913 0.506517 26.4952C 0.517557 26.4953 0.532104 26.4955 0.549989 26.4958C 0.811487 26.4992 1.78635 26.5118 2.93879 26.4443C 4.24709 26.3676 5.69437 26.1912 6.57356 25.8223L 6.60464 25.8093ZM 12.2908 27.5004L 12.2962 27.5057L 12.647 27.8481C 12.3852 27.5926 12.315 27.524 12.2962 27.5055C 12.2936 27.503 12.292 27.5014 12.291 27.5004C 12.2909 27.5004 12.2909 27.5004 12.2908 27.5004ZM 0.5 5.91321L 0.996612 5.91321L 3.57285 5.91321L 4.0595 5.91321L 4.0595 5.86658L 3.57285 5.86658L 0.506487 5.86658C 0.505448 5.86805 0.504207 5.87018 0.503059 5.87309C 0.501233 5.87772 0.5 5.88346 0.5 5.88989L 0.5 5.91321ZM 19.3199 5.33593L 19.3199 5.33596C 20.0875 5.61354 20.891 5.76403 21.7018 5.78238L 23.9934 5.78238L 24.4996 5.78238L 24.4934 6.28847L 24.2542 25.9127L 24.2482 26.4066L 23.7542 26.4066L 21.7311 26.4066L 21.7175 26.4066L 21.7039 26.4059C 20.8813 26.3611 20.0638 26.2432 19.2604 26.0533C 18.1999 25.8072 17.1204 25.6629 16.0353 25.6222C 14.9746 25.6841 13.9533 26.0799 13.1048 26.7621L 12.2915 27.4158L 12.2915 26.3724L 12.2915 6.80046L 12.2915 6.54836L 12.4942 6.39845C 12.8547 6.13186 13.4305 5.72456 14.0483 5.38197C 14.6432 5.05215 15.3658 4.73052 15.9956 4.73052L 16.0476 4.73052L 16.0788 4.73709C 17.1799 4.76778 18.2704 4.96904 19.3149 5.33417L 19.3199 5.33593Z" stroke-miterlimit="8" stroke="#4F4F4F"/>
</g>
</g>
</svg>

