<svg width="31" height="23" viewBox="0 0 31 23" version="1.1" xmlns="http://www.w3.org/2000/svg" xmlns:xlink="http://www.w3.org/1999/xlink">
<g id="Canvas" fill="none">
<g id="Group">
<g id="Vector">
<path d="M 27.9608 20.7477L 27.9608 8.04054L 28.7402 8.04054C 28.9026 8.04054 29 7.91441 29 7.78829L 29 5.45496L 29 5.42342C 29 5.42342 29 5.42342 29 5.39189L 27.9283 0.220721C 27.8959 0.0945946 27.7984 3.75885e-09 27.6685 3.75885e-09L 1.29899 3.75885e-09C 1.16909 3.75885e-09 1.07167 0.0630631 1.03919 0.220721L 3.8713e-09 5.39189C 3.8713e-09 5.39189 3.8713e-09 5.39189 3.8713e-09 5.42342L 3.8713e-09 5.45496L 3.8713e-09 7.78829C 3.8713e-09 7.94595 0.129899 8.04054 0.259798 8.04054L 1.03919 8.04054L 1.03919 20.7477C 1.03919 20.9054 1.16909 21 1.29899 21L 27.701 21C 27.8309 21 27.9608 20.9054 27.9608 20.7477ZM 1.55879 0.504505L 27.4737 0.504505L 28.4479 5.2027L 0.552072 5.2027L 1.55879 0.504505ZM 0.487122 7.53604L 0.487122 5.70721L 28.4479 5.70721L 28.4479 7.53604L 27.6685 7.53604L 1.29899 7.53604L 0.487122 7.53604ZM 24.4535 8.04054L 24.4535 17.6261L 14.776 17.6261L 14.776 8.04054L 24.4535 8.04054ZM 14.2564 8.04054L 14.2564 17.6261L 4.514 17.6261L 4.514 8.04054L 14.2564 8.04054ZM 27.4412 20.4955L 1.55879 20.4955L 1.55879 8.04054L 3.96193 8.04054L 3.96193 17.8784C 3.96193 18.036 4.09183 18.1306 4.22172 18.1306L 24.7133 18.1306C 24.8757 18.1306 24.9731 18.0045 24.9731 17.8784L 24.9731 8.04054L 27.3763 8.04054L 27.4412 20.4955Z" transform="translate(1 1)" fill="#E30613"/>
<path d="M 27.9608 20.7477L 27.9608 8.04054L 28.7402 8.04054C 28.9026 8.04054 29 7.91442 29 7.78829L 29 5.45496L 29 5.42342C 29 5.42342 29 5.42342 29 5.39189L 27.9283 0.220721C 27.8959 0.0945946 27.7984 3.75885e-09 27.6685 3.75885e-09L 1.29899 3.75885e-09C 1.16909 3.75885e-09 1.07167 0.0630631 1.03919 0.220721L 3.8713e-09 5.39189C 3.8713e-09 5.39189 3.8713e-09 5.39189 3.8713e-09 5.42342L 3.8713e-09 5.45496L 3.8713e-09 7.78829C 3.8713e-09 7.94595 0.129899 8.04054 0.259798 8.04054L 1.03919 8.04054L 1.03919 20.7477C 1.03919 20.9054 1.16909 21 1.29899 21L 27.701 21C 27.8309 21 27.9608 20.9054 27.9608 20.7477ZM 1.55879 0.504505L 27.4737 0.504505L 28.4479 5.2027L 0.552072 5.2027L 1.55879 0.504505ZM 0.487122 7.53604L 0.487122 5.70721L 28.4479 5.70721L 28.4479 7.53604L 27.6685 7.53604L 1.29899 7.53604L 0.487122 7.53604ZM 24.4535 8.04054L 24.4535 17.6261L 14.776 17.6261L 14.776 8.04054L 24.4535 8.04054ZM 14.2564 8.04054L 14.2564 17.6261L 4.514 17.6261L 4.514 8.04054L 14.2564 8.04054ZM 27.4412 20.4955L 1.55879 20.4955L 1.55879 8.04054L 3.96193 8.04054L 3.96193 17.8784C 3.96193 18.036 4.09183 18.1306 4.22172 18.1306L 24.7133 18.1306C 24.8757 18.1306 24.9731 18.0045 24.9731 17.8784L 24.9731 8.04054L 27.3763 8.04054L 27.4412 20.4955Z" stroke-miterlimit="10" transform="translate(1 1)" stroke="#4F4F4F"/>
</g>
</g>
</g>
</svg>

