<svg width="18" height="24" viewBox="0 0 18 24" version="1.1" xmlns="http://www.w3.org/2000/svg" xmlns:xlink="http://www.w3.org/1999/xlink">
<g id="Canvas" fill="none">
<g id="Group">
<g id="Vector">
<path fill-rule="evenodd" clip-rule="evenodd" d="M 8.79897 23.5346L 8.80406 23.5423C 8.82543 23.5748 8.89473 23.6214 8.97777 23.6248L 8.98361 23.613L 9.04335 23.5625C 9.13321 23.4867 9.16666 23.4131 9.17557 23.3566C 9.18415 23.3022 9.17482 23.2343 9.12518 23.156L 2.22907 13.7051L 2.22274 13.6964L 2.21691 13.6874C 1.3338 12.3188 0.865934 10.7388 0.865934 9.10662C 0.865934 7.47443 1.3338 5.89441 2.21691 4.52585L 2.21871 4.52305L 2.21873 4.52305C 4.71654 0.726616 9.71858 -0.277738 13.4677 2.25486C 17.2146 4.7859 18.2025 9.89854 15.705 13.6419L 15.6974 13.6532L 15.6972 13.653L 11.5315 19.4318C 11.4321 19.5884 11.4807 19.7474 11.5808 19.815C 11.7313 19.9167 11.8839 19.8712 11.9514 19.7686L 11.9558 19.762L 11.9605 19.7555L 16.1285 13.9735C 18.1248 11.032 18.1238 7.17614 16.1257 4.23552L 16.1237 4.2326L 16.1237 4.23259C 13.4572 0.228024 8.13048 -0.829377 4.18368 1.86887C 0.23517 4.56827 -0.815627 10.0183 1.84651 14.0242L 8.79352 23.5271L 8.79897 23.5346Z" fill="#ED1B24"/>
<path fill-rule="evenodd" clip-rule="evenodd" d="M 8.79897 23.5346L 8.80406 23.5423C 8.82543 23.5748 8.89473 23.6214 8.97777 23.6248L 8.98361 23.613L 9.04335 23.5625C 9.13321 23.4867 9.16666 23.4131 9.17557 23.3566C 9.18415 23.3022 9.17482 23.2343 9.12518 23.156L 2.22907 13.7051L 2.22274 13.6964L 2.21691 13.6874C 1.3338 12.3188 0.865934 10.7388 0.865934 9.10662C 0.865934 7.47443 1.3338 5.89441 2.21691 4.52585L 2.21871 4.52305L 2.21873 4.52305C 4.71654 0.726616 9.71858 -0.277738 13.4677 2.25486C 17.2146 4.7859 18.2025 9.89854 15.705 13.6419L 15.6974 13.6532L 15.6972 13.653L 11.5315 19.4318C 11.4321 19.5884 11.4807 19.7474 11.5808 19.815C 11.7313 19.9167 11.8839 19.8712 11.9514 19.7686L 11.9558 19.762L 11.9605 19.7555L 16.1285 13.9735C 18.1248 11.032 18.1238 7.17614 16.1257 4.23552L 16.1237 4.2326L 16.1237 4.23259C 13.4572 0.228024 8.13048 -0.829377 4.18368 1.86887C 0.23517 4.56827 -0.815627 10.0183 1.84651 14.0242L 8.79352 23.5271L 8.79897 23.5346Z" stroke-width="0.75" stroke-miterlimit="8" stroke="#ED1B24"/>
</g>
<g id="Vector_2">
<path fill-rule="evenodd" clip-rule="evenodd" d="M 8.01686 4.2265L 8.01695 4.2265C 8.01695 2.12018 6.24933 0.375 4.17115 0.375C 2.0958 0.375 0.375 2.06703 0.375 4.2265C 0.375 6.3889 2.0987 8.12832 4.2208 8.12832C 6.34155 8.12832 8.06224 6.34171 8.01703 4.23454L 8.01686 4.2265ZM 0.866413 4.27682C 0.866413 2.35956 2.37446 0.882887 4.2208 0.882887C 6.07531 0.882887 7.52554 2.36783 7.52554 4.27682C 7.52554 6.19408 6.01749 7.67074 4.17115 7.67074C 2.31663 7.67074 0.866413 6.1858 0.866413 4.27682Z" transform="translate(4.76758 4.92969)" fill="#ED1B24"/>
<path fill-rule="evenodd" clip-rule="evenodd" d="M 8.01686 4.2265L 8.01695 4.2265C 8.01695 2.12018 6.24933 0.375 4.17115 0.375C 2.0958 0.375 0.375 2.06703 0.375 4.2265C 0.375 6.3889 2.0987 8.12832 4.2208 8.12832C 6.34155 8.12832 8.06224 6.34171 8.01703 4.23454L 8.01686 4.2265ZM 0.866413 4.27682C 0.866413 2.35956 2.37446 0.882887 4.2208 0.882887C 6.07531 0.882887 7.52554 2.36783 7.52554 4.27682C 7.52554 6.19408 6.01749 7.67074 4.17115 7.67074C 2.31663 7.67074 0.866413 6.1858 0.866413 4.27682Z" stroke-width="0.75" stroke-miterlimit="8" transform="translate(4.76758 4.92969)" stroke="#ED1B24"/>
</g>
</g>
</g>
</svg>

