<svg width="21" height="26" viewBox="0 0 21 26" version="1.1" xmlns="http://www.w3.org/2000/svg" xmlns:xlink="http://www.w3.org/1999/xlink">
<g id="Canvas" fill="none">
<g id="Group">
<g id="Vector">
<path d="M 20.2881 3.51351L 2.66949 3.51351C 1.99322 3.51351 1.42373 3.05676 1.42373 2.45946C 1.42373 1.86216 1.99322 1.40541 2.66949 1.40541L 20.2881 1.40541C 20.6797 1.40541 21 1.08919 21 0.702703C 21 0.316216 20.6797 0 20.2881 0L 2.66949 0C 1.21017 0 0 1.08919 0 2.45946L 0 23.1892C 0 24.7351 1.38814 26 3.06102 26L 21 26L 21 4.21622C 21 3.82973 20.6797 3.51351 20.2881 3.51351ZM 3.06102 24.5946C 2.17119 24.5946 1.42373 23.9622 1.42373 23.1892L 1.42373 4.63784C 1.77966 4.81351 2.20678 4.91892 2.66949 4.91892L 19.5763 4.91892L 19.5763 24.5946L 3.06102 24.5946ZM 18.6153 1.75676C 19.0068 1.75676 19.3271 2.07297 19.3271 2.45946C 19.3271 2.84595 19.0068 3.16216 18.6153 3.16216L 2.91864 3.16216C 2.52712 3.16216 2.20678 2.84595 2.20678 2.45946C 2.20678 2.07297 2.52712 1.75676 2.91864 1.75676L 18.6153 1.75676Z" fill="#333333"/>
</g>
</g>
</g>
</svg>

