<svg width="50" height="51" viewBox="0 0 50 51" version="1.1" xmlns="http://www.w3.org/2000/svg" xmlns:xlink="http://www.w3.org/1999/xlink">
<g id="Canvas" fill="none">
<g id="OK">
<g id="Combined Shape">
<path fill-rule="evenodd" clip-rule="evenodd" d="M 0 25.1426C 0 11.2578 11.1934 0 25 0C 38.8066 0 50 11.2578 50 25.1426C 50 39.0293 38.8066 50.2852 25 50.2852C 11.1934 50.2852 0 39.0293 0 25.1426ZM 24.9844 25.5469C 28.6699 25.5469 31.668 22.6387 31.668 19.0605C 31.668 15.4824 28.6699 12.5723 24.9844 12.5723C 21.2988 12.5723 18.3008 15.4824 18.3008 19.0605C 18.3008 22.6387 21.2988 25.5469 24.9844 25.5469ZM 31.5859 29.2812C 30.377 30.0176 29.0645 30.541 27.7051 30.8418L 31.4395 34.4688C 32.2051 35.2109 32.2051 36.4141 31.4395 37.1562C 30.6758 37.8984 29.4355 37.8984 28.6719 37.1562L 25 33.5918L 21.3301 37.1562C 20.9473 37.5273 20.4453 37.7129 19.9434 37.7129C 19.4434 37.7129 18.9414 37.5273 18.5605 37.1562C 17.7949 36.4141 17.7949 35.2109 18.5586 34.4688L 22.2949 30.8418C 20.9355 30.541 19.623 30.0176 18.4141 29.2812C 17.5 28.7207 17.2246 27.5488 17.8008 26.6602C 18.377 25.7695 19.584 25.502 20.5 26.0625C 23.2363 27.7324 26.7617 27.7324 29.498 26.0625C 30.4141 25.502 31.623 25.7695 32.1992 26.6602C 32.7754 27.5469 32.5 28.7207 31.5859 29.2812Z" fill="#F37032"/>
</g>
<g id="Path">
<path fill-rule="evenodd" clip-rule="evenodd" d="M 2.76719 0C 4.29315 0 5.53439 1.20461 5.53439 2.68601C 5.53439 4.16625 4.29315 5.37164 2.76719 5.37164C 1.24244 5.37164 0 4.16625 0 2.68601C 0 1.20461 1.24244 0 2.76719 0Z" transform="translate(22.2168 16.375)" fill="#F37032"/>
</g>
</g>
</g>
</svg>

