<svg width="73" height="92" viewBox="0 0 73 92" version="1.1" xmlns="http://www.w3.org/2000/svg" xmlns:xlink="http://www.w3.org/1999/xlink">
	<g id="Canvas" fill="none">
		<g id="Group-2">
			<g id="Group" style="mix-blend-mode:multiply" filter="url(#filter0_f)">
				<g id="Group_2">
					<g id="Vector">
						<path fill-rule="evenodd" clip-rule="evenodd" d="M 28.1382 76.9673L 28.1434 76.975C 28.3912 77.3485 28.9175 77.625 29.4585 77.625C 29.8606 77.625 30.0216 77.4986 30.0994 77.3423L 30.1343 77.2722L 30.1944 77.2219C 30.6235 76.8626 30.8541 76.4494 30.9193 76.04C 30.984 75.6338 30.8911 75.199 30.6158 74.7807L 7.99731 44.0455L 7.99092 44.0368L 7.98504 44.0278C 5.17872 39.7156 3.6925 34.7389 3.6925 29.5965C 3.6925 24.4541 5.17872 19.4774 7.98504 15.1653L 7.98686 15.1625L 7.98688 15.1625C 15.9145 3.21534 31.7735 0.0619566 43.6648 8.02665C 55.5558 15.9911 58.6947 32.0864 50.7661 43.869L 50.7585 43.8803L 50.7583 43.8802L 37.0911 62.6788C 36.5411 63.5143 36.7028 64.5765 37.4798 65.097C 38.3103 65.6532 39.3691 65.4933 39.8884 64.7106L 39.8929 64.7039L 39.8976 64.6975L 53.5666 45.8963C 60.3121 36.0496 60.3111 23.1383 53.5636 13.2924L 53.5616 13.2895C 44.5619 -0.111912 26.566 -3.66187 13.2299 5.37811C -0.105919 14.4179 -3.64325 32.6593 5.35081 46.0602L 28.1327 76.9598L 28.1382 76.9673Z" transform="translate(7 7)" fill="#36332C"/>
						<path fill-rule="evenodd" clip-rule="evenodd" d="M 28.1382 76.9673L 28.1434 76.975C 28.3912 77.3485 28.9175 77.625 29.4585 77.625C 29.8606 77.625 30.0216 77.4986 30.0994 77.3423L 30.1343 77.2722L 30.1944 77.2219C 30.6235 76.8626 30.8541 76.4494 30.9193 76.04C 30.984 75.6338 30.8911 75.199 30.6158 74.7807L 7.99731 44.0455L 7.99092 44.0368L 7.98504 44.0278C 5.17872 39.7156 3.6925 34.7389 3.6925 29.5965C 3.6925 24.4541 5.17872 19.4774 7.98504 15.1653L 7.98686 15.1625L 7.98688 15.1625C 15.9145 3.21534 31.7735 0.0619566 43.6648 8.02665C 55.5558 15.9911 58.6947 32.0864 50.7661 43.869L 50.7585 43.8803L 50.7583 43.8802L 37.0911 62.6788C 36.5411 63.5143 36.7028 64.5765 37.4798 65.097C 38.3103 65.6532 39.3691 65.4933 39.8884 64.7106L 39.8929 64.7039L 39.8976 64.6975L 53.5666 45.8963C 60.3121 36.0496 60.3111 23.1383 53.5636 13.2924L 53.5616 13.2895C 44.5619 -0.111912 26.566 -3.66187 13.2299 5.37811C -0.105919 14.4179 -3.64325 32.6593 5.35081 46.0602L 28.1327 76.9598L 28.1382 76.9673Z" stroke-width="0.75" stroke-miterlimit="8" transform="translate(7 7)" stroke="#36332C"/>
					</g>
					<g id="Vector_2">
						<path fill-rule="evenodd" clip-rule="evenodd" d="M 27.1319 13.7361L 27.1319 13.7361C 27.1319 6.42515 20.9562 0.375 13.6721 0.375C 6.39084 0.375 0.375001 6.2588 0.375001 13.7361C 0.375001 21.2164 6.39375 27.2608 13.8349 27.2608C 21.2747 27.2608 27.2902 21.0559 27.132 13.7442L 27.1319 13.7361ZM 3.69407 13.8997C 3.69407 8.13025 8.25901 3.71313 13.8349 3.71313C 19.4189 3.71313 23.8129 8.13849 23.8129 13.8997C 23.8129 19.669 19.2479 24.0862 13.6721 24.0862C 8.08804 24.0862 3.69407 19.6608 3.69407 13.8997Z" transform="translate(22.627 23.0234)" fill="#36332C"/>
						<path fill-rule="evenodd" clip-rule="evenodd" d="M 27.1319 13.7361L 27.1319 13.7361C 27.1319 6.42515 20.9562 0.375 13.6721 0.375C 6.39084 0.375 0.375001 6.2588 0.375001 13.7361C 0.375001 21.2164 6.39375 27.2608 13.8349 27.2608C 21.2747 27.2608 27.2902 21.0559 27.132 13.7442L 27.1319 13.7361ZM 3.69407 13.8997C 3.69407 8.13025 8.25901 3.71313 13.8349 3.71313C 19.4189 3.71313 23.8129 8.13849 23.8129 13.8997C 23.8129 19.669 19.2479 24.0862 13.6721 24.0862C 8.08804 24.0862 3.69407 19.6608 3.69407 13.8997Z" stroke-width="0.75" stroke-miterlimit="8" transform="translate(22.627 23.0234)" stroke="#36332C"/>
					</g>
				</g>
			</g>
			<g id="Group_3">
				<g id="Group_4">
					<g id="Vector_3">
						<path fill-rule="evenodd" clip-rule="evenodd" d="M 28.1382 76.9673L 28.1434 76.975C 28.3912 77.3485 28.9175 77.625 29.4585 77.625C 29.8606 77.625 30.0216 77.4986 30.0994 77.3423L 30.1343 77.2722L 30.1944 77.2219C 30.6235 76.8626 30.8541 76.4494 30.9193 76.04C 30.984 75.6338 30.8911 75.199 30.6158 74.7807L 7.99731 44.0455L 7.99092 44.0368L 7.98504 44.0278C 5.17872 39.7156 3.6925 34.7389 3.6925 29.5965C 3.6925 24.4541 5.17872 19.4774 7.98504 15.1653L 7.98686 15.1625L 7.98688 15.1625C 15.9145 3.21534 31.7735 0.0619566 43.6648 8.02665C 55.5558 15.9911 58.6947 32.0864 50.7661 43.869L 50.7585 43.8803L 50.7583 43.8802L 37.0911 62.6788C 36.5411 63.5143 36.7028 64.5765 37.4798 65.097C 38.3103 65.6532 39.3691 65.4933 39.8884 64.7106L 39.8929 64.7039L 39.8976 64.6975L 53.5666 45.8963C 60.3121 36.0496 60.3111 23.1383 53.5636 13.2924L 53.5616 13.2895C 44.5619 -0.111912 26.566 -3.66187 13.2299 5.37811C -0.105919 14.4179 -3.64325 32.6593 5.35081 46.0602L 28.1327 76.9598L 28.1382 76.9673Z" transform="translate(1 7)" fill="white"/>
						<path fill-rule="evenodd" clip-rule="evenodd" d="M 28.1382 76.9673L 28.1434 76.975C 28.3912 77.3485 28.9175 77.625 29.4585 77.625C 29.8606 77.625 30.0216 77.4986 30.0994 77.3423L 30.1343 77.2722L 30.1944 77.2219C 30.6235 76.8626 30.8541 76.4494 30.9193 76.04C 30.984 75.6338 30.8911 75.199 30.6158 74.7807L 7.99731 44.0455L 7.99092 44.0368L 7.98504 44.0278C 5.17872 39.7156 3.6925 34.7389 3.6925 29.5965C 3.6925 24.4541 5.17872 19.4774 7.98504 15.1653L 7.98686 15.1625L 7.98688 15.1625C 15.9145 3.21534 31.7735 0.0619566 43.6648 8.02665C 55.5558 15.9911 58.6947 32.0864 50.7661 43.869L 50.7585 43.8803L 50.7583 43.8802L 37.0911 62.6788C 36.5411 63.5143 36.7028 64.5765 37.4798 65.097C 38.3103 65.6532 39.3691 65.4933 39.8884 64.7106L 39.8929 64.7039L 39.8976 64.6975L 53.5666 45.8963C 60.3121 36.0496 60.3111 23.1383 53.5636 13.2924L 53.5616 13.2895C 44.5619 -0.111912 26.566 -3.66187 13.2299 5.37811C -0.105919 14.4179 -3.64325 32.6593 5.35081 46.0602L 28.1327 76.9598L 28.1382 76.9673Z" stroke-width="0.75" stroke-miterlimit="8" transform="translate(1 7)" stroke="white"/>
					</g>
					<g id="Vector_4">
						<path fill-rule="evenodd" clip-rule="evenodd" d="M 27.1319 13.7361L 27.1319 13.7361C 27.1319 6.42515 20.9562 0.375 13.6721 0.375C 6.39084 0.375 0.375001 6.2588 0.375001 13.7361C 0.375001 21.2164 6.39375 27.2608 13.8349 27.2608C 21.2747 27.2608 27.2902 21.0559 27.132 13.7442L 27.1319 13.7361ZM 3.69407 13.8997C 3.69407 8.13025 8.25901 3.71313 13.8349 3.71313C 19.4189 3.71313 23.8129 8.13849 23.8129 13.8997C 23.8129 19.669 19.2479 24.0862 13.6721 24.0862C 8.08804 24.0862 3.69407 19.6608 3.69407 13.8997Z" transform="translate(16.627 23.0234)" fill="white"/>
						<path fill-rule="evenodd" clip-rule="evenodd" d="M 27.1319 13.7361L 27.1319 13.7361C 27.1319 6.42515 20.9562 0.375 13.6721 0.375C 6.39084 0.375 0.375001 6.2588 0.375001 13.7361C 0.375001 21.2164 6.39375 27.2608 13.8349 27.2608C 21.2747 27.2608 27.2902 21.0559 27.132 13.7442L 27.1319 13.7361ZM 3.69407 13.8997C 3.69407 8.13025 8.25901 3.71313 13.8349 3.71313C 19.4189 3.71313 23.8129 8.13849 23.8129 13.8997C 23.8129 19.669 19.2479 24.0862 13.6721 24.0862C 8.08804 24.0862 3.69407 19.6608 3.69407 13.8997Z" stroke-width="0.75" stroke-miterlimit="8" transform="translate(16.627 23.0234)" stroke="white"/>
					</g>
				</g>
			</g>
		</g>
	</g>
	<defs>
		<filter id="filter0_f" x="0" y="0" width="73" height="92" filterUnits="userSpaceOnUse" color-interpolation-filters="sRGB">
			<feFlood flood-opacity="0" result="BackgroundImageFix"/>
			<feBlend mode="normal" in="SourceGraphic" in2="BackgroundImageFix" result="shape"/>
			<feGaussianBlur stdDeviation="3.5" result="effect1_foregroundBlur"/>
		</filter>

	</defs>
</svg>

