<svg width="42" height="39" viewBox="0 0 42 39" version="1.1" xmlns="http://www.w3.org/2000/svg" xmlns:xlink="http://www.w3.org/1999/xlink">
<g id="Canvas" fill="none">
<g id="noun_1519340_cc">
<g id="Group">
<g id="Union">
<path fill-rule="evenodd" clip-rule="evenodd" d="M 14.3359 18.1992L 14.4375 18.1992L 14.5391 18.1992L 15.75 18.1992L 26.25 18.1992L 36.7246 18.1992L 36.7695 18.1992L 39.3223 18.1992C 38.7656 24.8027 34.0156 30.5801 27.1523 32.8242C 26.6152 33.002 26.25 33.498 26.25 34.0605L 26.25 36.4004L 15.75 36.4004L 15.75 34.0605C 15.75 33.498 15.3848 32.998 14.8496 32.8242C 7.98438 30.5801 3.23438 24.8027 2.67969 18.1992L 6.45508 18.1992C 6.52734 18.2051 6.59766 18.2051 6.66992 18.1992L 14.3359 18.1992ZM 30.1855 15.5996L 32.2852 14.041C 32.8652 13.6094 32.9824 12.7949 32.5488 12.2207C 32.1133 11.6406 31.2891 11.5312 30.7109 11.9609L 27.5625 14.2988L 27.5625 11.6992C 27.5625 10.9805 26.9746 10.3984 26.25 10.3984C 25.5254 10.3984 24.9375 10.9805 24.9375 11.6992L 24.9375 14.2988L 21.7871 11.959C 21.207 11.5312 20.3867 11.6426 19.9512 12.2188C 19.5156 12.7949 19.6328 13.6074 20.2129 14.0391L 22.3125 15.5996L 16.4531 15.5996C 15.998 14.8184 15.75 13.916 15.75 13C 15.75 10.1309 18.1055 7.79883 21 7.79883C 21.4121 7.79883 21.8008 7.60742 22.0508 7.28125C 24.0625 4.63281 28.4375 4.63281 30.4531 7.28125C 30.6992 7.60742 31.0879 7.79883 31.5 7.79883C 34.3945 7.79883 36.75 10.1309 36.75 13C 36.75 13.9141 36.5039 14.8164 36.0469 15.5996L 30.1855 15.5996ZM 13.125 12.4609L 13.125 2.73242C 10.6875 3.22656 8.69531 5.07422 8.08984 7.47461L 13.125 12.4609ZM 14.4375 0C 10.5996 0 7.21289 2.38867 5.87891 5.80078L 5.85352 5.80078C 5.58594 5.70703 5.16992 5.94141 4.91992 6.1875C 2.37695 8.73438 1.96094 12.6152 3.67969 15.5996L 1.3125 15.5996C 0.587891 15.5996 0 16.1816 0 16.9004C 0 24.8574 5.23633 32.0137 13.125 34.9766L 13.125 37.6992C 13.125 38.418 13.7129 39 14.4375 39L 27.5625 39C 28.2871 39 28.875 38.418 28.875 37.6992L 28.875 34.9766C 36.7656 32.0137 42 24.8613 42 16.9004C 42 16.1816 41.4121 15.5996 40.6875 15.5996L 38.9219 15.5996C 39.2188 14.7695 39.375 13.8867 39.375 13C 39.375 8.91211 36.1855 5.55078 32.1426 5.22656C 30.6445 3.54883 28.5293 2.59961 26.25 2.59961C 23.9707 2.59961 21.8555 3.54883 20.3574 5.22656C 18.5957 5.36719 16.9941 6.08789 15.75 7.19141L 15.75 1.30078C 15.75 0.582031 15.1621 0 14.4375 0ZM 7.01953 15.5996C 6.94141 15.5332 6.86328 15.4648 6.78711 15.3887C 5.07422 13.6758 4.80664 11.0566 5.97852 9.06055L 12.5762 15.5996L 7.01953 15.5996Z" fill="white"/>
</g>
</g>
</g>
</g>
</svg>

