<?xml version="1.0" encoding="UTF-8"?><!DOCTYPE svg PUBLIC "-//W3C//DTD SVG 1.1//EN" "http://www.w3.org/Graphics/SVG/1.1/DTD/svg11.dtd"><svg xmlns="http://www.w3.org/2000/svg"><symbol id="icon-address" viewBox="0 0 22 30">
    <g clip-rule="evenodd">
        <path fill-rule="evenodd" d="M10.483 29.618c.096.15.297.257.502.257.15 0 .218-.05.251-.118l.011-.023.02-.017a.777.777 0 0 0 .277-.467.718.718 0 0 0-.117-.5L2.993 16.927l-.004-.006a10.35 10.35 0 0 1-1.597-5.539c0-1.973.553-3.883 1.597-5.538v-.001c2.951-4.587 8.857-5.8 13.286-2.74 4.427 3.058 5.593 9.235 2.643 13.756l-.002.004-5.097 7.23c-.21.331-.149.754.15.96.314.217.716.157.916-.153l.003-.005 5.097-7.231a11.384 11.384 0 0 0 0-12.565h-.002C16.623-.065 9.904-1.43 4.926 2.051c-4.98 3.482-6.303 10.511-2.942 15.676l8.495 11.885.004.005z"/>
        <path d="M10.483 29.618c.096.15.297.257.502.257.15 0 .218-.05.251-.118l.011-.023.02-.017a.777.777 0 0 0 .277-.467.718.718 0 0 0-.117-.5L2.993 16.927l-.004-.006a10.35 10.35 0 0 1-1.597-5.539c0-1.973.553-3.883 1.597-5.538v-.001c2.951-4.587 8.857-5.8 13.286-2.74 4.427 3.058 5.593 9.235 2.643 13.756l-.002.004-5.097 7.23c-.21.331-.149.754.15.96.314.217.716.157.916-.153l.003-.005 5.097-7.231a11.384 11.384 0 0 0 0-12.565h-.002C16.623-.065 9.904-1.43 4.926 2.051c-4.98 3.482-6.303 10.511-2.942 15.676l8.495 11.885.004.005z" stroke-width=".25" stroke-miterlimit="8"/>
        <g>
            <path fill-rule="evenodd" d="M15.958 11.448v-.003c0-2.826-2.313-5.158-5.034-5.158-2.72 0-4.973 2.268-4.973 5.158 0 2.891 2.255 5.221 5.034 5.221s5.032-2.391 4.973-5.218zm-8.74.06c0-2.204 1.692-3.899 3.767-3.899 2.077 0 3.706 1.697 3.706 3.9 0 2.204-1.692 3.898-3.767 3.898-2.077 0-3.706-1.697-3.706-3.899z"/>
            <path d="M15.958 11.448v-.003c0-2.826-2.313-5.158-5.034-5.158-2.72 0-4.973 2.268-4.973 5.158 0 2.891 2.255 5.221 5.034 5.221s5.032-2.391 4.973-5.218zm-8.74.06c0-2.204 1.692-3.899 3.767-3.899 2.077 0 3.706 1.697 3.706 3.9 0 2.204-1.692 3.898-3.767 3.898-2.077 0-3.706-1.697-3.706-3.899z" stroke-width=".25" stroke-miterlimit="8"/>
        </g>
    </g>
</symbol><symbol id="icon-arrow-footer" viewBox="0 0 59 8">
    <path d="M58.354 4.354a.5.5 0 0 0 0-.708L55.172.464a.5.5 0 1 0-.707.708L57.293 4l-2.828 2.828a.5.5 0 1 0 .707.708l3.182-3.182zM0 4.5h58v-1H0v1z"/>
</symbol><symbol id="icon-boild" viewBox="0 0 39 34">
    <g>
        <path d="M0 17.41c0 .451.221 2.119 1.238 2.21l3.007.27.044.135c.265 1.217.752 3.515 1.238 5.724.31 1.352.575 2.659.796 3.605.884 4.057 3.228 4.643 5.704 4.643h14.946c2.432 0 4.82-.541 5.704-4.643.133-.72.354-1.622.575-2.569l.22-1.036c.443-2.119.974-4.507 1.239-5.724l.044-.135 3.007-.27C38.779 19.528 39 17.86 39 17.41c0-.9-.53-1.442-1.327-1.442h-2.962v-.18c.044-.586 0-1.172 0-1.262-.354-1.262-2.078-2.163-5.439-2.84-2.388-.45-5.527-.765-8.8-.81h-.176V9.117h2.344a.687.687 0 0 0 .663-.676c0-.36-.31-.676-.663-.676h-6.191a.687.687 0 0 0-.663.676c0 .36.31.676.663.676h2.343v1.757h-.176c-6.147.18-13.221 1.308-14.194 3.47-.089.181-.133.767-.044 1.398v.18H1.327C.53 15.968 0 16.51 0 17.411zm5.616-2.478v-.045l.044-.045c.752-1.037 6.367-2.524 13.796-2.614 7.959.09 13.265 1.397 13.796 2.614v.045c0 .225 0 .63-.044.901v.18H5.704v-.18c-.088-.27-.088-.676-.088-.856zm31.969 2.389v.18c0 .225-.088.45-.133.63l-.044.09-2.918.316a1.281 1.281 0 0 0-1.15.992c-.221 1.172-.796 3.696-1.282 5.904l-.177.857a177.115 177.115 0 0 1-.62 2.794c-.662 3.02-1.989 3.56-4.377 3.56H11.983c-2.388 0-3.759-.54-4.378-3.56-.22-.992-.486-2.299-.795-3.65a281.508 281.508 0 0 0-1.283-5.905c-.088-.54-.575-.946-1.15-.992l-2.874-.27-.044-.09c-.044-.135-.132-.406-.132-.676v-.18h36.258z"/>
        <path d="M26.133 9.435c.31.18.708.09.884-.225 1.327-2.254.531-3.56-.132-4.643-.62-1.036-1.106-1.802.088-3.56a.636.636 0 0 0 .089-.496.657.657 0 0 0-.266-.406c-.265-.18-.707-.135-.884.18-1.68 2.48-.84 3.877-.133 5.004.62.991 1.062 1.712.133 3.245a.636.636 0 0 0-.088.495c.044.18.176.316.31.406z"/>
        <path d="M30.29 5.063c-.62-1.036-1.106-1.802.088-3.56a.515.515 0 0 0 .133-.496.657.657 0 0 0-.265-.405c-.266-.18-.708-.136-.885.18-1.68 2.479-.84 3.876-.132 5.003.619.991 1.06 1.712.132 3.245-.177.315-.088.72.221.901.31.18.708.09.885-.225 1.282-2.254.486-3.606-.177-4.643z"/>
        <path d="M33.649 6.013c-.664-1.037-1.106-1.803.088-3.56a.636.636 0 0 0 .088-.497.657.657 0 0 0-.265-.405c-.265-.18-.707-.135-.884.18-1.68 2.479-.84 3.876-.133 5.003.62.991 1.061 1.712.133 3.245a.636.636 0 0 0-.089.496c.045.18.133.315.266.405.31.18.707.09.884-.225 1.37-2.254.575-3.606-.088-4.642z"/>
    </g>
</symbol><symbol id="icon-cake" viewBox="0 0 30 33">
    <g>
        <path d="M27.666 12.542a5.293 5.293 0 0 1-.643-.808c-1.713-2.156-4.71-5.983-9.422-7.007.214-.324.375-.7.375-1.132.107-1.348-.91-2.48-2.249-2.587-1.338-.108-2.463.916-2.57 2.264v.323c0 .377.107.7.268 1.024-5.193.916-9.101 5.875-10.654 7.816-.214.269-.32.43-.481.592-1.553 1.78-1.714 4.097-.429 5.66.268.323.59.647.964.862l3.426 12.074c.054.215.268.377.536.377h16.65c.267 0 .481-.162.535-.377l3.212-11.05c2.248-2.156 2.409-5.66.482-8.03zM15.513 2.247c.75 0 1.338.593 1.338 1.348 0 .27 0 .862-1.338.862s-1.338-.593-1.338-.862a1.33 1.33 0 0 1 1.338-1.348zM4.056 20.034l.375.054h.91l.214-.054.16-.054L8.34 30.922H7.161L4.056 20.034zm3.105-.593c.107-.107.268-.161.375-.27l.321-.322.107-.108c.59.539 1.285.97 2.088 1.293l.857 10.888h-1.5L6.788 19.657 7 19.549l.16-.108zm9.744-.107c.16-.108.375-.27.535-.432l.16-.161h.162c.053.108.107.215.214.377s.107.216.16.323c.16.216.322.486.482.647.214.27.482.485.696.7l-1.98 10.134h-1.607V19.98c.428-.215.803-.377 1.178-.646zm6.21 2.91l-2.195 8.678h-2.516l1.874-9.432c.696.377 1.499.646 2.302.7.16.054.375.054.535.054zm-8.458-1.886v10.564H11.98l-.91-10.51c1.23.27 2.462.27 3.586-.054zm8.351 10.564h-.964l2.302-8.786c.215-.053.429-.107.59-.161l.106-.054c.215-.054.429-.162.643-.27h.053l-2.73 9.271zm4.872-14.176a4.745 4.745 0 0 1-1.553 3.127l-.053.053-.107.054c-.696.593-1.5.97-2.356 1.078-.375.054-.75.054-1.124.054-.16 0-.321 0-.482-.054-.75-.161-1.499-.485-2.088-.97l-.16-.162-.161-.161a2.34 2.34 0 0 1-.321-.378c-.16-.161-.268-.377-.429-.592l-.107-.108-.32-.647-.162-.485c-.053-.216-.214-.323-.374-.377h-.107a.606.606 0 0 0-.429.161c-.16.162-.32.378-.481.54l-.054.053-.16.108-.054.054-.054.054c-.16.108-.267.215-.428.323l-.16.108c-.108.054-.215.162-.322.216l-.214.107-.321.162-.214.108-.322.108-.214.054-.32.107-.215.054-.321.054H12.087l-.322-.054-.32-.108-.322-.107-.214-.054-.375-.162-.16-.054c-.161-.054-.268-.108-.429-.162l-.107-.053c-.16-.108-.267-.162-.428-.27h-.054c-.16-.108-.32-.215-.428-.323a3.067 3.067 0 0 1-.428-.378l-.268-.27a.515.515 0 0 0-.75 0c-.053.055-.053.055-.053.109-.053.107-.107.161-.16.215a.42.42 0 0 1-.215.216l-.214.215c-.16.108-.267.216-.428.27l-.16.054a2.6 2.6 0 0 1-.375.162l-.161.053c-.321.108-.696.108-1.017.108h-.107c-.107 0-.214-.054-.322-.054l-.214-.053-.214-.108c-.107-.054-.16-.054-.268-.108-.32-.108-.642-.377-.91-.647-1.177-1.401-.481-3.18.429-4.258.107-.162.267-.323.481-.593 1.66-2.102 6.05-7.6 11.51-7.6 5.676 0 9.048 4.312 11.083 6.9.214.323.428.592.642.808.803.97 1.231 2.21 1.07 3.503z"/>
        <path d="M27.666 12.542a5.293 5.293 0 0 1-.643-.808c-1.713-2.156-4.71-5.983-9.422-7.007.214-.324.375-.7.375-1.132.107-1.348-.91-2.48-2.249-2.587-1.338-.108-2.463.916-2.57 2.264v.323c0 .377.107.7.268 1.024-5.193.916-9.101 5.875-10.654 7.816-.214.269-.32.43-.481.592-1.553 1.78-1.714 4.097-.429 5.66.268.323.59.647.964.862l3.426 12.074c.054.215.268.377.536.377h16.65c.267 0 .481-.162.535-.377l3.212-11.05c2.248-2.156 2.409-5.66.482-8.03zM15.513 2.247c.75 0 1.338.593 1.338 1.348 0 .27 0 .862-1.338.862s-1.338-.593-1.338-.862a1.33 1.33 0 0 1 1.338-1.348zM4.056 20.034l.375.054h.91l.214-.054.16-.054L8.34 30.922H7.161L4.056 20.034zm3.105-.593c.107-.107.268-.161.375-.27l.321-.322.107-.108c.59.539 1.285.97 2.088 1.293l.857 10.888h-1.5L6.788 19.657 7 19.549l.16-.108zm9.744-.107c.16-.108.375-.27.535-.432l.16-.161h.162c.053.108.107.215.214.377s.107.216.16.323c.16.216.322.486.482.647.214.27.482.485.696.7l-1.98 10.134h-1.607V19.98c.428-.215.803-.377 1.178-.646zm6.21 2.91l-2.195 8.678h-2.516l1.874-9.432c.696.377 1.499.646 2.302.7.16.054.375.054.535.054zm-8.458-1.886v10.564H11.98l-.91-10.51c1.23.27 2.462.27 3.587-.054zm8.351 10.564h-.964l2.303-8.786c.214-.053.428-.107.588-.161l.107-.054c.215-.054.429-.162.643-.27h.053l-2.73 9.271zm4.872-14.176a4.745 4.745 0 0 1-1.553 3.127l-.053.053-.107.054c-.696.593-1.5.97-2.356 1.078-.375.054-.75.054-1.124.054-.16 0-.321 0-.482-.054-.75-.161-1.499-.485-2.088-.97l-.16-.162-.161-.161a2.34 2.34 0 0 1-.321-.378c-.16-.161-.268-.377-.429-.592l-.107-.108-.32-.647-.161-.485c-.054-.216-.215-.323-.375-.377h-.107a.606.606 0 0 0-.429.161c-.16.162-.32.378-.481.54l-.054.053-.16.108-.054.054-.054.054c-.16.108-.267.215-.428.323l-.16.108c-.108.054-.215.162-.322.216l-.214.107-.321.162-.214.108-.321.108-.215.054-.32.107-.215.054-.321.054H12.087l-.321-.054-.322-.108-.32-.107-.215-.054-.375-.162-.16-.054c-.161-.054-.268-.108-.429-.162l-.107-.053c-.16-.108-.267-.162-.428-.27h-.054c-.16-.108-.32-.215-.428-.323a3.067 3.067 0 0 1-.428-.378l-.268-.27a.515.515 0 0 0-.75 0c-.053.055-.053.055-.053.109-.053.107-.107.161-.16.215a.42.42 0 0 1-.215.216l-.214.215c-.16.108-.267.216-.428.27l-.16.054a2.6 2.6 0 0 1-.375.162l-.161.053c-.321.108-.696.108-1.017.108h-.107c-.107 0-.214-.054-.322-.054l-.214-.053-.214-.108c-.107-.054-.16-.054-.268-.108-.32-.108-.642-.377-.91-.647-1.177-1.401-.481-3.18.429-4.258.107-.162.267-.323.481-.593 1.66-2.102 6.05-7.6 11.51-7.6 5.676 0 9.048 4.312 11.083 6.9.214.323.428.592.642.808.803.97 1.232 2.21 1.07 3.503z" stroke-width=".25" stroke-miterlimit="10"/>
    </g>
</symbol><symbol id="icon-close" viewBox="0 0 384 512">
    <path d="M231.6 256l130.1-130.1c4.7-4.7 4.7-12.3 0-17l-22.6-22.6c-4.7-4.7-12.3-4.7-17 0L192 216.4 61.9 86.3c-4.7-4.7-12.3-4.7-17 0l-22.6 22.6c-4.7 4.7-4.7 12.3 0 17L152.4 256 22.3 386.1c-4.7 4.7-4.7 12.3 0 17l22.6 22.6c4.7 4.7 12.3 4.7 17 0L192 295.6l130.1 130.1c4.7 4.7 12.3 4.7 17 0l22.6-22.6c4.7-4.7 4.7-12.3 0-17L231.6 256z"/>
</symbol><symbol id="icon-count" viewBox="0 0 83 49">
    <g>
        <path d="M5.914 20.076v25.712C5.914 46.986 6.934 48 8.14 48c1.205 0 2.225-1.014 2.225-2.212V19.984c2.782-1.013 4.637-3.594 4.637-6.635l-.835-11.151c-.093-.645-.556-1.106-1.205-1.106h-.371c-.65 0-1.206.553-1.206 1.198v8.386c0 .461-.37.83-.741.83-.464 0-.835-.369-.835-.737l-.65-8.571C9.16 1.553 8.605 1 7.955 1c-.649 0-1.205.553-1.205 1.198l-.742 8.57c0 .461-.37.738-.834.738-.464 0-.742-.369-.742-.83V2.29c0-.645-.556-1.198-1.206-1.198h-.278c-.649 0-1.112.46-1.205 1.106L1 13.349c0 3.133 1.947 5.806 4.914 6.727zM2.67 2.29c0-.092.093-.276.278-.276h.371c.093 0 .278.092.278.276v8.386c0 .922.835 1.66 1.762 1.66.835 0 1.576-.646 1.67-1.567l.741-8.571c0-.276.464-.276.464 0l.741 8.57c.093.922.928 1.66 1.855 1.567.835-.092 1.576-.83 1.576-1.659V2.29c0-.092.093-.276.279-.276h.37c.093 0 .279.092.279.276l.834 11.059c0 2.673-1.762 5.069-4.358 5.806-.185.092-.37.276-.37.46v26.173c0 .738-.557 1.29-1.3 1.29-.74 0-1.297-.553-1.297-1.29v-26.08c0-.184-.186-.369-.371-.46-2.69-.646-4.636-3.042-4.636-5.807l.834-11.15zm72.975-1.106c-3.801 0-6.954 4.24-6.954 9.4 0 4.055 1.947 7.65 4.729 8.94v26.264c0 1.198 1.02 2.212 2.225 2.212 1.206 0 2.226-1.014 2.226-2.212V19.524c2.782-1.29 4.729-4.885 4.729-8.94 0-5.253-3.153-9.4-6.955-9.4zm1.577 17.602a.506.506 0 0 0-.278.461V45.88c0 .738-.557 1.29-1.299 1.29-.741 0-1.298-.552-1.298-1.29V19.155a.506.506 0 0 0-.278-.46c-2.596-1.015-4.45-4.332-4.45-8.203 0-4.7 2.688-8.478 6.026-8.478 3.339 0 6.028 3.778 6.028 8.478 0 3.87-1.855 7.28-4.451 8.294zM41.799 48c12.982 0 23.553-10.506 23.553-23.408 0-12.902-10.57-23.408-23.553-23.408-12.981 0-23.645 10.414-23.645 23.408C18.247 37.494 28.725 48 41.8 48zm0-45.894c12.519 0 22.626 10.045 22.626 22.486S54.225 47.078 41.8 47.078c-12.426 0-22.718-10.045-22.718-22.486.092-12.441 10.2-22.486 22.718-22.486zm0 39.166c9.273 0 16.784-7.464 16.784-16.68 0-9.215-7.51-16.68-16.783-16.68-9.273 0-16.784 7.465-16.784 16.68 0 9.216 7.51 16.68 16.784 16.68zm0-32.439c8.717 0 15.857 7.096 15.857 15.76 0 8.662-7.14 15.758-15.856 15.758-8.717 0-15.857-7.096-15.857-15.759 0-8.755 7.047-15.759 15.857-15.759z"/>
        <path d="M5.914 20.076v25.712C5.914 46.986 6.934 48 8.14 48c1.205 0 2.225-1.014 2.225-2.212V19.984c2.782-1.013 4.637-3.594 4.637-6.635l-.835-11.151c-.093-.645-.556-1.106-1.205-1.106h-.371c-.65 0-1.206.553-1.206 1.198v8.386c0 .461-.37.83-.741.83-.464 0-.835-.369-.835-.737l-.65-8.571C9.16 1.553 8.605 1 7.955 1c-.649 0-1.205.553-1.205 1.198l-.742 8.57c0 .461-.37.738-.834.738-.464 0-.742-.369-.742-.83V2.29c0-.645-.556-1.198-1.206-1.198h-.278c-.649 0-1.112.46-1.205 1.106L1 13.349c0 3.133 1.947 5.806 4.914 6.727zM2.67 2.29c0-.092.093-.276.278-.276h.371c.093 0 .278.092.278.276v8.386c0 .922.835 1.66 1.762 1.66.835 0 1.576-.646 1.67-1.567l.741-8.571c0-.276.464-.276.464 0l.741 8.57c.093.922.928 1.66 1.855 1.567.835-.092 1.576-.83 1.576-1.659V2.29c0-.092.093-.276.279-.276h.37c.093 0 .279.092.279.276l.834 11.059c0 2.673-1.762 5.069-4.358 5.806-.185.092-.37.276-.37.46v26.173c0 .738-.557 1.29-1.3 1.29-.74 0-1.297-.553-1.297-1.29v-26.08c0-.184-.186-.369-.371-.46-2.69-.646-4.636-3.042-4.636-5.807l.834-11.15zm72.975-1.106c-3.801 0-6.954 4.24-6.954 9.4 0 4.055 1.947 7.65 4.729 8.94v26.264c0 1.198 1.02 2.212 2.225 2.212 1.206 0 2.226-1.014 2.226-2.212V19.524c2.782-1.29 4.729-4.885 4.729-8.94 0-5.253-3.153-9.4-6.955-9.4zm1.577 17.602a.506.506 0 0 0-.278.461V45.88c0 .738-.557 1.29-1.299 1.29-.741 0-1.298-.552-1.298-1.29V19.155a.506.506 0 0 0-.278-.46c-2.596-1.015-4.45-4.332-4.45-8.203 0-4.7 2.688-8.478 6.026-8.478 3.339 0 6.028 3.778 6.028 8.478 0 3.87-1.855 7.28-4.451 8.294zM41.799 48c12.982 0 23.553-10.506 23.553-23.408 0-12.902-10.57-23.408-23.553-23.408-12.981 0-23.645 10.414-23.645 23.408C18.247 37.494 28.725 48 41.8 48zm0-45.894c12.519 0 22.626 10.045 22.626 22.486S54.225 47.078 41.8 47.078c-12.426 0-22.718-10.045-22.718-22.486.092-12.441 10.2-22.486 22.718-22.486zm0 39.166c9.273 0 16.784-7.464 16.784-16.68 0-9.215-7.51-16.68-16.783-16.68-9.273 0-16.784 7.465-16.784 16.68 0 9.216 7.51 16.68 16.784 16.68zm0-32.439c8.717 0 15.857 7.096 15.857 15.76 0 8.662-7.14 15.758-15.856 15.758-8.717 0-15.857-7.096-15.857-15.759 0-8.755 7.047-15.759 15.857-15.759z" stroke-width=".75" stroke-miterlimit="10"/>
    </g>
</symbol><symbol id="icon-down-arrow" viewBox="0 0 16 19">
    <path d="M7.293 18.707a1 1 0 0 0 1.414 0l6.364-6.364a1 1 0 1 0-1.414-1.414L8 16.586l-5.657-5.657A1 1 0 0 0 .93 12.343l6.364 6.364zM7 0v18h2V0H7z"/>
</symbol><symbol id="icon-letter" viewBox="0 0 27 20">
    <path d="M24.214 0H2.786A2.77 2.77 0 0 0 0 2.766v14.468A2.77 2.77 0 0 0 2.786 20h21.428A2.77 2.77 0 0 0 27 17.234V2.766A2.77 2.77 0 0 0 24.214 0zm1.329 17.915l-7.286-9.192 7.457-5.914v14.425c0 .255-.085.468-.171.68zM24.214 1.277c.343 0 .686.127.943.34L13.5 10.894 1.843 1.617c.257-.213.6-.34.943-.34h21.428zM1.457 17.915c-.086-.213-.171-.426-.171-.681V2.809l7.457 5.914-7.286 9.192zm1.329.808c-.129 0-.215 0-.3-.042L9.77 9.53l3.343 2.682a.695.695 0 0 0 .386.127c.129 0 .3-.042.386-.127l3.343-2.681 7.285 9.149c-.085.042-.214.042-.3.042H2.786z"/>
</symbol><symbol id="icon-organic" viewBox="0 0 28 30">
    <path d="M27.388.705a.935.935 0 0 0-1.581-.41c-.017.017-1.6 1.627-6.886 3.664-1.854.712-3.201 2.064-3.797 3.802-.383 1.114-.565 2.8.258 4.96 3.63-4.225 7.897-5.4 7.951-5.455-2.83 1.76-6.934 7.435-6.934 7.435-1.264 2.905-2.064 5.888-2.548 8.378C9.635 4.084 1.687.252 1.321.083A.937.937 0 0 0 .548 1.79c.09.04 8.975 4.335 12.551 27.416.07.457.465.793.922.793.019 0 .035 0 .052-.002a.936.936 0 0 0 .881-.894c.004-.096.351-7.247 3.205-13.763.383.058.807.104 1.301.104 2.12 0 5.096-.772 7.45-4.368a.534.534 0 0 0 .048-.083c2.018-3.92.495-10.03.43-10.289z"/>
</symbol><symbol id="icon-people-table" viewBox="0 0 63 37">
    <g>
        <path d="M4.693 15.33v19.316c0 .9.766 1.662 1.672 1.662.906 0 1.672-.762 1.672-1.662V15.261a5.252 5.252 0 0 0 3.484-4.984L10.894 1.9c-.07-.485-.418-.83-.906-.83H9.71a.92.92 0 0 0-.906.9v6.3c0 .345-.279.622-.558.622-.348 0-.627-.277-.627-.554L7.132 1.9a.92.92 0 0 0-.906-.9.92.92 0 0 0-.906.9l-.557 6.438c0 .347-.28.554-.628.554s-.557-.277-.557-.623v-6.3a.92.92 0 0 0-.906-.9h-.209c-.488 0-.836.346-.906.831L1 10.277c0 2.354 1.463 4.362 3.693 5.054zM2.254 1.97c0-.07.07-.208.21-.208h.278c.07 0 .209.069.209.207v6.3c0 .693.627 1.246 1.324 1.246.627 0 1.184-.484 1.254-1.177L6.086 1.9c0-.208.349-.208.349 0l.557 6.438c.07.693.697 1.247 1.394 1.177.627-.069 1.184-.623 1.184-1.246v-6.3c0-.069.07-.207.21-.207h.278c.07 0 .21.069.21.207l.626 8.308c0 2.008-1.324 3.808-3.275 4.362-.139.069-.278.207-.278.346v19.661a.95.95 0 0 1-.976.97.95.95 0 0 1-.975-.97V15.054c0-.139-.14-.277-.279-.346-2.02-.485-3.484-2.285-3.484-4.362l.627-8.377zm54.836-.832c-2.857 0-5.226 3.185-5.226 7.062 0 3.046 1.464 5.746 3.554 6.715v19.731c0 .9.767 1.662 1.672 1.662.906 0 1.673-.762 1.673-1.662v-19.73c2.09-.97 3.553-3.67 3.553-6.716 0-3.946-2.369-7.062-5.226-7.062zm1.185 13.223a.38.38 0 0 0-.21.347v20.007a.95.95 0 0 1-.975.97.95.95 0 0 1-.975-.97V14.638a.38.38 0 0 0-.21-.346c-1.95-.761-3.344-3.253-3.344-6.161 0-3.531 2.02-6.37 4.53-6.37 2.508 0 4.528 2.839 4.528 6.37 0 2.908-1.393 5.469-3.344 6.23zM31.658 36.308c9.755 0 17.698-7.893 17.698-17.585S41.413 1.138 31.658 1.138 13.89 8.962 13.89 18.723c.07 9.692 7.944 17.585 17.768 17.585zm0-34.477c9.407 0 17.001 7.546 17.001 16.892s-7.664 16.892-17 16.892c-9.338 0-17.072-7.546-17.072-16.892.07-9.346 7.665-16.892 17.071-16.892zm0 29.423c6.968 0 12.612-5.608 12.612-12.53 0-6.924-5.644-12.532-12.612-12.532S19.047 11.8 19.047 18.723c0 6.923 5.643 12.53 12.611 12.53zm0-24.37c6.55 0 11.915 5.331 11.915 11.84 0 6.507-5.365 11.837-11.915 11.837-6.55 0-11.915-5.33-11.915-11.838 0-6.577 5.296-11.838 11.915-11.838z"/>
        <path d="M4.693 15.33v19.316c0 .9.766 1.662 1.672 1.662.906 0 1.672-.762 1.672-1.662V15.261a5.252 5.252 0 0 0 3.484-4.984L10.894 1.9c-.07-.485-.418-.83-.906-.83H9.71a.92.92 0 0 0-.906.9v6.3c0 .345-.279.622-.558.622-.348 0-.627-.277-.627-.554L7.132 1.9a.92.92 0 0 0-.906-.9.92.92 0 0 0-.906.9l-.557 6.438c0 .347-.28.554-.628.554s-.557-.277-.557-.623v-6.3a.92.92 0 0 0-.906-.9h-.209c-.488 0-.836.346-.906.831L1 10.277c0 2.354 1.463 4.362 3.693 5.054zM2.254 1.97c0-.07.07-.208.21-.208h.278c.07 0 .209.069.209.207v6.3c0 .693.627 1.246 1.324 1.246.627 0 1.184-.484 1.254-1.177L6.086 1.9c0-.208.349-.208.349 0l.557 6.438c.07.693.697 1.247 1.394 1.177.627-.069 1.184-.623 1.184-1.246v-6.3c0-.069.07-.207.21-.207h.278c.07 0 .21.069.21.207l.626 8.308c0 2.008-1.324 3.808-3.275 4.362-.139.069-.278.207-.278.346v19.661a.95.95 0 0 1-.976.97.95.95 0 0 1-.975-.97V15.054c0-.139-.14-.277-.279-.346-2.02-.485-3.484-2.285-3.484-4.362l.627-8.377zm54.836-.832c-2.857 0-5.226 3.185-5.226 7.062 0 3.046 1.464 5.746 3.554 6.715v19.731c0 .9.767 1.662 1.672 1.662.906 0 1.673-.762 1.673-1.662v-19.73c2.09-.97 3.553-3.67 3.553-6.716 0-3.946-2.369-7.062-5.226-7.062zm1.185 13.223a.38.38 0 0 0-.21.347v20.007a.95.95 0 0 1-.975.97.95.95 0 0 1-.975-.97V14.638a.38.38 0 0 0-.21-.346c-1.95-.761-3.344-3.253-3.344-6.161 0-3.531 2.02-6.37 4.53-6.37 2.508 0 4.528 2.839 4.528 6.37 0 2.908-1.393 5.469-3.344 6.23zM31.658 36.308c9.755 0 17.698-7.893 17.698-17.585S41.413 1.138 31.658 1.138 13.89 8.962 13.89 18.723c.07 9.692 7.944 17.585 17.768 17.585zm0-34.477c9.407 0 17.001 7.546 17.001 16.892s-7.664 16.892-17 16.892c-9.338 0-17.072-7.546-17.072-16.892.07-9.346 7.665-16.892 17.071-16.892zm0 29.423c6.968 0 12.612-5.608 12.612-12.53 0-6.924-5.644-12.532-12.612-12.532S19.047 11.8 19.047 18.723c0 6.923 5.643 12.53 12.611 12.53zm0-24.37c6.55 0 11.915 5.331 11.915 11.84 0 6.507-5.365 11.837-11.915 11.837-6.55 0-11.915-5.33-11.915-11.838 0-6.577 5.296-11.838 11.915-11.838z" stroke-width=".75" stroke-miterlimit="10"/>
    </g>
</symbol><symbol id="icon-plate" viewBox="0 0 52 17">
    <g clip-rule="evenodd">
        <path fill-rule="evenodd" d="M37.442.965l-3.77 3.751-.037.036H1.45a.89.89 0 0 0-.892.887v4.048c0 3.835 3.137 6.957 6.996 6.957H27.9c3.858 0 6.996-3.122 6.996-6.957V6.006l.037-.036 3.473-3.455.037-.036H50.28a.89.89 0 0 0 .892-.887.89.89 0 0 0-.892-.887H38.073a.89.89 0 0 0-.63.26zM2.343 6.526h30.769v3.161c0 2.859-2.339 5.184-5.212 5.184H7.555c-2.873 0-5.212-2.325-5.212-5.184V6.526z"/>
        <path d="M37.442.965l-3.77 3.751-.037.036H1.45a.89.89 0 0 0-.892.887v4.048c0 3.835 3.137 6.957 6.996 6.957H27.9c3.858 0 6.996-3.122 6.996-6.957V6.006l.037-.036 3.473-3.455.037-.036H50.28a.89.89 0 0 0 .892-.887.89.89 0 0 0-.892-.887H38.073a.89.89 0 0 0-.63.26zM2.343 6.526h30.769v3.161c0 2.859-2.339 5.184-5.212 5.184H7.555c-2.873 0-5.212-2.325-5.212-5.184V6.526z" stroke-width=".25" stroke-miterlimit="8"/>
    </g>
</symbol><symbol id="icon-salate" viewBox="0 0 42 39">
    <path fill-rule="evenodd" clip-rule="evenodd" d="M14.336 18.2h24.986c-.556 6.603-5.306 12.38-12.17 14.624a1.306 1.306 0 0 0-.902 1.236v2.34h-10.5v-2.34c0-.562-.365-1.062-.9-1.236C7.984 30.58 3.234 24.803 2.68 18.2h3.775c.072.006.143.006.215 0h7.666zm15.85-2.6l2.1-1.559c.58-.432.696-1.246.263-1.82a1.317 1.317 0 0 0-1.838-.26l-3.148 2.338v-2.6c0-.719-.588-1.3-1.313-1.3s-1.313.582-1.313 1.3v2.6l-3.15-2.34a1.32 1.32 0 0 0-1.836.26 1.291 1.291 0 0 0 .262 1.82l2.1 1.56h-5.86A5.183 5.183 0 0 1 15.75 13c0-2.87 2.355-5.201 5.25-5.201.412 0 .8-.192 1.05-.518 2.012-2.648 6.387-2.648 8.403 0A1.31 1.31 0 0 0 31.5 7.8c2.895 0 5.25 2.332 5.25 5.201 0 .914-.246 1.816-.703 2.6h-5.861zm-17.061-3.14V2.733c-2.438.495-4.43 2.342-5.035 4.743l5.035 4.986zM14.438 0C10.6 0 7.213 2.389 5.877 5.8h-.024c-.268-.093-.684.141-.934.388-2.543 2.546-2.96 6.427-1.24 9.412H1.312C.589 15.6 0 16.182 0 16.9c0 7.957 5.236 15.114 13.125 18.077v2.722c0 .719.588 1.301 1.313 1.301h13.124c.725 0 1.313-.582 1.313-1.3v-2.723C36.765 32.014 42 24.86 42 16.9c0-.718-.588-1.3-1.313-1.3h-1.765c.297-.83.453-1.713.453-2.6 0-4.088-3.19-7.45-7.232-7.773A7.845 7.845 0 0 0 26.25 2.6c-2.28 0-4.395.949-5.893 2.627A7.884 7.884 0 0 0 15.75 7.19v-5.89C15.75.582 15.162 0 14.437 0zM7.02 15.6a3.867 3.867 0 0 1-.233-.211A5.225 5.225 0 0 1 5.98 9.06l6.597 6.539H7.02z"/>
</symbol><symbol id="icon-telegram" viewBox="0 0 25 25">
    <path d="M12.5 25C5.597 25 0 19.403 0 12.5S5.597 0 12.5 0 25 5.597 25 12.5 19.403 25 12.5 25zm0-24.148C6.08.852.852 6.08.852 12.5S6.08 24.148 12.5 24.148 24.148 18.92 24.148 12.5C24.148 6.08 18.92.852 12.5.852zm-.142 18.835c-.597 0-1.108-.369-1.279-.937l-.965-3.068c-.057-.142-.17-.284-.313-.313l-3.068-.966c-.54-.17-.91-.625-.938-1.193-.028-.568.256-1.08.768-1.307l9.971-4.744c.597-.284 1.364-.057 1.705.511.255.398.284.853.085 1.279l-4.745 9.972a1.314 1.314 0 0 1-1.221.767zm4.744-11.79c-.085 0-.142.03-.227.058L6.932 12.67c-.284.142-.284.397-.284.482 0 .086.057.341.34.426l3.069.966c.426.143.739.455.88.881l.966 3.068c.086.256.284.341.483.341a.519.519 0 0 0 .455-.284l4.744-9.971c.114-.228.029-.398-.028-.455-.142-.142-.284-.227-.455-.227z"/>
</symbol></svg>