<svg width="25" height="25" viewBox="0 0 25 25" fill="none" xmlns="http://www.w3.org/2000/svg">
<path d="M12.5 25C5.59659 25 0 19.4034 0 12.5C0 5.59659 5.59659 0 12.5 0C19.4034 0 25 5.59659 25 12.5C25 19.4034 19.4034 25 12.5 25ZM12.5 0.852273C6.07955 0.852273 0.852273 6.07955 0.852273 12.5C0.852273 18.9205 6.07955 24.1477 12.5 24.1477C18.9205 24.1477 24.1477 18.9205 24.1477 12.5C24.1477 6.07955 18.9205 0.852273 12.5 0.852273ZM12.358 19.6875C11.7614 19.6875 11.25 19.3182 11.0795 18.75L10.1136 15.6818C10.0568 15.5398 9.94318 15.3977 9.80114 15.3693L6.73295 14.4034C6.19318 14.233 5.82386 13.7784 5.79545 13.2102C5.76705 12.642 6.05114 12.1307 6.5625 11.9034L16.5341 7.15909C17.1307 6.875 17.8977 7.10227 18.2386 7.67045C18.4943 8.06818 18.5227 8.52273 18.3239 8.94886L13.5795 18.9205C13.3523 19.4034 12.8977 19.6875 12.358 19.6875ZM17.1023 7.89773C17.017 7.89773 16.9602 7.92614 16.875 7.95455L6.93182 12.6705C6.64773 12.8125 6.64773 13.0682 6.64773 13.1534C6.64773 13.2386 6.70455 13.4943 6.98864 13.5795L10.0568 14.5455C10.483 14.6875 10.7955 15 10.9375 15.4261L11.9034 18.4943C11.9886 18.75 12.1875 18.8352 12.3864 18.8352C12.4716 18.8352 12.6989 18.8068 12.8409 18.5511L17.5852 8.57955C17.6989 8.35227 17.6136 8.18182 17.5568 8.125C17.4148 7.98295 17.2727 7.89773 17.1023 7.89773Z" fill="white"/>
</svg>
