<svg width="50" height="51" viewBox="0 0 50 51" version="1.1" xmlns="http://www.w3.org/2000/svg" xmlns:xlink="http://www.w3.org/1999/xlink">
<g id="Canvas" fill="none">
<g id="VK">
<g id="Combined Shape">
<path fill-rule="evenodd" clip-rule="evenodd" d="M 25 0C 11.1934 0 0 11.2578 0 25.1426C 0 39.0293 11.1934 50.2852 25 50.2852C 38.8066 50.2852 50 39.0293 50 25.1426C 50 11.2578 38.8066 0 25 0ZM 27.0352 33.0801C 26.7891 33.3398 26.3066 33.3926 26.3066 33.3926L 24.7129 33.3926C 24.7129 33.3926 21.1973 33.6016 18.0996 30.4199C 14.7207 26.9473 11.7383 20.0566 11.7383 20.0566C 11.7383 20.0566 11.5664 19.6055 11.752 19.3867C 11.9629 19.1406 12.5352 19.125 12.5352 19.125L 16.3457 19.1016C 16.3457 19.1016 16.7031 19.1602 16.9609 19.3457C 17.1738 19.5 17.293 19.7871 17.293 19.7871C 17.293 19.7871 17.9082 21.3242 18.7227 22.7148C 20.3145 25.4316 21.0566 26.0254 21.5957 25.7344C 22.3848 25.3105 22.1484 21.8945 22.1484 21.8945C 22.1484 21.8945 22.1621 20.6562 21.752 20.1035C 21.4336 19.6777 20.834 19.5527 20.5684 19.5176C 20.3535 19.4883 20.7051 18.9961 21.1621 18.7773C 21.8477 18.4453 23.0586 18.4258 24.4883 18.4414C 25.6035 18.4531 25.9258 18.5215 26.3613 18.625C 27.3711 18.8652 27.3398 19.6367 27.2715 21.3047C 27.252 21.8027 27.2285 22.3789 27.2285 23.0469L 27.2188 23.5234C 27.1953 24.377 27.168 25.3535 27.7383 25.7168C 28.0293 25.9023 28.7441 25.7441 30.5293 22.752C 31.375 21.332 32.0098 19.666 32.0098 19.666C 32.0098 19.666 32.1484 19.3672 32.3633 19.2402C 32.584 19.1094 32.8828 19.1504 32.8828 19.1504L 36.8906 19.125C 36.8906 19.125 38.0957 18.9824 38.291 19.5215C 38.4961 20.084 37.8398 21.4004 36.2031 23.5547C 34.6484 25.5996 33.8926 26.3535 33.9629 27.0195C 34.0137 27.5059 34.5039 27.9473 35.4473 28.8105C 37.4121 30.6094 37.9414 31.5586 38.0703 31.7891L 38.0957 31.834C 38.9785 33.2793 37.1152 33.3926 37.1152 33.3926L 33.5527 33.4414C 33.5527 33.4414 32.7891 33.5918 31.7832 32.9102C 31.2559 32.5527 30.7402 31.9688 30.25 31.4141C 29.5 30.5645 28.8066 29.7812 28.2148 29.9668C 27.2227 30.2773 27.252 32.3887 27.252 32.3887C 27.252 32.3887 27.2598 32.8398 27.0352 33.0801Z" fill="#F37032"/>
</g>
</g>
</g>
</svg>

