<svg width="32" height="38" viewBox="0 0 32 38" version="1.1" xmlns="http://www.w3.org/2000/svg" xmlns:xlink="http://www.w3.org/1999/xlink">
<g id="Canvas" fill="none">
<g id="noun_647855_cc">
<g id="Group">
<g id="Vector">
<path d="M 8.75714 0.107086C 6.14622 1.69549 3.46486 3.2017 0.871429 4.80382C 0.506848 5.07143 0.388654 5.63779 0.614286 6.03599L 2.41429 9.25415C 2.65475 9.67663 3.24705 9.83552 3.65714 9.58757L 11.4571 4.94878C 11.8791 4.70781 12.044 4.08727 11.8 3.65864L 10 0.440476C 9.59309 -0.0281193 9.25165 -0.0765699 8.75714 0.107086ZM 22.0714 0.440476L 20.2714 3.65864C 20.0176 4.077 20.1757 4.69068 20.6 4.9343L 28.4143 9.58757C 28.8283 9.82044 29.4152 9.66299 29.6571 9.25415L 31.4571 6.03599C 31.7086 5.61421 31.5433 4.99912 31.1143 4.76032C 28.4899 3.19238 25.8461 1.6309 23.2286 0.0635842C 22.7434 -0.13346 22.372 0.16556 22.0714 0.440476ZM 8.87143 2.18003L 9.77143 3.8036L 3.54286 7.51459L 2.64286 5.89103L 8.87143 2.18003ZM 23.2 2.18003L 29.4286 5.90554L 28.5286 7.51459L 22.2857 3.8036L 23.2 2.18003ZM 16 5.52865C 7.17269 5.52865 0 12.8259 0 21.7788C 0 30.7318 7.17269 38 16 38C 24.8273 38 32 30.7318 32 21.7788C 32 12.8259 24.8273 5.52865 16 5.52865ZM 16 7.39862C 23.8389 7.39862 30.1857 13.8284 30.1857 21.7788C 30.1857 29.7292 23.8389 36.1445 16 36.1445C 8.16112 36.1445 1.82857 29.7292 1.82857 21.7788C 1.82857 13.8284 8.16112 7.39862 16 7.39862ZM 15.5429 9.23964L 15.5429 11.0952L 16.4571 11.0952L 16.4571 9.23964L 15.5429 9.23964ZM 10.2286 10.6893L 9.42857 11.1531L 10.3429 12.7622L 11.1429 12.2983L 10.2286 10.6893ZM 21.7714 10.6893L 20.8571 12.2983L 21.6571 12.7622L 22.5714 11.1531L 21.7714 10.6893ZM 12.2 13.429L 10.6286 14.3568L 15.1429 22.2427C 15.3795 22.6629 15.9702 22.8283 16.3857 22.5906L 21.4714 19.6334L 20.5571 18.0243L 16.2571 20.5176L 12.2 13.429ZM 5.54286 15.1106L 5.08571 15.9079L 6.67143 16.8356L 7.12857 16.0383L 5.54286 15.1106ZM 26.4571 15.1106L 24.8714 16.0383L 25.3286 16.8356L 26.9143 15.9079L 26.4571 15.1106ZM 3.65714 21.3004L 3.65714 22.2282L 5.48571 22.2282L 5.48571 21.3004L 3.65714 21.3004ZM 26.5143 21.3004L 26.5143 22.2282L 28.3429 22.2282L 28.3429 21.3004L 26.5143 21.3004ZM 6.67143 26.7075L 5.08571 27.6353L 5.54286 28.4325L 7.12857 27.5048L 6.67143 26.7075ZM 25.3286 26.7075L 24.8714 27.5048L 26.4571 28.4325L 26.9143 27.6353L 25.3286 26.7075ZM 10.3429 30.7809L 9.42857 32.39L 10.2286 32.8539L 11.1429 31.2448L 10.3429 30.7809ZM 21.6571 30.7809L 20.8571 31.2448L 21.7714 32.8539L 22.5714 32.39L 21.6571 30.7809ZM 15.5429 32.4335L 15.5429 34.289L 16.4571 34.289L 16.4571 32.4335L 15.5429 32.4335Z" fill="#333333"/>
</g>
</g>
</g>
</g>
</svg>

