<svg width="819" height="232" viewBox="0 0 819 232" fill="none" xmlns="http://www.w3.org/2000/svg">
<g opacity="0.1">
<path d="M1 -49L59.8584 91.2118H141.159" stroke="white"/>
<path d="M82.3008 -49L141.159 91.2118" stroke="white"/>
<path d="M200.441 -49L141.583 91.2118" stroke="white"/>
<path d="M119.564 -49L178.423 91.2118H259.724" stroke="white"/>
<path d="M200.865 -49L259.724 91.2118" stroke="white"/>
<path d="M319.006 -49L260.148 91.2118" stroke="white"/>
<path d="M237.281 -49L296.14 91.2118H377.44" stroke="white"/>
<path d="M318.582 -49L377.44 91.2118" stroke="white"/>
<path d="M436.723 -49L377.864 91.2118" stroke="white"/>
<path d="M355.846 -49L414.704 91.2118H496.005" stroke="white"/>
<path d="M437.146 -49L496.005 91.2118" stroke="white"/>
<path d="M555.287 -49L496.429 91.2118" stroke="white"/>
<path d="M473.561 -49L532.419 91.2118H613.72" stroke="white"/>
<path d="M554.861 -49L613.72 91.2118" stroke="white"/>
<path d="M673.002 -49L614.144 91.2118" stroke="white"/>
<path d="M592.125 -49L650.983 91.2118H732.284" stroke="white"/>
<path d="M673.426 -49L732.284 91.2118" stroke="white"/>
<path d="M791.566 -49L732.708 91.2118" stroke="white"/>
<path d="M59.4355 90.7881L118.294 231H199.595" stroke="white"/>
<path d="M140.736 90.7881L199.595 231" stroke="white"/>
<path d="M258.877 90.7881L200.019 231" stroke="white"/>
<path d="M178 90.7881L236.858 231H318.159" stroke="white"/>
<path d="M259.301 90.7881L318.159 231" stroke="white"/>
<path d="M377.441 90.7881L318.583 231" stroke="white"/>
<path d="M295.715 90.7881L354.573 231H435.874" stroke="white"/>
<path d="M377.016 90.7881L435.874 231" stroke="white"/>
<path d="M495.156 90.7881L436.298 231" stroke="white"/>
<path d="M414.279 90.7881L473.138 231H554.438" stroke="white"/>
<path d="M495.58 90.7881L554.438 231" stroke="white"/>
<path d="M613.721 90.7881L554.862 231" stroke="white"/>
<path d="M531.996 90.7881L590.854 231H672.155" stroke="white"/>
<path d="M613.297 90.7881L672.155 231" stroke="white"/>
<path d="M731.438 90.7881L672.579 231" stroke="white"/>
<path d="M650.561 90.7881L709.419 231H790.72" stroke="white"/>
<path d="M731.861 90.7881L790.72 231" stroke="white"/>
<path d="M850.002 90.7881L791.144 231" stroke="white"/>
</g>
</svg>
